<?xml version="1.0" encoding="UTF-8"?><svg xmlns="http://www.w3.org/2000/svg" viewBox="0 0 312.63 486.67"><defs><style>.d{fill:#6a0c11;}.e{fill:#fccb98;}.f{fill:#975724;}.g{fill:#231f20;}.h{fill:#ec2024;}</style></defs><g id="a"><path class="g" d="M290.55,396.34c-1.03-5.8-3.03-11.13-7.43-15.32-1.54-1.47-3.01-3.02-4.38-4.65-2.24-2.68-3.11-5.66-2.2-9.21,1.02-4.01,1.2-8.14,.63-12.25-1.26-9.09-5.29-16.74-12.2-22.79-2.23-1.95-4.7-3.63-7.13-5.49,1.38-1.67,1.04-3.55,0-5.3-.86-1.48-1.85-2.91-3-4.18-4.49-4.98-9.83-8.99-15.28-12.83-6.72-4.73-13.27-9.74-21.02-12.84-2.88-1.15-5.59-2.74-8.35-4.18-1.21-.63-2.44-1.54-2.31-3,.81-8.96,4.58-40.58,4.49-42.64-.03-.62-.02-1.24,0-1.87-11.95-4.5-24.06-8.53-36.28-12.26-8.92-2.72-17.88-5.29-26.9-7.66-1.63-.43-1.95,3.1-2.45,5.33-.25,1.13-.61,2.3-1.19,3.29-2.72,4.71-9.36,25.42-11.34,30.46-.34,.87-.77,1.8-1.41,2.45-.82,.84-3.68,.83-4.76,1.21-1.38,.48-2.92,.66-4.39,.65-5.35-.05-8.84,1-14.02,2.33-5.04,1.29-9.99,3.01-14.92,4.72-5.43,1.89-10.91,3.49-16.7,3.64-5.63,.15-11.05,1.23-16.1,3.7-11.22,5.47-17.71,14.67-20.51,26.65-.76,3.24-1.25,6.55-2.08,9.78-1.18,4.57-4.04,8.27-6.83,11.93-8.73,11.44-12.83,24.44-13.14,38.71-.08,3.89,.07,7.8,.3,11.68,.17,2.88,.64,5.74,1,8.61,.26,2.09,.54,4.17,.83,6.36-.94-.25-1.76-.48-2.58-.68-5.67-1.43-9.15,.11-11.7,5.32-.91,1.85-1.72,3.78-2.32,5.76C1.5,412.89,.29,424.34,.03,435.92c-.09,3.74,.05,7.5,.27,11.24,.23,3.73,.51,7.48,1.11,11.17,.96,5.84,4.19,9.96,9.88,12.05,7.93,2.92,15.96,3.19,24.1,1.07,4.15-1.08,7.97-2.87,10.51-6.49,1.95-2.77,3.75-5.66,5.39-8.62,5.59-10.06,9.42-20.86,13.23-31.67,.62-1.76,1.24-3.52,1.97-5.61,.25,.79,.4,1.2,.51,1.62,1.78,6.43,2.16,12.98,1.74,19.62-.29,4.43-.46,8.86-.7,13.29-.24,4.42-.66,8.84-.72,13.27-.04,2.91,1.07,5.62,3.61,7.23,2.22,1.42,4.63,2.66,7.11,3.53,15.99,5.57,32.52,8.36,49.41,9,4.28,.16,8.59-.04,12.88-.26,5.24-.26,10.46-.73,15.69-1.06,6.32-.39,12.66-.59,18.96-1.14,6.2-.54,12.36-1.43,18.55-2.15,4.16-.48,6.64-2.88,7.96-6.74,1.72-5,2.28-10.21,2.7-15.42,.4-4.96,.53-9.94,.89-14.91,.15-2.01,.31-4.1,.95-5.99,3.11-9.1,4.99-18.5,6.95-27.88,.48-2.29,1.18-4.54,1.78-6.82,2.18,4.33,4.1,8.57,6.38,12.61,4.54,8.05,10.43,14.93,18.46,19.73,10.32,6.18,21.28,7.87,32.89,4.31,7.27-2.23,12.5-6.63,14.66-14.12,.86-2.98,1.51-6.02,2.16-9.06,1.5-7.05,2.53-14.15,1.24-21.37Z"/><path class="h" d="M140.79,288.42c1.48,.47,24.08,7.9,27.48,8.52,5.79,1.06,12.68,1.98,14.96,1.6,4.75-.79,9.14-2.54,13.47-4.49,2.11-.95,4.06-2.24,6.18-3.17,3.66-1.61,7.23-.65,10.73,.73,5.28,2.08,9.75,5.48,14.23,8.84,4.21,3.15,8.47,6.24,12.52,9.59,3.91,3.24,7.59,6.76,11.34,10.19,.41,.38,.64,.95,.99,1.49-5.34,5.17-10.57,10.24-16.06,15.55,0-2.1,.07-3.93-.02-5.75-.11-2.33-.73-4.5-2.6-6.09-.38-.33-.84-.57-1.19-.81,0,2.8-.02,5.49,0,8.18,.06,9.28-1.9,18.13-5.55,26.63-2.37,5.52-5.57,10.51-9.39,15.15-3.76,4.58-7.96,8.62-12.96,11.82-4.47,2.86-9.35,4.62-14.6,5.52-7.23,1.23-14.02-.21-20.58-3.04-4.62-1.99-9.1-4.27-13.68-6.34-2.25-1.02-4.58-1.88-6.95-2.84-.56,2.19,.81,3.1,2.07,4,3.43,2.46,7.28,4.09,11.22,5.46,4.68,1.63,9.39,3.24,14.15,4.6,3.75,1.07,7.61,1.23,11.56,.89,5.79-.49,11.1-2.34,16.31-4.69,1.9-.85,3.79-1.73,5.84-2.67-.21,2.8-.35,5.49-.63,8.15-.26,2.39-.69,4.76-1.04,7.13-.46,3.04-.85,6.09-1.39,9.11-.83,4.59-1.7,9.17-2.7,13.72-1.24,5.72-2.73,11.39-3.91,17.12-.79,3.83-1.5,7.72-1.74,11.61-.35,5.78-.19,11.58-.39,17.37-.05,1.37-.48,2.81-1.07,4.05-.93,1.96-3.04,2.25-4.86,2.58-5.19,.94-10.42,1.62-15.72,1.73-4.97,.1-8.74-1.71-11.27-6.03-2.74-4.68-5.58-9.3-8.19-14.05-2.51-4.57-4.88-9.22-7.12-13.93-4.72-9.95-9.4-19.92-13.04-30.33-2.95-8.45-6.02-16.87-8.96-25.33-.94-2.72-1.77-5.49-2.35-8.3-.48-2.32-.17-4.77,2.61-6.52,3.71-2.34,6.73-5.37,8.56-9.39,2.57-5.62,2.46-11.34,.09-17.01-1.14-2.74-2.64-5.34-4.87-7.3-2.16-1.9-4.59-3.52-7.04-5.05-2.41-1.5-5-2.72-7.5-4.09-1.64-.91-2.23-2.34-2.35-4.21-.22-3.34-.69-6.67-1.02-10-.22-2.23-.35-4.47-.58-6.7-.33-3.29-.72-6.57-1.05-9.86-.21-2.09-.37-4.19-.58-6.29-.34-3.47-.73-6.94-1.06-10.41-.21-2.18-.36-4.38-.57-6.56-.24-2.4-.48-4.8-.8-7.19-.14-1.11,.59-2.94,1.76-3.56,.97-.51,2.04-1.08,3.09-1.12,3.72-.14,7.47-.19,11.18,.03,1.21,.07,2.7,.8,3.49,1.72"/><path class="h" d="M89.89,275.34c-.18,2.52-.35,4.88-.51,7.25-.02,.22-.05,.45-.05,.67-.09,8.24-.32,16.48-.22,24.72,.06,4.7,.63,9.39,1.04,14.08,.41,4.81,.97,9.61,1.34,14.43,.28,3.59-.77,6.97-2.08,10.26-1.55,3.9-2.66,7.9-2.24,12.14,.32,3.16,1.59,5.98,3.45,8.55,1.99,2.73,4.77,4.56,7.39,6.57,3.55,2.73,5.73,6.32,6.55,10.68,1.62,8.61,4.13,16.97,7.1,25.2,2.48,6.88,5.08,13.72,7.7,20.55,3.32,8.65,6.68,17.29,10.09,25.9,2.67,6.76,6.26,13.06,9.79,19.4,.83,1.49,1.29,3.2,1.78,4.84,.42,1.39-.97,2.67-2.5,2.51-2.09-.22-4.18-.4-6.28-.52-3.96-.22-7.92-.27-11.87-.59-4.19-.33-8.37-.76-12.52-1.36-5.37-.78-10.72-1.69-16.05-2.7-4.13-.78-8.3-1.55-12.32-2.77-6.13-1.85-8.88-5.87-8.93-12.41-.04-5.47,.15-10.95,.25-16.42,.07-3.93,.09-7.87,.29-11.79,.35-7.04-1.03-13.77-3.42-20.34-1.53-4.21-3.05-8.42-4.53-12.64-1.74-4.97-2.87-10.08-3.23-15.35-.21-3-.59-6.02-.5-9.01,.21-7.51,1.75-14.75,5.23-21.48,.5-.97,1.14-1.88,1.67-2.75,1.52,1.42,2.94,2.85,4.48,4.11,.48,.4,1.52,.7,1.96,.45,.88-.5,1.06-1.54,.56-2.49-.96-1.84-1.88-3.73-3.02-5.46-2.39-3.62-3.8-7.64-4.62-11.83-.72-3.67-.99-7.42-1.41-11.14-.17-1.52-.31-3.05-.26-4.57,.22-7.18,1.63-14.11,4.3-20.81,2.09-5.25,4.77-10.16,8.27-14.56,3.31-4.16,7.11-7.85,11.76-10.55,.46-.27,.94-.48,1.55-.78Z"/><path class="e" d="M248.55,373.94c2.93-.51,5.88-.88,8.77-1.56,6.34-1.5,11.96-.37,17.01,3.88,3.79,3.2,6.9,6.9,9.14,11.29,1.59,3.13,2.67,6.5,3.01,10.02,.3,3.13,.59,6.28,.51,9.41-.08,3.02-.53,6.05-1.06,9.03-.58,3.27-1.16,6.58-2.23,9.7-2.53,7.37-7.81,11.8-15.4,13.56-6.68,1.54-13.08,.7-19.35-1.89-6.94-2.87-12.67-7.38-17.62-12.9-4.02-4.49-7.43-9.46-10.14-14.85-2.45-4.89-4.45-9.97-4.97-15.51-.36-3.81-.9-7.71,.65-11.29,1.11-2.56,2.77-5,4.6-7.12,4.56-5.28,8.34-10.94,10.59-17.61,1.53-4.53,3.12-9.08,5.17-13.39,1.38-2.89,3.43-5.53,5.53-7.98,1.87-2.19,4.15-4.05,6.38-5.89,2.72-2.25,5.95-2.25,9.13,.02,4.24,3.03,7.65,6.88,10.33,11.35,2.7,4.49,4.61,9.29,5.74,14.42,.83,3.76,.62,7.34-1.43,10.69-1.42,2.32-3.73,3.25-6.23,3.27-2.9,.02-5.79-.49-8.69-.71-2.77-.2-7.94,.48-9.53,3.56l.12,.51Z"/><path class="e" d="M80.26,279.47c-3.66,5.1-7.38,9.99-10.78,15.09-2.79,4.19-4.9,8.76-5.75,13.81-.36,2.15-.72,4.29-1.08,6.44-.5,2.9-2.15,5.07-4.47,6.71-1.38,.97-2.32,2.18-2.95,3.92,1.88-.56,3.62-1.08,5.5-1.64,0,2.03,0,3.97,0,5.92-.02,5.03,.72,9.96,1.77,14.87,.55,2.57,.19,5.19-.97,7.6-1.76,3.64-3.43,7.32-4.17,11.33-.24,1.31-.53,2.63-.6,3.95-.12,2.5-.1,5-.13,7.5,0,.45,0,.91,.02,1.36,.27,4.85,.38,9.71,.87,14.54,.37,3.62,.09,7.04-1.77,10.18-1.16,1.96-3,2.57-5.2,1.75-1.74-.65-3.5-1.37-5.04-2.37-2.82-1.84-5.97-2.64-9.17-3.37-2.95-.67-5.88-1.39-8.47-3.03-3.01-1.91-4.56-4.82-4.96-8.21-.63-5.42-.97-10.88-1.4-16.33-.36-4.57-.08-9.12,.82-13.61,.77-3.82,1.56-7.66,2.74-11.36,1.84-5.75,4.61-11.08,8.33-15.86,2.12-2.71,4.47-5.24,6.54-7.99,1.8-2.39,2.53-5.25,2.79-8.21,.53-6.05,1.29-12.02,4.32-17.48,2.62-4.73,6.11-8.52,10.78-11.28,4.26-2.52,8.84-3.82,13.73-4.34,2.92-.31,5.8-.36,8.7,.1Z"/><path class="d" d="M105.65,378.87c3.99,1.6,7.93,1.68,11.94,.64,.73-.19,1.47-.34,2.22-.43,1.24-.14,2.15,.47,2.54,1.57,.94,2.67,1.77,5.37,2.64,8.06,2.02,6.19,3.96,12.42,6.1,18.57,1.54,4.44,3.3,8.8,5.08,13.15,1.63,3.99,3.28,7.97,5.14,11.85,4.91,10.2,9.99,20.32,14.93,30.51,2.83,5.85,5.51,11.76,8.26,17.65,.13,.27,.2,.56,.4,1.12-4.03,.34-7.89,.76-11.77,.98-4.41,.25-7.56-1.71-9.52-5.72-2.88-5.88-6.04-11.63-8.74-17.6-3.48-7.68-6.64-15.5-9.89-23.28-2.75-6.59-5.47-13.2-8.15-19.82-4.1-10.12-7.54-20.47-10.06-31.1-.47-1.98-.74-4-1.13-6.17Z"/><path class="d" d="M35.13,453.1c-6.71-.25-13.3-.99-19.64-3.21-3.48-1.22-6.73-2.85-9.29-5.63-1.79-1.94-2.8-4.19-2.94-6.82-.11-2.02-.39-4.06-.23-6.06,.34-4.43,.44-8.92,2.28-13.09,1.15-2.59,3.35-3.64,5.99-3.78,3.91-.21,7.8,.12,11.68,.75,2.2,.36,4.47,.31,6.69,.61,3.39,.46,6.77,.99,10.14,1.63,3.89,.74,7.68,1.87,11.16,3.81,2.96,1.65,5.74,3.58,6.49,7.17,.28,1.35,.39,2.94-.07,4.19-1.21,3.28-2.65,6.49-4.23,9.62-.99,1.97-2.36,3.76-3.62,5.58-1.74,2.51-4.27,3.89-7.19,4.43-2.37,.43-4.8,.55-7.2,.8Z"/><path class="d" d="M107.14,269.51c.51,4.67,1.04,9.29,1.5,13.92,.33,3.3,.52,6.61,.84,9.91,.41,4.13,.92,8.26,1.33,12.39,.32,3.21,.52,6.43,.84,9.64,.41,4.13,.89,8.26,1.34,12.39,.11,.98,.17,1.96,.29,2.94,.15,1.22-.7,1.76-1.58,2.05-2.73,.9-5.47,1.8-8.27,2.45-2.07,.48-4.23,.62-6.35,.85-2.63,.29-3.68-1.53-3.89-3.77-.35-3.63-.26-7.31-.34-10.97-.1-4.61-.17-9.22-.28-13.83-.07-3.25-.18-6.5-.27-9.75-.09-3.57-.18-7.13-.28-10.7-.08-2.93-.14-5.87-.28-8.79-.09-1.84,.85-3.01,2.23-4.02,2.49-1.84,5.39-2.66,8.28-3.51,1.64-.48,3.31-.82,4.89-1.2Z"/><path class="d" d="M116.19,377.35c-6.46-.24-12.45-1.87-17.7-5.66-4.66-3.36-7.8-7.88-8.84-13.57-1-5.46,.19-10.44,4.07-14.64,4.03-4.36,9.06-6.64,14.81-7.74,5.38-1.03,10.5-.49,15.35,1.97,4.3,2.17,7.5,5.51,9.93,9.68,1.98,3.4,3.29,7.05,3.57,10.9,.16,2.21-.44,4.61-1.22,6.74-2.48,6.81-7.81,10.24-14.66,11.61-1.75,.35-3.53,.49-5.3,.72Zm-13.72-25.56h-.2c.13,1.35,.27,2.69,.38,4.03,.11,1.34,.08,2.71,.31,4.02,.35,1.96,.78,3.91,1.36,5.81,.78,2.58,3.34,4.27,5.86,4.18,4.21-.15,7.99-1.57,11.55-3.7,2.66-1.59,4.88-3.76,5.62-6.75,1.33-5.4-.39-9.45-4.85-12.65-4.32-3.09-9.27-4.19-14.56-3.02-2.72,.6-4.92,1.95-5.45,4.96-.18,1.01-.03,2.07-.03,3.11Z"/><path class="d" d="M7.34,406.94c.15-4.42,1.7-8.4,4.75-11.76,.91-1.01,1.94-1.2,3.36-.89,7.58,1.67,15.11,3.54,22.36,6.33,4.26,1.63,8.42,3.52,12.55,5.46,2.77,1.3,5.45,2.8,8.09,4.33,2.47,1.44,4.46,3.47,4.09,6.52-.24,1.95-1.18,3.88-2.13,5.64-.76,1.41-2.66,1.49-4.25,.56-6.4-3.75-13.27-6.39-20.41-8.32-3.72-1.01-7.5-1.87-11.31-2.41-3.46-.49-6.99-.43-10.5-.63-1.16-.07-2.33-.11-3.48-.29-2.04-.32-3.14-1.92-3.14-4.53Z"/><path class="d" d="M5.16,453.22c0-3.72,.81-4.54,3.34-3.85,3.15,.86,6.2,2.08,9.34,3.01,3.31,.98,6.64,1.89,10,2.65,2.03,.46,4.14,.73,6.21,.78,1.62,.04,3.25-.48,4.89-.59,1.37-.09,2.8-.15,4.11,.16,1.79,.42,2.61,2.13,1.86,3.83-1.96,4.46-5.27,7.57-10.07,8.6-2.86,.61-5.85,.65-8.79,.87-3.9,.3-7.68-.39-11.38-1.53-4.46-1.37-6.9-4.66-8.13-8.98-.56-1.95-1.08-3.91-1.37-4.95Z"/><path class="h" d="M111.75,345.58c4.75,.24,8.84,1.74,11.15,6.24,1.49,2.9,1.13,5.81-.56,8.58-2.14,3.5-5,5.96-9.15,6.76-2.71,.52-5.22-.64-6.12-3.4-.79-2.43-1.18-4.99-1.68-7.5-.25-1.26-.4-2.55-.53-3.84-.4-3.88,1.45-6.4,5.53-6.82,.45-.05,.91,0,1.36,0Z"/><path class="e" d="M210.03,238.92l-3.49-1.3c-10.05-3.64-20.21-6.95-30.45-10.08-8.18-2.5-16.41-4.86-24.68-7.06l-1.39,3.67-1.86,3.97-.03-.02c-.37,.64-.81,1.26-1.11,1.93-2.14,4.72-8.9,25.14-11.01,29.88l-.08,.17h0c-.18,.4-.36,.8-.53,1.2-1.03,2.32-1.25,4.8-.73,7.24,.72,3.42,4.28,8.13,6.01,10.28,.55,.68,1,1.43,1.43,2.19,5.32,9.27,36.94,14.91,38.62,14.76,1.86-.17,3.77-.25,5.56-.74,3.67-.99,7.33-2.07,10.88-3.41,2.47-.93,4.54-2.59,6.13-4.82,2.35-3.29,3.14-7.05,3.33-10.94,.15-2.96,3.67-33.76,3.38-36.92Z"/></g><g id="b"><g><path d="M163.72,289.84c1.85-1.09,3.51-1.99,5.47-1.66,3.52,.6,6.53-.53,9.34-2.31,4.6-2.91,8.28-6.85,11.67-11.07,3.41-4.25,6.79-8.51,10.27-12.7,1.44-1.74,3.08-3.33,4.63-4.98l.45,.33c.29,3.16,.66,6.31,.86,9.47,.15,2.36,.3,4.74,.29,7.11,1,.38,7.98,1.99,9.81,2.22,5.11,.64,9.83-.78,11.42-6.28,.87-3.01,1.36-6.14,1.88-9.24,.84-5.02,1.51-10.07,2.33-15.1,1.11-6.8,2.34-13.58,3.4-20.39,.82-5.24,2.61-9.91,6.83-13.43,1.2-1,2.28-2.24,3.16-3.54,4.48-6.6,8.24-13.6,10.91-21.13,1.75-4.91,2.92-10,1.97-15.28-.56-3.11-2.05-5.81-5.23-6.68-2.67-.72-3.94-2.3-4.25-4.76-.59-4.64-2.78-8.5-5.34-12.28-2.27-3.36-4.5-6.79-6.38-10.38-1.77-3.38-1.31-4.45,1.92-6.42,2.5-1.53,4.09-3.64,4.61-6.54,.41-2.35,.72-4.72,1.26-7.04,1.41-6.04,3.78-11.75,6.49-17.31,7.14-14.7,16.12-28.18,26.8-40.54,6.23-7.21,12.75-14.16,20.13-20.23,4.69-3.85,9.47-7.57,14.22-11.35v-2.18c-2.32-6.35-7.47-10.08-12.8-13.54-6.75-4.39-13.84-8.21-21.5-10.79-2.44-.82-5.09-1.04-7.64-1.55-.19-.04-.36-.18-.54-.27h-.27c-.27,.09-.55,.28-.82,.26-3.74-.2-7.09,1.05-10.37,2.64-11,5.34-20.43,12.87-29.28,21.17-7.75,7.26-14.88,15.13-21.81,23.17-7.2,8.34-14.18,16.85-19.84,26.35-5.3,8.9-9.26,18.25-9.83,28.77-.31,5.69,.35,11.3,1.1,16.9,.52,3.87,.04,7.53-2.2,10.75-1.6,2.3-3.33,4.54-5.28,6.54-4.37,4.47-8.17,9.33-11.06,14.88-2.04,3.92-4.22,7.8-4.75,12.3-.49,4.19-.91,8.39-1.37,12.7-1.22-.17-1.41,.9-1.56,1.97-.58,4.04-2.31,7.53-4.88,10.69-2.49,3.05-4.87,6.2-7.17,9.41-3.9,5.46-7.29,11.19-9.36,17.65-1.81,5.64-.78,10.25,4.03,13.98,1.84,1.42,3.37,3.25,5,4.94,1.2,1.24,2.06,4.86,2.14,5.13,.67,1.09-.33,11-1.03,14.65-.88,4.57-1.02,9.13-.05,13.73,.58,2.78,.91,5.63,1.2,8.46,.06,.63-.36,4.24-.64,5.34,.01,.37,.03,.74,.05,1.12,.72-.55,5.04-2.49,6.57-3.08,.17,1.95-6.01,12.27-7.23,14.63,2.85-.36,11.51-1.23,14.3-1.8"/><path class="d" d="M309.99,26.83c-3.18,.78-5.74,2.33-7.91,4.55-1.19,1.22-2.38,2.43-3.61,3.6-3.17,3.02-6.39,5.99-9.54,9.03-2.51,2.43-4.94,4.94-7.43,7.4-5.37,5.3-10.28,11-14.37,17.35-3.54,5.49-7.06,11.01-10.27,16.69-3.57,6.31-6.82,12.81-10.16,19.25-2.37,4.57-3.71,9.46-4.66,14.51-.4,2.15-1.2,4.28-2.16,6.25-1.42,2.94-4.24,4.06-7.64,3.31-5.12-1.13-9.9-3.1-14.31-5.94-2.06-1.33-3.29-3.25-3.05-5.72,.43-4.48,.92-8.97,1.62-13.42,.75-4.73,1.62-9.46,2.75-14.12,1.21-5.04,2.7-10.01,4.21-14.97,2.38-7.82,5.25-15.48,8.94-22.77,3.17-6.26,6.49-12.46,10.07-18.5,2.62-4.43,5.63-8.65,8.71-12.77,2.83-3.79,5.94-7.38,9.02-10.99,1.3-1.53,2.76-2.94,4.27-4.28,3.14-2.79,6.82-3.04,10.63-1.83,8.84,2.81,16.98,7.06,24.45,12.52,3.76,2.75,7.13,5.98,9.86,9.81,.2,.28,.34,.61,.58,1.04Z"/><path class="h" d="M258.8,7.15c-2.17,3.01-4.28,5.81-6.26,8.7-3.7,5.39-7.58,10.67-10.91,16.28-4.12,6.91-7.99,14-11.55,21.21-4.7,9.52-8.5,19.43-11.13,29.74-1.34,5.24-2.67,10.49-3.74,15.79-.66,3.27-.78,6.65-1.17,9.98-.5,4.28-1,8.58-2.82,12.56-1.39,3.03-3.93,4.49-7.11,4.94-1.37,.2-2.78,.18-4.16,.29-3.35,.27-6.48-.56-9.46-1.97-2.94-1.39-5.73-1.47-8.55,.59-.3-1.8-.63-3.49-.84-5.19-.7-5.46-.98-10.94-.83-16.45,.16-5.76,1.39-11.28,3.56-16.62,2.55-6.26,5.94-12.04,9.81-17.54,3.46-4.91,7.05-9.74,10.77-14.46,3.69-4.67,7.53-9.23,11.49-13.66,3.67-4.11,7.39-8.2,11.44-11.93,4.43-4.08,9.17-7.86,13.94-11.54,4.29-3.31,8.8-6.35,13.25-9.46,1.19-.83,2.51-1.56,4.28-1.28Z"/><path class="f" d="M177.67,264.58c-2.64,2.16-4.34,4.77-5.85,7.53-1.86,3.39-3.65,6.83-5.67,10.13-2.7,4.4-6.92,6.53-11.91,7.24-2.68,.38-5.38,.66-8.33,1.01,4.95-9.79,11-18.34,18.33-26.15-.94,.46-1.98,.79-2.8,1.41-3.44,2.62-6.84,5.3-10.22,8-2.22,1.78-4.4,3.62-6.94,5.71-.38-3.06-.76-5.77-1.03-8.49-.18-1.79-.43-3.62-.25-5.39,.55-5.46,1.06-10.94,2.02-16.33,.93-5.23,2.41-10.36,3.61-15.54,.42-1.81,.69-3.66,1.15-5.46,.15-.58,.61-1.16,1.09-1.55,1.37-1.11,2.28-.93,3.22,.53,2.14,3.3,4.55,4.39,8.25,3.65,.32-.06,.57-.47,.86-.7,1.09-.88,1.92-.69,2.55,.51,.92,1.74,1.9,3.46,2.94,5.35,3.05-4.08,5.97-7.93,8.83-11.83,1.76-2.4,3.36-4.92,5.2-7.26,1.11-1.41,2.39-1.43,3.77-.37,2.2,1.7,3.3,5.05,2.9,7.91-.71,5.17-3.35,9.51-5.67,14-.34,.67-.67,1.35-1.1,2.22,4.06-1.1,7.75-.34,11.24,1.37,3.82,1.87,6.4,4.82,7.34,9.09,.44,1.98-.5,3.56-1.46,5.01-3.06,4.59-6.32,9.04-9.42,13.6-2.82,4.14-6.03,7.94-9.74,11.29-2.03,1.84-4.15,3.63-6.94,4.36-1.46,.38-2.81,.36-3.88-.69-1.08-1.06-1.38-2.54-.61-3.83,1.23-2.1,2.63-4.11,4.1-6.05,1.77-2.33,3.87-4.44,4.65-7.39,.25-.95,.41-1.88-.22-2.93Z"/><path class="h" d="M196.25,129.5c26.08-4.21,45.78,14.6,48.83,33.41-1.32-.08-2.61-.15-3.89-.23-.45-.03-.9-.09-1.34-.09-4.04,0-8.08-.09-12.12,.03-2.41,.07-4.86,.19-7.19,.73-4.1,.95-6.91,3.57-8.12,7.65-1.35,4.54-2.47,9.15-3.84,13.69-1.33,4.42-2.64,8.89-5.45,12.67-.8,1.08-1.81,2.06-2.9,2.83-2.09,1.48-4.11,.83-6.51-1.14-1.76-1.44-2.59-3.81-1.78-5.77,.93-2.24,2.06-4.42,3.26-6.53,2.63-4.64,5.42-9.19,8.05-13.83,1.6-2.82,3.28-5.62,4.46-8.62,2.03-5.2,1.3-10.41-.73-15.5-1.96-4.9-4.81-9.31-7.57-13.77-.84-1.36-1.71-2.71-2.53-4.08-.26-.44-.42-.94-.64-1.45Z"/><path class="e" d="M200.34,164.24c2.23,3.14,1.76,6.42,.3,9.45-1.66,3.47-3.71,6.76-5.78,10.01-.98,1.55-2.41,2.55-4.88,1.79-1.92-.59-3.81-.98-5.73,.38-1.56,1.11-2.17,2.53-2.33,4.27-.14,1.48-.47,1.97-1.99,1.82-2.34-.24-4.68-.59-6.97-1.11-1.16-.26-2.15-1.01-2.27-2.46-.15-1.68-.19-3.42-.65-5.02-.65-2.28-1.61-4.49-2.51-6.7-1.07-2.63-2.39-5.17-3.28-7.85-1.23-3.67-.48-7.31,.87-10.83,1.36-3.56,3.3-6.81,5.69-9.75,2.18-2.68,4.41-5.37,6.93-7.71,4.43-4.12,8.69-3.63,12.34,1.09,2.54,3.29,3.86,7.18,5.43,10.95,.19,.45,.35,.9,.57,1.48-.39,0-.73,.05-1.04,0-5.45-.97-10.83-1.25-15.8,1.84-.81,.51-1.62,1.11-2.22,1.85-.94,1.17-.33,2.33,1.21,2.36,.88,.02,1.83-.03,2.65-.31,2.51-.87,4.71-.08,6.82,1.13,2.27,1.3,4.43,2.81,6.72,4.08,2.47,1.36,3.69,1.14,5.91-.76Z"/><path class="e" d="M218.13,172.18c-.05,3.2,1.55,4.84,3.94,5.95,3.42,1.59,5.57,4.59,8.05,7.24,1.34,1.43,2.77,2.8,4.34,3.96,1.33,.98,2.32,.29,2.46-1.39,.28-3.27-.78-6.17-2.46-8.87-1.2-1.92-2.48-3.79-3.8-5.79,3.61-.79,7.13-1.45,10.7-.57,2.75,.68,4.17,2.74,4.52,5.37,.99,7.47-.06,14.71-3.02,21.63-1.77,4.12-5.14,6.12-9.53,6.76-2.66,.39-5.33,.97-7.88,1.82-3.06,1.02-5,3.48-6.53,6.2-1.42,2.51-2.73,5.09-4.2,7.87-.65-1.48-1.29-2.75-1.78-4.08-1-2.69-2.03-5.39-2.85-8.14-.6-2-.65-4.11,.83-5.81,.78-.9,1.83-1.55,2.78-2.3,2.32-1.82,2-5.38-.62-6.81-1.25-.69-2.49-1.39-3.75-2.05-.79-.41-1.05-.89-.72-1.81,1.14-3.21,2.25-6.44,3.25-9.69,.81-2.64,1.62-5.29,3.5-7.39,.69-.77,1.68-1.28,2.8-2.09Z"/><path class="f" d="M204.88,200.7c2.56,2.15,3.44,5.06,3.97,8.06,.83,4.73,1.45,9.5,2.22,14.24,.3,1.85,.92,3.76,2.99,4.18,1.38,.29,2.91-.02,4.35-.23,1.57-.23,3.11-.67,4.66-1.02l.2,.36c-1.4,1.01-2.71,2.22-4.24,2.98-1.88,.93-3.91,1.85-5.95,2.1-2.05,.24-4.14-.71-5.26-2.59-1.79-3.01-3.21-6.24-4.98-9.26-1.68-2.87-3.38-5.79-5.52-8.31-2.76-3.25-6.55-5.05-10.8-5.57-3.38-.41-6.79-.5-10.17-.87-2.61-.29-5.2-.73-7.78-1.2-3.96-.73-6.56-3.3-8.3-6.71-1.75-3.43-3.36-6.95-4.83-10.52-.77-1.86-1.33-3.9-.14-6.14,.58,.74,1.09,1.36,1.56,2.02,2.14,3.03,4.12,6.19,6.94,8.68,2.07,1.83,4.42,3.02,7.23,2.99,3.7-.04,7.4-.2,11.11-.24,.92,0,1.88,.15,2.76,.41,3.36,.98,3.97,2.5,4.63,6.37,.2,1.18,.24,2.44,.7,3.51,1.25,2.9,3.25,3.55,6.14,2.82,2.36-.6,4.36-1.97,6.12-3.65,.82-.78,1.58-1.6,2.38-2.41Z"/><path class="d" d="M204.37,165.56c-1.31-3.1-2.64-6.19-3.93-9.29-2.15-5.2-4.64-10.22-8.13-14.66-1.53-1.94-3.24-3.8-5.58-4.92-3.07-1.46-5.93-.97-8.56,.94-4.52,3.29-7.66,7.82-10.67,12.42-2.22,3.4-3.85,7.08-4.95,11.01-1.42,5.07-.63,9.83,1.35,14.58,1.31,3.14,2.54,6.34,3.4,9.62,.47,1.8,.08,3.82,.08,6.01-1.38-.9-1.94-2.04-2.35-3.23-.79-2.26-1.26-4.66-2.32-6.78-1.04-2.08-2.62-3.91-4.02-5.8-1.71-2.3-2.09-4.78-1.67-7.59,.89-5.93,2.98-11.41,5.79-16.66,2.42-4.53,5.31-8.75,8.65-12.65,2.69-3.14,5.36-6.3,8.24-9.25,1.23-1.26,2.9-2.19,4.52-2.97,2.92-1.41,5.45-.28,7.69,1.71,3.06,2.71,4.97,6.29,7.13,9.67,2.66,4.16,5.21,8.39,6.9,13.06,1.41,3.91,1.98,7.88,.45,11.89-.4,1.05-1.07,2-1.61,2.99l-.43-.13Z"/><path class="h" d="M225.36,268.23c-2.11-2.29-4.1-4.25-5.85-6.41-2.04-2.52-3.95-5.15-5.74-7.85-2.31-3.47-1.59-7.02,.34-10.34,1.94-3.34,4.03-6.59,6.23-9.76,2.01-2.89,4.32-5.56,6.35-8.43,.86-1.21,1.34-2.7,2.04-4.03,.62-1.17,1.18-2.4,1.99-3.43,1.2-1.53,2.93-1.86,4.88-1.71-1.29,6.4-2.61,12.65-3.78,18.92-.85,4.54-1.54,9.11-2.24,13.68-.86,5.62-1.19,11.33-3.02,16.77-.28,.82-.73,1.59-1.2,2.59Z"/><path class="d" d="M216.31,224.85c2.11-3.74,3.65-7.77,6.68-10.9,1.85-1.91,4.21-2.75,6.76-3.18,2.24-.38,4.53-.55,6.69-1.18,3.13-.91,5.39-3.1,7.08-5.83,2.14-3.46,3.29-7.29,3.71-11.29,.5-4.77,.86-9.56,1.06-14.35,.07-1.6-.42-3.26-.87-4.82-.78-2.72-3.01-3.78-5.52-3.84-2.86-.07-5.74,.28-8.6,.53-2.22,.19-4.43,.59-6.65,.74-1.82,.12-3.65,.05-5.47,.02-1.69-.03-2.83-.97-3.46-2.47-.41-.99-.22-1.95,.94-2.27,1.49-.41,3.01-.85,4.54-.95,4.32-.28,8.64-.44,12.96-.58,5.64-.18,11.24-.02,16.37,2.76,2.32,1.26,3.52,3.35,3.72,5.98,.38,5.03-1.5,9.54-3.34,14.04-1.67,4.06-3.4,8.1-5.09,12.16-1.48,3.56-3.32,6.92-5.94,9.77-2.28,2.47-5.22,4.02-8.36,5.12-3.84,1.34-6.81,3.7-9.24,6.97-1.83,2.46-4.01,4.11-7.98,3.58Z"/><path class="h" d="M133.94,218.48c4.94-11.88,12.1-22.46,19.23-33.06l.46-.06c.99,2.81,2.18,5.57,2.91,8.44,1.55,6.07,1.19,12.15-.67,18.13-.72,2.32-1.53,4.62-2.35,6.92-.45,1.26-1.53,1.79-2.7,1.44-5.42-1.61-10.96-1.73-16.54-1.62-.07,0-.15-.07-.34-.18Z"/><path class="e" d="M199.19,221.42c1.84,3,3.57,5.84,5.33,8.66,.28,.45,.64,.9,1.06,1.21,2.63,1.95,1.83,4.47,.64,6.73-1.64,3.11-4.65,3.71-7.76,3.2-2.82-.46-5.58-1.36-8.31-2.25-1.35-.44-1.73-1.65-1.46-3.13,.73-4.05,2.45-7.71,4.77-11.04,1.36-1.94,3.58-2.85,5.73-3.39Z"/><path class="e" d="M183.15,214.26c-5.05,5.57-9.97,11-14.9,16.44-1.89-2.94-2.54-6.03-2.42-9.32,.11-3.11,.15-6.23,.3-9.34,.06-1.15,.29-2.3,.55-3.42,.39-1.63,1.47-2.51,3.21-2.41,1.45,.09,2.88,.46,4.31,.76,1.65,.35,2.52,1.45,2.51,3.08-.01,1.99,1.2,2.74,2.83,3.19,1.14,.31,2.27,.63,3.62,1.01Z"/><path class="d" d="M165.11,209.14c-.3,5.19-.54,10.39-.93,15.57-.19,2.49-1.69,3.65-4.14,3.51-2.15-.12-3.59-1.79-3.76-4.13-.3-4.26,.93-8.22,2.3-12.14,.81-2.3,1.72-4.56,2.66-6.82,.11-.26,.71-.55,.99-.48,1.75,.45,3.38,1.71,2.87,4.49Z"/><path class="d" d="M212.27,254.78c4.06,5.13,7.93,9.86,10.97,15.38-1.58,.76-2.95,1.75-4.45,2.02-1.15,.2-2.46-.48-3.69-.82-1.71-.47-3.4-1-5.1-1.48-.67-.19-.98-.57-.86-1.26,.51-2.88,.97-5.77,1.57-8.63,.35-1.63,.95-3.21,1.56-5.21Z"/><path class="d" d="M144.72,234.77c-2.51-2.98-4.92-5.86-7.34-8.72-.81-.96-1.67-1.89-2.52-2.81-.92-.99-.82-1.43,.36-2.17,1.88-1.18,3.98-.94,5.92-.68,2.66,.35,5.26,1.2,7.88,1.86,.28,.07,.53,.3,.84,.48l-5.13,12.04Z"/><path class="e" d="M181,206.69c3.56,.12,6.89,1.23,10.19,2.45,2.16,.8,4.12,1.92,5.51,3.79,1.1,1.48,2.06,3.07,1.28,5.05-.4,1.02-1.19,1.58-2.21,1.06-1.77-.9-3.63-1.76-5.13-3.03-1.94-1.65-4.25-2.36-6.48-3.34-1.57-.7-3.11-1.49-4.66-2.24-1.11-.54-1.76-1.49-1.5-2.65,.3-1.32,1.56-1.08,2.58-1.09,.14,0,.27,0,.41,0Z"/><path class="d" d="M217.38,233.71c-2.84,6.71-6.65,12.74-10.65,18.87-1.7-1.76-3.93-3.09-3.8-5.88,.04-.85,.47-1.81,1.01-2.48,2.21-2.71,4.44-5.41,6.85-7.93,1.69-1.77,3.83-2.88,6.6-2.58Z"/><path class="d" d="M212.99,126.09c.9-.27,1.79-.74,2.7-.79,5.75-.31,10.57,2.05,14.89,5.54,1.57,1.27,2.77,2.95,2.12,5.39-6.2-4.02-12.69-7.33-19.68-9.62l-.03-.52Z"/><path class="f" d="M197.18,163.31c-4.61-3.16-9.5-5.3-14.99-5.95l-.06-.49c1.3-.37,2.6-1.03,3.9-1.05,2.63-.03,5.29,.12,7.88,.54,1.84,.3,3.32,1.39,3.9,3.41,.36,1.27-.06,2.29-.64,3.53Z"/><path class="f" d="M220.33,174.5c.26-.51,.41-.95,.67-1.3,1.3-1.68,2.78-1.78,5.1,.22,2.74,2.37,4.67,5.38,6.56,8.42,.25,.41,.49,.82,.52,1.49-4.26-2.93-8.53-5.87-12.85-8.84Z"/><path class="e" d="M208.9,195.8c1.85,0,3.7,1.15,3.86,2.76,.09,.91-.41,2.09-1.03,2.82-.54,.63-1.59,.64-2.39-.12-.61-.58-1.3-1.09-1.96-1.61-.81-.64-1.27-1.41-.85-2.45,.45-1.09,1.32-1.52,2.37-1.4Z"/><path class="e" d="M187.68,192.54c-1.91-.01-3.33-1.19-3.32-2.74,0-1.55,1.46-2.73,3.35-2.72,1.79,.02,2.93,1.03,2.93,2.6,0,1.77-1.14,2.86-2.95,2.85Z"/><path class="h" d="M161.95,187c-1.88-2.68-3.8-5.33-5.61-8.05-.25-.38,.01-1.09,.26-1.69,3.49,1.86,5.4,4.75,6.48,8.25,.11,.37-.32,.91-.49,1.36l-.63,.13Z"/><path d="M194.93,175.63c0,.95,.16,1.93-.03,2.84-.61,2.86-2.49,3.78-5.63,3.06-4.67-1.07-8.86-3.17-12.64-5.99-1.89-1.41-2.59-3.78-2.85-6.12-.12-1.09,.81-1.54,1.83-.81,.93,.66,1.38,.34,2.13-.29,1.84-1.54,3.72-3.07,5.76-4.31,2.18-1.32,4.54-1.29,6.89-.07,1.7,.88,2.6,2.39,3.13,4.01,.8,2.47,.34,1.12,.94,3.65-.15,.03,.62,3.99,.47,4.03Zm-16.44-4.62c.58,.47,1.01,.85,1.47,1.19,2.82,2.14,5.58,4.39,9.18,5.17,1.55,.33,2.96-.45,3.1-1.99,.12-1.31,.2-2.67-.02-3.95-.57-3.42-2.63-4.76-5.28-4.44-3.15,.37-5.8,2.03-8.45,4.02Z"/><path d="M221.22,181.75c4.98-.09,8.59,3.62,9.69,8.3,.42,1.81,.68,3.61,.11,5.5-.2,.66,.43,1.63,.83,2.37,.4,.73,1.23,1.28,1.46,2.03,.51,1.7-.78,2.92-2.82,3.22-4.03,.59-7.52-.73-10.46-3.25-2.37-2.03-4.59-4.32-6.47-6.81-3.11-4.14-1.27-8.96,3.87-10.63,1.21-.39,2.52-.5,3.78-.74Zm7.4,11.84c-.16-1.08-.19-1.94-.43-2.75-1.41-4.78-5.18-7.44-10.3-5.25-1.71,.73-2.86,2.42-1.24,4.55,2.63,3.47,6.39,5.27,10.21,6.97,.22,.1,.93-.34,1.04-.65,.35-.99,.52-2.04,.72-2.88Z"/></g></g><g id="c"><g><path class="g" d="M295.06,439.33c-1.21-1.58-1.99-3.4-1.99-5.44,0-2.89,.09-5.79,.1-8.68,0-3.3-1.13-6.14-3.51-8.46-3.58-3.49-7.77-5.88-12.74-6.57-3.78-.53-6.65-2.2-8.51-5.55-.24-.43-.54-.82-.79-1.24-4.43-7.53-9.35-14.72-16.06-20.4-5.77-4.87-11.81-9.43-17.82-14.02-2.19-1.68-3.57-3.7-4.02-6.42-.6-3.58-1.72-7.01-4.1-9.8-2.45-2.86-2.7-6.08-2.17-9.54,.4-2.6,.52-5.16-.44-7.7-.76-2.01-2.15-3.1-4.28-3.27-.65-.05-1.3-.16-2.04-.25,.36-1.15,.63-2.09,.95-3.02,.32-.93,.66-1.85,1.04-2.75,3.93-9.35,10.42-16.82,17.74-23.61,3.23-3,6.87-5.55,10.2-8.45,5.65-4.92,4.22-12.75-2.77-15.46-1.13-.44-2.33-.69-3.5-1.04h-3.83c-3.18,.96-6.45,1.69-9.52,2.92-5.51,2.2-9.52,5.99-11.21,11.87-.73,2.53-2.4,4.18-4.67,5.39-2.29,1.22-4.61,2.44-6.75,3.9-6.7,4.61-9.2,11.24-8.68,19.13,.16,2.42,.71,4.81,1.12,7.39-1.62-.94-3.15-1.8-4.65-2.71-3.24-1.97-6.48-2.47-9.77-.12-.2,.14-.43,.24-.65,.35-3.11,1.63-4.28,1.61-6.64-.93-2.77-2.98-5.91-5.22-9.75-6.6-3.46-1.25-5.53-4.12-7.46-7.06-1.92-2.92-3.81-5.87-6.81-7.84-5.25-3.45-10.86-5.3-16.96-2.62-4.89,2.15-8.28,5.86-9.7,11.16v2.65c.58,2.22,1.81,3.79,4.22,4.11,1.8,.24,3.6,.5,5.4,.6,5.84,.34,10.17,2.91,12.63,8.35,.3,.67,.7,1.3,.98,1.97,1.43,3.45,3.69,6.18,6.81,8.28,1.57,1.06,3.08,2.31,4.33,3.73,2.51,2.87,2.98,6.52,3.36,10.15,.24,2.24-.33,4.22-1.91,5.96-.84,.92-1.37,2.14-1.96,3.26-.97,1.85-.73,3.63,.6,5.19,.92,1.08,1.87,2.18,2.98,3.05,1.55,1.21,2.54,2.79,3.06,4.57,1.13,3.86,3.54,6.48,6.99,8.46,3.77,2.16,4.22,3.66,3.32,7.94-.91,4.32-1.04,8.65-.17,13,1.17,5.84,3.38,11.33,5.83,16.71,4.4,9.66,10.11,18.49,17.1,26.48,4.52,5.17,8.97,10.41,13.67,15.42,2.76,2.95,6.11,5.35,10.11,6.33,3.41,.84,6.44,2.28,9.29,4.23,4.76,3.25,9.72,6.07,15.46,7.22,1.23,.25,2.64,.84,3.71,.49,4.94-1.65,9.91-3.33,14.64-5.51,2.99-1.37,5.57-3.62,8.32-5.5,2.24-1.53,4.68-2.27,7.38-1.93,1.35,.17,2.72,.36,4.02,.73,2.52,.7,4.72,.44,6.53-1.64,4.02-4.6,5.6-10.26,6.64-16.04,.7-3.88-.28-7.6-2.75-10.84Z"/><path class="e" d="M227.86,466.06c4.09-2.87,7.93-5.43,11.61-8.18,6.98-5.21,13.63-10.82,19.19-17.58,6.13-7.46,9.64-16.2,12.11-25.43,.14-.51,.29-1.03,.52-1.87,2.73,4.84,2.55,10.59,6.02,14.8,.33-5.13-.85-9.88-3.45-14.55,5.79,1,10.38,3.33,13.11,8.5,2.01,3.8,2.63,7.98,3.26,12.15,.09,.63,.16,1.26,.24,1.97l-3.01,.2-.13,.33c.46,.38,.87,.86,1.39,1.11,4.99,2.4,6.49,6.71,6.37,11.8-.12,5.01-1.59,9.66-4.5,13.78-1.94,2.74-4.14,3.41-7.32,2.38-1.21-.39-2.4-.86-3.58-1.34-2.61-1.07-4.82-.55-6.88,1.37-4.13,3.84-9,6.61-13.91,9.31-6.53,3.58-13.02,3.32-19.26-.58-3.98-2.49-7.74-5.35-11.77-8.17Z"/><path class="d" d="M190.22,430.94c4.89-2.06,9.71-3.87,14.33-6.1,11.96-5.78,22.28-13.58,29.46-25.03,4.16-6.63,6.57-13.88,7.54-21.63,.02-.18,.06-.37,.15-.87,1.86,1.5,3.72,2.73,5.24,4.27,3.66,3.7,7.18,7.53,10.72,11.35,1.98,2.14,2.15,4.59,1.09,7.25-2.34,5.89-5.54,11.28-9.56,16.14-9.31,11.26-20.04,20.92-32.91,27.98-2.81,1.54-5.93,2.54-8.95,3.69-2.04,.78-3.9,.37-5.28-1.41-3.84-4.97-7.65-9.96-11.46-14.95-.17-.22-.26-.51-.35-.7Z"/><path class="e" d="M166.65,371.34c2.91,1.04,5.69,1.64,8.65,1.15,3.31-.54,6.23-1.86,8.4-4.43,1.99-2.36,4.41-3.1,7.35-2.6,.86,.15,1.75,.12,2.78,.52-1.08,.56-2.13,1.2-3.25,1.66-1.67,.69-3.43,1.18-5.1,1.88-3.78,1.58-4.93,4.17-3.66,8.05,1.88,5.76,8.26,9.94,14.23,9.2,1.18-.15,2.31-.76,3.45-1.18,.41-.15,.78-.41,1.17-.61,4.31-2.23,4.29-2.2,7.91,.95,1.25,1.09,2.62,2.06,3.99,3,.46,.32,1.1,.52,1.64,.5,.36-.01,.79-.46,1.02-.82,.07-.11-.36-.69-.68-.86-.68-.37-1.44-.62-2.16-.93-1.88-.81-3.23-2.07-4.02-4.05-1.12-2.79-3.71-3.69-6.41-2.4-.75,.36-1.46,.8-2.17,1.23-4.71,2.86-12.29,1.29-15.62-3.13-1.71-2.28-1.56-6.23,2.23-7.28,2.73-.76,5.38-1.89,8.14-2.47,1.71-.36,3.66-.3,5.36,.13,4.52,1.15,9.09,1.36,13.71,1.49,2.14,.06,4.28,.46,6.38,.89,.68,.14,1.56,.72,1.8,1.32,2.37,6.03,4.15,12.16,.79,18.42-3.58,6.68-9.14,10.66-16.62,12.14-5.94,1.17-11.5,.79-16.19-3.39-4.88-4.35-8.1-9.66-8.71-16.35-.08-.85-.36-1.75-.78-2.48-.48-.82-1.1-.86-1.59,.17-1.24,2.58-1.47,2.74-3.77,.99-2.4-1.83-4.64-3.91-6.76-6.06-1.13-1.14-1.71-2.72-1.51-4.66Z"/><path class="d" d="M206.61,452.05c3.05-1.27,5.93-2.46,8.81-3.68,11.68-4.94,21.34-12.44,29.13-22.5,6.2-8.01,12.35-16,16.57-25.29,.24-.53,.5-1.05,.86-1.78,2.41,3.22,4.43,6.46,5.53,10.18,1.27,4.28,.72,8.43-1.1,12.46-4.11,9.09-9.87,17.04-16.75,24.2-4.6,4.8-9.45,9.34-15.22,12.69-2.82,1.64-5.85,2.96-8.86,4.23-3.22,1.37-6.32,.81-9.25-1.05-3.87-2.45-6.73-5.92-9.71-9.47Z"/><path class="e" d="M224.9,302.99c-1.24-1.32-2.51-2.55-3.65-3.88-2.69-3.16-2.82-6.07-.25-9.31,4.65-5.86,10.92-8.68,18.25-9.04,1.8-.09,3.82,.58,5.44,1.45,3.84,2.06,4.09,6.69,.63,9.36-1.7,1.32-3.73,2.27-5.26,3.75-4.66,4.5-9.15,9.17-13.7,13.78-1.1,1.12-2.15,2.29-3.25,3.42-3.37,3.44-5.83,7.32-6.62,12.2-.31,1.9-1.01,3.79-1.86,5.53-.34,.69-1.57,1.38-2.36,1.35-3.27-.15-6.54-.5-9.79-.92-1.43-.18-2.05-1.44-2.47-2.67-.99-2.93-1.08-5.97-.84-9.02,.13-1.61,.39-3.21,.6-4.82,.63-4.78,3.65-7.96,7.32-10.57,2.55-1.81,5.33-3.29,8-4.94,.93-.57,1.5-.33,2.21,.47,1.13,1.28,2.39,2.49,3.74,3.53,1.12,.86,2.46,1.52,3.86,.34Z"/><path class="e" d="M225.2,371.88c-.68-.48-1.08-.69-1.38-.99-1.25-1.25-2.74-1.84-4.5-1.83-6.05,.04-11.66-1.91-17.27-3.82-4.24-1.44-8.6-1.87-13.02-2.06-2.24-.1-4.18,.6-6.14,1.65-2.4,1.28-4.89,2.65-7.5,3.2-4.78,1.01-9.25-.24-13.09-3.36-1.93-1.56-1.85-2.75,.15-4.2,.48-.34,.96-.69,1.49-.95,2.71-1.34,4.89-3.27,6.54-5.79,2.17-3.34,5.13-5.76,8.64-7.59,1.43-.75,2.8-1.6,4.29-2.46,4.17,4.86,9.82,6.72,15.83,7.54,2.53,.34,5.2,.08,7.76-.27,6.28-.86,11.87,.84,16.97,4.31,3.03,2.06,4.25,5.14,3.51,8.74-.53,2.61-1.44,5.14-2.23,7.89Z"/><path class="e" d="M219.87,350.31c-1.79-.89-3.2-1.67-4.68-2.29-.76-.32-1.9-.75-2.44-.42-1.97,1.18-4.09,.82-6.14,.99-4.2,.35-8.35-.08-12.29-1.58-1.7-.65-3.23-1.78-4.83-2.7-.17-.1-.3-.26-.45-.38-4.31-3.54-5.87-3.55-10.29-.13-.77,.6-1.58,1.17-2.43,1.66-1.68,.98-3.49,1.11-5.21,.23-3.64-1.85-6.52-4.55-8.36-8.21-1.72-3.43-.62-5.9,3.13-6.69,3.83-.8,7.74-1.2,11.61-1.77,1.55-.23,3.14-.31,4.64-.7,3.58-.93,6.81-.25,10.07,1.37,3.05,1.51,6.23,2.88,9.49,3.8,2.46,.69,5.14,.63,7.73,.81,2.4,.17,4.81,.17,7.2,.33,3.07,.2,5.03,2.11,4.8,5.18-.26,3.44-1,6.84-1.57,10.51Z"/><path class="d" d="M180.12,409.67c1.89,1.44,3.51,2.75,5.21,3.96,3.69,2.64,7.79,3.93,12.21,2.57,2.67-.82,5.41-2,7.62-3.68,7.04-5.38,13.28-11.67,18.97-18.45,3.46-4.13,4.44-8.99,2.68-14.23-.02-.05,0-.1-.02-.15-1.63-4.22-.89-7.71,3.28-10.17,.55,.23,1.21,.53,1.89,.77,5.57,1.94,7.79,5.93,6.51,11.76-1.27,5.76-4.17,10.75-7.45,15.54-5.96,8.69-12.82,16.52-21.66,22.43-6.06,4.05-12.72,6.7-19.82,8.27-.4,.09-1.19-.23-1.35-.56-2.6-5.6-5.13-11.23-7.67-16.85-.13-.3-.2-.63-.38-1.22Z"/><path class="e" d="M172.43,328.56c-.95,.05-1.91,.08-2.86,.16-2,.18-4.02,.26-5.98,.64-2.19,.42-3.29,1.76-3.44,4-.12,1.74-.02,3.49-.02,5.4-2.5-1.96-5.01-3.68-7.19-5.74-1.31-1.24-2.17-2.98-3.11-4.58-.79-1.35-1.36-2.82-2.07-4.21-1.72-3.39-4.42-5.52-8.14-6.42-2.47-.6-4.96-1.2-7.33-2.08-3.67-1.35-4.55-3.58-3.14-7.19,2.19-5.58,7.22-7.92,13.63-6.24,5.73,1.51,10.46,4.58,13.42,9.79,2.92,5.13,6.8,9.16,11.81,12.23,1.68,1.03,3.08,2.51,4.61,3.79l-.19,.45Z"/><path class="g" d="M178.52,387.63c.86,2.17,1.48,3.97,2.28,5.69,4.61,9.98,12.26,13.34,22.3,12.86,2.23-.11,4.45-.44,6.95-.7-3.76,3.59-7.81,6.19-12.71,7.33-2.93,.68-5.83,.58-8.7-.38-3.95-1.33-6.48-4.14-8.02-7.89-2.18-5.31-3.02-10.82-2.11-16.9Z"/><path class="e" d="M171.16,348.46c-1.13,3.75-3.35,6.2-6.51,7.66l-1.68-12.17c2.3,1.69,4.62,4.05,8.19,4.51Z"/></g></g></svg>