<?xml version="1.0" encoding="UTF-8"?><svg xmlns="http://www.w3.org/2000/svg" viewBox="0 0 326.61 480"><defs><style>.h{fill:#fff;}.i{fill:#6a0c11;}.j{fill:#fccb98;}.k{fill:#975724;}.l{fill:#231f20;}.m{fill:#ec2024;}</style></defs><g id="a"><g id="b"><path class="l" d="M319.89,356.71c-.45-4.77-1.67-9.36-3.84-13.63-1.57-3.08-2.38-6.19-2.24-9.7,.21-5.43-1.89-10.16-5.29-14.33-.32-.39-.65-.76-1.01-1.1-2.39-2.3-2.95-5.09-2.33-8.25,.3-1.5,.57-3.03,.66-4.55,.16-2.56-.54-5.02-1.18-7.48-1.46-5.56-3.81-10.7-7.3-15.29-4.46-5.85-10.15-10.12-16.81-13.17-2.88-1.32-5.83-2.36-9.02-2.66-2.28-.21-4.56-.52-6.84-.8-1.82-.22-3.27-.91-4.14-2.7-.7-1.43-2.01-2.35-3.42-3.09-2.05-1.07-4.26-1.6-6.52-1.88-2.99-.37-5.99-.67-8.99-.96-4.83-.47-9.65-1.01-14.49-1.32-5.36-.35-10.73-.61-16.1-.67-7.01-.08-14.03,.06-21.05,.15-2.34,.03-4.67,.17-7,.31-3.33,.2-6.65,.45-9.98,.68-3.05,.21-6.1,.43-9.15,.64-3.47,.23-6.93,.52-10.4,.66-2.61,.11-5.14,.54-7.48,1.66-2.95,1.41-5.83,2.97-8.72,4.5-1.83,.97-3.71,1.73-5.8,1.95-1.33,.14-2.65,.34-3.97,.58-2.06,.38-3.68,1.35-4.65,3.36-1.19,2.49-3.42,3.51-6.04,3.82-1.63,.19-3.26,.3-4.88,.56-2.99,.48-5.82,1.52-8.6,2.68-7.47,3.11-13.68,7.78-18.15,14.62-2.25,3.44-3.97,7.12-4.55,11.22-.23,1.63-.25,3.3-.31,4.96-.05,1.34-.57,2.3-1.89,2.74-.66,.22-1.31,.49-1.98,.67-6.22,1.72-11.54,4.91-15.92,9.65-5.88,6.36-8.99,13.99-10.34,22.43-.16,1.02-.42,2.03-.74,3.01-.29,.86-.9,1.27-1.55,1.13-1.42-.3-2.74,0-4.03,.55-4.33,1.85-8.18,4.43-11.41,7.88-3.09,3.3-5.12,7.16-5.94,11.62-.18,.95-.3,1.92-.45,2.88v3.72c.14,1,.25,2.01,.41,3.01,1,5.97,3.44,11.25,7.39,15.85,2.98,3.47,6.24,6.57,10.39,8.64,5.94,2.96,12.25,4.11,18.84,3.98,3.17-.06,6.28-.51,9.34-1.32,6.5-1.72,12.49-4.57,18.18-8.11,4.43-2.76,8.54-5.91,11.89-9.97,2.69-3.26,5.04-6.74,7.09-10.44,1.17-2.11,2.57-4.09,3.89-6.11,.19-.3,.52-.51,.81-.79,.38,1.35,.68,2.61,1.08,3.84,.96,2.97,1.72,6.02,3.18,8.82,2.26,4.35,5.18,8.1,9.37,10.76,1.89,1.2,3.77,2.4,5.63,3.64,1.93,1.29,3.81,2.66,5.24,4.53,1.78,2.33,2.56,5.07,3.09,7.89,.84,4.43,.87,8.94,1.2,13.41,.16,2.23,.25,4.47,.41,6.7,.24,3.51,.54,7.01,.75,10.51,.15,2.61,.23,5.23,.28,7.84,.02,1.27,.51,2.27,1.52,2.97,.87,.6,1.78,1.17,2.74,1.59,4.13,1.8,8.51,2.73,12.93,3.37,4.82,.69,9.66,1.28,14.5,1.7,4.53,.39,9.09,.5,13.64,.74,.57,.03,1.14,.08,1.71,.12h9.72c.09-.03,.18-.08,.28-.08,4.19-.22,8.38-.34,12.56-.67,3-.23,5.99-.64,8.96-1.15,2.63-.44,5.21-1.17,7.83-1.68,7.57-1.47,15.16-2.88,22.74-4.36,1.89-.37,3.78-.85,5.61-1.44,1.34-.43,2.1-1.51,2.12-2.95,0-.81-.12-1.63-.24-2.43-.64-4.18-1.26-8.36-1.94-12.54-1.01-6.21-2.01-12.41-2.52-18.68-.32-3.97-.46-7.93-.23-11.91,.23-4.06,1.29-7.88,3.4-11.35,1.92-3.18,3.96-6.28,5.99-9.4,2.55-3.92,5-7.89,6.78-12.23,.51-1.23,1.07-2.45,1.74-3.6,.59-1.01,1.21-.99,1.88-.03,.52,.75,.96,1.57,1.39,2.37,3.59,6.69,8.91,11.29,16.23,13.47,5.05,1.5,10.13,1.83,15.22,.29,7.13-2.16,11.21-7.65,11.23-15.11,0-2.23-.14-4.47-.35-6.7Z"/></g><g id="c"><g><path d="M191.5,456.89c-.57-.04-1.14-.09-1.71-.12-4.55-.24-9.1-.34-13.64-.74-4.85-.42-9.69-1.01-14.5-1.7-4.42-.64-8.8-1.57-12.93-3.37-.96-.42-1.87-.99-2.74-1.59-1.01-.7-1.5-1.7-1.52-2.97-.05-2.62-.13-5.23-.28-7.84-.21-3.51-.51-7.01-.75-10.51-.15-2.23-.25-4.47-.41-6.7-.33-4.48-.36-8.98-1.2-13.41-.53-2.82-1.31-5.56-3.09-7.89-1.43-1.87-3.31-3.24-5.24-4.53-1.86-1.24-3.75-2.44-5.63-3.64-4.19-2.66-7.11-6.41-9.37-10.76-1.46-2.8-2.21-5.84-3.18-8.82-.4-1.23-.7-2.48-1.08-3.84-.29,.28-.62,.49-.81,.79-1.32,2.02-2.72,4-3.89,6.11-2.05,3.7-4.4,7.18-7.09,10.44-3.35,4.06-7.45,7.21-11.89,9.97-5.68,3.54-11.68,6.39-18.18,8.11-3.06,.81-6.17,1.26-9.34,1.32-6.59,.13-12.9-1.03-18.84-3.98-4.14-2.06-7.41-5.16-10.39-8.64-3.95-4.6-6.39-9.89-7.39-15.85-.17-1-.28-2-.41-3.01,0-1.24,0-2.48,0-3.72,.15-.96,.27-1.92,.45-2.88,.83-4.46,2.86-8.32,5.94-11.62,3.23-3.45,7.07-6.02,11.41-7.88,1.28-.55,2.61-.86,4.03-.55,.65,.14,1.26-.27,1.55-1.13,.33-.98,.58-1.99,.74-3.01,1.35-8.45,4.46-16.08,10.34-22.43,4.38-4.74,9.7-7.93,15.92-9.65,.67-.19,1.32-.45,1.98-.67,1.32-.44,1.84-1.4,1.89-2.74,.06-1.65,.08-3.32,.31-4.96,.59-4.1,2.3-7.78,4.55-11.22,4.47-6.83,10.68-11.51,18.15-14.62,2.78-1.16,5.61-2.19,8.6-2.68,1.61-.26,3.25-.37,4.88-.56,2.62-.31,4.85-1.33,6.04-3.82,.96-2.01,2.58-2.97,4.65-3.36,1.31-.24,2.64-.44,3.97-.58,2.09-.21,3.97-.97,5.8-1.95,2.89-1.54,5.77-3.09,8.72-4.5,2.34-1.12,4.87-1.55,7.48-1.66,3.47-.14,6.94-.43,10.4-.66,3.05-.21,6.1-.43,9.15-.64,3.33-.23,6.65-.48,9.98-.68,2.33-.14,4.67-.28,7-.31,7.02-.09,14.03-.23,21.05-.15,5.37,.06,10.74,.32,16.1,.67,4.84,.32,9.66,.86,14.49,1.32,3,.29,6,.59,8.99,.96,2.26,.28,4.48,.81,6.52,1.88,1.41,.74,2.72,1.66,3.42,3.09,.87,1.79,2.32,2.48,4.14,2.7,2.28,.28,4.55,.58,6.84,.8,3.19,.3,6.14,1.34,9.02,2.66,6.66,3.05,12.35,7.33,16.81,13.17,3.5,4.59,5.85,9.73,7.3,15.29,.64,2.45,1.34,4.91,1.18,7.48-.09,1.53-.36,3.05-.66,4.55-.62,3.16-.06,5.95,2.33,8.25,.36,.35,.7,.72,1.01,1.1,3.41,4.17,5.51,8.9,5.29,14.33-.14,3.51,.67,6.62,2.24,9.7,2.17,4.27,3.39,8.86,3.84,13.63,.21,2.22,.36,4.46,.35,6.7-.02,7.45-4.1,12.94-11.23,15.11-5.09,1.55-10.17,1.22-15.22-.29-7.32-2.18-12.64-6.78-16.23-13.47-.43-.81-.87-1.62-1.39-2.37-.66-.96-1.29-.98-1.88,.03-.67,1.15-1.23,2.37-1.74,3.6-1.78,4.35-4.24,8.31-6.78,12.23-2.02,3.11-4.06,6.22-5.99,9.4-2.11,3.48-3.17,7.29-3.4,11.35-.22,3.98-.09,7.95,.23,11.91,.51,6.27,1.52,12.48,2.52,18.68,.68,4.18,1.31,8.36,1.94,12.54,.12,.81,.25,1.62,.24,2.43-.02,1.45-.78,2.52-2.12,2.95-1.84,.59-3.72,1.06-5.61,1.44-7.57,1.48-15.16,2.89-22.74,4.36-2.62,.51-5.2,1.24-7.83,1.68-2.97,.5-5.96,.91-8.96,1.15-4.18,.33-8.37,.45-12.56,.67-.09,0-.18,.05-.28,.08h-9.72Zm57.3-108.72c.31-.4,.48-.74,.75-.95,.91-.71,1.77-1.54,2.79-2.03,1.68-.81,3.44-1.49,5.23-2.04,3.43-1.07,6.44-2.75,8.89-5.42,2.75-2.99,4.9-6.39,6.92-9.9,2.35-4.1,3.34-8.51,3.33-13.19-.01-4.26-.7-8.42-1.74-12.54-1.51-5.95-3.74-11.65-6.17-17.27-1.89-4.39-3.98-8.71-5.95-13.06-1.16-2.57-2.29-5.14-3.9-7.47-1.07-1.56-2.47-2.7-4.22-3.42-2.16-.89-4.44-1.28-6.75-1.52-1.99-.2-3.98-.33-5.97-.52-3.18-.3-6.36-.65-9.54-.91-3.46-.29-6.93-.53-10.4-.75-3.85-.25-7.69-.51-11.54-.64-3.63-.12-7.27-.09-10.91-.08-2.2,0-4.4,.02-6.59,.16-5.4,.35-10.8,.75-16.19,1.16-5.48,.42-10.95,.87-16.42,1.35-1.05,.09-2.09,.32-3.11,.59-.95,.25-1.03,.49-.63,1.38,.15,.33,.3,.66,.48,.96,2.25,3.75,4.55,7.47,6.76,11.24,2.8,4.76,5.86,9.38,8.21,14.41,.21,.45,.5,.86,.74,1.3,.98,1.71,2.46,2.69,4.38,3.02,1.57,.27,3.18,.41,4.72,.8,4.56,1.16,8.57,3.41,11.95,6.67,5.55,5.35,8.32,11.78,7.17,19.59-.37,2.51-1.04,4.91-2.69,6.95-.64,.79-1.15,1.68-1.72,2.53-.34,.51-.42,1.06-.14,1.59,.43,.83,.87,1.66,1.4,2.43,1.01,1.46,2.21,2.8,3.12,4.32,1.68,2.81,3.3,5.66,4.78,8.57,2.24,4.43,4.44,8.88,6.04,13.61,.5,1.47,1.15,2.88,1.79,4.29,.38,.84,1.12,1.31,2.05,1.35,.9,.04,1.8,.02,2.69-.04,1.33-.1,2.67-.42,3.99-.37,2.23,.08,4.46,.3,6.68,.61,4.25,.6,8.39,1.73,12.5,2.96,.19,.06,.38,.14,.57,.21v.18c-.31,.06-.61,.19-.91,.17-1.34-.07-2.68-.09-4-.28-5.07-.74-10.13-1.59-15.21-2.29-1.65-.23-3.34-.19-5.01-.17-.93,.01-1.29,.45-1.26,1.39,.03,.85,.12,1.71,.3,2.55,.72,3.36,1.92,6.58,3.12,9.79,1.12,3.01,2.47,5.95,3.36,9.02,2.01,6.87,3.87,13.78,5.65,20.7,1.37,5.33,2.58,10.7,3.77,16.07,1.06,4.81,1.94,9.66,3,14.47,.6,2.72,1.41,5.4,2.62,7.93,.59,1.22,1.48,1.77,2.85,1.74,2.53-.06,5.01-.46,7.46-1.02,3.54-.8,7.04-1.74,10.56-2.62,.38-.1,.65-.29,.77-.73,.52-1.98,.63-3.99,.27-6-.86-4.75-1.76-9.49-2.65-14.23-.97-5.2-2-10.38-2.49-15.66-.4-4.35-.58-8.69,.03-13.03,.5-3.56,1.62-6.89,3.69-9.88,2.58-3.71,5.13-7.43,7.59-11.21,3.26-4.99,5.78-10.33,7.14-16.18,.73-3.16,1.13-6.36,1.3-9.6,.17-3.35,.43-6.7,.08-10.05-.14-1.29-.33-2.58-1.08-3.7-.45-.68-.8-.77-1.51-.38-.38,.21-.77,.44-1.08,.74-1.25,1.18-2.45,2.4-3.69,3.59-1.15,1.1-2.21,2.37-3.52,3.23-3,1.99-6.26,3.52-9.69,4.64-1.5,.49-3.03,.86-4.81,.88Zm-127.2-8.08c-.73,1.02-1.61,2.07-2.28,3.23-1.88,3.26-2.64,6.87-3.05,10.56-.39,3.58-.36,7.18-.03,10.77,.43,4.67,1.49,9.17,3.4,13.45,2.74,6.14,6.81,11.16,12.6,14.69,1.65,1.01,3.36,1.93,5,2.96,2.36,1.48,4.25,3.37,5.17,6.08,.67,1.98,1.03,4.02,1.21,6.09,.19,2.15,.35,4.3,.5,6.45,.28,3.88,.52,7.77,.83,11.65,.22,2.75,.5,5.49,.78,8.23,.2,2,.47,4,.63,6.01,.11,1.41,.08,2.83,.15,4.25,.05,1.1,.43,2.1,1.29,2.81,.78,.64,1.61,1.26,2.5,1.73,2.02,1.07,4.22,1.68,6.43,2.21,6.22,1.48,12.56,2.06,18.9,2.61,3.64,.32,7.3,.52,10.95,.56,4.27,.05,8.55-.09,12.83-.21,3.09-.09,6.18-.28,9.28-.41,1.42-.06,2.84-.03,4.25-.18,.98-.1,1.94-.4,2.89-.69,.63-.19,.96-.71,.92-1.39-.04-.7-.05-1.41-.21-2.08-.5-2.13-1.11-4.24-1.6-6.37-1.34-5.81-2.6-11.63-3.96-17.44-2.98-12.82-6.52-25.48-10.75-37.95-1.06-3.11-2.18-6.2-3.23-9.32-.63-1.87-1.13-3.78-1.75-5.65-.36-1.1-1.07-1.95-2.05-2.58-.47-.3-.96-.47-1.53-.3-.92,.27-1.85,.49-2.77,.76-3.49,.99-6.99,1.93-10.45,3.01-3.9,1.22-7.12,3.38-9.4,6.9-1.31,2.02-2.91,3.86-4.39,5.78-.25,.33-.57,.61-.86,.91-.16-2.03,.31-3.84,1.22-5.54,1.36-2.52,3.41-4.38,5.81-5.84,4.43-2.71,9.21-4.54,14.27-5.71,2.03-.47,4.04-1.09,5.99-1.82,1.5-.56,1.79-1.24,1.26-2.73-.57-1.63-1.27-3.23-2.09-4.75-1.27-2.37-2.75-4.64-4.04-7-2.06-3.77-4.21-7.48-6.66-11.02-1.93-2.79-4.43-4.58-7.78-5.22-3.38-.65-6.67-1.61-9.68-3.34-5.24-3-9.31-7.08-11.58-12.75-2.11-5.25-2.18-10.44,.75-15.49,.89-1.53,1.57-3.18,2.35-4.77,.57-1.17,.55-2.38,.03-3.53-.47-1.03-1-2.05-1.63-2.98-1.1-1.64-2.43-3.14-3.44-4.83-3.06-5.1-6-10.27-9.01-15.4-1-1.7-2.02-3.4-3.15-5.01-.82-1.17-1.94-2.07-3.4-2.41-2.61-.61-4.95-.05-7,1.66-2.04,1.71-3.35,3.94-4.46,6.31-1.59,3.39-2.56,6.99-3.55,10.58-1.89,6.87-2.9,13.86-2.84,20.99,.03,4.17,.49,8.29,1.24,12.38,.8,4.4,1.86,8.74,3.61,12.87,2.67,6.32,6.77,11.46,12.68,15.04,4.23,2.56,8.91,3.89,13.75,4.61,2.16,.32,4.38,.22,6.57,.36,2.01,.13,4.02,.28,6.01,.54,1.2,.16,2.33,.63,3.32,1.46-.17,.08-.27,.14-.38,.18-.22,.08-.45,.17-.68,.23-2.84,.76-5.72,.59-8.57,.17-3.15-.47-6.28-1.14-9.41-1.73-5.66-1.06-10.77-3.37-15.26-6.96-2.18-1.74-4.2-3.69-6.44-5.67Zm-73.08,22.82h-.17c-.12-.47-.27-.94-.35-1.43-.29-1.61,.05-3.18,.3-4.76,.28-1.73,.72-3.46,.41-5.22-.44-2.51-1.88-3.87-4.48-2.74-1.38,.6-2.68,1.42-3.91,2.29-3.99,2.85-7.47,6.21-10.03,10.43-3.14,5.18-4.18,10.69-2.53,16.6,1.44,5.16,4.02,9.72,7.47,13.79,2.95,3.48,6.35,6.47,10.54,8.34,7.54,3.35,15.41,4.15,23.48,2.52,7.49-1.51,14.44-4.46,20.81-8.67,8.84-5.84,15.27-13.88,20.42-23,1.71-3.03,2.77-6.32,3.24-9.77,.38-2.79,.58-5.6,1.02-8.38,.59-3.7,1.58-7.29,3.56-10.53,.35-.58,.64-1.19,.94-1.8,.53-1.11,.78-2.28,.5-3.49-.23-.97-.53-1.92-.9-2.84-.62-1.55-1.42-3.04-1.96-4.62-2.28-6.64-3.28-13.52-3.56-20.51-.19-4.78,.11-9.55,.84-14.28,.88-5.73,2.37-11.31,4.37-16.75,.38-1.02,.76-2.04,1.16-3.12-.36-.04-.66-.09-.95-.11-3.32-.15-6.57,.3-9.75,1.27-5.94,1.81-11.15,4.93-15.78,9.03-4.42,3.91-7.89,8.52-10,14.08-.77,2.02-1.37,4.09-1.15,6.3,.17,1.73,.98,3.03,2.65,3.66,.8,.3,1.63,.54,2.47,.7,1.68,.34,3.41,.47,5.06,.93,3.8,1.05,6.76,3.43,9.37,6.28,.51,.56,.92,1.22,1.37,1.83l-.14,.2c-.36-.11-.77-.14-1.08-.34-1.43-.94-2.89-1.86-4.24-2.9-1.81-1.39-3.59-2.79-5.68-3.75-2.28-1.05-4.66-1.68-7.18-1.58-2.83,.11-5.57,.72-8.25,1.62-5.57,1.86-10.47,4.81-14.56,9.04-3.44,3.56-5.84,7.76-7.64,12.35-1.58,4.03-2.47,8.24-3.35,12.46-.58,2.78-1.11,5.56-1.22,8.4-.05,1.42-.05,2.84-.11,4.25-.06,1.48-.31,2.92-1.02,4.24Zm238.73-46.04c-.94-.5-1.87-1.04-2.84-1.49-1.23-.56-2.46-1.15-3.75-1.52-1.39-.4-2.3,.34-2.39,1.79-.06,.95-.07,1.93,.08,2.86,.33,2.02,.06,3.89-1.01,5.64-.54,.88-1.03,1.8-1.56,2.69-1.4,2.37-1.78,4.92-1.16,7.56,1.04,4.47,1.23,9,1.36,13.56,.08,2.69,.25,5.39,.57,8.06,.47,3.96,2.19,7.47,4.33,10.79,2.45,3.79,5.53,6.88,9.67,8.79,3.4,1.56,6.97,2.5,10.72,2.75,4.53,.29,8.67-.75,12.28-3.61,2.81-2.23,4.65-5.01,5.09-8.63,.42-3.48,.2-6.95-.21-10.4-.5-4.23-1.96-8.17-3.91-11.93-2.21-4.25-5.18-7.91-8.71-11.13-.73-.66-1.4-1.38-2.1-2.08,.3-.12,.53-.16,.71-.08,.88,.41,1.82,.74,2.6,1.3,1.3,.93,2.48,2.02,3.73,3.01,.41,.33,.9,.77,1.45,.5,.58-.28,.52-.94,.52-1.5,0-3.05-.85-5.9-2.12-8.65-1.16-2.52-2.69-4.75-4.91-6.47-.57-.44-1.05-.99-1.55-1.5-1.07-1.09-1.44-2.42-1.21-3.91,.14-.95,.27-1.9,.51-2.82,.69-2.66,.98-5.32,.5-8.06-.88-5.07-2.47-9.9-4.85-14.46-2.28-4.38-5.2-8.25-9.17-11.24-5.92-4.46-12.42-7.64-19.78-8.9-1.73-.3-3.43-.76-5.22-.62-1.52,.12-2.27,1.1-1.81,2.54,.32,1,.77,1.97,1.3,2.87,1.61,2.73,3.52,5.27,4.86,8.18,2.22,4.82,4.4,9.66,5.78,14.8,.85,3.15,1.48,6.37,2.13,9.57,.55,2.73,1.85,4.9,4.26,6.36,.73,.45,1.44,.94,2.14,1.43,1.48,1.04,2.82,2.23,3.69,3.94Zm-107.48,20.99c.13,.23,.22,.39,.31,.54,5.75,9.21,10.69,18.84,15.01,28.8,7.25,16.74,12.68,34.08,16.92,51.8,1.67,6.98,3.12,14.01,4.6,21.03,.55,2.63,.85,5.31,1.32,7.95,.19,1.09,.44,2.19,.82,3.22,.43,1.16,1.17,1.52,2.34,1.43,1.17-.1,2.35-.16,3.52-.29,2.89-.34,5.76-.81,8.56-1.68,.8-.25,1.32-.74,1.4-1.53,.11-1.17,.27-2.37,.08-3.51-.47-2.93-1.01-5.86-1.71-8.74-.87-3.56-1.99-7.05-2.9-10.6-1.62-6.37-3.1-12.77-4.76-19.13-2.95-11.29-6.38-22.43-10.16-33.47-.82-2.39-1.43-4.87-2.46-7.16-2.66-5.95-5.42-11.87-8.3-17.72-2-4.06-4.22-8.01-6.4-11.97-.81-1.47-1.83-2.81-3.14-3.9-.85-.71-1.75-.83-2.71-.31-.56,.3-1.11,.63-1.64,.99-1.49,1.03-2.92,2.17-4.73,2.64-.94,.24-1.88,.52-2.82,.78-1.03,.28-2.07,.55-3.15,.84Zm19.42-22.93c-.15-.9-.29-2.54-.7-4.12-1.12-4.37-3.65-7.86-7.09-10.7-4.62-3.81-9.96-5.87-15.91-6.41-1.62-.15-3.18,.25-4.73,.6-4.26,.94-8.3,2.43-11.88,5-4.66,3.35-7.34,7.83-7.53,13.63-.18,5.53,1.63,10.4,5.41,14.42,5.57,5.92,12.51,8.67,20.62,8.37,4.73-.18,9.1-1.63,13.01-4.3,5.53-3.78,8.65-8.94,8.8-16.49Zm-27.11-23.32c-.23-.58-.42-1.12-.65-1.65-1.85-4.28-4.26-8.26-6.64-12.26-2.51-4.22-4.99-8.45-7.49-12.68-.35-.6-.68-1.22-1.07-1.8-.96-1.41-2.3-2.17-4.02-2.06-1.63,.1-3.27,.23-4.88,.52-3.25,.58-6.33,1.57-8.47,4.35-.16,.2-.37,.37-.55,.55-.92,.94-.98,1.19-.32,2.35,2.73,4.79,5.43,9.59,8.22,14.34,2.13,3.61,4.36,7.16,6.58,10.72,.41,.66,.88,1.29,1.41,1.85,.93,.98,2.1,1.27,3.4,.9,.55-.16,1.09-.38,1.63-.6,3.02-1.19,6.03-2.43,9.07-3.56,1.19-.44,2.46-.65,3.76-.98Z"/><g><path class="j" d="M118.82,334.24c-.62-1.55-1.42-3.04-1.96-4.62-2.28-6.64-3.28-13.52-3.56-20.51-.19-4.78,.11-9.55,.84-14.28,.88-5.73,2.37-11.31,4.37-16.75,.38-1.02,.76-2.04,1.16-3.12-.36-.04-.66-.09-.95-.11-3.32-.15-6.57,.3-9.75,1.27-5.94,1.81-11.15,4.93-15.78,9.03-4.42,3.91-7.89,8.52-10,14.08-.77,2.02-1.37,4.09-1.15,6.3,.17,1.73,.98,3.03,2.65,3.66,.8,.3,1.63,.54,2.47,.7,1.68,.34,3.41,.47,5.06,.93,3.8,1.05,6.76,3.43,9.37,6.28,.51,.56,.92,1.22,1.37,1.83l-.14,.2c-.36-.11-.77-.14-1.08-.34-1.43-.94-2.89-1.86-4.24-2.9-1.81-1.39-3.59-2.79-5.68-3.75-2.28-1.05-4.66-1.68-7.18-1.58-2.83,.11-5.57,.72-8.25,1.62-5.57,1.86-10.47,4.81-14.56,9.04-3.44,3.56-5.84,7.76-7.64,12.35-1.58,4.03-2.47,8.24-3.35,12.46-.58,2.78-1.11,5.56-1.22,8.4-.05,1.42-.05,2.84-.11,4.25-.06,1.48-.31,2.92-1.02,4.24h-.17c-.12-.47-.27-.94-.35-1.43-.29-1.61,.05-3.18,.3-4.76,.28-1.73,.72-3.46,.41-5.22-.44-2.51-1.88-3.87-4.48-2.74-1.38,.6-2.68,1.42-3.91,2.29-3.99,2.85-7.47,6.21-10.03,10.43-3.14,5.18-4.18,10.69-2.53,16.6,1.44,5.16,4.02,9.72,7.47,13.79,2.95,3.48,6.35,6.47,10.54,8.34,7.54,3.35,15.41,4.15,23.48,2.52,7.49-1.51,14.44-4.46,20.81-8.67,8.84-5.84,15.27-13.88,20.42-23,1.71-3.03,2.77-6.32,3.24-9.77,.38-2.79,.58-5.6,1.02-8.38,.59-3.7,1.58-7.29,3.56-10.53,.35-.58,.64-1.19,.94-1.8,.53-1.11,.78-2.28,.5-3.49-.23-.97-.53-1.92-.9-2.84Zm-11.64,16.56c-2.09,4.49-4.5,8.78-7.83,12.49-2.92,3.26-6.26,6.05-10.47,7.37-4.71,1.48-9.53,2.61-14.33,3.77-2.28,.55-4.63,.83-6.96,1.15-.9,.12-1.83,.01-2.74-.06-.25-.02-.48-.28-.73-.43l.07-.19c1.25-.22,2.5-.45,3.75-.66,5.09-.85,10.21-1.57,15.19-3.01,2.88-.83,5.71-1.81,8.28-3.39,3.01-1.85,5.2-4.51,7.25-7.31,1.78-2.43,3.59-4.85,5.49-7.19,.85-1.04,1.95-1.88,2.93-2.81l.13,.1c0,.06,0,.13-.03,.19Z"/><path class="j" d="M318.41,355.7c-.5-4.23-1.96-8.17-3.91-11.93-2.21-4.25-5.18-7.91-8.71-11.13-.73-.66-1.4-1.38-2.1-2.08,.3-.12,.53-.16,.71-.08,.88,.41,1.82,.74,2.6,1.3,1.3,.93,2.48,2.02,3.73,3.01,.41,.33,.9,.77,1.45,.5,.58-.28,.52-.94,.52-1.5,0-3.05-.85-5.9-2.12-8.65-1.16-2.52-2.69-4.75-4.91-6.47-.57-.44-1.05-.99-1.55-1.5-1.07-1.09-1.44-2.42-1.21-3.91,.14-.95,.27-1.9,.51-2.82,.69-2.66,.98-5.32,.5-8.06-.88-5.07-2.47-9.9-4.85-14.46-2.28-4.38-5.2-8.25-9.17-11.24-5.92-4.46-12.42-7.64-19.78-8.9-1.73-.3-3.43-.76-5.22-.62-1.52,.12-2.27,1.1-1.81,2.54,.32,1,.77,1.97,1.3,2.87,1.61,2.73,3.52,5.27,4.86,8.18,2.22,4.82,4.4,9.66,5.78,14.8,.85,3.15,1.48,6.37,2.13,9.57,.55,2.73,1.85,4.9,4.26,6.36,.73,.45,1.44,.94,2.14,1.43,1.48,1.04,2.82,2.23,3.69,3.94-.94-.5-1.87-1.04-2.84-1.49-1.23-.56-2.46-1.15-3.75-1.52-1.39-.4-2.3,.34-2.39,1.79-.06,.95-.07,1.93,.08,2.86,.33,2.02,.06,3.89-1.01,5.64-.54,.88-1.03,1.8-1.56,2.69-1.4,2.37-1.78,4.92-1.16,7.56,1.04,4.47,1.23,9,1.36,13.56,.08,2.69,.25,5.39,.57,8.06,.47,3.96,2.19,7.47,4.33,10.79,2.45,3.79,5.53,6.88,9.67,8.79,3.4,1.56,6.97,2.5,10.72,2.75,4.53,.29,8.67-.75,12.28-3.61,2.81-2.23,4.65-5.01,5.09-8.63,.42-3.48,.2-6.95-.21-10.4Z"/></g><g><path class="i" d="M234.64,445.61c-.47-2.93-1.01-5.86-1.71-8.74-.87-3.56-1.99-7.05-2.9-10.6-1.62-6.37-3.1-12.77-4.76-19.13-2.95-11.29-6.38-22.43-10.16-33.47-.82-2.39-1.43-4.87-2.46-7.16-2.66-5.95-5.42-11.87-8.3-17.72-2-4.06-4.22-8.01-6.4-11.97-.81-1.47-1.83-2.81-3.14-3.9-.85-.71-1.75-.83-2.71-.31-.56,.3-1.11,.63-1.64,.99-1.49,1.03-2.92,2.17-4.73,2.64-.94,.24-1.88,.52-2.82,.78-1.03,.28-2.07,.55-3.15,.84,.13,.23,.22,.39,.31,.54,5.75,9.21,10.69,18.84,15.01,28.8,7.25,16.74,12.68,34.08,16.92,51.8,1.67,6.98,3.12,14.01,4.6,21.03,.55,2.63,.85,5.31,1.32,7.95,.19,1.09,.44,2.19,.82,3.22,.43,1.16,1.17,1.52,2.34,1.43,1.17-.1,2.35-.16,3.52-.29,2.89-.34,5.76-.81,8.56-1.68,.8-.25,1.32-.74,1.4-1.53,.11-1.17,.27-2.37,.08-3.51Z"/><path class="i" d="M199.19,314.92c-.15-.9-.29-2.54-.7-4.12-1.12-4.37-3.65-7.86-7.09-10.7-4.62-3.81-9.96-5.87-15.91-6.41-1.62-.15-3.18,.25-4.73,.6-4.26,.94-8.3,2.43-11.88,5-4.66,3.35-7.34,7.83-7.53,13.63-.18,5.53,1.63,10.4,5.41,14.42,5.57,5.92,12.51,8.67,20.62,8.37,4.73-.18,9.1-1.63,13.01-4.3,5.53-3.78,8.65-8.94,8.8-16.49Zm-10.23,.6c-.15,2.32-1.31,4.2-2.89,5.83-2.57,2.66-5.77,4.31-9.14,5.67-1.37,.55-2.75,1.08-4.16,1.47-1.6,.44-2.85-.1-3.79-1.48-.91-1.34-1.33-2.89-1.71-4.44-.44-1.82-.73-3.68-1.27-5.47-.53-1.77-1.32-3.46-1.91-5.21-.39-1.15-.72-2.32-.91-3.52-.25-1.56,.43-2.85,1.82-3.53,1.27-.63,2.66-1.05,4.03-1.46,2.01-.61,4.09-.87,6.22-.92,3.4,.06,6.63,.77,9.26,3.1,2.95,2.63,4.71,5.88,4.45,9.96Z"/><path class="i" d="M154.22,295.84c.93,.98,2.1,1.27,3.4,.9,.55-.16,1.09-.38,1.63-.6,3.02-1.19,6.03-2.43,9.07-3.56,1.19-.44,2.46-.65,3.76-.98-.23-.58-.42-1.12-.65-1.65-1.85-4.28-4.26-8.26-6.64-12.26-2.51-4.22-4.99-8.45-7.49-12.68-.35-.6-.68-1.22-1.07-1.8-.96-1.41-2.3-2.17-4.02-2.06-1.63,.1-3.27,.23-4.88,.52-3.25,.58-6.33,1.57-8.47,4.35-.16,.2-.37,.37-.55,.55-.92,.94-.98,1.19-.32,2.35,2.73,4.79,5.43,9.59,8.22,14.34,2.13,3.61,4.36,7.16,6.58,10.72,.41,.66,.88,1.29,1.41,1.85Z"/></g><g><path class="m" d="M273.1,335.46c-.45-.68-.8-.77-1.51-.38-.38,.21-.77,.44-1.08,.74-1.25,1.18-2.45,2.4-3.69,3.59-1.15,1.1-2.21,2.37-3.52,3.23-3,1.99-6.26,3.52-9.69,4.64-1.5,.49-3.03,.86-4.81,.88,.31-.4,.48-.74,.75-.95,.91-.71,1.77-1.54,2.79-2.03,1.68-.81,3.44-1.49,5.23-2.04,3.43-1.07,6.44-2.75,8.89-5.42,2.75-2.99,4.9-6.39,6.92-9.9,2.35-4.1,3.34-8.51,3.33-13.19-.01-4.26-.7-8.42-1.74-12.54-1.51-5.95-3.74-11.65-6.17-17.27-1.89-4.39-3.98-8.71-5.95-13.06-1.16-2.57-2.29-5.14-3.9-7.47-1.07-1.56-2.47-2.7-4.22-3.42-2.16-.89-4.44-1.28-6.74-1.52-1.99-.2-3.98-.33-5.97-.52-3.18-.3-6.36-.65-9.54-.91-3.46-.29-6.93-.53-10.4-.75-3.85-.25-7.69-.51-11.54-.64-3.63-.12-7.27-.09-10.91-.08-2.2,0-4.4,.02-6.59,.16-5.4,.35-10.8,.75-16.19,1.16-5.48,.42-10.95,.87-16.42,1.35-1.05,.09-2.09,.32-3.11,.59-.95,.25-1.03,.49-.63,1.38,.15,.33,.3,.66,.48,.96,2.25,3.75,4.55,7.47,6.76,11.24,2.8,4.76,5.86,9.38,8.21,14.41,.21,.45,.5,.86,.74,1.3,.98,1.71,2.46,2.69,4.38,3.02,1.57,.27,3.18,.41,4.72,.8,4.56,1.16,8.57,3.41,11.95,6.67,5.55,5.35,8.32,11.78,7.17,19.59-.37,2.51-1.04,4.91-2.69,6.95-.64,.79-1.15,1.68-1.72,2.53-.34,.51-.42,1.06-.14,1.59,.43,.83,.87,1.66,1.4,2.43,1.01,1.46,2.21,2.8,3.12,4.32,1.68,2.81,3.3,5.66,4.78,8.57,2.24,4.43,4.44,8.88,6.04,13.61,.5,1.47,1.15,2.88,1.79,4.29,.38,.84,1.12,1.31,2.05,1.35,.9,.04,1.8,.02,2.69-.04,1.33-.1,2.67-.42,3.99-.37,2.23,.08,4.46,.3,6.68,.61,4.25,.6,8.39,1.73,12.5,2.96,.19,.06,.38,.14,.57,.21v.18c-.31,.06-.61,.18-.91,.17-1.34-.07-2.68-.09-4-.28-5.07-.74-10.13-1.59-15.21-2.29-1.65-.23-3.34-.19-5.01-.17-.93,.01-1.29,.45-1.26,1.39,.03,.85,.12,1.71,.3,2.55,.72,3.36,1.92,6.58,3.12,9.79,1.12,3.01,2.47,5.95,3.36,9.02,2.01,6.87,3.87,13.78,5.65,20.7,1.37,5.33,2.58,10.7,3.77,16.07,1.06,4.81,1.94,9.66,3,14.47,.6,2.72,1.41,5.4,2.62,7.93,.59,1.22,1.48,1.77,2.85,1.74,2.53-.06,5.01-.46,7.46-1.02,3.54-.8,7.04-1.74,10.56-2.62,.38-.1,.65-.29,.77-.73,.52-1.98,.64-3.99,.27-6-.86-4.75-1.76-9.49-2.65-14.23-.97-5.2-2-10.38-2.49-15.66-.4-4.35-.58-8.69,.03-13.03,.5-3.56,1.62-6.89,3.69-9.88,2.58-3.71,5.13-7.43,7.59-11.21,3.26-4.99,5.78-10.33,7.14-16.18,.73-3.16,1.13-6.36,1.3-9.6,.17-3.35,.43-6.7,.08-10.05-.14-1.29-.33-2.58-1.08-3.7Zm-57.08-15.08c-.32,4.11-.85,8.22-1.47,12.3-.4,2.63-1.1,5.22-1.72,7.81-.16,.65-.5,1.26-.83,1.84-.14,.26-.46,.43-.69,.64l-.19-.11c.03-.5,.02-1.01,.08-1.5,.32-2.55,.65-5.11,1-7.66,.49-3.52,.93-7.04,1.52-10.54,.47-2.82,0-5.57-.32-8.34-.37-3.15-.78-6.3-1.13-9.45-.17-1.57-.25-3.14-.36-4.72-.02-.25,.04-.51,.07-.76l.24-.09c.49,.76,1.05,1.49,1.47,2.29,1.08,2.08,1.57,4.34,1.91,6.64,.58,3.87,.73,7.77,.42,11.65Z"/><path class="m" d="M214.91,443.09c-1.34-5.81-2.6-11.63-3.96-17.44-2.98-12.82-6.52-25.48-10.75-37.95-1.06-3.11-2.18-6.2-3.23-9.32-.63-1.87-1.13-3.78-1.75-5.65-.36-1.1-1.07-1.95-2.05-2.58-.47-.3-.96-.47-1.53-.3-.92,.27-1.85,.49-2.77,.76-3.49,.99-6.99,1.93-10.45,3.01-3.9,1.22-7.12,3.38-9.4,6.9-1.31,2.02-2.91,3.86-4.39,5.78-.25,.33-.57,.61-.86,.91-.16-2.03,.31-3.84,1.22-5.54,1.36-2.52,3.41-4.38,5.81-5.84,4.43-2.71,9.21-4.54,14.27-5.71,2.03-.47,4.04-1.09,5.99-1.82,1.5-.56,1.79-1.24,1.26-2.73-.57-1.63-1.27-3.23-2.09-4.75-1.27-2.37-2.75-4.64-4.04-7-2.06-3.77-4.21-7.48-6.66-11.02-1.93-2.79-4.43-4.58-7.78-5.22-3.38-.65-6.67-1.61-9.68-3.34-5.24-3-9.31-7.08-11.58-12.75-2.11-5.25-2.18-10.44,.75-15.49,.89-1.53,1.57-3.18,2.35-4.77,.57-1.17,.55-2.38,.03-3.53-.47-1.03-1-2.05-1.63-2.98-1.1-1.64-2.43-3.14-3.44-4.83-3.06-5.1-6-10.27-9.01-15.4-1-1.7-2.02-3.4-3.15-5.01-.82-1.17-1.94-2.07-3.4-2.41-2.61-.61-4.95-.05-7,1.66-2.04,1.71-3.35,3.94-4.46,6.31-1.59,3.39-2.56,6.99-3.55,10.58-1.89,6.87-2.9,13.86-2.84,20.99,.03,4.17,.49,8.29,1.24,12.38,.8,4.4,1.86,8.74,3.61,12.87,2.67,6.32,6.77,11.46,12.68,15.04,4.23,2.56,8.91,3.89,13.75,4.61,2.16,.32,4.38,.22,6.57,.36,2.01,.13,4.02,.28,6.01,.54,1.2,.16,2.33,.63,3.32,1.46-.17,.08-.27,.14-.38,.18-.22,.08-.45,.17-.68,.23-2.84,.76-5.72,.59-8.57,.17-3.15-.47-6.28-1.14-9.41-1.73-5.66-1.06-10.77-3.37-15.26-6.96-2.18-1.74-4.2-3.69-6.44-5.67-.73,1.02-1.61,2.07-2.28,3.23-1.88,3.26-2.64,6.87-3.05,10.56-.39,3.58-.36,7.18-.03,10.77,.43,4.67,1.49,9.17,3.4,13.45,2.74,6.14,6.81,11.16,12.6,14.69,1.65,1.01,3.36,1.93,5,2.96,2.36,1.48,4.25,3.37,5.17,6.08,.67,1.98,1.03,4.02,1.21,6.09,.19,2.15,.35,4.3,.5,6.45,.28,3.88,.52,7.77,.83,11.65,.22,2.75,.5,5.49,.78,8.23,.2,2,.47,4,.63,6.01,.11,1.41,.08,2.83,.15,4.25,.05,1.1,.43,2.1,1.29,2.81,.78,.64,1.61,1.26,2.5,1.73,2.02,1.07,4.22,1.68,6.43,2.21,6.22,1.48,12.56,2.06,18.9,2.61,3.64,.32,7.3,.52,10.95,.56,4.27,.05,8.55-.09,12.83-.21,3.09-.09,6.18-.28,9.28-.41,1.42-.06,2.84-.03,4.25-.18,.98-.1,1.94-.4,2.89-.69,.63-.19,.96-.71,.92-1.39-.04-.7-.05-1.41-.21-2.08-.5-2.13-1.11-4.24-1.6-6.37Z"/><path class="m" d="M170.98,324.54c.9,1.63,2.24,2.11,3.97,1.45,3.6-1.37,6.79-3.36,9.09-6.55,1.23-1.72,2.06-3.61,2.17-5.74,.16-2.82-1.03-5.08-3.1-6.89-2.33-2.04-5.15-2.69-8.18-2.72-3.07,.04-5.98,.76-8.71,2.22-.46,.24-.83,.58-.8,1.1,.07,1.15,.09,2.31,.35,3.42,.75,3.23,2,6.3,3.27,9.35,.61,1.47,1.17,2.97,1.94,4.36Z"/></g></g></g><g id="d"><g><path class="l" d="M326.15,380.42c-1.2-6.31-5.05-10.72-10.25-14.05-2.82-1.81-6.12-2.34-9.4-2.77-1.18-.16-2.37-.25-3.56-.37h-3.24c-.17,.04-.34,.08-.51,.11-2.28,.37-4.59,.6-6.84,1.12-4.99,1.16-9.63,3.18-13.61,6.47-1.38,1.14-2.59,2.49-3.87,3.74-2.12,2.07-4.22,4.15-5.91,6.6-2.7,3.92-4.68,8.21-6.46,12.6-2.53,6.24-3.69,12.86-5.38,19.34-.62,2.37-1.26,4.73-1.92,7.09-.31,1.1-1.03,1.82-2.16,2.11-.73,.19-1.45,.43-2.19,.58-2.84,.6-5.75,.91-8.51,1.93-1.19,.44-2.41,.47-3.66,.26-.8-.14-1.62-.23-2.44-.25-2.89-.1-5.68,.39-8.4,1.36-1.56,.55-3.15,1.02-4.67,1.65-1.21,.5-2.07,1.45-2.42,2.74-.34,1.25-.68,2.51-.84,3.78-.31,2.4-.61,4.78-1.68,7-.42,.88-.17,1.72,.46,2.44,.22,.26,.46,.5,.69,.75,1.09,1.21,2.04,2.54,2.15,4.19,.1,1.34-.04,2.71-.26,4.04-.41,2.46-.07,4.68,1.61,6.62,.58,.66,1.11,1.36,1.63,2.07,.8,1.09,1.79,1.97,2.88,2.77,.7,.52,1.32,1.22,1.83,1.94,.77,1.09,1.37,2.3,2.1,3.42,.93,1.43,2.19,2.49,3.82,3.05,2.13,.73,4.28,1.39,6.51,1.74,1.37,.21,2.74,.63,3.67,1.73,.95,1.13,2.22,1.66,3.52,2.16,1.13,.43,2.29,.5,3.46,.14,.34-.11,.7-.16,1.05-.21,1.06-.14,1.96,.34,2.8,.87,1.01,.63,2.05,.82,3.22,.83,3.28,.04,6.05-.95,8.3-3.41,1.62-1.77,3.34-3.44,5.08-5.1,3.54-3.37,6.27-7.27,7.52-12.04,.58-2.21,.82-4.5,1.19-6.76,.69-4.15,1.35-8.31,2.05-12.46,.37-2.21,1.42-3.83,3.51-4.95,2.7-1.44,5.3-3.13,7.83-4.86,5.55-3.81,10.27-8.57,14.88-13.44,2.58-2.73,5.08-5.54,7.75-8.19,1.8-1.79,3.34-3.66,4.28-6.05,.7-1.79,1.69-3.48,2.52-5.23,.98-2.08,1.35-4.33,1.79-6.56,.7-3.5,.78-7.01,.11-10.53Z"/><g><path d="M302.94,363.23c1.19,.12,2.38,.21,3.56,.37,3.28,.44,6.58,.97,9.4,2.77,5.2,3.33,9.05,7.74,10.25,14.05,.67,3.52,.59,7.02-.11,10.53-.44,2.23-.81,4.48-1.79,6.56-.83,1.75-1.81,3.43-2.52,5.23-.94,2.39-2.48,4.27-4.28,6.05-2.66,2.65-5.16,5.46-7.75,8.19-4.61,4.87-9.33,9.63-14.88,13.44-2.53,1.74-5.12,3.42-7.83,4.86-2.09,1.12-3.14,2.74-3.51,4.95-.69,4.15-1.36,8.31-2.05,12.46-.37,2.26-.61,4.56-1.19,6.76-1.25,4.76-3.97,8.66-7.52,12.04-1.74,1.65-3.46,3.33-5.08,5.1-2.25,2.46-5.03,3.45-8.3,3.41-1.18-.02-2.22-.2-3.22-.83-.84-.53-1.74-1.01-2.8-.87-.35,.05-.71,.1-1.05,.21-1.17,.36-2.34,.29-3.46-.14-1.3-.5-2.57-1.02-3.52-2.16-.93-1.1-2.29-1.52-3.67-1.73-2.24-.35-4.38-1.01-6.51-1.74-1.63-.56-2.89-1.62-3.82-3.05-.73-1.12-1.33-2.32-2.1-3.42-.51-.72-1.12-1.42-1.83-1.94-1.09-.8-2.08-1.68-2.88-2.77-.52-.71-1.06-1.41-1.63-2.07-1.68-1.94-2.02-4.15-1.61-6.62,.22-1.33,.36-2.71,.26-4.04-.12-1.64-1.06-2.98-2.15-4.19-.23-.25-.46-.5-.69-.75-.63-.72-.88-1.56-.46-2.44,1.06-2.22,1.37-4.6,1.68-7,.17-1.28,.51-2.54,.84-3.78,.35-1.29,1.2-2.24,2.42-2.74,1.52-.63,3.11-1.1,4.67-1.65,2.72-.96,5.52-1.46,8.4-1.36,.82,.03,1.63,.12,2.44,.25,1.25,.21,2.48,.18,3.66-.26,2.75-1.02,5.66-1.33,8.51-1.93,.74-.16,1.46-.4,2.19-.58,1.13-.29,1.85-1.01,2.16-2.11,.66-2.36,1.31-4.72,1.92-7.09,1.69-6.48,2.85-13.1,5.38-19.34,1.78-4.39,3.76-8.68,6.46-12.6,1.69-2.45,3.8-4.53,5.91-6.6,1.29-1.25,2.49-2.61,3.87-3.74,3.99-3.28,8.62-5.3,13.61-6.47,2.25-.52,4.56-.76,6.84-1.12,.17-.03,.34-.07,.51-.11h3.24Zm-46.6,113.77c1.39,1.21,2.93,1.82,4.79,1.35,2.01-.51,3.55-1.79,5-3.17,1.32-1.25,2.49-2.66,3.86-3.85,4.57-3.97,7.64-8.85,9.09-14.74,.48-1.95,.49-3.96,.76-5.92,.46-3.33,1.12-6.64,1.87-9.92,.46-2.01,.24-3.75-1.06-5.34-.45-.56-.9-1.13-1.41-1.63-3.44-3.34-7.15-6.33-11.31-8.74-2.09-1.21-4.22-2.34-6.58-2.98-.96-.26-1.8-.15-2.56,.54-.78,.71-1.73,1.01-2.78,1.11-1.7,.16-3.43,.27-5.1,.61-2.16,.43-4.38,.84-6.15,2.32-1.81,1.51-3.69,1.66-5.77,.59-.73-.38-1.56-.64-2.38-.76-1.77-.26-3.51,.07-5.17,.67-1.99,.72-3.92,1.6-5.92,2.25-1.44,.47-2.3,1.37-2.75,2.75-.15,.45-.29,.91-.37,1.38-.41,2.32-.78,4.64-1.21,6.95-.18,.97-.06,1.86,.39,2.72,.91,1.75,2.03,1.85,3.11,.21,.65-.98,1.16-2.05,1.8-3.04,.4-.61,.88-1.18,1.41-1.69,.44-.42,1.02-.44,1.57-.16,.41,.2,.62,.53,.39,.98-.21,.4-.45,.8-.72,1.17-2.42,3.36-4.35,6.96-5.71,10.88-1.5,4.35,.84,7.77,3.82,9.94,.8,.58,1.71,.7,2.68,.35,.63-.24,1.28-.46,1.94-.6,.47-.1,1.02-.17,1.46-.02,.31,.1,.57,.57,.67,.93,.04,.14-.38,.51-.65,.62-.42,.17-.89,.2-1.34,.31-.98,.25-1.44,.94-1.21,1.93,.12,.5,.32,.99,.59,1.43,1.18,1.92,2.72,3.49,4.62,4.7,1.23,.78,2.59,1.09,4.01,.72,1.05-.28,2.07-.71,3.09-1.1,1.04-.4,2.05-.9,3.11-1.23,.85-.26,1.75-.22,2.6,.25-.37,.72-.98,1.02-1.64,1.21-.78,.23-1.59,.39-2.37,.63-.46,.14-.88,.39-.96,.96-.08,.61,.16,1.08,.65,1.38,.56,.34,1.17,.59,1.76,.89,.67,.34,1.46,.56,1.98,1.06,.64,.62,1.37,.78,2.15,.86,1.95,.18,3.64-.54,5.22-1.58,.63-.41,1.24-.88,1.91-1.23,.83-.44,1.68-.34,2.66,.28l-3.86,2.78Zm4.54-71.88c-.03,.52,.21,.8,.72,.86,.22,.03,.43,.09,.65,.09,2.27,.03,4.48,.45,6.68,.96,7.41,1.7,14.04,4.97,19.91,9.78,2.96,2.42,5.68,5.1,8.26,7.92,.69,.76,1.2,.84,2.02,.24,.3-.22,.58-.49,.86-.75,.37-.34,.72-.69,1.08-1.03,1.75-1.66,3.54-3.29,5.25-5,2.23-2.24,4.4-4.53,6.57-6.82,.75-.79,1.51-1.59,2.18-2.46,.57-.75,.66-1.63,.17-2.48-.38-.67-.77-1.36-1.25-1.96-3.81-4.77-7.9-9.28-12.45-13.36-2.25-2.02-4.49-4.08-7.26-5.35-2.02-.93-4.15-1.65-6.27-2.3-4.4-1.35-8.89-2.27-13.54-2-2.4,.14-4.53,.72-5.68,3.14-1.39,2.91-3.04,5.72-4.2,8.72-1.39,3.6-2.38,7.35-3.53,11.04-.08,.25-.11,.51-.16,.76Zm11.1-25.41c.91,.06,1.69,.15,2.47,.17,3.54,.06,7.06,.35,10.52,1.12,6.63,1.47,12.54,4.38,17.48,9.06,2.62,2.49,5.1,5.13,7.58,7.76,2.16,2.3,4.23,4.69,5.7,7.53,.12,.23,.28,.44,.45,.64,.54,.66,1.12,.64,1.61-.06,.61-.87,1.22-1.73,1.78-2.63,2.6-4.17,4.64-8.56,4.91-13.57,.15-2.81,.22-5.62-.01-8.44-.5-6.08-3.83-10.27-8.95-13.03-6.19-3.35-12.88-4.05-19.77-2.7-6.46,1.27-12.23,4.08-17.44,8.07-1,.76-1.95,1.59-2.88,2.43-1.04,.95-2.05,1.95-3.05,2.94-.15,.14-.21,.37-.4,.71Zm-9.51,28.15c-2.03-.01-2.42,.3-2.78,2.02-.22,1.01-.44,2.03-.65,3.04-.39,1.85-.79,3.7-1.17,5.56-.25,1.21,.11,1.7,1.33,1.77,1.67,.1,3.3,.36,4.83,1.03,4.93,2.17,9.52,4.88,13.5,8.55,1.2,1.11,2.23,2.4,3.38,3.56,1.76,1.77,3.04,1.91,5.19,.66,.02-.01,.04-.02,.05-.03,1.86-1.09,3.75-2.14,5.57-3.29,1.45-.92,2.88-1.88,4.2-2.97,1.05-.88,.96-.98,.16-2.05-.08-.11-.17-.22-.26-.33-1.99-2.56-4.48-4.61-6.98-6.63-4.03-3.26-8.33-6.05-13.18-7.95-4.33-1.7-8.8-2.71-13.18-2.96Z"/><path class="j" d="M256.34,476.99l3.86-2.78c-.98-.62-1.83-.72-2.66-.28-.67,.35-1.27,.82-1.91,1.23-1.59,1.04-3.28,1.76-5.22,1.58-.79-.07-1.51-.24-2.15-.86-.52-.5-1.31-.72-1.98-1.06-.59-.3-1.2-.55-1.76-.89-.49-.3-.73-.77-.65-1.38,.08-.57,.5-.81,.96-.96,.78-.24,1.58-.4,2.37-.63,.66-.19,1.27-.49,1.64-1.21-.84-.47-1.74-.51-2.6-.25-1.06,.33-2.07,.83-3.11,1.23-1.02,.39-2.03,.82-3.09,1.1-1.42,.37-2.78,.06-4.01-.72-1.9-1.21-3.45-2.78-4.62-4.7-.27-.43-.47-.93-.59-1.43-.23-.98,.23-1.68,1.21-1.93,.44-.11,.92-.14,1.34-.31,.27-.11,.69-.48,.65-.62-.1-.36-.36-.82-.67-.93-.44-.15-.98-.08-1.46,.02-.66,.14-1.31,.36-1.94,.6-.96,.36-1.87,.24-2.68-.35-2.98-2.16-5.32-5.59-3.82-9.94,1.35-3.92,3.29-7.52,5.71-10.88,.27-.37,.51-.76,.72-1.17,.23-.45,.02-.77-.39-.98-.55-.27-1.13-.26-1.57,.16-.52,.51-1.01,1.08-1.41,1.69-.64,.99-1.15,2.06-1.8,3.04-1.08,1.63-2.2,1.54-3.11-.21-.45-.86-.57-1.75-.39-2.72,.43-2.31,.8-4.63,1.21-6.95,.08-.47,.22-.93,.37-1.38,.45-1.38,1.31-2.27,2.75-2.75,2.01-.66,3.94-1.54,5.92-2.25,1.67-.6,3.4-.93,5.17-.67,.81,.12,1.65,.39,2.38,.76,2.08,1.07,3.96,.92,5.77-.59,1.77-1.48,3.99-1.88,6.15-2.32,1.67-.34,3.39-.45,5.1-.61,1.05-.1,2-.39,2.78-1.11,.76-.69,1.6-.8,2.56-.54,2.36,.63,4.49,1.76,6.58,2.98,4.15,2.41,7.87,5.39,11.31,8.74,.51,.5,.96,1.07,1.41,1.63,1.3,1.59,1.52,3.33,1.06,5.34-.75,3.28-1.41,6.59-1.87,9.92-.27,1.97-.28,3.98-.76,5.92-1.45,5.89-4.52,10.76-9.09,14.74-1.37,1.19-2.55,2.59-3.86,3.85-1.45,1.38-2.99,2.66-5,3.17-1.86,.47-3.4-.13-4.79-1.35Z"/><g><path class="i" d="M313.98,404.46c-3.81-4.77-7.9-9.28-12.45-13.36-2.25-2.02-4.49-4.08-7.26-5.35-2.02-.93-4.15-1.65-6.27-2.3-4.4-1.35-8.89-2.27-13.54-2-2.4,.14-4.53,.72-5.68,3.14-1.39,2.91-3.04,5.72-4.2,8.72-1.39,3.6-2.38,7.35-3.53,11.04-.08,.24-.11,.51-.16,.76-.03,.52,.21,.8,.72,.86,.22,.03,.43,.09,.65,.09,2.27,.03,4.48,.45,6.68,.96,7.41,1.7,14.04,4.97,19.91,9.78,2.96,2.42,5.68,5.1,8.26,7.92,.69,.76,1.2,.84,2.02,.24,.3-.22,.58-.49,.86-.75,.37-.34,.72-.69,1.08-1.03,1.75-1.66,3.54-3.29,5.25-5,2.23-2.24,4.4-4.53,6.57-6.82,.75-.79,1.51-1.59,2.18-2.46,.57-.75,.66-1.63,.17-2.48-.38-.67-.77-1.36-1.25-1.96Z"/><path class="i" d="M324.47,381.28c-.5-6.08-3.83-10.27-8.95-13.03-6.19-3.35-12.88-4.05-19.77-2.7-6.46,1.27-12.23,4.08-17.44,8.07-1,.76-1.95,1.59-2.88,2.43-1.04,.95-2.05,1.95-3.05,2.94-.15,.14-.21,.37-.4,.71,.91,.06,1.69,.15,2.47,.17,3.54,.06,7.06,.35,10.52,1.12,6.63,1.47,12.54,4.38,17.48,9.06,2.62,2.49,5.1,5.13,7.58,7.76,2.16,2.3,4.23,4.69,5.7,7.53,.12,.23,.28,.44,.45,.64,.54,.66,1.12,.64,1.61-.06,.61-.87,1.22-1.73,1.78-2.63,2.6-4.17,4.64-8.56,4.91-13.57,.15-2.81,.22-5.62-.01-8.44Z"/><path class="i" d="M295.81,425.39c-1.99-2.56-4.48-4.61-6.98-6.63-4.03-3.26-8.33-6.05-13.18-7.95-4.33-1.7-8.8-2.71-13.18-2.96-2.03-.01-2.42,.3-2.78,2.02-.22,1.01-.44,2.03-.65,3.04-.39,1.85-.79,3.7-1.17,5.56-.25,1.21,.11,1.7,1.33,1.77,1.67,.1,3.3,.36,4.83,1.03,4.93,2.17,9.52,4.88,13.5,8.55,1.2,1.11,2.23,2.4,3.38,3.56,1.76,1.77,3.04,1.91,5.19,.66,.02-.01,.04-.02,.05-.03,1.86-1.09,3.75-2.14,5.57-3.29,1.45-.92,2.88-1.88,4.2-2.97,1.05-.88,.96-.98,.16-2.05-.08-.11-.17-.22-.26-.33Z"/></g></g></g></g></g><g id="e"><g><path d="M244.28,250.84c-.33-1.16-.55-2.36-.89-3.52-1.3-4.35-2.71-8.67-3.93-13.04-2.29-8.25-4.48-16.52-6.72-24.78-.18-.66-.08-1.21,.4-1.73,2.1-2.28,4.15-4.6,6.25-6.88,1.12-1.22,1.86-2.56,1.96-4.26,.14-2.27,.07-4.48-.87-6.62-2.46-5.6-4.86-11.24-7.28-16.85-.51-1.17-.68-2.35-.58-3.66,.12-1.51-.06-3.06-.23-4.58-.26-2.21-.48-4.45-.99-6.61-1.71-7.14-5.14-13.36-10.24-18.68-5.31-5.53-11.59-9.43-18.94-11.61-1.27-.38-2.57-.64-3.95-.97,.27-.29,.47-.59,.73-.79,1.41-1.08,2.81-2.18,4.29-3.17,1-.67,1.28-1.49,1.08-2.61-.23-1.34-.45-2.69-.59-4.05-.27-2.5-.51-5-.69-7.5-.24-3.33-.54-6.66-.58-9.99-.05-4.27,.06-8.54,.24-12.8,.18-4.33,.46-8.65,.8-12.97,.39-4.88,1.45-9.67,2.37-14.47,1.07-5.58,2.55-11.03,4.4-16.39,.88-2.55,1.69-5.14,2.77-7.61,1.86-4.24,3.84-8.43,6.28-12.38,.57-.93,.35-1.38-.7-1.75-.1-.04-.2-.08-.3-.11-7.46-2.57-14.93-5.13-22.38-7.72-10.56-3.67-21.1-7.37-31.65-11.06-1.57-.55-3.12-1.12-4.69-1.68h-.91c-1.95,1.21-3.25,3.07-4.74,4.74-7.23,8.15-11.83,17.67-14.5,28.17-.61,2.39-1.28,4.76-1.73,7.18-.42,2.25-.6,4.55-.86,6.82-.4,3.55-.7,7.12-.53,10.7,.07,1.55,.36,3.09,.5,4.65,.19,2.18,.36,4.36,.49,6.54,.24,4.14,1,8.2,1.99,12.22,1.59,6.46,3.49,12.81,6.23,18.88,2.86,6.33,5.75,12.66,9.55,18.5,2.54,3.9,5.36,7.62,8.06,11.42,.25,.35,.51,.7,.74,1.07,.42,.67,.36,.96-.31,1.39-1.2,.78-2.47,1.45-3.61,2.31-8.82,6.6-14.79,15.09-17.43,25.9-1.23,5.05-1.56,10.13-1.37,15.27,.06,1.51,.41,3,.5,4.51,.05,.8,0,1.68-.29,2.41-1.72,4.29-3.53,8.55-5.32,12.82-.02,.05-.09,.07-.13,.11v.78c.12,.16,.25,.33,.37,.49,.55,.8,1.01,1.68,1.67,2.38,1.43,1.51,2.94,2.94,4.45,4.38,.6,.57,.76,1.21,.62,2-.3,1.77-.62,3.54-.84,5.32-.33,2.66-.59,5.34-.88,8.01-.27,2.5-.56,4.99-.83,7.49-.25,2.26-.47,4.52-.73,6.78-.31,2.75-.65,5.5-.95,8.26-.34,3.12-.61,6.25-.97,9.37-.11,.96,.2,1.61,1,2.06,.72,.4,1.45,.78,2.19,1.14,3.14,1.55,6.33,3.01,9.43,4.65,4.53,2.4,8.99,4.94,13.51,7.37,2.96,1.59,5.9,3.19,8.53,5.32,.68,.56,1.55,.93,2.39,1.23,.91,.33,1.9,.42,2.82,.72,.42,.14,.87,.45,1.1,.82,.73,1.15,1.41,2.34,2.04,3.54,2.65,5.06,5.28,10.13,7.92,15.2,.6,1.15,1.19,1.29,2.21,.5,.51-.4,1.01-.82,1.51-1.23,1.56-1.27,2.03-1.14,2.77,.73,.23,.58,.51,1.14,.83,1.68,.62,1.06,1.32,2.07,1.92,3.14,.45,.81,.76,1.7,1.19,2.52,.76,1.46,1.35,1.61,2.39,.35,1.46-1.77,2.86-3.6,4.06-5.55,1.17-1.89,2.06-3.95,3.09-5.92,.61-1.17,1.1-1.22,1.95-.19,.32,.38,.62,.79,.85,1.23,.43,.85,.81,1.72,1.19,2.59,.31,.71,.55,1.46,.89,2.16,.45,.92,1.12,1.04,1.87,.35,.4-.36,.74-.8,1.06-1.23,2.67-3.56,3.3-7.85,4.2-12.02,.3-1.41,.32-2.88,.5-4.32,.27-2.14,.6-4.28,.87-6.43,.12-.92,.05-1.86,.24-2.76,.26-1.24,.91-1.61,2.15-1.29,.74,.19,1.35,.05,1.98-.32,1.67-1,3.36-1.98,5.03-2.98,2.31-1.37,4.35-3.04,6.14-5.07,1.24-1.41,2.67-2.65,4.02-3.97,.67-.65,1.36-1.27,2-1.95,.55-.58,.77-1.26,.54-2.09Z"/><path class="k" d="M180.5,253.81c1.93,.83,3.73,1.58,5.5,2.37,2.17,.97,4.42,1.48,6.81,1.38,1.22-.05,2.37-1.07,2.37-2.28,.02-3.19,.02-6.38-.01-9.56,0-.75-.2-1.5-.32-2.25-.22-1.41,.18-1.9,1.58-1.92,1.11-.01,2.21-.01,3.32,0,1.09,0,1.42,.24,1.7,1.3,.4,1.53,.74,3.07,1.12,4.6,.5,2.01,1.01,4.03,1.51,6.04,.45,1.81,1.95,2.55,3.61,1.63,.75-.42,1.47-1.04,1.96-1.74,1.57-2.25,3.04-4.57,4.52-6.89,.61-.95,1.31-1.78,2.27-2.38,.67-.42,.92-.33,1.06,.45,.44,2.58,.91,5.16,1.27,7.75,.52,3.68,.82,7.4,1.49,11.06,.48,2.61,.38,5.15,.12,7.74-.2,1.96-.23,3.93-.42,5.89-.39,3.96-1.29,7.8-2.57,11.56-.41,1.2-.62,2.48-1.57,3.45-.71,.72-1.1,.72-1.6-.14-1.2-2.05-2.39-4.12-3.6-6.17-.39-.66-.31-1.32-.16-2.01,.74-3.49,.42-6.84-1.38-9.98-.46-.81-.88-1.64-1.35-2.44-.15-.25-.4-.45-.6-.67l-.28,.15c.21,.93,.4,1.87,.64,2.79,.46,1.75,1.05,3.48,1.4,5.25,.44,2.26,.07,4.47-.73,6.63-1.44,3.94-3.23,7.69-5.53,11.2-.06,.09-.11,.19-.17,.28-.91,1.35-2.14,1.34-2.92-.06-1.29-2.33-2.54-4.68-3.84-7-.41-.73-.43-1.41-.15-2.17,.57-1.55,1.02-3.13,1.02-4.8,0-2.4-.02-4.81-.07-7.21-.01-.7-.42-1.08-1.12-1.19,0,1.45,.13,2.92-.03,4.35-.24,2.17-.7,4.31-1.02,6.46-.26,1.78-1.13,3.21-2.39,4.43-1.08,1.05-1.85,1.01-2.61-.28-1.48-2.52-2.87-5.09-4.32-7.62-1.54-2.68-3.1-5.35-4.67-8.02-.44-.76-.39-.85,.22-1.47,.29-.29,.54-.78,.54-1.18-.06-3.53-.16-7.06-.3-10.59-.08-1.9-.28-3.8-.41-5.7-.02-.31,.07-.63,.12-1.05Z"/><g><path class="m" d="M231.46,169.22l.15-.06c.02-.16,.06-.32,.04-.48-.21-1.81-.3-3.64-.67-5.41-.97-4.74-2.33-9.35-4.68-13.63-3.24-5.87-7.65-10.66-13.33-14.21-5.11-3.2-10.5-5.7-16.59-6.57-5.2-.74-10.38-.9-15.53-.09-5.72,.89-11.11,2.83-15.87,6.23-2.26,1.61-4.57,3.19-6.58,5.08-4.65,4.35-8.06,9.61-10.46,15.51-2.47,6.07-3.13,12.47-3.4,18.94-.01,.29,.12,.59,.19,.89,.32-.18,.47-.38,.61-.59,1.32-2.06,2.6-4.15,3.98-6.17,1.48-2.16,2.9-4.39,4.62-6.36,3.86-4.41,8.28-8.26,12.62-12.19,.96-.87,3.29-1.24,4.62,0,1.75,1.62,3.55,3.19,5.38,4.71,4.4,3.67,8.01,8.03,11.22,12.74,.58,.85,.78,1.76,.63,2.77-.07,.49-.13,.99-.1,1.48,.2,2.98,.47,5.96,.63,8.94,.29,5.17,.57,10.34,.75,15.51,.12,3.44,.1,6.89,.05,10.33-.05,3.88-.21,7.75-.29,11.63,0,.27,.13,.62,.33,.79,1.67,1.45,3.26,3.11,5.79,2.84,.02,0,.04,0,.06,0,1.92,.09,3.71-.22,5.15-1.66,.24-.24,.54-.43,.77-.68,.54-.59,1.14-1.22,1.04-2.08-.37-2.99-.8-5.96-1.2-8.94-.33-2.47-.73-4.93-.96-7.4-.27-2.85-.36-5.71-.57-8.56-.23-3.2-.5-6.39-.76-9.58-.14-1.77-.16-3.56-.44-5.31-.43-2.74-.42-5.49-.29-8.23,.04-.9-.11-1.84,.63-2.63,2.2-2.36,4.32-4.8,6.52-7.17,2.44-2.64,5.02-5.17,7.36-7.9,1.41-1.65,3.08-1.62,4.89-1.43,.27,.03,.58,.23,.77,.45,1.36,1.57,2.84,3.07,3.99,4.78,2.9,4.31,5.66,8.72,8.47,13.09,.14,.22,.3,.42,.46,.64Z"/><path class="m" d="M144.06,90.4c3.76,10.83,8.4,21.25,14.89,30.76,1.99,2.92,4.11,5.74,6.18,8.6,.58,.8,.96,.84,1.5,.23,2.44-2.82,4.87-5.65,7.31-8.47,.44-.51,.53-1.04,.28-1.68-.46-1.17-.88-2.35-1.32-3.52-2.53-6.85-5.23-13.65-7.3-20.67-2.43-8.22-4.49-16.53-6.16-24.92-1.03-5.19-1.64-10.47-2.37-15.72-.42-2.98-.8-5.96-1.05-8.96-.27-3.28-.48-6.57-.51-9.86-.03-4.38,.12-8.75,.24-13.13,.06-2.38,.08-4.78,.36-7.14,.41-3.43,1.05-6.84,1.57-10.26,.13-.83,.48-1.67,.05-2.64-.19,.13-.31,.21-.42,.29-1.43,1.11-2.32,2.68-3.39,4.09-4.61,6.09-8.3,12.7-10.75,19.92-2.75,8.12-4.01,16.54-4.48,25.1-.23,4.3-.17,8.59,.21,12.86,.36,3.92,1.06,7.8,1.69,11.69,.75,4.58,1.95,9.06,3.47,13.43Z"/><path class="m" d="M162.52,222.54c-2.49-2.32-4.94-4.68-7.41-7.01-3-2.82-6-5.64-9.01-8.44-.17-.16-.48-.35-.66-.3-.17,.05-.32,.39-.34,.62-.36,3.1-.69,6.2-1.05,9.29-.36,3.12-.74,6.23-1.12,9.35-.32,2.62-.65,5.24-.96,7.86-.34,2.88-.65,5.76-.98,8.65-.28,2.41-.58,4.81-.88,7.22-.09,.71,.16,1.22,.78,1.57,.3,.17,.6,.34,.91,.49,4.25,2.09,8.5,4.18,12.75,6.28,2.54,1.26,5.07,2.54,7.61,3.8,.7,.35,.92,.22,1.01-.56,.05-.49,.07-.99,.1-1.49,.15-2.42,.37-4.84,.42-7.26,.05-2.32-.13-4.63-.14-6.95-.02-6.4,0-12.81,0-19.21h.18c0-.39-.03-.78,0-1.17,.11-1.14-.39-1.98-1.2-2.73Z"/><path class="m" d="M242.38,250.61c-.32-1.21-.77-2.39-1.1-3.59-2.66-9.65-5.3-19.31-7.95-28.96-.64-2.31-1.29-4.62-1.96-6.93-.29-1-.69-1.09-1.43-.36-1.46,1.45-2.93,2.9-4.36,4.38-.29,.3-.43,.73-.6,1.04,.35,1.82,.59,3.49,1.02,5.12,.44,1.71,1.14,3.36,1.58,5.07,.49,1.88,.78,3.82,1.23,5.71,1.98,8.13,3.98,16.25,5.98,24.38,.41,1.65,1.04,1.82,2.28,.63,.03-.03,.06-.06,.09-.09,1.5-1.41,3.01-2.81,4.51-4.22,.64-.6,.91-1.35,.69-2.18Z"/></g><g><path class="i" d="M217.08,21.08c-11.25-3.9-22.5-7.81-33.76-11.7-7.38-2.55-14.76-5.06-22.15-7.59-.81-.28-.98-.16-1.12,.68-.14,.85-.27,1.71-.46,2.55-1.29,5.61-1.77,11.34-2.1,17.06-.25,4.32-.19,8.67-.27,13h-.12c.1,1.42,.21,2.84,.31,4.26,.11,1.56,.19,3.11,.31,4.67,.14,1.92,.27,3.85,.48,5.76,.27,2.34,.74,4.67,.91,7.02,.31,4.09,1.13,8.1,1.81,12.13,.28,1.63,.85,3.22,1.21,4.84,.83,3.73,1.42,7.54,2.47,11.21,2.2,7.66,4.55,15.29,7.01,22.87,1.21,3.74,2.79,7.36,4.21,11.03,.22,.56,.54,.98,1.21,1.01,4.2,.16,8.4,.33,12.6,.48,1.91,.07,3.81,.05,5.72,.16,2.14,.12,4.27,.35,6.41,.52,.69,.06,.93-.16,.88-.85-.05-.91-.11-1.82-.23-2.72-.3-2.34-.74-4.67-.92-7.02-.27-3.41-.46-6.83-.5-10.25-.06-4.51-.04-9.02,.13-13.52,.15-3.94,.5-7.87,.85-11.79,.29-3.3,.58-6.61,1.1-9.87,1.16-7.23,2.87-14.33,5.13-21.3,2.4-7.42,5.37-14.62,9.37-21.35,.5-.84,.43-.96-.49-1.28Z"/><path class="i" d="M194.33,121.79c-2.83-.13-5.67-.25-8.5-.37-2.86-.12-5.71-.21-8.56-.37-.86-.05-1.52,.18-2.07,.83-1.66,1.92-3.33,3.83-4.98,5.76-.4,.47-.74,.99-1.11,1.48l.15,.21c.42-.13,.86-.23,1.27-.39,2.83-1.09,5.72-2.03,8.73-2.44,2.14-.3,4.3-.51,6.46-.58,2.16-.07,4.35-.08,6.49,.16,3.8,.43,3.02,.66,6.1-1.47,.99-.68,1.94-1.44,3.04-2.26-.62-.12-1.06-.26-1.5-.29-1.84-.11-3.68-.18-5.52-.27Z"/></g><g><path class="j" d="M230.95,188.98c-2.17-4.12-4.32-8.24-6.47-12.37-1.8-3.43-3.58-6.87-5.41-10.28-.21-.39-.67-.79-1.08-.88-.83-.19-1.72-.19-2.58-.25-1.09-.07-2.02,.23-2.84,1.01-1.47,1.41-3.04,2.71-4.52,4.12-2.2,2.09-4.34,4.24-6.51,6.36-.73,.72-.83,1.6-.73,2.58,.2,1.96,.37,3.92,.5,5.89,.16,2.36,.23,4.72,.43,7.07,.34,3.99,.74,7.98,1.12,11.97,.15,1.6,.26,1.66,1.58,.75,2.6-1.78,5.86-.85,7.11,2.03,.48,1.1,.47,2.27,.4,3.45-.09,1.5-.75,2.57-2.09,3.27-.47,.25-.89,.63-1.27,1-1.43,1.41-2.8,2.89-4.27,4.25-1.51,1.4-3.07,2.75-4.68,4.03-.59,.47-1.37,.92-2.08,.96-2.46,.11-4.92,0-6.85-1.89-.24-.24-.55-.42-.84-.61-1.11-.68-2.21-1.41-3.57-1.46-2.88-.1-5.35-1.16-7.43-3.12-.39-.37-.81-.95-.83-1.45-.08-2.01-.16-4.04,.03-6.03,.34-3.59,4-5.62,7.06-3.88,.53,.3,1.06,.59,1.59,.87,.67,.35,.85,.24,.89-.48,.02-.41,.05-.82,.04-1.23-.12-4.66-.22-9.31-.38-13.97-.12-3.29-.3-6.57-.53-9.86-.13-1.89-.67-3.64-2.19-4.97-.86-.75-1.59-1.65-2.37-2.5-2.06-2.25-4.12-4.51-6.18-6.77-.55-.61-1.21-1.03-2.04-1.19-1.79-.35-3.24,.3-4.59,1.43-1.66,1.39-2.98,3.07-4.41,4.68-3.9,4.39-7.38,9.07-10.01,14.35-1.31,2.61-2.22,5.3-2.18,8.26,.01,.96,.25,1.79,1.07,2.39,2.12,1.54,4.15,3.22,6.37,4.6,4.73,2.94,9.23,6.14,13.3,9.95,1.29,1.21,2.23,2.58,2.53,4.34,.53,3.16,1.21,6.28,1.36,9.5,.16,3.33,.52,6.65,.76,9.98,.16,2.16,.34,4.31,.89,6.42,.25,.94,.55,1.88,.64,2.84,.17,1.81,.2,3.63,.28,5.45,.05,1.05,.27,1.99,1.41,2.4,3.09,1.12,6.17,2.26,9.28,3.33,1.35,.46,1.95-.07,1.96-1.51,0-2.97,0-5.94,0-8.91h-.17c0-.78,.02-1.56,0-2.34-.02-.66,.15-1.22,.77-1.53,.81-.4,1.61-.99,2.47-1.09,2.08-.24,4.18-.23,6.28-.34,1.12-.06,1.42,.37,1.58,1.51,.11,.81,.12,1.67,.39,2.43,.86,2.47,1.82,4.9,2.75,7.34,.24,.63,.61,1.17,1.36,1.23,.82,.06,1.34-.41,1.72-1.06,1.54-2.61,3.05-5.24,4.64-7.82,.38-.62,.97-1.15,1.57-1.57,.4-.28,.72-.53,.79-1.02,.07-.54,.18-1.07,.18-1.61-.05-3.05-.13-6.11-.22-9.16-.08-2.75-.15-5.5-.28-8.25-.09-1.84-.31-3.67-.39-5.51-.09-2.01-.07-4.03-.11-6.05-.03-1.39,.38-2.6,1.31-3.63,.56-.63,1.17-1.22,1.72-1.86,3.97-4.62,7.92-9.25,11.9-13.87,.5-.58,.42-1.1,.09-1.71Z"/><path class="j" d="M185.75,207.75c-.68-.45-1.4-.84-2.12-1.23-.14-.07-.33-.08-.49-.06-.79,.13-1.46,.49-2.03,1.07-1.99,2.03-1.72,4.54-.63,6.85,.13,.27,.43,.5,.7,.65,1.56,.84,3.12,1.67,4.7,2.48,.57,.29,.93,.07,.98-.57,.14-2.01,.24-4.01,.36-6.02,.13-1.33-.34-2.43-1.47-3.17Z"/><path class="j" d="M206.43,214.77c1.53-1.29,2.92-2.7,3.74-4.58,.07-.15,.14-.34,.11-.49-.15-.76-.29-1.53-.53-2.27-.34-1.08-1.29-1.71-2.59-1.72-.08,.01-.36,0-.59,.09-.95,.39-1.91,.79-2.83,1.26-.23,.12-.39,.49-.46,.78-.32,1.4-.13,2.8,.21,4.17,.2,.83,.42,1.69,.83,2.42,.53,.93,1.29,1.02,2.11,.33Z"/></g><g><path d="M162.74,201.31c.03,.47,.46,.62,.85,.71,.64,.14,1.29,.23,1.94,.28,.16,.01,.33,.02,.49,.01,.21,.08,.49,.06,.85-.06,.37-.12,.73-.27,1.1-.4,2.64-.92,5.36-1.05,8.13-.89,1.8,.11,3.53,.4,5.17,1.2,.4,.2,.91,.25,1.37,.24,.72-.02,1.05-.38,1.2-1.09,.11-.52,.24-1.04,.34-1.57,.4-2.02,.81-4.05,.63-6.13-.35-4.02-2.15-7.76-5.82-9.57-.6-.29-2.88-.91-3.53-.98-1.73,.32-3.64,1.63-4.89,2.87-1.81,1.8-3.22,3.89-4.08,6.32-.74,2.08-.64,4.26-.81,6.42-.04,.47-.04,.94-.06,1.4-.04-.01-.09-.03-.14-.03-.63-.02-1.23,.08-1.81,.33-.39,.17-.97,.42-.94,.93Z"/><path d="M202.9,197.02c.08,.4,.1,.81,.19,1.21,.19,.83,.37,1.67,.64,2.47,.23,.66,.63,.76,1.23,.4,.41-.24,.76-.58,1.18-.79,3.36-1.66,5.82-2.33,9.59-1.4,.18,.04,.31,.07,.42,.08,.04,.03,.08,.06,.13,.08,.46,.17,2.11,.43,2.59,.23,.19-.08-1.71-1.01-2.31-1.06-.04,0-.08,0-.12,.01-.01-.34,.09-1.31,.09-1.62-.11-.74-.95-9.52-5.84-11.29-3.02-1.09-4.7-.74-6.53,1.65-2.06,2.7-1.98,6.65-1.27,10.01Z"/></g><g><path d="M221.4,186.96c-.11,.34-.24,.66-.32,1.01-.13,.54-.39,.63-.76,.33-1.03-.81-2.14-1.51-3.06-2.47-1.65-1.74-3.61-2.72-5.7-3.43-.76-.26-1.52-.56-2.3-.65-1.07-.12-2.16-.06-3.25-.05-.94,0-1.88,.08-2.81,.07-.99-.01-1.22-.41-.89-1.5,.37-1.23,1.08-2.19,1.9-3.04,1.75-1.8,3.67-3.17,6.06-3.47,1.69-.22,3.15,.5,4.54,1.4,3.45,2.22,5.49,5.7,6.53,10.06,.05,.2,.11,.4,.17,.6l-.13,1.15Z"/><path d="M173.48,171.67c.59,0,1.18,0,1.77,.02,2.75,.13,5,1.52,6.94,3.56,.83,.87,1.56,1.87,2.28,2.86,.48,.67,.77,1.48,.38,2.33-.39,.85-1.16,1.16-1.95,1.14-1.85-.04-3.7-.27-5.54-.26-4.23,.04-7.91,1.76-11.08,4.82-.95,.92-2.01,1.29-3.21,1.27-.17,0-.47-.39-.47-.61-.01-.8,0-1.63,.14-2.41,.69-3.8,2.1-7.19,4.72-9.84,1.06-1.07,2.29-1.82,3.68-2.24,.14-.04,.27-.15,.4-.23l1.95-.42Z"/><path class="k" d="M209.69,179.95c-1.9-.23-3.44-.02-4.97,.44-.29,.09-.62-.01-.93-.02,.13-.31,.21-.69,.41-.93,1.36-1.67,2.91-3.04,4.8-3.84,1.34-.57,2.61-.27,3.85,.36,3.72,1.88,6.33,4.91,7.35,9.58,.05,.21-.02,.47-.04,.7-.2-.08-.45-.09-.58-.25-1.22-1.56-2.78-2.54-4.36-3.49-1.28-.77-2.48-1.74-3.92-2.12-.64-.17-1.29-.33-1.62-.42Z"/><path class="k" d="M164.08,185.22c1.17-4.25,2.73-7.98,6.17-10.32,.45-.3,.94-.55,1.43-.75,2.86-1.13,5.57-.79,8.04,1.21,1.05,.85,2.02,1.83,3.01,2.76,.23,.22,.45,.49,.59,.78,.14,.3,.34,.79,.23,.97-.16,.26-.59,.46-.89,.44-.79-.06-1.57-.23-2.35-.38-3.18-.61-6.35-.73-9.36,.74-1.19,.58-2.21,1.58-3.3,2.39-.86,.64-1.7,1.31-2.58,1.91-.23,.16-.56,.14-.99,.23Z"/></g><g><path d="M212.95,227.05c-.38,.96-.77,1.92-1.15,2.87-.08,.2-.2,.39-.3,.59-.77,1.67-1.41,3.4-2.33,4.98-.61,1.05-1.71,1.85-2.45,2.85-.88,1.18-2.14,1.9-3.4,2.58-1.51,.81-2.91,1.85-4.73,2.12-2.31,.35-4.58,.35-6.74-.57-1.65-.7-3.3-1.44-4.87-2.29-1.09-.59-2.04-1.4-3.03-2.12-1.12-.81-2.24-1.61-3.32-2.46-.4-.31-.69-.74-1.02-1.13-.49-.58-1.03-1.14-1.41-1.78-.24-.39-.36-.93-.3-1.37,.07-.49,.36-.98,.65-1.42,.38-.57,.9-.81,1.7-.65,1.46,.3,2.95,.51,4.43,.68,1.5,.17,3.02,.38,4.52,.32,2.51-.1,5.01-.39,7.52-.63,1.62-.15,3.24-.27,4.84-.53,1.29-.21,2.57-.54,3.82-.92,2.08-.63,4.13-1.36,6.2-2.03,1.12-.36,1.18-.31,1.37,.9Zm-31.9,4.08c.27,.3,.36,.46,.5,.54,1.52,.89,3.01,1.8,4.57,2.62,1.53,.81,3.15,1.45,4.91,1.72,1.41,.22,2.8,.71,4.22,.76,3.74,.13,7.13-.94,10.11-3.06,1.75-1.24,3.12-2.75,3.84-4.71,.07-.18,.1-.48-.01-.58-.13-.12-.44-.15-.65-.11-.28,.05-.54,.2-.82,.29-1.57,.51-3.11,1.19-4.73,1.47-2.55,.44-5.15,.62-7.73,.87-1.65,.16-3.31,.28-4.97,.34-1.44,.05-2.9,.04-4.34-.02-1.3-.05-2.59-.22-3.89-.3-.26-.02-.54,.09-1,.17Zm.15,2.09l-.22,.23c.11,.17,.18,.39,.33,.52,1.34,1.13,2.69,2.26,4.06,3.35,1.86,1.47,4.06,2.41,6.23,3.4,2.36,1.07,4.83,1.26,7.32,.64,1.17-.29,2.25-.9,3.34-1.42,2.82-1.36,4.67-3.56,6.07-6.13,.11-.21,.07-.49,.1-.77-.84,.6-1.52,1.25-2.34,1.65-2.15,1.05-4.29,2.23-6.58,2.9-2.58,.75-5.31,.62-7.97-.08-2.86-.75-5.6-1.75-8.14-3.18-.71-.4-1.47-.73-2.2-1.09Z"/><path class="h" d="M181.05,231.13c.46-.08,.74-.19,1-.17,1.3,.09,2.59,.25,3.89,.3,1.44,.06,2.9,.07,4.34,.02,1.66-.06,3.32-.18,4.97-.34,2.58-.25,5.18-.43,7.73-.87,1.62-.28,3.16-.96,4.73-1.47,.28-.09,.54-.24,.82-.29,.21-.03,.51,0,.65,.11,.11,.1,.08,.4,.01,.58-.71,1.97-2.09,3.48-3.84,4.71-2.98,2.11-6.37,3.18-10.11,3.06-1.41-.05-2.8-.54-4.22-.76-1.77-.28-3.38-.91-4.91-1.72-1.55-.83-3.05-1.74-4.57-2.62-.14-.08-.23-.24-.5-.54Z"/><path class="j" d="M181.2,233.22c.73,.36,1.49,.69,2.2,1.09,2.55,1.44,5.28,2.43,8.14,3.18,2.67,.7,5.39,.83,7.97,.08,2.3-.66,4.43-1.85,6.58-2.9,.82-.4,1.5-1.05,2.34-1.65-.03,.28,.01,.56-.1,.77-1.4,2.57-3.25,4.78-6.07,6.13-1.09,.52-2.17,1.13-3.34,1.42-2.49,.62-4.96,.43-7.32-.64-2.17-.99-4.37-1.92-6.23-3.4-1.38-1.09-2.72-2.22-4.06-3.35-.15-.13-.23-.34-.33-.52l.22-.23Z"/></g><path d="M229.21,193.77c-5.04-9.84-10.76-19.26-16.54-28.73,.71-.46,1.49-.64,2.37-.58,.91,.06,1.84,.06,2.72,.26,.43,.1,.92,.52,1.14,.93,1.93,3.59,3.81,7.22,5.7,10.83,2.27,4.34,4.53,8.69,6.82,13.03,.34,.65,.43,1.19-.1,1.8-.7,.82-1.4,1.64-2.11,2.45Z"/><g><path class="i" d="M139.24,195.29c.05-.48,.28-.95,.47-1.41,2.36-5.57,4.74-11.14,7.1-16.72,.35-.84,.62-1.71,.92-2.56,.75-2.19,2.21-3.96,3.47-5.85,3-4.51,6.78-8.33,10.65-12.07,1.57-1.52,3.16-3.03,4.76-4.52,.38-.35,.82-.64,1.26-.92,.75-.47,1.48-.43,2.16,.14,5.06,4.23,9.98,8.62,14.21,13.71,.8,.96,1.46,2.06,2.01,3.17,.31,.62,.34,1.42,.39,2.14,.09,1.49,.12,2.98,.14,4.48,0,.26-.11,.51-.18,.77-.26-.11-.61-.14-.78-.33-2.06-2.25-4.1-4.53-6.14-6.8-1.29-1.43-2.56-2.89-3.88-4.3-1.28-1.37-3.25-1.54-4.79-.46-1.76,1.23-3.49,2.49-5.23,3.75-.21,.15-.38,.35-.54,.56-2.04,2.62-4.19,5.16-6.07,7.88-2.94,4.26-5.76,8.62-7.44,13.56-.55,1.63-.7,3.42-.88,5.15-.11,1.14,.47,2.13,1.41,2.78,2.5,1.72,4.97,3.47,7.56,5.05,3.94,2.41,7.59,5.18,10.83,8.46,.32,.32,.64,.66,1.02,.9,1.32,.85,1.87,2.13,2.04,3.6,.46,3.87,.89,7.74,1.34,11.61,.31,2.65,.63,5.29,.93,7.94,.26,2.26,.49,4.52,.74,6.78,.27,2.54,.59,5.08,.81,7.62,.22,2.52,.34,5.06,.5,7.59,.21,3.26,.41,6.53,.61,9.79,.04,.69,.08,1.39,.08,2.08,0,1.16-1.13,1.87-2.14,1.3-3.44-1.93-6.86-3.88-10.28-5.83-.54-.31-.77-.79-.77-1.4,0-1.82,0-3.64,0-5.46h-.11c.15-4.49,.39-8.97,.43-13.45,.03-3.18-.28-6.36-.31-9.55-.04-3.49,.05-6.98,.12-10.47,.02-1-.3-1.81-1.01-2.5-4.25-4.09-8.47-8.2-12.75-12.26-3.08-2.92-6.23-5.78-9.35-8.66-.53-.48-1.11-.91-1.64-1.39-1.15-1.04-1.86-2.29-1.68-3.89Z"/><path class="i" d="M204.42,163.43c3.3-3.56,6.59-7.13,9.9-10.68,1.37-1.47,3.29-1.34,4.36,.3,3.51,5.42,7.11,10.78,10.45,16.3,1.69,2.8,2.98,5.85,4.32,8.85,1.88,4.21,3.66,8.45,5.42,12.71,.8,1.93,1.15,3.95,.56,6.03-.34,1.21-.96,2.28-1.84,3.17-3.02,3.11-6.03,6.23-9.08,9.31-1.53,1.54-3.1,3.03-4.72,4.47-.75,.67-.88,1.33-.71,2.29,1,5.56,2.74,10.94,4.01,16.44,1.48,6.4,2.91,12.82,4.43,19.22,.53,2.22,1.22,4.41,1.88,6.6,.35,1.19,.15,1.89-.9,2.55-2.15,1.34-4.3,2.68-6.46,4-.84,.51-1.3,.44-2.06-.2-.91-.77-1.48-1.71-1.73-2.89-.45-2.11-1.11-4.19-1.46-6.32-.56-3.44-.95-6.9-1.4-10.36-.22-1.7-.46-3.39-.58-5.1-.1-1.42-.02-2.86-.02-4.29h.06c-.25-5.22-.5-10.43-.74-15.65-.1-2.27-.18-4.55-.29-6.82-.04-.91-.11-1.82-.22-2.72-.1-.74,.08-1.33,.57-1.91,3.85-4.49,7.68-9.01,11.52-13.51,.76-.89,1.52-1.78,2.27-2.68,.91-1.08,1.15-3.29,.47-4.55-4.17-7.64-8.35-15.27-12.52-22.9-.43-.78-1.03-1.14-1.94-1.15-1.01-.01-2.04-.1-3.04-.29-1.44-.28-2.6,.13-3.59,1.16-1.46,1.51-2.86,3.09-4.39,4.52-1.78,1.68-3.67,3.24-5.53,4.83-.21,.18-.53,.21-.8,.31-.08-.26-.22-.51-.24-.77-.13-1.44-.21-2.9-.37-4.34-.1-.93,.19-1.56,.89-2.21,1.24-1.17,2.34-2.49,3.51-3.75Z"/><path class="i" d="M215.4,165.2c.86,.06,1.75,.06,2.58,.25,.41,.1,.87,.5,1.08,.88,1.83,3.41,3.62,6.85,5.41,10.28,2.16,4.12,4.3,8.25,6.47,12.37,.32,.61,.41,1.13-.09,1.71-.33,.39-.67,.78-1,1.17-2.72-5.16-5.78-10.12-8.68-15.2-2.22-3.88-4.27-7.74-6.61-11.43,.27-.04,.55-.06,.84-.04Z"/></g><g><path d="M159.86,228.5c.97,.38,1.98,.68,2.89,1.17,1.74,.93,3.6,1.13,5.47,.85,.94-.14,1.83-.76,2.7-1.24,1.52-.84,3-1.74,4.49-2.62,.26-.16,.54-.31,.76-.52,1.76-1.57,3.63-2.96,5.77-4,1.28-.63,2.49-1.43,3.79-2.01,1.54-.68,3.1-.52,4.59,.3,1.51,.84,3.02,1.69,4.56,2.49,.31,.16,.81,.21,1.11,.07,1.86-.89,3.68-1.88,5.54-2.78,1.35-.65,2.75-1.21,4.14-1.8,1.06-.45,2.05,.06,2.88,.51,2.23,1.19,4.29,2.67,6.06,4.52,.84,.87,1.7,1.72,2.6,2.53,.43,.39,.92,.71,1.58,.38,1.87-.93,3.78-1.79,5.63-2.76,1.61-.84,3.11-1.88,4.74-2.66,1.65-.79,2.84-.29,3.74,1.31,.11,.2,.21,.41,.36,.59,.45,.57,.32,1.05-.22,1.45-.87,.65-1.76,1.26-2.62,1.93-.43,.34-.78,.78-1.21,1.13-1.03,.84-2.08,1.66-3.13,2.48-.16,.13-.35,.22-.51,.34-1.82,1.49-3.64,2.99-5.46,4.48-2.93,2.39-6.33,3.55-10.08,3.71-.34,.01-.69-.3-1.03-.46-2.15-.98-4.3-1.96-6.45-2.95-.92-.43-1.82-.91-2.76-1.31-1.14-.49-2.28-1.08-3.48-1.32-.71-.14-1.58,.25-2.32,.53-2.48,.94-4.9,2.08-7.42,2.88-3.41,1.09-6.6,2.66-9.82,4.19-2.13,1.01-4.29,1.9-6.64,2.19-.37,.05-.88-.26-1.19-.54-2.76-2.48-6.11-4.07-9.2-6.05-1.28-.82-2.67-1.48-4.05-2.14-1.37-.66-1.52-1.03-.54-2.16,1.04-1.2,2.14-2.37,3.86-2.57,.1-.01,.19-.08,.29-.09,.18,0,.36,.02,.55,.04l.04-.12Zm-.52,2.01l-.04,.12c-.21-.02-.49-.13-.61-.03-.37,.3-.74,.65-.98,1.05-.07,.11,.24,.58,.48,.72,1.81,1.08,3.65,2.11,5.47,3.18,.81,.48,1.59,1.01,2.38,1.53,1,.66,1.99,1.34,3,1.98,1.15,.74,2.27,1.63,3.79,.86,1.2-.61,2.42-1.18,3.65-1.74,1.88-.85,3.77-1.71,5.68-2.51,1.36-.57,2.76-1.04,4.13-1.58,2.29-.89,4.56-1.81,6.85-2.67,1.75-.66,3.44-1.2,5.41-.43,3.45,1.33,6.76,2.95,10.11,4.5,1.99,.92,4.06,1.25,6.24,.44,2.03-.75,3.62-2.09,5.23-3.45,1.53-1.3,3.05-2.62,4.61-3.89,1.81-1.48,3.66-2.9,5.47-4.38,.17-.14,.26-.6,.16-.79-.13-.23-.5-.47-.76-.46-.39,0-.8,.16-1.16,.35-1.81,.95-3.57,2-5.41,2.89-1.78,.86-3.63,1.6-5.46,2.33-.66,.26-1.3,.14-1.82-.45-.99-1.15-2.07-2.22-3.01-3.42-1.39-1.77-3.39-2.73-5.18-3.95-.66-.45-1.51-.95-2.49-.46-2.03,1.02-4.11,1.93-6.1,3.02-.78,.43-1.36,1.21-2.04,1.83-.16,.15-.32,.31-.5,.43-.83,.52-1.56,.08-2.19-.37-1.57-1.13-3.14-2.22-4.93-3-1.43-.62-2.77-1.08-4.19-.08-.21,.15-.43,.27-.65,.41-1.72,1.11-3.47,2.19-5.16,3.35-.88,.6-1.61,1.42-2.51,1.97-1.78,1.1-3.61,2.13-5.46,3.12-.99,.53-2.02,1.14-3.09,1.31-1.9,.31-3.81-.08-5.66-.64-1.1-.33-2.17-.73-3.26-1.09Z"/><path class="k" d="M159.34,230.5c1.08,.37,2.16,.77,3.26,1.09,1.85,.55,3.76,.94,5.66,.64,1.07-.17,2.1-.79,3.09-1.31,1.85-.99,3.68-2.02,5.46-3.12,.9-.56,1.63-1.37,2.51-1.97,1.69-1.15,3.44-2.23,5.16-3.35,.22-.14,.44-.26,.65-.41,1.42-1,2.75-.54,4.19,.08,1.8,.78,3.36,1.88,4.93,3,.63,.46,1.36,.9,2.19,.37,.18-.12,.34-.28,.5-.43,.68-.62,1.26-1.41,2.04-1.83,1.99-1.09,4.08-2,6.1-3.02,.98-.49,1.83,.01,2.49,.46,1.79,1.22,3.79,2.17,5.18,3.95,.93,1.19,2.01,2.27,3.01,3.42,.51,.59,1.16,.72,1.82,.45,1.84-.74,3.68-1.47,5.46-2.33,1.84-.89,3.6-1.94,5.41-2.89,.35-.19,.77-.35,1.16-.35,.26,0,.63,.23,.76,.46,.1,.18,.01,.65-.16,.79-1.8,1.48-3.66,2.9-5.47,4.38-1.56,1.27-3.07,2.59-4.61,3.89-1.6,1.36-3.2,2.7-5.23,3.45-2.18,.81-4.25,.48-6.24-.44-3.35-1.54-6.66-3.16-10.11-4.5-1.98-.76-3.66-.23-5.41,.43-2.29,.87-4.57,1.79-6.85,2.67-1.37,.53-2.77,1.01-4.13,1.58-1.91,.8-3.79,1.65-5.68,2.51-1.23,.56-2.45,1.13-3.65,1.74-1.52,.78-2.63-.12-3.79-.86-1.01-.65-1.99-1.32-3-1.98-.79-.52-1.57-1.05-2.38-1.53-1.82-1.07-3.66-2.1-5.47-3.18-.24-.14-.55-.61-.48-.72,.24-.4,.61-.75,.98-1.05,.12-.09,.4,.02,.61,.03l.04-.12Z"/></g><path class="h" d="M208.13,187.27c.71-.41,2.14-.54,2.83-.27,3.68,1.14,4.11,8.26,4.35,9.26,.04,.16,.04,.33,.05,.5,.01,.69-.14,.85-.77,.81-.89-.05-.7-.08-1.59-.13-.31-.02-.61,0-.92-.02-.66-.04-.73-.13-.74-.83-.01-.76-.01-1.51-.06-2.27-.16-2.39-.92-4.53-2.54-6.31-.21-.22-.39-.47-.6-.74Z"/><path class="k" d="M207.2,194.27c-.24-1.46-.62-2.74-1.47-3.85-.1-.14-.17-.33-.19-.5-.06-.51,.56-1.46,1.1-1.69,.53-.23,1.01,0,1.42,.41,1.65,1.69,2.51,3.73,2.49,6.14,0,.57-.04,1.14-.09,1.7-.05,.63-.38,1.02-.91,1.24-1.19,.5-2.36,1.02-3.55,1.51-.22,.09-.5,.13-.73,.07-.13-.03-.26-.31-.29-.5-.02-.08,.19-.27,.31-.3,1.3-.22,2.06-1.18,2.02-2.62-.02-.57-.08-1.14-.11-1.61Z"/><path class="h" d="M205.7,196.5c-.12,.69-.54,.75-1.01,.24-.53-.57-1.34-3.9-.36-4.95,.02-.19,.18-.35,.28-.52,.13,.14,.24,.31,.38,.42,1.18,.82,.82,4.2,.71,4.81Z"/><path class="h" d="M176.34,185.82c.86-.43,1.56-.12,2.2,.27,1.5,.91,2.58,2.3,3.41,3.92,1.45,2.85,1.69,5.89,.83,9.05-.1,.37-.27,.73-.46,1.06-.31,.56-.76,.68-1.32,.49-1.11-.38-2.23-.75-3.36-1.1-.76-.24-.84-.39-.59-1.22,.82-2.79,1.33-5.62,.68-8.51-.23-1.04-.69-2.02-1.04-3.02-.11-.31-.23-.62-.35-.95Z"/><path class="k" d="M172.05,187.72c.35-.41,.61-.73,.9-1.04,.55-.59,1.19-.59,1.73,0,1.13,1.22,1.66,2.75,1.83,4.48,.23,2.38-.06,4.67-.94,6.89-.32,.81-.82,1.19-1.62,1.31-1.57,.24-3.13,.6-4.68,.93-.27,.06-.53,.2-.78,.3-.7-.91-.69-2.53,.06-3.56,.12,.15,.24,.3,.35,.44,1.27,1.71,2.8,1.79,4.29,.26,.87-.9,1.43-1.95,1.47-3.25,.04-1.27,.07-2.55-.06-3.8-.14-1.33-.8-2.31-2.04-2.69-.15-.05-.28-.15-.49-.27Z"/><path class="h" d="M169.06,193.53c.24-1.4,.53-2.51,1.28-3.41,.72-.88,1.48-.91,2.23-.1,1.92,2.09,1.31,5.56-.79,7.17-.52,.4-1.07,.31-1.58-.03-.54-.35-.89-.88-.98-1.56-.1-.77-.12-1.55-.16-2.08Z"/></g></g><g id="f"><g><path d="M139.82,186.15c-1.15-.18-1.69-1.04-1.33-2.13,.07-.21,.22-.43,.2-.64-.13-2.36-1.42-4.03-3.25-5.37-.69-.5-1.44-.93-2.1-1.46-1.49-1.18-3.28-1.18-4.81,0-1.5,1.17-3.03,2.28-4.52,3.47-1.57,1.26-3.22,2.45-4.62,3.89-2.08,2.14-4.03,4.43-5.94,6.74-2.31,2.79-4.5,5.68-6.76,8.51-1.28,1.6-2.56,3.2-3.91,4.75-.61,.69-1.37,1.26-2.42,.74-.17-.09-.42-.11-.6-.06-1.04,.3-2.16,.48-3.09,.99-1.75,.97-3.41,2.12-5.08,3.23-.98,.66-1.9,1.43-2.87,2.11-.63,.45-1.31,.83-1.95,1.26-.85,.56-1.68,1.15-2.54,1.69-1.04,.66-2.26,1.16-2.79,2.34-.97,2.18-1.81,4.41-2.71,6.62-.22,.55-.49,1.09-.71,1.64-.38,.95-.72,1.91-1.1,2.85-.68,1.69-1.38,3.37-2.08,5.05-.87,2.1-1.76,4.18-2.63,6.28-.52,1.25-1.34,2.41-1.31,3.85,.02,1-.03,2.01,.03,3.01,.07,1.05,.02,2.18,.43,3.11,.88,2.01,1.55,4.14,3,5.86,.12,.15,.19,.36,.23,.55,.23,1.05,.53,2.09,.65,3.15,.09,.82,.03,1.67-.08,2.49-.1,.73-3.97,7.64-4.05,8.36-.03,.28-.11,.46-.21,.59,1.91,.52,23.63,13.15,26.06,15.82,.23,.25,1.76,1.15,1.99,1.4,.31-.25,6.32-7.91,7.1-7.83,2.76,.48,5.48,.21,8-.94,2.09-.96,4.1-2.16,6.03-3.42,3.55-2.31,6.28-5.34,7.81-9.38,.22-.57,.75-1.16,1.29-1.44,2.6-1.33,4.21-3.48,5.27-6.1,.25-.63,.17-1.4,.44-2.01,.83-1.92,1.26-3.96,1.13-5.99-.21-3.46-.8-6.9-1.16-10.35-.37-3.6-.65-7.21-1-10.81-.13-1.32-.08-2.71-1.38-3.61-.87-.6-1.65-1.31-2.51-1.93-.67-.48-1.27-.8-2.24-.32-1.7,.84-3.55,1.38-5.36,1.99-.28,.09-.66-.12-1-.2,.11-.33,.12-.77,.35-.97,.46-.42,1.01-.76,1.57-1.05,2.51-1.32,4.57-3.2,6.46-5.27,1.23-1.35,2.39-2.77,3.48-4.23,1.14-1.53,2.21-3.12,3.24-4.72,.66-1.03,1.21-2.12,1.79-3.2,1.07-2.01,2.17-4,3.17-6.04,1.27-2.61,1.93-5.4,2.11-8.29,.13-2.08-1.66-4.28-3.71-4.6Z"/><g><path class="j" d="M133.94,251.9c.01-.51,.33-1.02,.28-1.51-.5-4.7-1.06-9.39-1.58-14.09-.22-1.98-.4-3.97-.53-5.96-.12-1.84-.47-3.52-1.79-4.95-1.27-1.37-2.15-1.61-3.84-.79-1.05,.51-2.14,.94-3.24,1.31-.77,.26-1.62,.31-2.39,.57-1.46,.51-2.94,.69-4.47,.52-1.32-.15-2.55,.04-3.67,.85-.43,.31-.96,.48-1.45,.69-.48,.21-1.05,.29-1.46,.58-1.65,1.2-3.27,2.45-4.87,3.72-.52,.41-1.21,.85-1.36,1.41-.55,2.02,.4,3.71,2.31,4.64,1.5,.72,3.06,1.07,4.73,1.26,2.55,.29,5.04,.29,7.49-.46,1.83-.56,3.64-1.2,4.85-2.86,.5-.68,1.12-1.27,1.65-1.87,.84,.34,.46,.87,.33,1.26-.38,1.11-.43,2.35-1.35,3.27-1.25,1.23-2.8,1.83-4.43,2.25-1.07,.28-2.23,.48-2.5,1.75-.19,.88-.19,1.84-.08,2.74,.12,.98,.49,1.92,.69,2.9,.06,.29-.13,.63-.2,.94-.31-.14-.64-.25-.92-.43-.12-.08-.19-.29-.22-.45-.22-1.11-.48-2.21-.63-3.33-.22-1.64-.99-2.78-2.88-2.41-.44,.09-.9,.21-1.34,.2-2.6-.04-4.9,.99-7.17,2.05-1.08,.51-2.19,1.09-3.06,1.89-2.23,2.06-4.11,4.43-5.48,7.18-.42,.84-1.12,1.33-2.19,1.6,.07-.34,.06-.56,.15-.72,1.43-2.39,2.61-4.94,4.59-6.97,1.38-1.42,2.66-2.97,4.52-3.79,1.78-.79,3.59-1.49,5.37-2.25,.36-.15,.69-.4,1.03-.6-.35-.27-.69-.54-1.04-.8-.07-.05-.16-.06-.25-.07-1.71-.24-3.1-1.07-4.32-2.27-.26-.25-.73-.45-1.08-.42-1.46,.16-2.78-.17-4.07-.83-1.55-.79-2.88-1.84-3.88-3.27-1-1.45-1.22-3.1-1.24-4.81,0-.2-.16-.39-.24-.59-.18,.1-.38,.17-.52,.31-.14,.14-.21,.34-.31,.51-.53,.91-1.11,1.79-1.56,2.73-.27,.57-.56,1.28-.45,1.86,.55,3.11,1.31,6.16,1.42,9.35,.06,1.59-.17,3.08-.43,4.6-.09,.57-.2,1.13-.37,1.68-.07,.23-.31,.42-.48,.62-.17-.21-.46-.41-.48-.63-.04-.42,.06-.86,.14-1.28,.15-.78,.42-1.56,.49-2.35,.08-.85,.05-1.72-.03-2.57-.17-1.78-.26-3.59-.66-5.32-.5-2.21-1.3-4.36-1.91-6.55-.09-.33,.05-.78,.21-1.1,.05-.1,.56,.08,.85,.06,.4-.04,.98-.01,1.15-.25,.68-.95,1.35-1.94,1.78-3.01,.39-1,.77-1.92,1.6-2.64,.67-.58,1.03-1.33,1.1-2.25,.12-1.52,.15-1.52,1.65-1.34,.94,.11,1.21,.59,.88,1.48-.7,1.89-1.47,3.76-2.07,5.68-.39,1.27-.41,2.6,.18,3.87,.83,1.8,2.21,3.02,4,3.8,.6,.26,1.21,.5,1.85,.64,.81,.17,1.05-.2,1.07-1.04,.04-1.3,.21-2.55,1.44-3.42,1.69-1.2,3.44-2.37,4.9-3.81,1.39-1.36,2.55-3,3.61-4.64,.32-.5,.23-1.53-.06-2.12-.75-1.51-1.7-2.92-2.6-4.34-1.67-2.63-3.53-5.1-5.78-7.27-.8-.77-1.51-1.63-2.2-2.5-.66-.83-1.61-1.3-2.46-1.07-.55,.15-1.14,.25-1.62,.53-1.35,.75-2.72,1.48-3.96,2.39-2.68,1.94-5.28,3.98-7.91,5.98-.16,.12-.37,.16-.53,.28-.61,.47-1.29,.88-1.79,1.45-.85,.94-1.32,2.06-1.63,3.34-.31,1.31-1.05,2.51-1.57,3.77-.48,1.15-.91,2.32-1.36,3.48-.95,2.43-1.96,4.85-2.82,7.31-.54,1.53-.75,3.18-1.29,4.71-.51,1.45-.5,2.93-.63,4.41-.06,.7-.15,1.4-.23,2.1-.02,.17-.08,.36-.03,.52,.25,.82,.45,1.67,.82,2.43,.64,1.33,1.48,2.58,2.08,3.93,.48,1.08,.76,2.25,1.09,3.4,.52,1.84,.54,3.65-.23,5.45-.24,.57-4.6,7.78-4.23,7.91,1.33,.44,13.07,7.28,14.15,7.85,3.23,1.73,10.78,6.63,11.44,6.22,.41-.25,3.49-6.11,3.82-6.45,.6-.63,1.18-.85,2.06-.5,2.27,.93,4.61,.95,6.98,.38,1.69-.4,3.19-1.15,4.72-1.96,2.19-1.16,4.32-2.4,6.21-4,.71-.6,1.43-1.3,1.83-2.12,.91-1.83,1.64-3.75,2.41-5.65,.22-.54,.56-.76,1.11-.93,.97-.31,1.98-.63,2.54-1.62,.73-1.28,1.4-2.6,2.2-3.84,1.09-1.7,1.62-3.53,1.67-5.53Zm-30.61-26.62c1.36-.42,2.73-.81,4.13-1.21,.27,1.04-.28,1.46-.78,1.59-1.03,.26-2.1,.32-3.17,.43-.14,.01-.39-.19-.43-.33-.03-.14,.12-.44,.24-.48Z"/><path class="j" d="M104.96,204.61c1.28-.57,2.52-1.46,4.03-.77,1.1,.51,2.36,.87,3.23,1.65,1.62,1.45,3,3.16,4.52,4.73,.16,.16,.66,.22,.83,.09,2.52-1.89,4.66-4.17,6.65-6.59,1.01-1.23,1.82-2.61,2.76-3.9,2.01-2.76,4.11-5.46,6.05-8.28,1.23-1.78,2.21-3.73,3.36-5.57,1.27-2.05,1.32-3.52-.28-5.3-1.18-1.32-2.52-2.39-4.4-2.94-1.62-.48-2.58-.09-3.72,.82-1.35,1.08-2.83,2-4.19,3.07-1.4,1.1-2.87,2.16-4.05,3.47-2.1,2.36-4.01,4.88-5.99,7.35-2.72,3.41-5.44,6.82-8.15,10.24-.52,.66-1.01,1.35-1.51,2.03l.16,.22c.23-.11,.46-.23,.7-.33Z"/><path class="j" d="M126.19,203.42c-1.51,1.89-3.12,3.71-4.76,5.49-.83,.9-1.8,1.67-2.75,2.44-.58,.47-.78,1.02-.37,1.64,.61,.94,1.25,1.87,1.9,2.78,.56,.79,.99,1.6,.9,2.61-.06,.69-.05,1.38-.06,2.07-.02,.9,.69,1.46,1.37,1.02,1.25-.8,2.5-1.62,3.63-2.56,1.34-1.12,2.71-2.27,3.81-3.62,1.78-2.18,3.49-4.45,4.99-6.84,1.97-3.15,3.93-6.32,5.47-9.73,.95-2.11,1.43-4.27,1.81-6.26,.26-2.07-.09-3.66-1.86-4.64-1.31-.73-2.65-.5-3.58,.75-2.65,3.6-5.24,7.24-7.83,10.88-.92,1.3-1.68,2.72-2.67,3.97Z"/><path class="j" d="M104.05,208.85c1.58,1.79,3.2,3.55,4.63,5.44,1.37,1.8,2.64,3.7,3.73,5.67,.74,1.33,1.53,2.81,.52,4.44-.33,.53,.06,1.16,.68,1.04,1.29-.25,2.49,.17,3.73,.26,.77,.06,1.29-.31,1.47-1.04,.33-1.37,.61-2.74,.91-4.12,.31-1.93-.2-3.57-1.46-5.06-.69-.82-1.22-1.77-1.85-2.64-1.57-2.15-2.84-4.57-5.08-6.17-1.37-.98-2.87-1.68-4.6-1.09-.78,.26-1.46,.85-2.24,1.04-1.4,.34-1.16,1.41-.45,2.21Zm11.17,11.17c.37-.36,2.19-.41,2.59-.1,.11,.09,.21,.19,.36,.32-.8,.99-1.8,.79-2.71,.83-.18,0-.44-.28-.52-.49-.05-.14,.14-.41,.28-.55Z"/></g></g></g><g id="g"><g><path d="M104.5,281.98c-.7-.74-12.71-16.66-35.46-18.35-1.4-.1-2.82-.03-4.23,.07-.87,.06-1.85,.09-2.56,.52-3.25,1.96-6.29,4.23-9.06,6.85-1.35,1.28-2.77,2.48-4.1,3.77-2.65,2.55-5.27,5.12-7.89,7.7-.84,.82-1.63,1.69-2.42,2.57-1.11,1.23-2.19,2.49-3.3,3.73-1.01,1.13-2.12,2.19-3.06,3.37-1.61,2.03-3.13,4.14-4.68,6.22-1.88,2.51-3.77,5.01-5.65,7.52-1.36,1.83-2.74,3.64-4.06,5.51-1.3,1.84-2.52,3.72-3.77,5.59-.91,1.34-1.81,2.69-2.72,4.03-1.75,2.57-3.48,5.16-5.27,7.7-2.35,3.35-4.28,6.91-5.81,10.7-.23,.57-.4,1.19-.45,1.79-.05,.73,.06,1.48,.11,2.22,.05,.83,0,1.68,.18,2.47,.49,2.16,1.56,3.96,3.44,5.25,.37,.25,.84,.75,.81,1.1-.09,1.1-.37,2.2-.61,3.28-.36,1.67-.8,3.33-1.12,5.01-.17,.92-.08,1.88-.24,2.8-.49,2.75-.56,5.5,.01,8.22,.39,1.83,.91,3.65,1.57,5.4,1.03,2.72,2.19,5.39,3.37,8.04,.68,1.53,1.5,3.01,2.29,4.5,.17,.31,.42,.6,.67,.85,.74,.72,1.69,1.31,1.84,2.42,.14,1.08,.08,2.18,.16,3.26,.15,1.93,.39,3.84,1.97,5.23,.3,.27,.58,.56,.88,.82,1.34,1.12,2.81,2.04,4.49,2.55,1.79,.55,3.61,1.05,5.4,1.58,.92,.28,1.81,.67,2.75,.88,1.89,.43,3.7-.2,5.48-.68,1.56-.42,3.05-1.11,4.6-1.6,1.08-.34,2.19-.74,3.31-.79,2.5-.12,5.01-.03,7.52-.06,.59,0,1.19-.1,1.77-.22,1-.2,2-.42,2.99-.68,2.14-.56,4.43-.83,6.39-1.78,2.92-1.42,5.63-3.24,8.04-5.52,2.5-2.37,4.61-4.95,5.6-8.27,.81-2.7,1.43-5.46,2.16-8.19,.44-1.66,.35-1.84,2.04-2.07,1.84-.25,3.21-1.14,4.02-2.73,.52-1.02,.72-2.2,1.08-3.3,.83-2.57,1.81-5.1,2.47-7.72,.62-2.46,1.01-4.96,2.07-7.3,.19-.43-.02-1.02,.11-1.49,.52-1.89,1.12-3.76,1.67-5.65,.39-1.31,.75-2.63,1.12-3.94,.39-1.4,.81-2.79,1.17-4.2,.61-2.38,1.14-4.77,1.8-7.14,.58-2.11,1.28-4.18,1.93-6.27,.29-.92,.62-1.84,.87-2.77,.78-2.86,1.56-5.72,2.29-8.59,.64-2.52,1.2-5.06,1.81-7.58,.61-2.52,1.22-5.04,1.85-7.56,.31-1.24,.71-2.46,1.02-3.7,.2-.78,.28-1.58,.46-2.36,.4-1.69,.96-3.36,1.23-5.07,.27-1.63,.88-6.62-.36-7.94Z"/><g><g><path class="i" d="M87.49,342.2c-2.08-2.23-4.06-4.56-6.14-6.8-1.07-1.16-2.18-2.31-3.41-3.3-2.75-2.22-5.56-4.37-8.4-6.48-3.59-2.68-7.55-4.72-11.63-6.5-3.13-1.37-6.32-2.64-9.69-3.31-3.04-.6-6.08-1.2-9.14-1.63-1.77-.25-3.59-.21-5.38-.21-1.81,0-3.63-.03-5.42,.18-3.76,.45-7.47,1.25-11.08,2.44-1.12,.37-2.01,.96-2.59,2.08-.56,1.08-1.33,2.06-2.02,3.07-.91,1.31-1.85,2.6-2.76,3.92-.67,.98-1.29,2-1.95,3-1.25,1.88-2.67,3.67-3.73,5.64-1.19,2.22-2.17,4.54-2.39,7.17-.15,1.76-.31,3.46,.24,5.16,.41,1.28,1.01,2.44,2.21,3.18,.6,.37,1.04,.19,1.33-.39,.23-.46,.32-.99,.58-1.41,.58-.91,.44-1.64-.33-2.36-.47-.44-.4-.98,.13-1.29,.66-.38,1.36-.77,2.1-.91,1.5-.29,3.04-.46,4.56-.6,2.2-.2,4.4-.33,6.6-.49l.02,.26c1.08,.07,2.17,.05,3.22,.24,1.68,.31,3.33,.78,5,1.18,3.13,.75,6.28,1.43,9.39,2.28,2.84,.79,5.63,1.76,8.44,2.67,1.97,.64,3.94,1.3,5.92,1.93,1.52,.49,3.12,.77,4.54,1.45,2.64,1.26,5.25,2.62,7.72,4.16,2.46,1.54,4.82,3.27,7.09,5.09,1.7,1.36,3.29,2.88,4.75,4.5,1.26,1.4,2.25,3.05,3.39,4.57,1,1.33,.78,2.23-.74,2.94-.2,.09-.46,.25-.52,.44-.14,.4-.28,.86-.22,1.26,.03,.2,.56,.53,.77,.47,.59-.16,1.18-.43,1.69-.77,.96-.65,1.08-1.74,1.35-2.77,.77-2.95,1.64-5.87,2.43-8.81,.52-1.93,.95-3.88,1.47-5.81,.4-1.45,.91-2.87,1.32-4.32,.7-2.49,1.3-5.02,2.08-7.49,.45-1.43,.21-2.52-.8-3.61Z"/><path class="i" d="M96.45,309.39c-1.01-.85-1.84-1.91-2.82-2.8-2.55-2.3-5.08-4.63-7.73-6.8-3.26-2.67-6.88-4.83-10.64-6.71-2.33-1.17-4.77-2.15-7.21-3.07-1.97-.74-4-1.35-6.04-1.83-2.34-.55-4.71-1.08-7.1-1.31-2.67-.26-5.38-.3-8.06-.21-2.42,.08-4.83,.43-7.23,.76-.72,.1-1.53,.39-2.05,.86-.9,.82-1.6,1.85-2.4,2.78-.91,1.06-1.9,2.07-2.76,3.17-1.35,1.73-2.59,3.55-3.93,5.29-1.31,1.69-2.76,3.28-4.02,5.01-2.14,2.93-4.18,5.92-6.24,8.9-.18,.26-.27,.6-.48,1.08,.45-.04,.65-.04,.84-.08,3.07-.77,6.12-1.6,9.3-1.76,2.4-.12,4.81-.38,7.21-.33,4.48,.1,8.89,.75,13.24,1.9,3.78,1,7.48,2.23,10.98,3.94,2.76,1.35,5.45,2.87,8.12,4.4,3.81,2.18,7.23,4.9,10.51,7.8,1.78,1.58,3.52,3.23,5.15,4.96,1.81,1.91,3.48,3.96,5.22,5.93,.16,.18,.43,.46,.58,.42,.23-.06,.49-.32,.57-.55,.29-.83,.52-1.68,.74-2.53,.46-1.76,.87-3.54,1.34-5.3,.47-1.78,1.01-3.55,1.48-5.33,.52-1.96,.96-3.93,1.49-5.88,.47-1.7,1.04-3.37,1.52-5.06,.41-1.42,.75-2.86,1.15-4.28,.35-1.26,.42-2.37-.74-3.35Z"/><path class="i" d="M103.32,285.91c.38-1.48-.1-2.46-1-3.41-1.31-1.38-2.68-2.7-4.02-4.05-2.17-2.19-4.74-3.85-7.43-5.3-1.99-1.08-4.08-2-6.16-2.93-1.86-.83-3.73-1.68-5.67-2.32-2.16-.72-4.36-1.38-6.6-1.75-2.32-.38-4.7-.41-7.06-.5-.78-.03-1.63,.08-2.34,.37-2.79,1.14-5.25,2.85-7.49,4.82-2.78,2.45-5.46,5.02-8.13,7.58-1.26,1.21-2.39,2.56-3.63,3.79-1.07,1.05-2.21,2.02-3.49,3.18,.33,.06,.57,.17,.81,.15,1.59-.11,3.19-.28,4.78-.37,2.93-.16,5.85-.2,8.79,.2,2.97,.4,5.89,.91,8.78,1.68,4.7,1.25,9.2,3.03,13.45,5.36,4.72,2.58,9.24,5.5,13.19,9.2,2.37,2.22,4.68,4.49,7.03,6.73,.21,.2,.5,.34,.75,.5,.16-.26,.4-.49,.48-.77,.51-1.78,.97-3.57,1.46-5.36,.75-2.78,1.51-5.55,2.24-8.33,.31-1.18,.66-2.37,.82-3.58,.21-1.62,.02-3.32,.42-4.88Z"/></g><path class="j" d="M72.9,366.02c-1.49-1.48-3.2-2.76-4.9-4-3.33-2.44-6.7-4.84-10.42-6.67-1.8-.89-3.65-1.71-5.52-2.43-1.48-.57-3.04-.91-4.55-1.4-1.43-.47-2.81-1.06-4.25-1.49-2.91-.88-5.84-1.73-8.78-2.53-1.73-.47-3.49-.84-5.24-1.25-.92-.21-1.85-.4-2.77-.6-1.34-.3-2.66-.68-4.01-.89-1.69-.26-3.39-.4-5.1-.53-.95-.07-1.91-.08-2.86-.01-1.28,.09-2.56,.19-3.81,.46-.68,.15-1.5,.49-1.89,1.01-.65,.87-1.12,1.93-1.48,2.97-.64,1.85-1.18,3.73-1.7,5.61-.42,1.51-.88,3.03-1.09,4.58-.27,1.98-.3,3.98-.42,5.67-1.05,4.09,.06,7.66,1.16,11.18,.66,2.11,1.68,4.1,2.59,6.13,.25,.57,.7,1.05,.99,1.6,1.09,2.08,2.04,4.23,3.9,5.8,.36,.3,.62,.77,.8,1.21,.64,1.54,.62,3.17,.58,4.81-.06,2.07,.23,4.03,2.5,4.97,.15,.06,.27,.21,.42,.29,.82,.46,1.6,1.16,2.48,1.3,2.38,.38,4.57,1.12,6.67,2.32,.73,.42,1.84,.39,2.73,.26,1.08-.16,2.11-.69,3.18-.96,1.95-.49,3.92-.91,5.88-1.34,.66-.15,1.33-.34,2-.39,1.03-.07,2.1,.1,3.1-.08,1.65-.3,3.28-.41,4.96-.29,1.66,.12,3.35,.12,5.01,0,2.58-.2,5.05-1.01,7.31-2.2,1.72-.9,3.24-2.23,4.78-3.44,1.21-.95,2.38-1.96,3.48-3.04,1.24-1.21,2.17-2.64,2.76-4.28,.55-1.52,1.12-3.03,1.7-4.53,.46-1.19,1.09-2.33,1.43-3.55,.58-2.06,.98-4.16,1.48-6.24,.16-.69,.24-1.44,.59-2.03,.33-.55,.28-1.01-.02-1.4-1.19-1.56-2.31-3.22-3.69-4.59Zm-43.13,22.18c-.5-.73-1.07-1.42-1.5-2.19-1.47-2.64-3.84-4.2-6.47-5.43-.66-.31-1.41-.47-2.13-.6-.67-.12-1.36-.2-1.99,.31-.17,.14-.7,.11-.81-.03-.15-.2-.16-.62-.06-.88,.37-.95,1.27-1,2.09-1.02,3.13-.09,5.56,1.48,7.85,3.37,1.8,1.49,2.91,3.38,3.34,5.68,.05,.25,0,.52,0,.77l-.33,.03Z"/></g></g></g></svg>