<?xml version="1.0" encoding="UTF-8"?><svg xmlns="http://www.w3.org/2000/svg" viewBox="0 0 433.18 406"><defs><style>.c`{fill:#fff;}.ca{fill:#90278e;}.cb{fill:#6a0c11;}.cc{fill:#fccb98;}.cd{fill:#bbbdbf;}.ce{fill:#975724;}.cf{fill:#231f20;}.cg{fill:#ec2024;}</style></defs><g id="a"><g id="b"><path d="M86.63,62.21c.54,1.72,2.7,2.87,4.47,2.78,6.15-.3,10.73-4.09,10.99-4.18,3.4-1.2,1.66-.42,4.6-1.4,.2-.04,.4-.08,.6-.12,2.41-.45,4.24-1.68,5.32-3.86,.78-1.57,.32-3.05-1.56-3.39-2.03-.37-3.78,.21-5.44,1.4-2.25,1.62-4.54,3.18-6.89,4.64-2.74,1.7-5.59,1.4-6.93-.89-1.61-2.76-3.39-5.56-4.29-8.58-1.6-5.42-2.71-11-3.81-16.56-.68-3.45-1.55-6.66-4.52-8.92-2.27-1.73-4.77-1.68-6.51,.27-1.71,1.91-1.96,4.89,.2,6.71,1.02,.86,2.03,1.77,2.79,2.84,.55,.78,.96,1.86,.96,2.8-.01,1.95-1.62,2.86-3.36,2.02-1.59-.78-3.1-1.73-4.7-2.5-1.61-.77-3.24,.06-3.89,1.89-.51,1.42,.2,2.59,1.91,3.1,.32,.09,.65,.14,.96,.24,2.13,.74,4.35,1.31,6.36,2.29,2.18,1.06,3.73,2.89,4.46,5.27,.9,2.9-.02,4.38-3.03,4.97-1.87,.36-3.74,.67-5.32,1.87-1.97,1.51-2.08,4.01-.08,5.45,1.58,1.14,3.51,1.7,5.39,1.26,2.22-.52,4.38-1.38,6.5-2.27,.7-.29,1.36-.38,1.95-.27,.2,.03,.38,.09,.56,.16,.83,.67,1.83,.67,2.14,2.49,.06,.16,.11,.31,.15,.47Z"/></g><g id="c"><path class="ca" d="M96.61,62.51c-.22,.09-2.94,.75-4.21,1.01-.25,.05-.51,.1-.76,.13-3.48,.28-3.48-1.72-4.74-4.2-.09-.13-.18-.25-.28-.38-1.53-2.16-3.94-2.69-6.37-1.42-2.27,1.18-4.6,1.91-7.2,1.67-1.31-.12-2.13-.75-2.14-1.87-.01-1.15,.76-1.78,2.07-1.94,1.2-.15,2.46-.28,3.57-.74,3.97-1.61,4.77-4.21,2.74-8.19-1.93-3.79-5.09-6.16-9.65-6.76-.79-.1-1.52-.43-2.24-.76-.6-.26-1.88-.19-1.19-1.69,.33-.71,1.18-1.06,1.9-.75,1.04,.44,2.02,1.03,3.05,1.51,.73,.34,1.47,.68,2.24,.89,1.64,.45,3.12-.12,4-1.53,.47-.75,.96-1.54,1.23-2.38,.61-1.91-.65-2.99-1.95-4.07-1.03-.86-2.07-1.75-2.9-2.79-.94-1.17-.57-2.93,.7-3.89,.89-.68,2.17-.73,3.37,.47,2.84,2.84,4.19,6.37,4.83,10.24,.66,3.98,1.08,8.03,2.08,11.93,1.06,4.13,3.39,7.75,5.75,11.31,.66,1,1.38,1.8,2.3,2.33,.19,.1,.39,.2,.62,.28,3.73,.02,4.96-.42,9.12-3.73,.18-.15,.36-.31,.55-.46,1.67-1.35,3.49-2.46,5.57-3.23,.95-.35,1.76-.11,2.15,.66s-.02,1.71-.79,2.08c-1.11,.54-2.25,1.04-3.38,1.55-.23,.1-.45,.2-.68,.3-1.82-.17-7.83,3.75-9.37,4.41Z"/></g></g><g id="d"><g id="e"><path d="M112.73,67.92c-1.1-.36-8.66-5.26-18.3-6.45-9.25-1.14-20.58,1.41-21.86,1.57-.23,.05-.46,.1-.69,.14-1.16,.24-2.31,.48-3.47,.69-1.33,.25-2.28,.8-2.76,2.14-.47,1.31-1.06,2.57-1.64,3.95-.39-.24-.69-.44-1.01-.62-1.66-.94-3.68-1.08-4.94,.52-1.1,1.4-2.34,2.7-3.56,4-1.36,1.45-2.52,3.15-4.35,3.99,0-2.36-.02-4.67,0-6.97,.01-1.03,.12-2.06,.17-3.09,.07-1.52,1.41-2.17,2.17-3.22,1.78-2.45,2.63-5.3,3.71-8.08,1.67-4.3-1.44-10.94-5.76-12.88-1.85-.83-2.63-.56-3.22,1.41-.38,1.26-.7,2.54-1.09,3.8-.13,.4-.41,.76-.62,1.13l-.3-.12c0-.44-.1-.91,.02-1.32,.9-3.17-.25-5.74-2.35-8.01-.98-1.06-1.83-1.17-2.92-.16-.93,.86-1.69,1.93-2.43,2.97-1.41,2-2.62,4.14-4.71,5.56-1.55,1.05-1.56,1.06-2.43-.71-.04-.07-.09-.14-.11-.22-1.04-3.05-3.38-4.93-6.01-6.51-1.59-.96-2.69-.6-3.03,1.22-.56,2.99-.81,6.03-1.31,9.03-.45,2.71-.76,5.49-1.66,8.06-1.16,3.33-2.87,6.47-4.29,9.72-.3,.7-.63,1.57-.47,2.25,.65,2.71,1.48,5.38,2.25,8.07,.74,2.6,1.63,5.18,2.19,7.82,.6,2.83,.81,5.73,1.32,8.58,.7,3.89,.47,7.77-.16,11.62-.49,3.01-1.21,5.98-1.94,8.94-.5,2.02-3.14,17.01-3.41,17.51,4.12,.25,5.41-1.77,9.31-.3,5.33,2,10.09,5.3,15.68,6.53,.31,.07,4.2-9.96,5.64-10.98,2.63-1.86,5.4-3.62,7.72-5.84,2.66-2.54,4.86-5.54,6.25-9.04,.28-.71,.78-1.37,1.29-1.95,1.35-1.55,3.17-1.95,5.13-2.06,1.56-.09,2.22,1.06,3.08,2,1.41,1.54,2.96,2.89,5,3.58,.97,.33,1.43,1.11,1.31,2.14-.31,2.66-.62,5.32-.99,7.98-.68,4.86-2.27,9.45-4.48,13.81-.39,.76-1.13,1.45-1.86,1.92-.92,.59-2.03,.89-3.02,1.37-2.28,1.1-4.55,2.26-5.83,4.6-.3,.54-.66,1.48-.42,1.81,.81,1.1,1.75,2.64,2.88,2.87,3.03,.64,6.19,.99,9.28,.9,3.96-.12,7.89-.82,11.85-1.2,3.65-.36,7-1.43,9.85-3.82,2.28-1.91,1.83-2.82-.05-4.58-.18-.17-.43-.25-.64-.38-2.96-1.84-6.33-2.25-9.82-2.78-.08-.85-.2-1.63-.23-2.41-.23-6.83,1.6-13.23,4.05-19.52,.48-1.24,1.25-1.74,2.35-1.99,7.31-1.66,11.63-6.95,15-13,2.61-4.7,4.74-9.72,6.61-14.77,2.17-5.85,3.86-11.89,5.69-17.87,.54-1.77-.03-2.8-1.63-3.33Z"/></g><g id="f"><path class="cc" d="M36.22,81.89c.92-2.68,1.88-5.19,2.64-7.77,.32-1.09,.08-2.33,.34-3.44,.28-1.2,.63-2.5,1.32-3.48,4.14-5.89,6.61-12.42,7.91-19.45,.13-.68,.36-1.33,.6-2.16,2.04,.21,3.62,1.15,4.62,2.94,2.21,3.96,2.01,7.93-.28,11.76-1.32,2.2-2.92,4.24-4.32,6.39-.34,.51-.54,1.19-.59,1.81-.21,2.67-.25,5.35-.55,8.01-.25,2.25-1.53,4.1-2.84,5.88-.41,.56-.76,1.17-1.22,1.68-.71,.77-.43,1.3,.39,1.89,1.7-1.45,3.47-2.79,5.03-4.35,2.71-2.7,5.23-5.6,7.95-8.3,1.37-1.35,2.96-2.55,5.15-1.69,1.67,.66,2.17,2.17,2.55,3.66,.98,3.95,2.19,7.83,4.8,11.01,1.44,1.76,3.26,3.2,4.88,4.81,.27,.27,.59,.74,.54,1.06-.41,2.48-3.17,4.08-5.67,3.66-4.14-.69-6.9-3.13-9.07-6.5-.4-.62-.84-1.2-1.27-1.8-.87-1.23-1.81-1.38-3-.45-2.03,1.59-4.07,3.18-6.06,4.83-.44,.36-.7,.95-1.05,1.43l.34,.42c.55-.18,1.14-.28,1.63-.57,1.47-.88,3.05-.57,4.6-.47,.59,.04,1.16,.35,1.76,.48,1.26,.27,1.89,1.12,2.28,2.28,1.5,4.48,3.03,8.94,4.54,13.41,.03,.07,0,.16,0,.41-.74,.25-1.52,.52-2.31,.78-2.44,.81-3.73,2.85-5.16,4.76-1.74,2.33-3.46,4.67-5.3,6.92-.57,.7-1.5,1.12-2.26,1.65-1.47,1.03-3.02,1.97-4.4,3.1-2.19,1.8-6.02,14.56-8.51,13.51-4.36-1.83-18.59-4.38-20.94-4.86,.85-2.34,3.9-18.08,4.62-20.45,1.27-4.14,2.34-8.34,2.52-12.7,.1-2.32,.24-4.63,.23-6.95,0-3.31-.82-6.49-1.97-9.56-1.72-4.57-3.63-9.07-5.35-13.65-.26-.68-.11-1.67,.19-2.37,1.05-2.47,2.47-4.79,3.33-7.32,1.07-3.15,1.87-6.41,2.53-9.67,.62-3.07,.91-6.22,1.36-9.36,3.22,.74,4.92,2.97,5.92,5.79,.67,1.91,1.22,3.91,1.45,5.91,.14,1.18-.22,2.55-.75,3.64-.83,1.72-1.99,3.27-3.01,4.9-.85,1.35-.72,2.76-.07,4.08,1.27,2.61,1.94,5.38,2.14,8.24,.1,1.34-.15,2.71-.25,4.07-1.98,.46-4.09-.43-5.94,.66l-.08,.45c.96,.24,1.91,.54,2.89,.71,2.78,.48,5.6,.8,8.35,1.39,2.71,.59,5.38,1.39,7.63,3.14,1.65,1.28,3.27,2.6,4.95,3.84,.28,.21,.81,.09,1.22,.12-.09-.45-.03-1.12-.3-1.33-2.98-2.27-5.56-5.13-9.24-6.38-.45-.15-.9-.31-1.4-.49Zm.51,38.3c1.37,1.53,2.1,1.5,3.52,.22,2.37-2.14,3.77-4.9,5.25-7.67,2.12-3.96,2.33-8.09,1.6-12.35-.18-1.06-.89-2.02-1.36-3.03l-.59,.1c-.07,.81-.39,1.7-.15,2.41,.56,1.69,.59,3.35,.45,5.08-.5,5.87-2.91,10.71-7.58,14.37-.36,.28-.73,.55-1.14,.87Z"/></g><g id="g"><path class="cd" d="M78.24,142.34l4.05,.64c-2.82,.33-5.33,.52-7.81,.92-4.02,.65-8.1,1.12-11.6,3.49-1.04,.71-2.06,1.46-3.2,2.27-.07-1.86,1.08-2.82,2.29-3.53,2.32-1.36,4.74-2.55,7.15-3.76,1.17-.59,1.96-1.38,2.31-2.68,1.38-5.11,2.96-10.16,4.15-15.31,.62-2.66,.54-5.48,.85-8.22,.15-1.35-.5-2.07-1.5-2.81-2.18-1.6-4.53-3.08-6.33-5.04-2.85-3.1-5.21-6.61-6.21-10.83-.18-.74-.19-1.52-.34-2.71,1.06,.56,1.82,.9,2.51,1.34,3.38,2.15,9.03,1.97,11.52-1.13,1.8-2.24,2.11-4.07-.37-5.69-3.34-2.19-5.69-5.21-7.23-8.83-1.21-2.84-2.18-5.78-3.23-8.69-.26-.71-.08-1.24,.71-1.58,3.62-1.55,7.39-2.52,11.31-2.82,2.76-.21,5.55-.36,8.32-.23,3.48,.16,6.97,.43,10.4,.98,5.35,.86,10.66,1.98,15.98,3,.11,.02,.21,.12,.48,.28-.95,2.8-1.87,5.65-2.88,8.46-1.25,3.48-2.54,6.96-3.89,10.41-.69,1.78-1.53,3.52-2.31,5.27-1.3,2.91-2.53,5.84-3.92,8.7-1.74,3.6-4.42,6.41-7.73,8.62-1.91,1.28-3.86,2.53-6.35,2.24-4.75,8.42-7.69,17.26-7.12,27.23Z"/></g><g id="h"><path class="cc" d="M31,80.55c-.28-2.63-.45-5.22-.87-7.76-.23-1.42-.73-2.85-1.38-4.14-.87-1.72-.92-3.32,.01-4.97,1.04-1.85,2.1-3.7,3.16-5.54,.9-1.56,.37-3.23,.46-4.86,.03-.6,0-1.35,.34-1.77,2.39-3.07,4.86-6.09,7.32-9.11,.69-.85,1.75-.76,2.39,.21,.93,1.39,1.22,3.01,.94,4.58-.87,4.77-2.85,9-6.31,12.49-1.02,1.03-1.44,2.42-1.02,3.89,1.08,3.75,1.33,7.47-.04,11.22-.65,1.79-1.22,3.62-1.72,5.46-.24,.87-.61,1.05-1.42,.75-.57-.21-1.19-.29-1.85-.44Z"/></g><g id="i"><path class="cd" d="M62.94,150.82c8.46-5.86,17.62-6.9,27.48-4.5-.98,1.57-2.59,1.97-4.01,2.51-3.5,1.34-7.15,1.99-10.89,2.38-3.02,.31-6.01,.28-9.02,.15-1.19-.05-2.37-.35-3.56-.54Z"/></g><g id="j"><path class="cd" d="M110.84,69.59c-4.09-.83-8.26-1.41-12.25-2.59-2.94-.87-12.96-1.31-15.02-1.36-4.84-.1-9.52,.8-14.13,2.22-.87,.27-1.78,.38-2.68,.57l-.24-.42c.49-.39,.93-.88,1.48-1.15,2.49-1.23,12.9-4.04,23.39-3.58,6.29,.28,12.62,2.11,17.25,5.1,.69,.45,1.55,.57,2.32,.86l-.12,.35Z"/></g><g id="k"><path class="c`" d="M39.19,66.51c-2.04-2.83-1.18-4.42,.44-6.34,1.72-2.03,3.02-4.43,4.48-6.68,.26-.4,.44-.85,.76-1.23-1.2,4.98-2.72,9.82-5.69,14.24Z"/></g><g id="l"><path class="c`" d="M54.97,90.79l2.77-2.08,1.46,3.04-4.23-.97Z"/></g></g><g id="m"><g id="n"><g><path d="M116.69,234.87c-9.6-4.41-19.06-9.12-20.59-9.7-.12-.2-.24-.39-.41-.51-1.16-.77-2.4-1.41-3.55-2.2-2.03-1.39-3.86-3.14-6.03-4.24-5.78-2.91-11.84-4.81-18.46-4.11-1.36,.15-2.73,.16-4.09,.28-1.12,.1-1.7-.41-1.9-1.47-.33-1.78-.68-3.56-.99-5.34-1.04-5.97-1.96-11.96-3.14-17.9-.86-4.35-2.12-8.61-3.07-12.95-1.41-6.43-2.57-12.92-4.1-19.32-1.19-4.99-2.69-9.9-4.21-14.8-.96-3.09-2.28-6.06-3.3-9.13-.27-.82-1.22-3.8-1.59-4.77-.18-.1-.37-.19-.56-.29-2.8-1.56-5.43-3.43-8.51-4.44-5.66-1.86-11.62-.79-17.29-1.65-.04,.04-.07,.08-.11,.11-1.07,.94-1.44,2.05-1.81,3.26-.39,1.3-.73,2.62-1.14,3.92-1.57,4.98-2.43,10.09-2.92,15.27-.24,2.55-.51,5.09-.79,7.63-.39,3.52-.82,7.04-1.19,10.57-.31,3-.59,6.01-.84,9.02-.4,4.81-.83,9.62-1.11,14.44-.27,4.86-.1,9.72,.68,14.53,.32,1.97-.75,3.58-1.21,5.36-.98,3.78-1.9,7.59-2.57,11.44-.81,4.63-1.46,9.3-1.9,13.97-.13,1.37,.49,2.92,1.11,4.23,.51,1.08,1.48,1.97,2.32,2.88,.59,.63,.89,1.18,.48,2.08-.44,.96-.78,2-.94,3.04-.29,2-.02,3.9,1.65,5.34,.63,.54,1.3,1.05,1.88,1.64,3.72,3.81,7.68,7.33,12.08,10.35,.83,.57,1.57,.75,2.52,.35,2.2-.92,4.42-1.78,6.66-2.61,.36-.13,.98-.18,1.21,.03,1.38,1.25,2.7,2.58,4.01,3.91,2.15,2.19,4.14,4.55,6.44,6.57,2.89,2.54,6.06,4.76,9.03,7.21,2.97,2.45,6.19,4.44,9.82,5.69,3.63,1.24,7.3,2.35,10.94,3.53,6.8,2.19,13.44,4.91,20.74,5.3,5.01,.26,9.99,.43,14.91-.7,2.09-.48,4.13-1.2,6.19-1.84,1.89-.58,3.84-1.03,5.63-1.83,1.67-.74,3.17-1.87,4.74-2.83,.76-.47,1.52-.95,2.34-1.47l-.04-.06c1.36-.65,2.84-1.71,4.31-1.71,.66,0,1.06,.26,1.73,.33,.03,0,.8,.15,.83,.15,2.96,.33,5.08-1.68,5.08-4.66v-12.32c0-12.74-7.41-24.32-18.99-29.63Z"/><path d="M96.39,225.66h0c-.1-.15-.19-.32-.28-.49,.09,.16,.18,.34,.29,.49Z"/></g></g><g id="o"><path class="cc" d="M96.11,226.75c.09,.16-6.67-2.56-9.55-3.41-2.1-.62-4.05-1.46-5.78-2.94-2.39-2.04-5.24-3.22-8.38-3.82-6-1.15-11.46,.63-16.91,2.76-2.52,.99-5.03,1.99-7.09,3.8-.83,.73-1.48,1.67-2.3,2.4-.6,.53-1.36,.88-2.05,1.31l-.5-.46c.39-.63,.67-1.37,1.18-1.87,1.39-1.35,2.91-2.56,4.32-3.88,1.13-1.05,1.13-1.15-.16-1.93-4.79-2.89-9.52-5.91-14.46-8.51-2.56-1.34-5.49-2.02-8.31-2.79-3.1-.85-6.25-1.56-9.41-2.13-2.54-.46-5.13-.61-7.69-.92-.97-.12-1.4,.54-1.56,1.27-1.04,4.86-2.28,9.71-2.95,14.62-.55,4.04-.51,8.18-.55,12.27-.02,2.34,1.2,4.36,2.32,6.37,.23,.41,.22,1.08-.02,1.48-1.49,2.47-.93,4.61,.68,6.4,3.67,4.1,7.89,7.51,12.58,10.38,2.39,1.46,5.26,.67,7.15-1.44-.49-.71-.99-1.45-1.49-2.18-.51-.74-1.01-1.47-1.6-2.32,.95-.39,1.8-.74,2.64-1.09,1.84,2.46,3.49,5.02,5.5,7.27,3.19,3.57,6.49,7.07,9.99,10.34,5.49,5.14,12.08,8.65,18.8,11.93,5.41,2.64,11.09,4.48,16.97,5.68,2.78,.57,5.65,.68,8.46,1.1,1.85,.27,3.65,.85,5.5,1.05,2.42,.26,4.89,.54,7.3,.33,3.18-.28,6.32-1.09,9.49-1.55,1.45-.21,2.95-.06,4.41-.25,.61-.08,1.14-.67,1.74-.95,1.6-.75,3.22-1.47,4.83-2.2,.19-.08,.37-.17,.56-.26,.58-.26,.92-1.21,1.84-.55,.14,.1,.73-.42,1.17-.7,.31,.42,.6,.83,.97,1.33,1.36-.65,2.87-1.03,4.34-1.03,.66,0,1.32,.01,1.98,.09h.08c2.96,.34,7.07-1.91,7.07-4.89v-12.32c0-12.74-9.35-23.33-20.93-28.64-9.6-4.41-18.64-8.58-20.17-9.16Z"/></g><g id="p"><path class="cb" d="M58.58,215.62c-.96,.71-1.98,.71-3.01,.21-3.79-1.84-7.54-3.78-11.37-5.53-4.41-2.02-8.85-4-13.35-5.8-3.01-1.2-6.12-2.24-9.28-2.99-2.56-.61-5.25-.68-7.89-.98-.93-.1-1.86-.15-3.1-.24-.3-1.87-.71-3.81-.89-5.77-.2-2.18-.2-4.38-.28-6.57-.09-2.62-.19-5.25-.24-7.88-.02-1.07,.55-1.69,1.65-1.73,2.48-.09,4.98-.36,7.44-.21,4.84,.28,9.67,.76,14.5,1.21,5.2,.48,10.13,2.02,15.02,3.76,1.57,.56,3.08,1.3,4.66,1.85,1.47,.51,2.02,1.53,2.26,2.98,.51,3.14,1.17,6.25,1.71,9.38,.54,3.14,1.1,6.28,1.5,9.44,.3,2.32,.36,4.68,.53,7.02,.04,.56,.09,1.13,.14,1.83Z"/></g><g id="q"><path class="cb" d="M9.39,176.64c.18-3.96,.35-7.74,.52-11.52,.07-1.55,.1-3.1,.27-4.64,.25-2.4,.59-4.79,.9-7.19,.11-.85,.21-1.71,.34-2.56,.33-2.28,.84-2.87,3.18-2.83,2.22,.03,4.47,.23,6.65,.67,3.55,.71,7.08,1.56,10.55,2.58,2.73,.8,5.35,1.94,8.02,2.93,1.18,.44,2.35,.95,3.56,1.28,2.63,.69,3.99,2.4,4.57,5,.95,4.25,2.03,8.47,3.08,12.69,.61,2.45,1.26,4.88,1.89,7.33,.05,.19,0,.41,0,.87-1.47-.22-2.87-.39-4.27-.63-4.18-.73-8.35-1.47-12.53-2.23-3.05-.55-6.08-1.19-9.14-1.68-1.5-.24-3.04-.31-4.57-.3-3.74,.03-7.48,.15-11.22,.23-.45,0-.91,0-1.81,0Z"/></g><g id="r"><path class="cb" d="M46.12,153.02c-3.96-.97-7.55-1.86-11.15-2.73-4.07-.98-8.18-1.86-12.22-2.95-2.76-.74-5.5-1.31-8.37-1.2-.69,.03-1.38,.12-2.28,.2,.23-1.77,.31-3.53,.71-5.22,1.21-5.02,2.57-10.01,3.85-15.02,.34-1.33,1.51-1.27,2.37-1.2,2.23,.19,4.47,.52,6.66,.97,3.98,.81,7.77,2.13,11.29,4.22,1.89,1.12,2.88,2.77,3.47,4.82,.91,3.16,1.99,6.28,2.98,9.42,.88,2.78,1.73,5.57,2.69,8.68Z"/></g></g><g id="s"><g id="t"><g id="u"><path class="cf" d="M349.87,257.07c-2.31-4.2-4.77-8.34-7.45-12.31-2.82-4.17-6.29-7.82-10.25-10.96-4.24-3.37-8.85-6.17-13.84-8.21-3.35-1.37-6.86-2.39-10.38-3.29-5.19-1.32-10.44-2.38-15.89-3.61,.43-.6,.78-.98,1.01-1.44,.16-.31,.29-.76,.18-1.06-.17-.49-.49-.96-.85-1.33-.35-.36-.81-.65-1.28-.83-.68-.26-1.44-.32-2.11-.59-1.76-.69-3.46-1.58-5.26-2.16-6.39-2.08-12.82-4.04-19.23-6.08-2.6-.83-5.19-1.62-7.96-1.72-1.6-.06-3.18-.34-4.98-.55,.33-.59,.55-1.05,.83-1.48,3.6-5.46,7.39-10.79,10.76-16.39,4.41-7.35,8.54-14.87,11.82-22.83,5.52-13.4,8.53-27.36,9.19-41.82,.2-4.52,.09-9.08-.23-13.6-.37-5.11-.88-10.24-1.79-15.27-2.12-11.75-5.93-22.96-11.41-33.6-6.14-11.93-14.02-22.55-23.89-31.65-8.37-7.71-17.78-13.85-28.26-18.35-9.03-3.87-18.4-6.42-28.18-7.45-1.14-.12-2.28-.33-3.41-.5h-9c-.27,.09-.53,.23-.8,.26-3.12,.28-6.26,.37-9.35,.84-3.95,.61-7.87,1.45-11.78,2.31-5.95,1.31-11.58,3.62-17.19,5.92-2.37,.97-4.72,1.99-7,3.16-1.63,.84-2.07,2.5-1.27,4.14,.38,.78,.87,1.51,1.38,2.21,2.82,3.89,5.92,7.6,8.46,11.66,9.99,15.96,17.83,32.96,23.76,50.83,1.72,5.19,3.38,10.4,2.82,16-.01,.14,.07,.29,.13,.5,1.87-.31,3.69-.61,5.55-.92,.94,3.93,1.84,7.69,2.75,11.49-16.54,4.09-27.76,14.53-35.39,29.54-1.27-1.01-2.45-1.97-3.65-2.89-1.75-1.36-3.39-1.02-4.37,.98-.37,.76-.64,1.62-.76,2.46-.33,2.34-.57,4.69-.83,7.03-.4,3.5-.85,6.99-1.15,10.49-.1,1.22,.02,2.5,.3,3.69,.41,1.69,1.69,2.04,2.87,.98,.31-.28,.82-.5,1.21-.47,.99,.06,1.97,.29,3.12,.47-1.09,7.92,1.04,16.86,3.57,24.69-2.13,.19-3.74,1.31-4.13,3.19-1.21,5.83,5.07,13.96,8.35,18.33-3.07,1.61-4.5,3.83-2.2,7.06-1.24,.82-2.35,1.02-3.58,.59-2.41-.84-4.82-1.7-7.25-2.48-1.5-.48-2.38,.25-2.29,1.87,.03,.5,.3,1.01,.54,1.47,.26,.48,.63,.91,.96,1.37-2.17,.73-4.23,1.36-6.23,2.12-.67,.26-1.19,.88-1.8,1.3-.21,.15-.48,.26-.73,.29-1.15,.11-2.31,.16-3.46,.26-3.48,.3-6.81,1.24-9.99,2.62-7.3,3.18-12.96,8.29-17.07,15.08-1.13,1.87-2.14,3.81-2.91,5.85-3.24,5.6-5.08,11.94-5.08,18.65,0,19.99,13.72,32.37,36.19,31.87,.21,.81,1.86,10.11,2.07,10.93,2.29,8.93,6.47,16.88,12.66,23.73,4.73,5.23,10.1,9.61,16.72,12.25,1.07,.43,1.88,1.08,2.08,2.25,.15,.9,.2,1.81,.27,2.72,.23,3.03,.74,6.03,2.15,8.73,2.65,5.05,5.41,10.05,8.18,15.04,2.97,5.34,6.32,10.43,10.63,14.8,7.23,7.34,15.88,12.44,25.51,15.93,7.39,2.68,15,4.29,22.87,4.54,.22,0,.43,.15,.64,.23h7.5c.21-.08,.42-.21,.64-.23,3.34-.35,6.69-.58,10-1.04,7.29-1.02,14.25-3.21,20.86-6.44,8.11-3.96,15.34-9.14,21.09-16.13,2.5-3.04,4.55-6.48,6.68-9.81,.96-1.5,1.17-3.23,.69-5.02-.61-2.3-1.11-4.64-1.75-6.93-1.36-4.87-1.31-9.86-1.16-14.82,.04-1.38,.84-2.84,1.61-4.06,1.44-2.27,3.12-4.38,4.68-6.57,.52-.72,.77-1.48,.29-2.38-.94-1.76-1.49-3.62-1.16-5.64,.07-.44,.12-.91,.32-1.29,1.36-2.57,2.81-5.1,4.14-7.69,1.4-2.73,2.75-5.48,4.02-8.27,1.27-2.78,2.26-5.71,3.68-8.42,2.11-4.03,4.94-7.54,8.42-10.53,3.33-2.86,6.93-5.25,11.09-6.71,4.41-1.54,8.88-2.92,13.25-4.54,3.67-1.36,7.47-2.51,10.51-5.19,2.27-2,3.71-4.47,3.79-7.54,.1-3.5-1.21-6.69-2.84-9.65Z"/></g></g><g id="v"><path class="cc" d="M116.73,265.45c.33-14.03,.35-27.98,2.97-41.72-21.34,2.18-37.92,16.22-37.92,35.99,0,28.89,15.08,29.19,36.7,31.13-3.31-11.16-2.02-13.6-1.75-25.4Z"/></g><g id="w"><path class="cg" d="M169.03,3.4c1.18-.15,2.22-.34,3.27-.4,3.38-.2,6.77-.53,10.15-.46,3.02,.06,6.04,.57,9.05,.93,6.51,.79,12.79,2.5,18.94,4.74,6.58,2.4,12.96,5.25,18.79,9.17,4.31,2.89,8.6,5.85,12.58,9.16,3.39,2.83,6.36,6.17,9.45,9.35,4.36,4.49,8,9.55,11.34,14.82,3.24,5.11,6.09,10.43,8.53,15.98,2.91,6.63,5.32,13.42,6.91,20.47,1,4.41,1.85,8.88,2.41,13.36,.58,4.57,.8,9.19,1.02,13.8,.15,3.25,.24,6.53-.02,9.77-.38,4.73-1.05,9.44-1.69,14.15-.92,6.77-2.72,13.34-5.02,19.75-1.34,3.72-2.91,7.35-4.5,10.97-1.32,3.02-2.65,6.07-4.26,8.94-2.3,4.09-4.78,8.08-7.33,12.02-2.8,4.32-5.69,8.58-8.66,12.78-2.12,2.99-4.61,5.65-7.81,7.86-1.17-2.83-2.56-5.51-3.32-8.35-.36-1.34,.24-3.1,.82-4.49,2.15-5.16,3.39-10.53,4.35-16.01,.82-4.69,.86-9.4,.65-14.1-.19-4.25-1.21-8.4-2.69-12.4-1.76-4.78-3.57-9.54-5.27-14.34-.37-1.05-.28-2.26-.5-3.38-.74-3.71-1.68-7.33-3.11-10.88-1.93-4.77-4.55-9.07-7.76-12.99-2.27-2.77-4.9-5.29-7.61-7.65-3.58-3.13-7.66-5.59-12-7.56-4.88-2.22-9.95-3.87-15.28-4.64-1.26-.18-2.52-.34-3.77-.5-.88-.12-1.26-.57-1.22-1.51,.2-4.38,.51-8.77,.46-13.15-.04-3.19-.6-6.37-.92-9.56-.19-1.88-.3-3.77-.54-5.65-.43-3.41-.84-6.83-1.43-10.21-.77-4.42-1.61-8.83-2.58-13.21-1.05-4.73-2.26-9.42-3.45-14.12-1.53-6.07-4.14-11.75-6.37-17.57-.6-1.57-1.06-3.19-1.62-4.88Z"/></g><g id="x"><path class="cg" d="M219.89,320.31c4.3-7.38,1.3-17.65-4.59-22.96-3.84-3.46-8.24-5.64-13.29-6.63-.78-.15-1.61-.7-2.16-1.29-2.8-3.03-5.52-6.13-8.27-9.2-1.29-1.45-2.55-2.92-3.85-4.35-.63-.69-.96-1.36-.51-2.32,1.86-3.91,3.71-7.83,5.51-11.77,1.77-3.88,4.79-6.65,7.99-9.27,.86-.71,1.78-1.35,2.89-2.19,.94,2.83,1.87,5.39,2.6,8.01,.27,.97,.81,1.26,1.57,1.14,3.04-.44,6-1.19,8.74-2.62,1.37-.72,1.74-1.68,1.29-3.17-.2-.66-.36-1.33-.49-1.81,3.07-1.64,6.23-3.03,9.08-4.91,3.63-2.4,6.61-5.6,9.43-8.91,.96-1.12,1.81-2.33,2.73-3.48,.88-1.11,.82-2.28,.12-3.42-2.93-4.81-5.88-9.61-8.84-14.41-.53-.86-.73-1.65,.04-2.51,.94-1.04,1.88-2.08,2.68-3.22,.46-.65,.98-.62,1.53-.47,1.88,.53,3.75,1.08,5.6,1.7,1.62,.54,2.97,.17,4.15-.99,1.34-1.31,2.75-2.57,3.96-3.99,1.28-1.5,2.87-1.69,4.6-1.49,4.76,.55,9.35,1.83,13.85,3.46,6.89,2.5,13.53,5.53,19.67,9.56,.68,.45,1.39,.84,2.12,1.28-1.01,1.97-2.05,3.82-2.94,5.74-2.38,5.12-4.04,10.49-5.09,16.04-.66,3.49-1.28,7-1.72,10.52-.4,3.18-.63,6.39-.77,9.6-.24,5.51-.53,11.02-.46,16.52,.06,4.56,.46,9.14,.98,13.68,.59,5.2,1.18,10.43,2.3,15.52,1,4.55,2.64,8.97,4.14,13.4,1.07,3.16,2.81,6,5.01,8.52,.77,.88,1.69,1.63,2.78,2.66-.73,1.14-1.39,2.55-2.38,3.66-2.56,2.87-4.14,6.2-4.85,9.9-1.06,5.47,.21,10.69,2.05,15.82,.56,1.57,1.2,3.13,1.6,4.75,.28,1.14,.29,2.36,.3,3.55,0,.83-.94,1.13-2.04,.61-1.4-.67-2.76-1.44-4.14-2.14-4.89-2.49-9.81-4.93-14.67-7.47-4.9-2.56-9.66-5.35-13.93-8.89-2.88-2.39-5.68-4.88-8.56-7.27-2.3-1.91-4.69-3.71-7.01-5.59-.57-.46-1.05-1.04-1.47-1.47,2.6-1.17,5.2-2.3,7.77-3.51,4.11-1.92,8.24-3.81,11.95-6.47,3.09-2.22,5.95-4.66,8.21-7.75,1.14-1.55,2.43-2.99,3.48-4.59,.32-.49,.06-1.35,.07-2.05-.72,.17-1.63,.11-2.12,.54-1.54,1.33-2.88,2.89-4.37,4.28-4.03,3.79-8.46,6.92-13.72,8.88-2.9,1.08-5.61,2.67-8.46,3.91-1.86,.82-3.8,1.46-5.73,2.11-.35,.12-.93,.04-1.2-.19-1.2-1.01-2.34-2.1-3.47-3.19-3.23-3.11-6.44-6.24-9.71-9.41Z"/></g><g id="y"><path class="cg" d="M266.86,393.53c-3.24,1.49-6.46,3.05-9.74,4.47-5,2.16-10.26,3.46-15.59,4.46-2.49,.47-5.05,.62-7.59,.79-2.64,.17-5.3,.29-7.95,.25-5.18-.08-10.32-.73-15.38-1.81-6.65-1.42-13.02-3.7-19.03-6.9-4.42-2.36-8.54-5.13-12.36-8.38-4.17-3.56-7.73-7.63-10.51-12.35-.97-1.64-1.39-3.59-2.36-5.23-1.51-2.56-3.31-4.95-4.91-7.46-2.87-4.52-4.85-9.41-5.93-14.66-.11-.52-.15-1.12,0-1.61,.58-1.9-.42-3.61-.59-5.41-.15-1.62-1.77-1.78-2.82-2.43-2.78-1.71-5.76-3.13-8.43-4.99-1.87-1.29-3.45-3.04-5-4.73-1.6-1.73-3.06-3.6-4.5-5.46-4.2-5.45-7.21-11.49-9.49-18-1.79-5.1-2.69-10.36-3.86-15.58-.71-3.14-.96-6.39-1.3-9.61-.33-3.15-.57-6.31-.75-9.48-.16-2.69-.23-5.38-.25-8.07-.02-2.58-.05-5.16,.14-7.73,.14-1.93,.61-3.84,.92-5.76,.16-.97,.38-1.94,.41-2.91,.14-4.61,.7-9.14,2.19-13.53,.77-2.27,1.49-4.56,2.33-6.81,.16-.42,.82-.64,1.48-1.12,2.26,5.03,4.33,9.88,6.61,14.63,2.7,5.63,5.45,11.25,8.42,16.75,2.75,5.1,5.83,10.02,8.69,15.06,.48,.85,.7,1.92,.79,2.92,.19,1.93,.16,3.88,.29,5.82,.12,1.88,.25,3.78,.53,5.64,.11,.71,.66,1.34,1.01,2.01h.35l3.2-8.66,.56,.03c.78,1.9,1.5,3.82,2.35,5.68,1.36,2.96,2.75,5.91,4.26,8.79,.39,.75,1.15,1.44,1.91,1.85,2.17,1.17,3.3,3.27,4.82,5.03,1.47,1.69,2.96,3.36,4.38,5.09,.21,.26,.18,.85,.07,1.24-.54,1.91-1.28,3.77-1.69,5.71-.99,4.77,.67,8.97,3.36,12.75,4.21,5.9,10.1,9.14,17.21,10.15,2.36,.34,4.77,.34,7.15,.57,.38,.04,.81,.39,1.08,.71,1.87,2.23,3.72,4.48,5.54,6.75,3.64,4.56,7.23,9.16,10.89,13.71,2.52,3.14,5.1,6.22,7.66,9.32,3.01,3.65,6.69,6.56,10.4,9.44,1.37,1.06,2.47,2.47,3.88,3.47,1.76,1.24,3.68,2.26,5.58,3.3,7.02,3.86,14.05,7.69,21.08,11.53,.18,.1,.38,.17,.58,.26l-.08,.5Zm-109.72-90.56l-.47,.16c0,.47-.1,.97,.02,1.41,.4,1.53,.86,3.04,1.33,4.56,.74,2.4,1.32,4.87,2.3,7.18,1.03,2.41,2.35,4.7,3.72,6.95,1.04,1.71,1.68,3.84,4.13,4.41,.05-.2,.28-.57,.19-.83-.56-1.56-1.16-3.11-1.82-4.63-.58-1.32-1.31-2.59-1.91-3.9-1.98-4.32-3.91-8.67-5.91-12.98-.39-.84-1.04-1.55-1.58-2.32Z"/></g><g id="a`"><path class="cg" d="M141.25,138.44c1.89-3.76,4.18-7.08,6.82-10.18,3.85-4.53,8.27-8.38,13.41-11.35,3.98-2.3,8.24-4.01,12.76-4.88,3.25-.63,6.56-.94,9.86-1.28,7.32-.76,14.05,1.46,20.66,4.24,5.53,2.33,10.34,5.74,14.85,9.67,5.3,4.62,9.61,10,13.16,16.04,3.99,6.8,6.44,14.18,7.94,21.86,.64,3.25,.83,6.6,1.03,9.92,.16,2.75,.23,5.53,0,8.27-.55,6.37-2.07,12.54-4.44,18.5-1.79,4.52-4.19,8.67-7.04,12.58-.73,.99-1.53,1.93-2.31,2.88-.48,.59-.42,1.14-.05,1.79,2.06,3.57,4.17,6.31,6.21,9.89,.53,.92,1.04,1.85,1.63,2.74,.97,1.47,.71,2.2-.32,3.7-1.43,2.09-2.75,4.26-4.35,6.22-2,2.45-4.17,4.82-7.04,6.3-2.2,1.14-4.53,2.05-6.82,3.01-.68,.28-.92-.25-1.08-.82-.74-2.62-1.11-4.48-1.78-7.12-1.25-4.89-2.48-8.96-3.69-13.86-.94-3.84-1.98-7.65-2.82-11.51-.17-.78,.09-1.87,.56-2.52,2.69-3.79,4.72-7.93,6.6-12.15,.71-1.6,1.43-3.2,2.06-4.84,.18-.46,.19-1.07,.04-1.54-.36-1.11-1.4-1.33-2.19-.49-.47,.5-.83,1.11-1.22,1.68-2.38,3.42-4.75,6.84-7.14,10.28-.9-.54-.81-1.21-.54-1.93,2.14-5.55,4.28-11.1,6.42-16.65,2.19-5.66,4.22-11.39,6.64-16.96,1.14-2.62,.7-4.19-1.41-6.01-4.1-3.54-7.96-7.37-11.92-11.08-2.51-2.35-5.02-4.69-7.53-7.03-3.9-3.65-7.79-7.31-11.7-10.95-1.69-1.57-3.43-3.1-5.27-4.76-2.06,1.74-4.1,3.44-6.12,5.17-2.97,2.54-5.93,5.09-8.89,7.64-1.87,1.61-3.78,3.19-5.59,4.86-1.35,1.25-1.79,2.75-1.42,4.67,.54,2.85,.71,5.78,1.08,8.66,.38,3.01,.82,6,1.19,9.01,.3,2.36,.52,4.73,.81,7.09,.28,2.36,.61,4.71,.9,7.07,.21,1.67,.39,3.34,.59,5.01,.4,3.21,.82,6.42,1.22,9.63,.27,2.2,.58,4.39,.73,6.6,.04,.59-.34,1.34-.77,1.77-.19,.2-1.03-.1-1.49-.34-1.52-.79-3-1.66-4.51-2.48-.87-.47-1.62-1.02-1.65-2.14,0-.21-.05-.41-.05-.62-.09-3.98-.16-7.97-.25-11.95-.07-3.28-.16-6.55-.25-9.83-.07-2.53-.17-5.05-.25-7.58-.09-2.9-.16-5.8-.25-8.7-.08-2.57-.15-5.13-.25-7.7-.05-1.36-.1-2.73-.28-4.07-.08-.56-.38-1.21-.8-1.58-2.24-2-4.55-3.92-6.81-5.89-2.27-1.97-4.52-3.97-6.83-6Z"/></g><g id="aa"><path class="cc" d="M290.43,326.78c-3.02-4.28-4.93-8.64-6.3-13.24-1.42-4.77-2.61-9.6-3.15-14.57-.5-4.61-1.15-9.21-1.46-13.83-.34-5.25-.55-10.52-.48-15.77,.05-4.23,.45-8.47,.98-12.68,.44-3.51,1.31-6.96,1.99-10.44,.65-3.32,1.08-6.7,2.02-9.94,1.04-3.59,2.51-7.05,3.84-10.55,.45-1.18,1.14-2.27,1.58-3.46,.34-.91,.95-.92,1.65-.76,5.99,1.39,11.99,2.75,17.96,4.2,4.9,1.19,9.48,3.15,13.87,5.68,4.41,2.54,8.49,5.46,12.01,9.14,3.81,3.99,7.05,8.43,9.7,13.26,1.74,3.17,3.21,6.5,4.64,9.83,.69,1.6,1.01,3.35,.37,5.12-.79,2.18-2.4,3.72-4.39,4.55-5.3,2.21-10.64,4.34-16.09,6.13-5.44,1.79-10.58,3.96-15.1,7.58-4.92,3.92-8.74,8.67-11.42,14.3-1.79,3.75-3.2,7.68-4.91,11.47-1.49,3.31-3.12,6.57-4.77,9.81-.71,1.4-1.62,2.7-2.53,4.18Z"/></g><g id="ab"><path class="cb" d="M183.7,92.73c-4.78,.79-9.55,1.59-14.09,2.34-1.41-6.18-2.55-12.19-4.19-18.07-.95-3.39-2.62-6.59-4.12-9.8-3.48-7.45-7.02-14.87-10.59-22.27-4.95-10.27-10.15-20.41-16.71-29.78-.12-.17-.21-.34-.31-.52-.05-.09-.08-.2-.12-.32,5.76-2.87,11.78-4.87,18.06-6.06,3.89-.74,7.81-1.34,11.71-1.99,1.47-.25,2.31,.18,3.06,1.52,1.63,2.88,3.41,5.68,4.88,8.64,2.55,5.13,4.22,10.56,5.29,16.22,.84,4.43,2.29,8.74,3.29,13.15,.84,3.69,1.57,7.43,2.11,11.18,.57,3.98,.76,8.01,1.31,11.99,.83,5.91,1.12,11.85,.95,17.8-.06,1.93-.34,3.85-.54,5.99Z"/></g><g id="ac"><path class="cb" d="M203.59,333.83c6.07-2.23,10.96-5.81,15.17-10.6,.22,.19,.5,.4,.75,.65,2.51,2.5,4.97,5.05,7.53,7.49,4.13,3.95,8.22,7.95,12.51,11.73,5.18,4.56,10.46,9.01,15.85,13.32,2.18,1.75,4.73,3.04,7.16,4.46,3.39,1.97,6.76,3.99,10.27,5.73,3.8,1.89,7.72,3.52,11.62,5.2,2.9,1.25,3.15,1.92,1.28,4.53-3.07,4.28-6.59,8.14-10.78,11.36-.78,.6-1.52,1.25-2.33,1.8-1.04,.71-2.16,.72-3.21,.03-5.58-3.67-11.35-6.97-17.35-9.89-2.82-1.37-5.59-2.93-8.21-4.65-2.01-1.33-3.82-2.98-5.6-4.62-5.53-5.12-11.07-10.24-16.47-15.49-3.06-2.98-5.86-6.22-8.31-9.77-1.4-2.02-3.09-3.84-4.71-5.69-1.64-1.86-3.36-3.65-5.16-5.59Z"/></g><g id="ad"><path class="ce" d="M162.77,245.05c.03,3.29,2.23,4.95,4.68,6.41,1.18,.71,2.41,1.35,3.93,2.2,.64-2.71,1.27-5.27,1.84-7.84,.25-1.12,.35-2.26,.55-3.39,.18-1.06,.79-1.47,1.67-1.17,.44,3.83,.87,7.6,1.34,11.65,9.68-1.71,16.93-6.9,23.66-13.58,.86,2.98,1.66,5.74,2.39,8.24-2.37,2.1-4.71,4.04-6.89,6.15-2.87,2.79-4.68,6.3-6.16,9.96-1.04,2.56-1.86,5.22-2.79,7.82-.1,.27-.22,.53-.39,.77-3.26,4.7-6.06,9.75-10.26,13.75-.43,.41-.94,.75-1.44,1.15l-.86-14.18c-5.68,4.75-7.64,11.15-9.75,17.85-3.75-6.49-4.92-13.45-6.54-20.45-2.76,3.32-3.87,7.13-5.13,11.07-.21-.83-.55-1.65-.61-2.49-.43-6.36,.85-12.49,2.62-18.55,1.28-4.37,2.9-8.59,5.29-12.47,.68-1.11,1.66-2.05,2.5-3.07l.36,.15Z"/></g><g id="ae"><path class="cc" d="M174.81,194.15c-.63-2.88-1.24-5.6-1.82-8.34-.89-4.18-1.74-8.37-2.64-12.56-1.02-4.78-2.11-9.55-3.08-14.33-.26-1.28,.07-2.39,1.08-3.48,4.38-4.71,8.62-9.55,12.91-14.34,.17-.19,.32-.39,.56-.69,2.19,2.31,4.31,4.53,6.42,6.75,.94,.99,1.86,1.99,2.8,2.98,.44,.47,.91,.91,1.36,1.37,2.02,2.11,4.06,4.2,6.05,6.34,1.78,1.9,3.5,3.85,5.26,5.76,.66,.72,1.42,1.35,2.08,2.06,1.74,1.88,3.43,3.8,5.19,5.66,1.46,1.55,1.48,1.51,.3,3.34-5.23,8.13-10.46,16.27-15.68,24.4-.84,1.3-1.61,2.65-2.49,3.92-.2,.28-.73,.54-1.07,.49-2.93-.37-5.33-1.94-7.7-3.54-.2-.13-.25-.64-.21-.95,.17-1.34,.47-2.66,.59-3.99,.22-2.42-2.93-5.01-5.51-3.57-1.1,.62-2.16,1.32-3.23,1.98-.34,.21-.68,.42-1.17,.74Z"/></g><g id="af"><path class="cb" d="M197.06,331.81c-7.47-.28-14.23-2.81-18.89-9.32-3.78-5.3-4.85-11.18-2.09-17.3,1.94-4.3,5.54-7.1,9.6-9.24,3.04-1.6,6.14-3.17,9.71-3.21,6.84-.08,12.95,1.85,18.13,6.46,7.97,7.1,8.03,19.16,.09,26.29-4.61,4.14-10.04,6.18-16.55,6.33Zm1.01-31.55c-3.34,.07-6.41,1.16-9.44,2.47-3.87,1.67-4.83,4.1-2.94,7.82,1.44,2.84,2.89,5.69,4.3,8.54,.79,1.6,1.41,3.28,2.28,4.83,1.17,2.07,2.85,2.63,4.83,1.6,3.59-1.86,7.06-3.91,9.77-7.01,2.39-2.74,4.02-5.79,2.93-9.55-1.38-4.73-5.48-8.65-11.72-8.71Z"/></g><g id="ag"><path class="cb" d="M181.34,132.48c1.59,1.57,3.01,3.02,4.47,4.42,4.03,3.89,8.08,7.76,12.13,11.63,3.54,3.38,7.08,6.76,10.63,10.13,2.86,2.71,5.71,5.42,8.6,8.08,.68,.63,.72,1.14,.38,1.99-3.8,9.41-7.53,18.84-11.3,28.26-1.1,2.75-2.23,5.5-3.32,8.18-2.33-.22-4.57-.43-7.08-.66,1-1.8,1.87-3.45,2.82-5.05,2.82-4.78,5.67-9.55,8.52-14.31,1.97-3.29,3.84-6.65,5.95-9.85,1.57-2.38,.88-3.8-.48-5.45-1.98-2.38-4.18-4.59-6.29-6.85-3.71-3.98-7.44-7.94-11.16-11.91-3.52-3.76-7.02-7.53-10.55-11.28-.48-.51-1-1.03-1.62-1.31-.38-.17-1.05-.04-1.42,.21-.53,.36-.89,.97-1.35,1.44-4.72,4.81-9.44,9.61-14.16,14.42-1.55,1.58-2,3.23-1.4,5.54,1.7,6.58,3.06,13.25,4.58,19.89,1.39,6.07,2.83,12.14,4.2,18.22,.28,1.24,.17,2.46-1.06,3.31-1.2,.83-2.35,1.75-3.62,2.72-.69-4.74-1.34-9.38-2.05-14.01-.62-4.08-1.34-8.14-1.96-12.22-.47-3.12-.82-6.25-1.29-9.37-.53-3.51-1.16-7.01-1.68-10.53-.34-2.35-.59-4.72-.78-7.09-.04-.49,.24-1.16,.61-1.49,1.94-1.78,3.95-3.49,5.95-5.21,1.59-1.37,3.2-2.71,4.79-4.07,2.93-2.52,5.84-5.05,8.97-7.76Z"/></g><g id="ah"><path class="ce" d="M131.21,213.85c1.77,.67,3.52,1.43,5.32,2.01,3.03,.97,6.14,1.4,9.33,.88,1.53-.25,2.39-1.27,3.06-2.57,1.15-2.21,2.37-4.39,3.54-6.59,.56-1.06,1.47-1.32,2.5-.97,3.15,1.08,6.28,2.26,9.44,3.33,.41,.14,1.04,.09,1.39-.14,4.11-2.74,8.19-5.53,12.26-8.33,1.13-.78,2.17-.6,3.32,0,2.42,1.26,4.81,2.6,7.35,3.55,1.72,.64,3.67,.73,5.53,.96,3.18,.38,6.36,.8,9.55,.96,2.84,.14,3.44,.56,5.07-2.15,1.87-3.11,4-6.07,6.04-9.08,.21-.31,.54-.53,.93-.7-.07,2.1-1.22,3.73-2.1,5.44-1.31,2.54-2.9,4.95-4.05,7.56-1.1,2.49-2.97,3.69-5.43,4.23-4.16,.91-8.34,1.6-12.63,1.85-4.85,.29-9.34-.66-13.71-2.51-2.62-1.11-4.87-.3-7.09,1.01-5.87,3.47-11.73,6.95-17.59,10.43-1.02,.6-2,1.26-3.01,1.88-1.02,.63-2.08,.48-3.03-.08-4.77-2.83-9.53-5.69-14.26-8.59-.79-.48-1.41-1.25-2.1-1.88l.37-.5Z"/></g><g id="ai"><path class="cb" d="M174.38,96.67c1.55-.32,3-.72,4.47-.91,1.99-.26,4.01-.51,6.01-.47,1.91,.04,3.83,.37,5.71,.75,4.8,.97,9.52,2.35,13.9,4.52,3.53,1.75,6.86,3.95,10.12,6.18,4.86,3.33,8.71,7.75,12.02,12.56,3.13,4.54,5.47,9.53,6.91,14.9,.06,.22,.14,.44,.09,.73-1.12-1.45-2.15-2.99-3.38-4.34-2.78-3.04-5.48-6.18-8.55-8.91-2.86-2.54-6.02-4.79-9.27-6.81-4.94-3.06-10.3-5.21-16.04-6.39-3.64-.75-7.29-1.25-10.99-1.18-2.37,.04-4.73,.43-7.1,.7-.75,.08-1.13-.14-1.3-.9-.72-3.05-1.49-6.09-2.24-9.13-.08-.31-.17-.62-.35-1.3Z"/></g><g id="aj"><path class="cb" d="M151.93,264.09c-9.99-12.83-18.06-26.45-24.22-41.47,1.81-.47,3.59-.84,5.31-1.39,2.37-.75,4.44-.48,6.38,1.19,1.04,.89,2.25,1.67,3.49,2.24,2.25,1.04,3.07,2.89,3.64,5.14,1.31,5.21,2.81,10.37,4.26,15.53,.97,3.44,2.07,6.85,2.98,10.31,.24,.9,.18,1.97-.05,2.88-.47,1.83-1.16,3.61-1.8,5.56Z"/></g><g id="ak"><path class="cc" d="M152.73,161.87c.36,.34,.72,.88,.75,1.35,.23,3.13,.37,6.26,.53,9.4,0,.16-.02,.32-.05,.68-.9-.6-1.71-1.13-2.5-1.68-2.53-1.78-5.07-.93-6.87,1.4-1.76,2.28-1.64,4.82-1.29,7.39,.34,2.51,.98,4.97,2.26,7.19,.44,.77,.96,1.5,1.39,2.16l-1.86,2.42,.27,.21c1.46-.55,2.89-1.29,4.4-1.6,1.49-.31,3.06-.19,4.68-.27,.22,3.28,.41,6.28,.61,9.32-1.61,.59-3.13,1.26-3.7,2.99-.22,.68-.54,1.6-.27,2.13,.84,1.65,.11,2.71-1.06,3.85-1.44-1.33-2.94-2.61-4.32-4.01-1.44-1.47-6.62-9.56-7.63-13.4-.56-2.15-.13-3.18,1.89-3.94,.88-.33,2.08-.43,2.17-1.64,.07-.92-.16-1.88-.37-2.8-.51-2.25-5.46-13.05-3.25-23.22,.52-2.41,1.49-4.71,2.27-7.06,.05-.15,.18-.28,.35-.55,1.14,.95,10.27,8.44,11.59,9.68Z"/></g><g id="al"><path class="cb" d="M197.49,215.56c2.22-.53,4.38-1.06,6.57-1.53,.2-.04,.63,.29,.7,.52,1.11,3.36,2.25,6.72,3.23,10.12,1.63,5.63,3.17,11.28,4.7,16.94,1.06,3.93,2.06,7.88,3,11.84,.09,.39-.27,1.14-.63,1.35-1.49,.87-3.02,1.75-4.63,2.34-1.8,.65-2.97-.12-3.43-1.98-1.92-7.66-3.88-15.31-5.73-22.98-1.32-5.46-2.49-10.96-3.77-16.62Z"/></g><g id="am"><path class="cc" d="M178.82,250.77c-.39-2.7-.78-5.1-1.06-7.51-.08-.71,.1-1.47,.26-2.19,.05-.23,.4-.46,.67-.58,2.59-1.1,5.23-2.07,7.76-3.28,2.23-1.07,4.18-2.59,5.61-4.68,.73-1.07,1.03-2.15,.05-3.24-1.19-1.33-.46-2.85-.34-4.25,.2-2.28,.62-4.53,.95-6.79,.09-.64,.22-1.28,.34-1.96h1.93c.91,3.62,1.87,7.27,2.74,10.94,.67,2.81,1.23,5.65,1.87,8.47,.28,1.24,.17,2.21-.84,3.22-5.53,5.55-12.27,9.02-19.96,11.86Z"/></g><g id="an"><path class="cb" d="M194.93,290.08c-7.16,.84-12.39,5.02-17.91,8.69-1.4-1.68-2.92-3.5-4.46-5.31-1.12-1.32-2.3-2.58-3.39-3.92-1-1.23-1.3-2.8-.87-4.21,.89-2.96,1.96-5.89,4.04-8.29,.08-.09,.2-.13,.44-.29,1.03,4.24,.45,8.46,.47,12.75,1.65-.11,2.98-.75,3.94-1.87,2.01-2.32,3.88-4.76,5.8-7.16,.64-.8,1.24-1.62,2.07-2.72,3.3,4.13,6.54,8.18,9.86,12.33Z"/></g><g id="ao"><path class="cb" d="M153.26,158.55c-5.97-3.77-10.92-8.37-16.45-12.33-2.03,4.22-3.04,8.77-5.35,12.8-1.35-7.21,.66-14.19,1.08-21.25,.03-.5,.56-.96,.97-1.62,1.54,1.1,3.05,2.04,4.4,3.16,3.89,3.23,7.72,6.54,11.59,9.8,.56,.47,1.22,.83,1.78,1.3,1.47,1.23,1.79,2.98,1.96,4.74,.1,.99,.02,1.99,.02,3.4Z"/></g><g id="ap"><path class="cb" d="M177.01,234.91c-2.94,.64-5.79,.86-8.84-.32,1.13-6.03,1.64-12.18-.39-18.29l.67-.1c.19,.71,.43,1.42,.56,2.15,.3,1.75,1.48,3.06,3.23,3.11,3.78,.11,7.6,.32,11.21-1.24,1.35-.58,2.65-1.16,3.53-2.52,.96-1.47,2.54-1.64,4.34-1.37-.2,1.45-.38,2.86-.6,4.26-.11,.68-.45,1.36-.41,2.03,.1,1.56-.71,1.75-1.98,1.66-3.34-.23-6.33,.61-8.77,3.05-1.72,1.71-2.66,3.71-2.54,6.17,.02,.45,0,.91,0,1.41Z"/></g><g id="aq"><path class="cc" d="M170.8,250.98c-1.64-1-3-1.82-4.35-2.64-.98-.59-.98-1.63-1.2-2.57-1.13-4.83-2.15-9.69-3.41-14.49-.78-2.94-1.95-5.78-2.88-8.68-.1-.31,.13-.94,.4-1.1,1.92-1.16,3.88-2.26,5.87-3.3,.26-.13,.98,.07,1.09,.31,.48,.97,.99,1.98,1.16,3.03,.54,3.36,.13,6.72-.13,10.09-.13,1.72-.96,2.64-2.08,3.68-1.19,1.12-1.79,2.53,.26,3.67,1.7,.95,3.47,1.83,5.3,2.49,1.27,.45,1.66,1.15,1.43,2.34-.45,2.33-.94,4.66-1.46,7.18Z"/></g><g id="ar"><path class="cb" d="M158.61,246.66c-1.68-6.91-3.36-13.79-4.98-20.69-.08-.34,.23-.93,.54-1.18,.72-.58,1.55-1.03,2.65-1.73,.58,1.9,1.15,3.68,1.68,5.47,.92,3.12,1.76,6.26,2.74,9.36,1.14,3.62,.25,6.16-2.62,8.77Z"/></g><g id="as"><path class="cg" d="M151.47,226.04c1.13,4.27,2.21,8.34,3.29,12.42,.79,2.99,1.55,5.98,2.34,8.96,.37,1.39,.11,2.66-.7,3.84-.37,.53-.69,1.1-1.12,1.79-.7-2.34-1.39-4.54-2.02-6.76-1.38-4.89-2.73-9.79-4.09-14.68-.22-.78-.5-1.55-.65-2.35-.2-1.03-.07-1.95,1.13-2.36,.53-.18,1.02-.48,1.82-.87Z"/></g><g id="at"><path class="c`" d="M149.97,173.1c-.39,2.66-.46,4.93,.19,7.19,.26,.9,.52,1.8,.86,2.66,.52,1.34,1.23,2.52,2.52,3.34,.53,.33,.78,1.09,1.31,1.9-2.1,.32-3.78,.64-5.48,.77-.46,.03-1.16-.42-1.41-.85-1.96-3.31-3.18-6.87-3.45-10.73-.15-2.2,.84-4.06,2.72-4.48,.84-.19,1.79,.11,2.73,.19Z"/></g><g id="au"><path class="c`" d="M185.56,216.86c-1.03,1.9-2.86,2.16-4.51,2.64-2.83,.83-5.72,1.02-8.63,.45-1.35-.26-2.15-1.02-2.39-2.52-.34-2.04-.46-2.02,1.37-2.93,.07-.04,.17-.03,.23-.08,2.24-1.54,4.53-1.85,6.99-.47,.91,.51,1.96,.78,2.94,1.19,1.31,.55,2.62,1.12,4,1.71Z"/></g><g id="av"><path class="c`" d="M178.68,234.67c-1.35-4.26,.31-6.07,3.65-7.77,1.57-.8,3.54-.9,5.35-1.11,.65-.08,1.83,.29,1.97,.72,.34,1.03,.31,2.27-.8,3.01-.81,.55-1.67,1.03-2.55,1.47-2.49,1.23-5,2.42-7.62,3.68Z"/></g><g id="aw"><path class="cc" d="M190.49,230.22c.81,.5,1.11,1.05,.25,1.66-1.96,1.39-3.9,2.83-5.94,4.1-2.58,1.61-5.49,2.43-8.46,3.03-2.23,.45-4.49,1.27-6.76,.47-1.32-.47-2.54-1.26-3.72-2.02-.31-.2-.33-.83-.58-1.56,.93,.15,1.6,.13,2.16,.37,3.3,1.47,6.63,1.07,10.01,.38,4.34-.89,7.96-3.24,11.59-5.59,.48-.31,.98-.57,1.44-.84Z"/></g><g id="ax"><path class="cc" d="M176.19,198.29c-1.24-1.55-1.21-2.47,.21-3.55,.87-.66,1.79-1.27,2.76-1.78,1.51-.79,4.23,.35,3.86,2.44-.16,.92-.13,1.88-.32,2.79-.04,.21-.67,.45-.98,.4-.46-.07-.89-.38-1.33-.59-2.06-1.02-2.27-1-4.2,.29Z"/></g><g id="ay"><path class="cb" d="M137.22,149.2c.75,.61,1.32,1.17,1.98,1.57,.64,.39,.68,.87,.46,1.45-.83,2.16-1.69,4.31-2.59,6.6-1.05-.1-2.14-.2-3.35-.31,.43-3.44,2.3-6.17,3.51-9.3Z"/></g><g id="b`"><path class="cg" d="M145.17,215.83c-.79-2.04-1.46-3.73-2.13-5.46l2.84-2.34c.59,.49,1.19,.93,1.72,1.44,1.46,1.41,1.51,2.66,.09,4.21-.68,.74-1.53,1.32-2.52,2.15Z"/></g><g id="ba"><path class="ce" d="M152.13,174.87c1.3,3.01,2.08,5.87,1.84,9.08-1.84-1.23-2.41-3.03-2.7-4.92-.16-1.01-.07-2.08,.03-3.11,.03-.33,.48-.62,.83-1.05Z"/></g><g id="bb"><path class="cb" d="M234.86,207.54c.76-1.32,1.46-2.53,2.25-3.91,.88,2.03,1.69,3.89,2.49,5.74l-.26,.16c-1.44-.64-2.88-1.27-4.49-1.99Z"/></g><g id="bc"><path class="cc" d="M152.6,204.71c-.81-2.04-.23-2.93,2.23-3.19,1.06,3.18,.4,2.97-2.23,3.19Z"/></g><g id="bd"><path d="M157.14,302.97c.53,.77,1.19,1.49,1.58,2.32,2.01,4.31,3.93,8.66,5.91,12.98,.6,1.32,1.33,2.58,1.91,3.9,.67,1.52,1.26,3.07,1.82,4.63,.09,.25-.14,.62-.19,.83-2.45-.58-3.1-2.71-4.13-4.41-1.36-2.24-2.69-4.54-3.72-6.95-.98-2.3-1.56-4.77-2.3-7.18-.47-1.51-.93-3.03-1.33-4.56-.12-.44-.02-.94-.02-1.41l.47-.16Z"/></g><g id="be"><path d="M200.05,185c-1.04,2.02-.93,2.09-2.85,1.62-2.01-.49-4.06-.96-6.12-1.09-3.41-.21-6.64,.74-9.7,2.24-.59,.29-1.17,.6-2.03,.74,.33-.65,.7-1.28,.96-1.95,.16-.39,.31-.91,.18-1.28-.89-2.49-1.94-4.93-2.78-7.43-.83-2.5-1.13-5.06-.78-7.74,.28-2.12,.29-4.24,1.46-6.14,1.6-2.59,6.79-5.33,10.45-2.27,3.16,2.64,5,5.98,5.56,9.91,.47,3.34,.43,6.75,.54,10.13,.03,.85,.33,1.23,1.09,1.52,1.33,.5,2.61,1.12,4.01,1.74Zm-7.23-7.61c-.2,.39-.31,.9-.63,1.13-.44,.33-1.15,.75-1.53,.6-.7-.29-1.52-.84-1.79-1.5-.69-1.63-1.37-3.36-1.54-5.1-.18-1.8,.02-3.72,.47-5.47,.45-1.72,.68-1.66-.85-2.81-1.23,.6-2.04,1.57-2.48,2.88-1.37,4.1-.81,8.05,.9,11.93,.69,1.57,1.76,2.78,3.21,3.63,1.08,.63,2.06,.33,3.05-.41,1.74-1.31,.83-3.23,1.19-4.88Zm-8-14.36c-2.75-.15-4.62,.68-5.24,2.57-.44,1.34-.75,2.78-.82,4.19-.26,5.27,1.82,9.91,4.13,14.45,.13,.26,.65,.52,.94,.48,.9-.13,1.77-.41,2.56-.6-4.8-6.73-5.86-13.65-1.58-21.09Zm6.21,14.01c1.2-1.73,.74-8.1-1.08-9.27-2.09,1.7-1.49,7.21,1.08,9.27Z"/></g><g id="bf"><path class="ce" d="M192.83,177.39c-.36,1.65,.55,3.57-1.19,4.88-.98,.74-1.97,1.04-3.05,.41-1.45-.85-2.52-2.07-3.21-3.63-1.71-3.88-2.27-7.82-.9-11.93,.44-1.31,1.25-2.28,2.48-2.88,1.53,1.15,1.3,1.09,.85,2.81-.45,1.76-.65,3.68-.47,5.47,.17,1.74,.85,3.46,1.54,5.1,.27,.65,1.09,1.21,1.79,1.5,.38,.15,1.09-.27,1.53-.6,.32-.24,.43-.75,.63-1.13Z"/></g><g id="bg"><path class="c`" d="M184.83,163.03c-4.29,7.44-3.22,14.36,1.58,21.09-.79,.2-1.67,.47-2.56,.6-.29,.04-.81-.22-.94-.48-2.31-4.55-4.39-9.19-4.13-14.45,.07-1.41,.38-2.84,.82-4.19,.62-1.89,2.49-2.72,5.24-2.57Z"/></g><g id="bh"><path class="c`" d="M191.04,177.04c-2.57-2.06-3.17-7.57-1.08-9.27,1.82,1.17,2.27,7.54,1.08,9.27Z"/></g><g id="bi"><g><path d="M178.52,150.14c5.64,.28,10.63,1.95,15.17,4.58,.32,.19,.8,.31,.95,.56,.5,.84,1.26,1.76,1.14,2.58-.06,.41-1.81,.9-2.8,.92-1.46,.03-2.94-.3-4.39-.53-3.53-.55-6.95-.33-10.29,.77-2.24,.74-3.26,.5-4.34-1.24-.68-1.09-1.22-2.3-1.41-3.49-.36-2.36,1.33-4.38,5.97-4.15Z"/><path class="ce" d="M175.05,152.52c3.12-1.5,15.19,1.15,17.54,3.97-4.23-.32-8.43-.26-12.58,.44-3.62,.62-3.73,.51-4.74-2.83-.14-.48-.14-.99-.22-1.59Z"/></g></g><g id="bj"><path class="cg" d="M207.04,311.56c-.08,2.73-1.74,5.55-4.26,7.86-1.27,1.17-2.71,2.2-4.21,3.06-1.7,.97-3,.67-4.07-1.01-1.93-3.04-3.74-6.17-5.48-9.33-.77-1.4-1.29-2.95-1.88-4.45-.35-.88-.14-1.58,.7-2.13,4.54-2.94,9.33-4.45,14.55-2.01,2.94,1.38,4.68,3.78,4.67,8.01Z"/></g><g id="bk"><g><path d="M147.2,158.27c1.25,1.47,2.58,2.91,3.7,4.44,.44,.61,.5,1.43,.57,2.16,.1,.98-.56,1.54-1.82,1.63-2.69,.19-4.89,1.16-6.83,2.63-.54,.41-1.38,.57-2.08,.85-.34-.58-.99-1.16-.96-1.73,.13-3.49,1.58-6.72,3.39-9.86,.6-1.04,1.71-1.05,2.86-1.03l1.16,.92Z"/><path class="ce" d="M149.57,164.91l-7.81,2.63c-.45-2.7,.62-5.33,1.93-7.89,.45-.88,1.28-.45,1.95,0,2.11,1.46,3.4,3.31,3.93,5.25Z"/></g></g></g><g id="bl"><path class="cf" d="M282.46,20.13c-1.24-5.06-3.74-15.87-11.27-13.78-4.93,1.37-6.57,10.55-.82,11.62,2.7,.5,3.73-1.43,5.38,1.42,1.75,3.02,.66,6.57-.46,9.49-1.42,3.7-2.16,5.76,1,8.46,2.99,2.55,6.99,3.72,9.85,6.48,.63,.61-6.4,.04-6.19,.08-2.19-.42-5.38-.4-7.27,1.11-2.32,1.84-2.64,5.84-.96,8.18,.82,1.14,2.25,1.13,2.74,2.71,.37,1.19-.72,2.26-.6,3.28,.29,2.43,2.88,4.35,5.18,4.64,5.35,.69,1.83-1.84,2.05-4.32s2.42-1.9,3.12-3.9c.47-1.34-.65-3.85-2.23-3.85,4.38,0,8.91,.27,11.05-4.45,1.64-3.62-1.39-4.89-3.91-7.19s-5.57-6.63-6.93-9.69c-1.47-3.32,1.07-6.92,.25-10.28Z"/><path class="ca" d="M282.12,49.69c2.48,.17,5.65,1.44,7.78-.41,5.84-5.07-2.19-7.44-4.8-10.78-3.55-4.56-4.11-7.14-4.85-11.96-.79-5.1,1.82-14.08-4-17.52-3.92-2.32-10.27,.28-7.47,5.57,1.87,3.54,6.39,1.35,8.61,5.64,2.31,4.48-3.45,9.86-2.19,13.29,2.13,5.79,9.98,5.8,13.59,10.61,.79,1.57-15.25,1.87-14.23,1.12-4.19,3.09-1.7,9.49,3.44,9.49,0,1.08-5.56,10.85,2.92,7.65-2.32-3.86-.12-2.85,.16-6.47,.27-3.39-3.08-2.34-3.08-5.18,0-1.32,3.43-1.25,4.12-1.06Z"/></g><g id="bm"><g id="bn"><path class="cf" d="M371.77,127.41c-5.55-8.54-8.55-21.34-11.81-31.04-2.22-6.61-3.97-13.24-3.63-20.26,.2-4.06,.44-8.12,.77-12.17,.29-3.57,1.83-6.97,1.55-10.64-.02-.27,.1-.57,.2-.84,1.08-2.65,.2-4.85-1.39-7.04-2.51-3.45-5.02-6.97-6.32-11.07-1.29-4.07-2.14-8.28-3.32-12.39-.52-1.8-1.26-3.56-2.09-5.25-.43-.88-1.43-1.13-2.24-.57-.59,.41-1.14,.86-1.7,1.31-2.16,1.73-4.02,3.66-4.67,6.51-.27,1.15-.84,2.23-1.28,3.37-2.41-.93-4.24-2.51-5.96-4.27-1.82-1.85-3.68-3.66-5.56-5.45-.78-.74-1.69-.53-2.32,.16-1.59,1.73-2.85,3.69-2.86,6.15-.01,3.72,1.46,6.99,3.31,10.1,1.56,2.62,3.71,4.74,6.01,6.74,2.51,2.18,2.83,4.36,1.13,7.13-.16-.13-.34-.24-.46-.39-4.07-4.98-6.72-10.77-9.29-16.59-1.1-2.48-2.09-5.02-3.25-7.47-.61-1.28-1.38-1.52-2.53-.73-1.44,1-3.11,2.01-3.96,3.45-1.23,2.08-1.82,4.54-2.67,6.84-.03,.09,.05,.22,.08,.34,.49,1.82,.98,3.65,1.46,5.47,.14,.52,.17,1.09,.39,1.57,.38,.82,.9,1.57,1.32,2.37,1.24,2.39,2.77,4.48,5.07,6.01,.67,.44,1.18,1.43,1.35,2.25,.53,2.59,.84,5.22,1.29,7.82,.2,1.16,.53,2.29,.89,3.83-1.27-.76-2.29-1.21-3.13-1.89-2.56-2.06-5.05-4.19-7.56-6.31-2.59-2.19-5.22-1.72-6.68,1.37-.84,1.77-1.39,3.69-2.02,5.56-.27,.82-.56,1.13-1.55,.81-.67-.22-1.34-.47-2.02-.65-4.38-1.18-9.88-1.81-21.77-1.42-5.84,.19-17.05,3.35-18.38,3.76-.63,.19-1.41,.74-1.61,1.31-1.39,3.92-2.83,7.84-3.88,11.85-.87,3.34-1.39,6.8-1.76,10.24-.29,2.7-.52,5.51-.06,8.15,.66,3.75,1.8,7.44,3.04,11.06,1.52,4.42,3.78,8.49,7.15,11.81,2.24,2.21,4.54,4.36,7.61,5.46,.82,.29,1.76,.69,1.71,1.87-.17,4.07-.23,8.15-.55,12.2-.38,4.68-1.64,9.17-3.6,13.44-.42,.91-1.24,1.75-2.08,2.31-1.16,.77-2.57,1.16-3.78,1.86-1.45,.84-2.94,1.7-4.18,2.82-1.05,.94-1.8,2.32-1.14,3.8,.73,1.63,1.92,3.04,3.74,3.41,2.95,.59,5.93,1.06,8.92,1.33,1.86,.17,3.77-.06,5.66-.22,3.42-.29,6.87-.47,10.25-1.04,3.75-.63,7.02-2.42,9.75-5.12,.25-.25,.49-.73,.43-1.05-.25-1.48-.92-2.71-2.28-3.52-3.23-1.92-6.76-2.92-10.45-3.17-1.44-.1-1.82-1.05-1.87-1.87-.17-2.79-.27-5.61-.03-8.39,.26-3.01,.79-6.03,1.46-8.98,.51-2.2,1.45-4.31,2.18-6.46,.47-1.39,1.23-2.32,2.69-2.99,3.47-1.6,7.2-2.89,9.64-6.11,1.12-1.49,1.98-3.18,3.18-4.6,2.32-2.72,3.67-5.87,4.54-9.27,.39-1.53,1.16-2.19,2.73-2.16,2.12,.04,4.23,.16,6.35,.24,2.16,.08,3.59,1.18,4.58,3.1,.54,1.05,1.12,2.07,1.86,2.99,1.54,1.92,3.23,3.73,4.96,5.49,.95,.97,1.94,2.03,3.13,2.6,2.05,.99,3.18,2.15,3.43,4.66,.54,5.33,6.24,16.95,6.88,19.7,3.1,.92,31.48-6.39,36.6-9.45-.43-.63,.83-3.13,.41-3.77Z"/></g><g id="bo"><path class="cd" d="M304.99,80.97c-2.93,2.25-5.92,4.07-9.47,4.63-1.77,.28-3.6,.5-5.37,.34-2.09-.18-3.22-1.87-4.57-3.36-1.76-1.93-2.15-4-1.94-6.37,.09-1.05,.61-1.97,1.73-2.06,1.92-.15,3.51-.99,5.07-1.98,1.24-.79,2.47-1.6,3.68-2.43,.87-.59,1.7-1.24,2.73-1.99-.61-.2-.91-.31-1.22-.4-3.76-1.22-7.69-.95-11.54-1.2-3.23-.21-6.49-.08-9.72,.12-5.8,.36-11.44,1.57-16.88,3.64-3.02,1.15-4.54,3.4-4.91,6.59-.28,2.43-.81,4.83-1.17,7.26-.31,2.11-.76,4.23-.76,6.34,0,5.06,1.07,9.95,3.34,14.48,2.35,4.68,4.96,9.22,9.47,12.26,1.87,1.26,3.73,2.56,5.64,3.76,1.14,.72,1.81,1.63,1.75,2.98-.15,3.63-.24,7.28-.52,10.9-.21,2.6-.62,5.2-1.07,7.78-.47,2.69-1.08,5.35-1.67,8.02-.41,1.86-1.16,3.43-3.16,4.18-1.79,.67-3.49,1.59-5.25,2.36-1.79,.79-3.04,2.16-4.12,3.72-.13,.2-.13,.49-.29,1.11,.75-.43,1.19-.68,1.62-.94,1.44-.87,2.79-1.97,4.33-2.57,1.99-.77,4.11-1.25,6.22-1.66,2.42-.48,4.88-.78,7.32-1.11,1.43-.19,2.88-.28,4.33-.42v-.36c-.46,0-.92,.03-1.38,0-2.28-.15-2.57-.35-2.58-2.57-.01-2.46-.19-4.94,.04-7.38,.31-3.25,.68-6.53,1.53-9.67,1.06-3.91,2.64-7.69,3.99-11.52,.33-.95,.85-1.5,1.99-1.37,.56,.06,1.22-.15,1.74-.42,1.05-.53,2.14-1.08,3.04-1.82,1.75-1.44,3.55-2.88,5.04-4.57,1.48-1.68,2.87-3.55,3.84-5.55,1.18-2.43,1.86-5.09,2.79-7.64,1.78-4.85,3.65-9.67,5.38-14.54,.72-2.03,1.47-4.1,.98-6.58Z"/></g><g id="bp"><path class="cd" d="M259.01,163.01l.19,.42c2.33,.32,4.66,.85,7,.89,3.13,.05,6.26-.33,9.39-.43,3.37-.1,6.49-1.18,9.58-2.33,1.42-.53,2.67-1.5,4.16-2.36-.46-.31-.61-.49-.78-.52-2.82-.45-5.63-1.11-8.46-1.27-2.59-.14-5.22,.22-7.82,.46-1.41,.13-2.85,.34-4.2,.75-1.94,.59-3.86,1.29-5.7,2.14-1.2,.56-2.24,1.48-3.35,2.24Z"/></g><g id="bq"><path class="cd" d="M298.04,65.89l.17-.36c-.28-.23-.82-2.48-1.99-2.78-4.54-1.18-13.65-1.91-18.32-1.78-4.06,.11-7.26,.88-11.29,1.61-3.93,.71-6.45,.8-9.94,2.74-.46,.26-.8,2.79-1.19,3.18l.24,.51c13.78-5.8,27.98-5.44,42.32-3.13Z"/></g><g id="br"><g><path class="cc" d="M311.1,79.17c1.09-.44,2.05-.83,3.27-1.32-2.03-.74-2.47-.55-3.27,1.32Z"/><path class="cc" d="M319.61,54.92s0,.04,0,.07c0-.01,0-.03,0-.04h0v-.03Z"/><path class="cc" d="M316.47,46.84c2.08,2.21,3.49,4.65,3.14,8.1,.7,5.62,3.46,10.09,7.7,13.72,.4,.34,.77,.54,1.38,.08,1.73-1.3,3.53-2.5,5.36-3.65,.81-.51,.92-.8,.38-1.7-1.95-3.25-3.81-6.57-4.37-10.42-.13-.91-.21-1.94-.69-2.67-.96-1.47-2.1-2.84-3.31-4.12-3.43-3.63-5.77-7.92-7.67-12.47-1.03-2.48-2.02-4.99-2.95-7.51-.37-.99-.87-.97-1.68-.58-3.12,1.47-4.01,4.4-4.32,7.36-.32,3,.7,5.97,2.27,8.5,1.25,2,3.12,3.62,4.76,5.36Z"/><path class="cc" d="M325.37,32.85c1.68,2.4,3.13,4.97,5.7,6.65,1.53,1,1.88,2.59,1.56,4.38-.17,.97-.18,1.96-.28,2.95-.28,2.73,.44,5.3,1.28,7.83,1.02,3.09,2.22,6.11,4.23,8.78,1.13-.42,2.18-.82,3.23-1.21-.76-4.75-1.42-8.28,.49-13.61,.59-1.65,.78-3.47-.24-5.05-1.11-1.71-2.29-3.4-3.62-4.94-1.54-1.78-2.6-3.61-2.38-6.09,.12-1.36-.42-2.65-1.52-3.61-1.49-1.3-3.01-2.57-4.43-3.95-1.48-1.44-2.84-3.02-4.28-4.5-1.34-1.37-2.22-1.2-3.04,.55-.86,1.83-.49,3.71-.1,5.56,.51,2.42,2.04,4.32,3.41,6.28Z"/><path class="cc" d="M366.76,121.72l-5.08-12.6c0-.31-.03-.58-.17-.82-2.52-4.37-3.53-9.01-5.32-13.74-1.98-5.23-3.31-10.61-3.77-16.16-.38-4.53-.05-9.08,1.07-13.52,.95-3.79,2-7.55,3.04-11.32,.91-3.33,1.16-6.51-1.85-9.04-.15-.12-.23-.33-.33-.51-1.25-2.33-2.69-4.58-3.7-7-1.43-3.41-2.61-6.93-3.76-10.44-.85-2.61-1.5-5.29-2.25-8-2.98,1.39-4.88,3.45-5.55,6.5-.39,1.75-.83,3.51-.94,5.29-.1,1.51,.03,3.1,.42,4.56,.65,2.46,2.66,4.11,4.25,5.92,1.96,2.23,2.19,4.39,1.19,7.03-.53,1.39-.89,2.94-.85,4.41,.07,2.99,.45,5.98,.7,8.92,1.94-.29,3.79-.61,5.66-.79,.38-.04,.8,.47,1.21,.72-.3,.4-.53,1.04-.92,1.16-1.12,.34-2.35,.35-3.46,.72-3.13,1.03-6.26,2.06-9.3,3.32-1.83,.76-3.64,1.75-5.18,2.98-1.98,1.58-3.65,3.55-5.52,5.28-.7,.65-1.32,1.69-2.66,1.11-.48-2.44,2.17-2.95,2.98-4.75-.9-.65-1.78-1.25-2.62-1.89-4.99-3.79-9.95-7.61-14.95-11.38-2.26-1.7-5.15-1.92-6.65,.88-.67,1.24-.85,2.79-1.05,4.23-.37,2.71-1.22,5.04-3.44,6.9-3.57,2.99-7.29,5.63-11.76,6.94-.32,3.49,1.6,5.77,4.34,6.41,2.94,.68,5.86,.29,8.5-1.18,3.47-1.93,6.47-4.49,9.3-7.28,1.42-1.4,3.22-2.53,5.4-.78,.73,.58,1.54,1.08,2.35,1.55,1.59,.91,3.24,1.71,4.79,2.69,.54,.35,.86,1.08,1.19,1.69,.03,.05-.6,.65-.96,.69-.43,.05-.95-.15-1.35-.38-1.21-.71-2.43-.85-3.77-.44-3.66,1.12-6.58,2.94-7.94,6.85-1.58,4.53-3.47,8.96-5.26,13.53,.43,.16,.75,.35,1.09,.38,1.48,.12,2.97,.28,4.45,.24,2.19-.05,4.08,.76,5.55,2.21,2.44,2.39,4.71,4.96,6.98,7.52,1.84,2.07,3.97,3.64,6.63,4.47,.4,.12,.78,.21,1.16,.26l1.62,5.77,6.22,16.11h5.61l18.92-4.45,9.33-3.11-3.55-7.65Zm-20.79-4.73l-7.82-5.85c-.29-.23-.45-.37-.63-.47-2.42-1.39-4.33-3.29-6.03-5.52-3.21-4.19-5.79-8.61-6.05-14.01-.09-1.82,.21-3.68,.5-5.5,.11-.66,.71-1.25,1.09-1.87l.58,.15c.03,1.3,.18,2.61,.06,3.9-.33,3.74,.54,7.18,2.16,10.55,2.48,5.15,6.18,8.96,11.45,11.19,.25,.11,.52,.18,.8,.25h0l9.58,8.66-5.67-1.46Z"/></g></g></g><g id="bs"><g id="bt"><g id="bu"><path class="cf" d="M432.79,225.77c-1.25-4.1-2.63-8.16-3.99-12.22-2.45-7.34-7.42-13.15-11.78-19.33-.47-.67-.4-1.06,.08-1.45,1.34-1.08,1.48-2.38,.83-3.87-.33-.76-.6-1.56-1.04-2.25-3.77-5.84-7.47-11.73-11.38-17.48-4.26-6.26-8.71-12.39-13.08-18.57-3.46-4.91-6.89-9.83-10.36-14.73-2.9-4.09-5.99-8.05-8.72-12.25-2.62-4.03-4.99-8.17-7.13-12.44-.52-.28-1.05-.56-1.58-.84-.14-.04-.28-.09-.43-.12-.05-.01-.09-.03-.13-.04-2.81,.05-5.52,.28-8.39-.02-2.57,.08-5.13,.03-7.7-.06-1.15,.22-2.33,.54-3.63,.94-5,1.56-10.11,3.31-15.27,4.74-.42,.35-.89,.66-1.39,.92-.17,.58-.37,1.16-.63,1.7,.42,.66,.7,1.46,.8,2.52,.32,3.15,1.51,6.21,2.24,9.33,1.96,8.31,3.83,16.63,5.82,24.93,1.77,7.37,3.75,14.68,6.73,21.7,2.68,6.3,5.12,12.7,7.67,19.05,.43,1.07,1.09,1.88,2.23,2.36,.55,.23,1.1,.83,1.32,1.39,.59,1.48,1,3.03,1.49,4.59-.22,.08-.36,.17-.52,.19-2.94,.42-5.89,.81-8.83,1.26-8.36,1.28-15.78,4.87-22.79,9.39-3.97,2.56-7.8,5.34-11.62,8.12-2.25,1.64-4.37,3.47-6.49,5.29-.67,.57-1.12,1.4-1.68,2.1-2.45,3.05-4.93,6.08-7.35,9.15-1.49,1.89-2.91,3.84-4.36,5.75l.02,.5c-.68,.63-10.8,15.67-9.43,24.29,2.1,13.22,6.85,13.79,8.08,14.87l.02,.02c-.16-.06-.31-.12-.47-.18,.6,.52,1.3,.83,1.87,1.3,.64,.52,1.06,1.42,1.76,1.74,2.77,1.26,5.59,2.44,8.45,3.5,1.41,.53,2.95,.69,4.42,1.11,2.61,.74,4.86,2.8,7.91,1.98,1.03-.28,2.17-.1,3.25-.2,3.08-.27,6.16-.54,9.24-.87,2.17-.24,4.32-.58,6.49-.88,2.62-.36,5.24-.75,7.87-1.08,2.16-.27,4.47-.09,6.48-.77,5.71-1.93,11.4-3.99,16.93-6.39,6.94-3.01,13.17-7.32,19.49-11.44,5.67-3.71,10.93-7.88,15.55-12.88,3.88-4.2,8.01-8.17,12-12.27,.48-.5,.79-.62,1.46-.24,1.11,.63,2.3,1.15,3.51,1.54,2.77,.9,5.24,.36,7.29-1.79,3.69-3.88,6.36-8.4,8.11-13.44,.92-2.64,1.59-5.38,.74-8.17Z"/></g></g><g id="bv"><g id="bw"><path class="cf" d="M290.91,285.38c.61,.21,1.23,.42,1.84,.64-.61-.22-1.22-.43-1.84-.64Z"/></g></g><g id="bx"><path class="cf" d="M294.71,286.72s.08,.03,.12,.04c-.04-.01-.08-.03-.12-.04Z"/></g><g id="by"><path class="cf" d="M296.78,287.39s.04,.01,.07,.02c-.02,0-.04-.01-.07-.02Z"/></g><path class="cc" d="M290.51,285.25c2.78,.9,5.5,2.1,8.34,2.67,2.87,.58,5.53,2,8.62,1.76,2.71-.21,5.46,.25,8.18,.14,2.85-.12,5.68-.69,8.53-.82,2.32-.1,4.48-.75,6.71-1.22,3.15-.68,6.35-1.1,9.53-1.66,4.36-.78,8.64-1.85,12.72-3.62,4.49-1.94,9.05-3.72,13.47-5.79,2.73-1.29,5.29-2.96,7.87-4.54,3.52-2.15,7.04-4.29,10.46-6.59,2.5-1.68,4.88-3.53,7.23-5.41,2.37-1.9,4.65-3.9,6.93-5.91,3.53-3.11,7-6.28,10.55-9.37,.94-.82,.26-1.5-.02-2.17-.45-1.06-.27-1.95,.49-3.05,1.14,1.32,2.14,2.59,3.25,3.76,1,1.06,2.01,2.19,3.21,2.99,2.28,1.54,3.62,.29,6.21-2.76,2.26-2.65,3.99-5.71,5.28-8.94,.76-1.9,1.72-3.72,2.56-5.59,.61-1.37,1.11-2.87,.19-4.18-1.02-1.45-2.32-2.71-3.55-4.01-.32-.34-.84-.5-1.25-.77-.96-.63-1.23-1.85-.55-2.71,.14-.18,.57-.25,.84-.21,.47,.07,.92,.26,1.6,.47-.09-.52-.12-.87-.21-1.19-1.94-6.67-5.22-12.63-9.58-18-.95-1.18-2.19-2.13-3.37-3.11-.22-.18-.85-.1-1.14,.09-4.34,2.8-8.9,5.22-13.83,6.67-4.1,1.21-8.36,2.07-12.61,2.46-5.18,.48-10.4,.09-15.52-1.03-3.7-.81-7.39-1.65-11.07-2.53-1.17-.28-2.3-.75-3.46-1.1-.37-.11,1.26,3.89,1.77,5.29,1.79,4.9,7.41,20.6,8.93,24.12,1.07,2.47,1.91,4.61,2.96,7.09,.1,.23-.45,.98-.47,1.26-.28-.13-.69-.19-.81-.41-1.65-3.06-3.43-6.07-4.84-9.24-1.92-4.32-3.64-8.74-5.37-13.14-.73-1.86-1.91-4.92-2.43-6.85-.38-1.43-1.16-1.27-2.24-1.04-3.47,.74-6.99,1.23-10.43,2.08-2.39,.59-4.75,1.45-7,2.48-3.37,1.54-6.74,3.14-9.92,5.04-4.47,2.69-8.83,5.58-12.39,9.5-1.29,1.42-2.86,2.59-4.18,3.99-2.19,2.32-4.23,4.8-6.45,7.09-1.68,1.74-3.51,3.36-5.34,4.94-1.77,1.53-3.63,2.95-5.46,4.42-.58,.46-1.03,.33-1.33-.48l-.37-.1c-.68,.63-11.85,15.92-10.47,24.54,2.1,13.22,7.9,13.54,9.13,14.62l.02,.02,.08,.04Z"/><path class="cb" d="M344.61,170.68c1.23,.13,2.3,.21,3.36,.36,1.78,.25,3.55,.58,5.33,.8,3.77,.46,7.42-.12,11-1.33,5.28-1.79,10.1-4.41,14.43-7.91,3.31-2.68,6.61-5.39,9.89-8.1,.75-.62,1.19-.18,1.61,.36,2.04,2.61,4.15,5.18,6.09,7.87,3.21,4.43,6.32,8.94,9.45,13.42,2.27,3.25,4.54,6.49,6.76,9.77,1.19,1.77,1.12,1.79-.36,3.28-2.85,2.87-6.34,4.6-10.1,5.99-3.78,1.4-7.68,1.79-11.63,1.93-3.5,.13-7,.3-10.49,.22-3.37-.08-6.75-.34-10.1-.73-3.02-.35-6-.96-9-1.47-1.45-.25-2.89-.52-4.33-.81-2.49-.5-3.79-2.26-4.67-4.45-1.39-3.44-2.81-6.86-4.15-10.32-1.06-2.73-2.01-5.5-3.01-8.25-.06-.18-.06-.38-.09-.64Zm28.58-42.25c4.4,6.88,8.64,13.52,12.93,20.22-1.86,2.67-3.47,5.61-6.21,7.64-3.5,2.59-6.57,5.81-10.73,7.42-4.13,1.6-8.24,3.33-12.49,4.57-4.19,1.22-8.43,.84-12.26-1.52-.67-.41-1.33-1.17-1.55-1.9-1.99-6.63-3.87-13.28-5.79-19.93-.42-1.44-.84-2.88-1.32-4.53,13.82,.14,26.18-4.09,37.42-11.95Zm-33.02,7.2c-1.45,0-2.9,0-4.35,0-1.06,0-1.68-.62-1.94-1.58-1.25-4.59-2.5-9.18-3.68-13.79-.18-.71,.05-1.51,.92-1.78,3.96-1.22,7.89-2.59,11.92-3.55,2.04-.49,4.26-.26,6.4-.32,3.44-.11,6.88-.21,10.32-.29,1.54-.03,3.08-.06,4.61,.06,.52,.04,1.19,.46,1.47,.91,1.21,1.99,2.33,4.03,3.43,6.08,1.11,2.06,.87,3.21-.85,5.1-1.81,1.98-3.97,3.48-6.45,4.43-3.53,1.35-7.08,2.7-10.72,3.7-2.4,.66-4.96,.73-7.45,1.01-1.2,.14-2.42,.17-3.63,.24v-.23Z"/></g></svg>