<?xml version="1.0" encoding="UTF-8"?><svg xmlns="http://www.w3.org/2000/svg" viewBox="0 0 226.36 343.83"><defs><style>.al{fill:#fff;}.am{fill:#6a0c11;}.an{fill:#fccb98;}.ao{fill:#975724;}.ap{fill:#ec2024;}</style></defs><g id="a"><g><path d="M112.11,332.55v-7.49c-1.38-.58-2.61-1.12-3.86-1.62-1.4-.56-2.79-1.2-4.24-1.59-3.18-.85-5.85-2.54-8.33-4.62-2.86-2.39-4.48-5.6-6.03-8.88-.89-1.89-1.41-2-2.78-.45-2.09,2.36-4.05,4.83-6.07,7.24-1.6,1.91-3.25,3.8-4.82,5.73-2.33,2.88-5.51,4.73-8.4,6.91-.58,.44-1.52,.46-2.3,.55-1.87,.21-3.75,.4-5.63,.48-4.76,.2-9.53,.27-14.28,.53-.92,.05-1.63-.18-2.34-.53-1.7-.85-3.38-1.77-5.04-2.7-.29-.16-.55-.47-.68-.77-.92-2.09-1.7-4.25-2.73-6.29-.88-1.74-1.03-3.59-1.26-5.43-.67-5.39-1.71-10.68-3.51-15.82-1-2.86-2.08-5.72-2.73-8.67-.94-4.26,.1-8.22,2.8-11.66,.99-1.26,2.25-2.31,3.39-3.45,.08-.08,.16-.2,.26-.23,.85-.23,1.83-.34,1.86-1.51,.02-.84-.03-1.7-.19-2.53-.65-3.43-.96-6.9-.7-10.37,.28-3.65,.68-7.3,1.95-10.79,1.3-3.56,3.19-6.77,5.55-9.7,2.81-3.5,6.18-6.37,10.31-8.13,2.57-1.1,5.34-1.75,8.06-2.45,1.89-.49,3.39-1.53,4.74-2.84,2.93-2.85,5.83-5.75,8.77-8.59,2.78-2.68,6.32-4.18,9.57-6.14,5.59-3.37,11.21-6.68,16.83-9.98,5.63-3.31,11.26-6.59,16.91-9.86,1.67-.97,3.3-2.11,5.11-2.71,2.48-.82,5.12-1.18,7.68-1.75,3.34-.75,6.68-1.52,10.03-2.27,6.43-1.44,12.86-2.86,19.29-4.3,3.79-.85,7.57-1.77,11.37-2.57,1.6-.34,3.25-.52,4.88-.67,5.35-.5,10.2,1.16,14.96,3.39,4.15,1.95,8.13,4.2,11.75,6.99,4.1,3.15,7.99,6.58,10.96,10.89,1.86,2.7,3.79,5.38,5.36,8.25,1.24,2.26,2.14,4.81,1.96,7.44-.17,2.48-.67,4.95-1.22,7.38-.71,3.15-1.71,6.24-2.41,9.4-.48,2.17,.23,4.14,1.66,5.87,1.32,1.59,2.55,3.25,3.77,4.92,1.96,2.69,3.05,5.67,3.18,9.03,.17,4.52,.42,9.04,.69,13.56,.21,3.52-.75,6.88-1.22,10.31-.18,1.33,.04,2.73,.21,4.08,.11,.82,.46,1.61,.76,2.39,.87,2.25,.07,4.46-.12,6.68-.04,.53-.16,1.06-.2,1.6-.16,2.22-1.75,3.86-2.37,5.88-.11,.36-.32,.72-.34,1.08-.11,2.48-.17,4.96-.25,7.44-.15,4.45-.05,8.93-.58,13.34-.26,2.14-.03,4.21-.1,6.31-.03,.81-.24,1.22-1,1.57-8.84,4.02-18.03,6.96-27.5,9.09-13.97,3.14-28.13,4.44-42.43,4.15-12.8-.26-25.45-1.75-37.9-4.84-.34-.08-.67-.18-1.06-.29Zm45.57-23.06c-1.59-.66-2.69-1.51-2.66-2.99,.09-4.56,1.61-8.58,4.79-11.94,1.54-1.62,3.07-3.27,4.5-4.99,2.39-2.87,5.19-5.27,8.15-7.5,2.71-2.05,5.81-3.35,8.89-4.68,.75-.32,.99-.62,.1-1.22-2.89-1.93-5.71-3.96-8.58-5.92-5.83-3.98-11.66-7.97-17.54-11.89-1.85-1.23-3.84-2.31-6.19-1.99-2.61,.35-5.2,.82-7.8,1.26-3.42,.58-6.86,.81-10.18-.37-2.83-1.01-5.26-2.72-7.5-4.8-2.7-2.5-4.28-5.49-5.04-9.01-.45-2.06-1.2-3.91-3.25-4.98-4.64-2.43-9.22-4.97-13.88-7.35-3.54-1.81-7.11-3.59-10.77-5.13-4.38-1.84-8.86-3.46-13.34-5.06-.93-.33-2.1-.41-2.95,.47-1.21,1.25-2.47,2.47-3.56,3.83-2.01,2.49-1.73,3.86,1.21,5.16,4.04,1.79,7.79,4.06,11.38,6.58,3.78,2.66,7.54,5.36,11.17,8.22,2.49,1.96,4.85,4.13,7.09,6.39,1.97,1.99,3.73,4.2,5.49,6.38,3.42,4.25,6.09,8.92,7.93,14.08,1.45,4.07,1.92,8.23,1.11,12.45-.75,3.9-2.55,7.32-5.25,10.27-2.88,3.14-6.77,4.54-10.48,6.26-2.07,.96-4.17,1.85-6.23,2.83-.71,.34-1.11,.98-.82,1.82,.58,1.69,1.1,3.41,1.79,5.06,1.29,3.07,3.51,5.41,6.59,6.53,4.79,1.73,9.72,3.08,14.59,4.6,.46,.14,.73,.36,1.02,.92,1.27,2.44,.59,4.85,.44,7.53,34.11,6.52,67.66,4.77,100.18-8.21-.13-.98-.3-1.69-.29-2.39,.03-2.01,.14-4.02,.22-6.03,.08-1.86,.12-3.71,.25-5.57,.1-1.53,.36-3.05,.42-4.58,.03-.86,.17-1.81-.75-2.45-6.68-4.64-13.35-9.3-20.01-13.96-2.97-2.08-5.94-4.17-8.88-6.3-2.09-1.51-4.3-2.33-6.74-1.04-1.47,.78-2.84,1.79-4.17,2.8-4.4,3.31-8.78,6.66-13.15,10.02-2.11,1.62-4.37,3.23-5.24,5.84-.72,2.15-.95,4.46-1.36,6.7-.26,1.4-.46,2.82-.71,4.35Zm-60.18-103.14c4.32,2.37,8.54,4.67,12.75,6.99,5.35,2.95,10.7,5.91,16.05,8.86,2.72,1.5,5.57,1.47,8.46,.61,3.01-.9,6.07-1.49,9.18-.77,5.01,1.16,9.19,3.73,12.37,7.81,2.32,2.98,3.43,6.46,3.68,10.17,.13,1.96,.77,3.47,2.48,4.43,3.53,1.97,7.08,3.91,10.64,5.82,3.66,1.97,7.34,3.91,11.02,5.86,6.61,3.51,13.23,7.01,19.84,10.52,3.14,1.67,6.27,3.35,9.39,5.06,2,1.1,3.91,2.36,5.96,3.35,1.35,.65,1.99,.22,2.47-1.23,.58-1.76,.44-3.52,.26-5.34-.37-3.6-.43-7.24-.77-10.85-.27-2.89-.53-5.81-1.19-8.63-1.21-5.21-3-10.13-8.15-12.94-.97-.53-1.49-1.57-1.15-2.75,.46-1.6,.83-3.26,1.54-4.75,1.42-3,2.96-5.93,3.76-9.19,.64-2.59,1.22-5.21,.26-7.78-.9-2.42-2.03-4.77-3.23-7.06-3.12-5.97-7.93-10.43-13.25-14.39-2.45-1.82-4.91-3.67-7.57-5.15-3.16-1.75-6.44-3.35-9.83-4.57-3.83-1.38-7.91-.84-11.87-.46-2.63,.25-5.2,1.12-7.8,1.7-3.27,.74-6.54,1.49-9.81,2.19-4.28,.92-8.58,1.8-12.86,2.72-3.76,.8-7.54,1.55-11.27,2.46-2.82,.69-5.7,1.18-8.26,2.81-7.61,4.87-15.3,9.62-23.08,14.5Zm-61.25,96.03l-.44,.17c-.06,.45-.21,.9-.17,1.34,.2,2.26,.44,4.51,.69,6.76,.45,4.18,1.41,8.26,2.64,12.28,.33,1.08,.78,1.89,2.02,2.35,2.16,.81,4.23,1.54,6.64,1.53,4.96,0,9.89-.37,14.83-.73,2.64-.19,4.77-1.18,6.53-3.1,3.36-3.68,6.78-7.32,10.07-11.06,1.25-1.42,2.54-2.95,3.29-4.66,1.59-3.62,3.05-7.32,4.18-11.1,1.16-3.88,1.92-7.91,1.68-12-.12-2.13-.45-4.27-.94-6.34-.67-2.86-1.52-5.7-3.26-8.13-1.79-2.51-3.76-3.21-6.23-.66-1.27,1.32-2.57,2.62-3.89,3.88-.52,.5-1.15,.88-1.74,1.3-.74,.53-1.54,.61-2.21-.05-.63-.61-.14-1.27,.16-1.86,1.51-3.02,4.08-5.1,6.57-7.22,2.75-2.33,5.56-4.58,8.4-6.8,1.1-.86,2.3-1.62,3.53-2.27,.34-.18,1.1,.05,1.42,.36,.22,.21,.14,.93-.03,1.32-.23,.51-.68,.92-1.05,1.36-1.12,1.32-2.38,2.57-1.79,4.58,.91,3.09,2.81,5.36,5.54,7.04,3.34,2.06,6.63,4.22,9.95,6.33,2.09,1.33,4.16,2.7,6.29,3.96,.99,.59,2.22,.27,2.65-.67,1.16-2.53,1.64-5.18,.34-7.79-.96-1.94-2.21-3.75-3.26-5.65-2.28-4.16-5.1-7.93-8.36-11.35-4.3-4.51-8.82-8.77-13.85-12.48-5.45-4.02-11.06-7.77-17.36-10.33-4.08-1.66-8.31-1.89-12.47-.44-5.85,2.03-9.96,6.24-13.27,11.27-2.38,3.62-4.03,7.6-5.52,11.67-1.55,4.23-1.68,8.36-.07,12.65,1.52,4.05,2.74,8.23,2.85,12.62,.01,.55-.16,1.11-.25,1.71-1.54-.44-1.91-1.49-2.18-2.65-.49-2.15-2.3-2.99-4.23-1.93-2.73,1.5-3.47,4.14-3.7,6.95-.25,2.99,.52,5.85,1.31,8.71,.54,1.93,1.24,3.71,3.03,4.8,.94,.57,1.95,1.04,2.93,1.53,2.15,1.09,2.56,4.1,.72,5.93l-2.01-3.08Zm181.91-8.25c.87-.69,1.91-1.23,2.5-2.07,.58-.83,.81-1.97,.99-3,.28-1.66,.27-3.37,.63-5.01,.22-1.02,.01-1.62-.71-2.3-2.51-2.35-5.41-4.11-8.41-5.74-2.92-1.58-5.82-3.2-8.72-4.81-3.53-1.96-7.03-3.99-10.6-5.87-4.57-2.41-9.22-4.66-13.8-7.06-5.14-2.69-10.23-5.46-15.33-8.22-1.4-.76-2.73-1.66-4.15-2.37-1.18-.59-2.19-.28-2.84,.86-.64,1.12-1.09,2.35-1.71,3.49-.87,1.59-.87,2.16,.33,3.33,.43,.42,.96,.75,1.48,1.06,6.73,4.05,13.49,8.06,20.21,12.13,8.94,5.42,17.75,11.03,26.34,17.01,4.44,3.09,8.66,6.57,13.79,8.59Zm-90.09-67.13c-.72-.63-1.16-1.18-1.72-1.49-5.69-3.12-11.4-6.2-17.11-9.29-4.7-2.54-9.4-5.09-14.12-7.59-.3-.16-.85-.15-1.15,.02-1.56,.87-3.09,1.81-4.62,2.75-2.94,1.82-5.87,3.66-9.11,5.68,1.52,.86,2.8,1.69,4.16,2.33,2.31,1.08,4.7,1.99,7.02,3.05,3.39,1.56,6.77,3.15,10.13,4.8,4.75,2.33,9.44,4.79,14.21,7.08,3.24,1.55,4.05,1.65,5.94-1.42,1.39-2.26,2.69-4.61,5.52-5.39,.25-.07,.46-.28,.85-.52Zm-4.79,13.67c.06,5.05,2.01,8.93,5.79,11.61,4.57,3.25,9.81,3.88,15.11,2.22,3.2-1,5.7-3.32,7.96-5.79,2.97-3.25,4.43-6.98,3.71-11.45-.49-3.01-1.75-5.63-3.88-7.76-3.01-3.01-6.83-4.31-10.99-4.45-4.13-.13-7.91,1.08-11.22,3.66-4,3.13-6.29,7.13-6.47,11.96Zm-33.05,58.11h.13c0,.52-.13,1.07,.04,1.52,.14,.38,.65,.92,.94,.89,1.05-.11,2.12-.33,3.1-.7,2.37-.91,4.65-2.06,7.04-2.9,4.63-1.62,7.71-4.78,9.58-9.22,.71-1.69,.37-2.45-1.07-3-1.02-.39-2.07-.77-3.02-1.3-3.44-1.9-6.89-3.77-10.24-5.82-1.95-1.19-3.68-2.73-5.54-4.06-.38-.27-.9-.33-1.35-.49-.06,.45-.16,.9-.18,1.35,0,.21,.13,.43,.19,.65,.49,1.91,1.27,3.81,1.39,5.75,.2,3.38,.1,6.79-.08,10.17-.13,2.4-.6,4.79-.92,7.18Z"/><path class="ap" d="M157.68,309.5c.25-1.53,.45-2.95,.71-4.35,.41-2.24,.64-4.56,1.36-6.7,.87-2.62,3.13-4.22,5.24-5.84,4.37-3.36,8.74-6.71,13.15-10.02,1.34-1.01,2.7-2.02,4.17-2.8,2.44-1.29,4.65-.47,6.74,1.04,2.94,2.12,5.91,4.22,8.88,6.3,6.66,4.66,13.33,9.32,20.01,13.96,.92,.64,.78,1.59,.75,2.45-.06,1.53-.32,3.05-.42,4.58-.12,1.85-.17,3.71-.25,5.57-.08,2.01-.19,4.02-.22,6.03-.01,.7,.16,1.41,.29,2.39-32.52,12.98-66.07,14.73-100.18,8.21,.15-2.68,.83-5.1-.44-7.53-.29-.56-.56-.78-1.02-.92-4.87-1.52-9.8-2.87-14.59-4.6-3.08-1.11-5.31-3.46-6.59-6.53-.69-1.65-1.21-3.36-1.79-5.06-.29-.84,.12-1.48,.82-1.82,2.06-.98,4.16-1.87,6.23-2.83,3.71-1.72,7.6-3.12,10.48-6.26,2.7-2.95,4.5-6.37,5.25-10.27,.81-4.22,.35-8.38-1.11-12.45-1.84-5.16-4.51-9.83-7.93-14.08-1.76-2.19-3.52-4.39-5.49-6.38-2.23-2.26-4.59-4.42-7.09-6.39-3.63-2.86-7.39-5.56-11.17-8.22-3.59-2.52-7.34-4.79-11.38-6.58-2.94-1.3-3.22-2.67-1.21-5.16,1.09-1.35,2.35-2.57,3.56-3.83,.85-.88,2.02-.8,2.95-.47,4.48,1.6,8.96,3.22,13.34,5.06,3.66,1.54,7.23,3.32,10.77,5.13,4.66,2.38,9.24,4.93,13.88,7.35,2.04,1.07,2.8,2.92,3.25,4.98,.76,3.52,2.34,6.51,5.04,9.01,2.24,2.08,4.67,3.78,7.5,4.8,3.31,1.19,6.75,.96,10.18,.37,2.6-.44,5.19-.91,7.8-1.26,2.35-.32,4.34,.76,6.19,1.99,5.88,3.92,11.7,7.91,17.54,11.89,2.87,1.96,5.69,3.99,8.58,5.92,.9,.6,.65,.9-.1,1.22-3.09,1.33-6.18,2.64-8.89,4.68-2.96,2.24-5.76,4.63-8.15,7.5-1.43,1.72-2.96,3.36-4.5,4.99-3.18,3.35-4.7,7.38-4.79,11.94-.03,1.48,1.07,2.33,2.66,2.99Zm-37.33-27.22l.19,.4c1.15,.38,2.29,.81,3.46,1.15,2.28,.65,4.59,.98,6.9,.18,2.23-.77,4.44-1.58,6.65-2.4,5.11-1.9,9.07-5.35,12.57-9.41,.64-.74,1.18-1.56,1.8-2.4-1.04-.67-1.78-.08-2.5,.36-2.63,1.62-5.12,3.51-7.88,4.86-3.23,1.59-6.67,2.78-10.06,4.03-1.67,.61-3.42,1.02-5.15,1.42-1.41,.32-2.87,.4-4.27,.74-.62,.15-1.14,.71-1.7,1.08Z"/><path class="ap" d="M97.5,206.36c7.79-4.88,15.47-9.64,23.08-14.5,2.55-1.63,5.43-2.12,8.26-2.81,3.73-.92,7.51-1.66,11.27-2.46,4.29-.91,8.58-1.79,12.86-2.72,3.28-.71,6.54-1.46,9.81-2.19,2.6-.58,5.17-1.45,7.8-1.7,3.95-.38,8.04-.92,11.87,.46,3.39,1.22,6.67,2.82,9.83,4.57,2.66,1.47,5.13,3.32,7.57,5.15,5.31,3.96,10.13,8.42,13.25,14.39,1.2,2.29,2.33,4.64,3.23,7.06,.96,2.57,.37,5.19-.26,7.78-.8,3.26-2.34,6.19-3.76,9.19-.7,1.49-1.08,3.15-1.54,4.75-.34,1.19,.18,2.22,1.15,2.75,5.15,2.8,6.94,7.73,8.15,12.94,.65,2.82,.92,5.74,1.19,8.63,.34,3.61,.4,7.24,.77,10.85,.19,1.82,.32,3.59-.26,5.34-.48,1.45-1.12,1.88-2.47,1.23-2.05-.99-3.96-2.25-5.96-3.35-3.12-1.71-6.25-3.39-9.39-5.06-6.61-3.51-13.23-7.01-19.84-10.52-3.67-1.95-7.36-3.88-11.02-5.86-3.56-1.92-7.11-3.85-10.64-5.82-1.71-.95-2.35-2.47-2.48-4.43-.24-3.71-1.36-7.18-3.68-10.17-3.18-4.09-7.36-6.66-12.37-7.81-3.11-.72-6.17-.13-9.18,.77-2.89,.86-5.73,.9-8.46-.61-5.35-2.95-10.7-5.91-16.05-8.86-4.21-2.32-8.43-4.62-12.75-6.99Zm96.97,30.44c-.11-1.42-.09-2.87-.35-4.26-.87-4.51-2.32-8.84-4.54-12.87-.68-1.23-1.6-2.32-2.49-3.42-.18-.22-.76-.34-1-.22-.21,.11-.29,.66-.24,.98,.07,.44,.31,.85,.5,1.27,.8,1.72,1.92,3.37,2.36,5.18,.91,3.77,1.69,7.6,2.11,11.45,.41,3.77-.27,7.49-1.93,10.97-.36,.75-.65,1.55-.78,2.36-.13,.77,.31,1.17,1.03,.64,.79-.58,1.66-1.17,2.19-1.96,2.07-3.04,3.3-6.36,3.14-10.13Z"/><path class="an" d="M36.25,302.39l2.01,3.08c1.84-1.82,1.43-4.83-.72-5.93-.98-.5-1.99-.96-2.93-1.53-1.79-1.09-2.49-2.87-3.03-4.8-.8-2.86-1.56-5.72-1.31-8.71,.24-2.81,.97-5.45,3.7-6.95,1.92-1.06,3.73-.21,4.23,1.93,.27,1.16,.65,2.21,2.18,2.65,.09-.6,.26-1.15,.25-1.71-.1-4.39-1.32-8.57-2.85-12.62-1.62-4.29-1.48-8.42,.07-12.65,1.49-4.06,3.14-8.05,5.52-11.67,3.31-5.03,7.42-9.25,13.27-11.27,4.17-1.44,8.39-1.21,12.47,.44,6.31,2.56,11.92,6.31,17.36,10.33,5.03,3.71,9.55,7.98,13.85,12.48,3.26,3.42,6.08,7.19,8.36,11.35,1.05,1.91,2.29,3.71,3.26,5.65,1.29,2.61,.82,5.25-.34,7.79-.43,.94-1.65,1.26-2.65,.67-2.13-1.26-4.2-2.63-6.29-3.96-3.31-2.11-6.6-4.26-9.95-6.33-2.73-1.68-4.62-3.95-5.54-7.04-.59-2.01,.67-3.26,1.79-4.58,.37-.44,.82-.85,1.05-1.36,.18-.39,.25-1.11,.03-1.32-.32-.31-1.08-.54-1.42-.36-1.23,.65-2.43,1.41-3.53,2.27-2.84,2.22-5.65,4.47-8.4,6.8-2.49,2.12-5.06,4.2-6.57,7.22-.29,.59-.79,1.24-.16,1.86,.67,.66,1.46,.58,2.21,.05,.59-.42,1.22-.81,1.74-1.3,1.33-1.26,2.62-2.56,3.89-3.88,2.47-2.55,4.44-1.85,6.23,.66,1.73,2.43,2.58,5.27,3.26,8.13,.49,2.08,.82,4.22,.94,6.34,.23,4.09-.52,8.12-1.68,12-1.13,3.78-2.59,7.49-4.18,11.1-.75,1.71-2.04,3.24-3.29,4.66-3.3,3.74-6.71,7.38-10.07,11.06-1.76,1.92-3.89,2.91-6.53,3.1-4.94,.36-9.87,.72-14.83,.73-2.41,0-4.48-.72-6.64-1.53-1.23-.46-1.69-1.27-2.02-2.35-1.23-4.02-2.19-8.1-2.64-12.28-.24-2.25-.48-4.5-.69-6.76-.04-.44,.11-.89,.17-1.34l.44-.17Zm22.05-16.4c-1.6-.46-2.43-.15-3.24,1.22-2.66,4.47-4.03,9.37-4.43,14.51-.25,3.12-.3,6.27-.22,9.41,.04,1.49,.49,2.99,.96,4.42,.13,.4,1.06,.9,1.43,.77,.46-.16,.79-.88,1.04-1.42,.12-.27-.03-.68-.09-1.01-.34-1.83-1.02-3.66-.98-5.48,.08-3.44,.37-6.91,.93-10.31,.55-3.33,1.33-6.64,3.42-9.47,.54-.73,.78-1.68,1.2-2.64Zm-4.87-36.96c-1.47,.29-2.24,.87-2.86,1.78-2.31,3.36-2.79,7.24-2.96,11.12-.12,2.64,.15,5.32,.45,7.96,.26,2.24,.88,4.43,2.31,6.26,.24,.31,.92,.6,1.19,.47,.33-.16,.53-.75,.64-1.19,.06-.24-.17-.58-.33-.83-1.62-2.6-2.05-5.48-1.97-8.47,.05-1.7,.05-3.41,.25-5.09,.34-2.88,.86-5.72,2.06-8.4,.48-1.08,.77-2.24,1.23-3.6Z"/><path class="am" d="M218.16,294.13c-5.14-2.02-9.35-5.5-13.79-8.59-8.58-5.98-17.4-11.59-26.34-17.01-6.72-4.08-13.48-8.08-20.21-12.13-.52-.31-1.05-.64-1.48-1.06-1.2-1.17-1.19-1.74-.33-3.33,.62-1.13,1.07-2.37,1.71-3.49,.65-1.13,1.65-1.45,2.84-.86,1.42,.71,2.75,1.61,4.15,2.37,5.1,2.76,10.2,5.53,15.33,8.22,4.58,2.4,9.23,4.65,13.8,7.06,3.57,1.88,7.07,3.91,10.6,5.87,2.9,1.61,5.8,3.23,8.72,4.81,3,1.63,5.9,3.39,8.41,5.74,.72,.68,.93,1.28,.71,2.3-.36,1.64-.35,3.35-.63,5.01-.18,1.04-.41,2.17-.99,3-.59,.85-1.63,1.38-2.5,2.07Z"/><path class="am" d="M128.06,227c-.39,.24-.6,.45-.85,.52-2.83,.79-4.13,3.14-5.52,5.39-1.89,3.07-2.7,2.98-5.94,1.42-4.77-2.29-9.46-4.75-14.21-7.08-3.35-1.65-6.73-3.24-10.13-4.8-2.32-1.06-4.71-1.97-7.02-3.05-1.37-.64-2.64-1.47-4.16-2.33,3.23-2.02,6.16-3.86,9.11-5.68,1.52-.94,3.05-1.88,4.62-2.75,.3-.17,.85-.18,1.15-.02,4.72,2.51,9.42,5.05,14.12,7.59,5.71,3.09,11.42,6.17,17.11,9.29,.57,.31,1,.86,1.72,1.49Z"/><path class="am" d="M123.27,240.67c.18-4.82,2.47-8.83,6.47-11.96,3.31-2.58,7.09-3.79,11.22-3.66,4.16,.13,7.98,1.43,10.99,4.45,2.13,2.13,3.39,4.75,3.88,7.76,.72,4.47-.74,8.2-3.71,11.45-2.26,2.47-4.76,4.79-7.96,5.79-5.3,1.66-10.54,1.03-15.11-2.22-3.77-2.68-5.72-6.57-5.79-11.61Zm13.64-10.12c-.6,.1-.92,.1-1.2,.21-3.89,1.48-7.15,3.82-9.34,7.4-1.76,2.88-1.04,2.99,1.25,4.4,1.45,.89,3.06,1.55,4.52,2.43,1.99,1.19,3.9,2.53,5.89,3.73,1.1,.66,2.27,1.12,3.64,.92,1.67-.25,2.39-1.51,3.17-2.74,.7-1.09,1.39-2.19,2.08-3.28,1.2-1.89,2.52-3.72,3.55-5.7,.94-1.82,.24-3.14-1.73-3.77-2.74-.89-5.5-1.75-8.25-2.6-1.27-.39-2.56-.7-3.59-.98Z"/><path class="an" d="M90.23,298.78c.32-2.39,.79-4.77,.92-7.18,.18-3.39,.28-6.79,.08-10.17-.12-1.94-.9-3.83-1.39-5.75-.06-.22-.2-.44-.19-.65,.02-.45,.12-.9,.18-1.35,.45,.16,.98,.22,1.35,.49,1.86,1.34,3.6,2.87,5.54,4.06,3.34,2.05,6.8,3.92,10.24,5.82,.96,.53,2,.91,3.02,1.3,1.44,.55,1.79,1.31,1.07,3-1.87,4.44-4.95,7.6-9.58,9.22-2.39,.84-4.67,1.99-7.04,2.9-.98,.38-2.05,.59-3.1,.7-.29,.03-.8-.51-.94-.89-.17-.44-.04-1-.04-1.5h-.13Z"/><path d="M120.35,282.28c.56-.37,1.08-.93,1.7-1.08,1.4-.35,2.87-.42,4.27-.74,1.74-.39,3.49-.8,5.15-1.42,3.39-1.25,6.83-2.44,10.06-4.03,2.76-1.35,5.25-3.24,7.88-4.86,.71-.44,1.46-1.03,2.5-.36-.62,.84-1.16,1.66-1.8,2.4-3.5,4.05-7.46,7.5-12.57,9.41-2.21,.82-4.42,1.63-6.65,2.4-2.31,.8-4.62,.48-6.9-.18-1.17-.34-2.31-.76-3.46-1.15l-.19-.4Z"/><path d="M194.47,236.8c.17,3.76-1.07,7.09-3.14,10.13-.54,.79-1.4,1.38-2.19,1.96-.72,.53-1.16,.13-1.03-.64,.14-.81,.43-1.62,.78-2.36,1.66-3.48,2.34-7.2,1.93-10.97-.42-3.85-1.2-7.68-2.11-11.45-.44-1.81-1.56-3.46-2.36-5.18-.19-.41-.43-.83-.5-1.27-.05-.32,.04-.87,.24-.98,.24-.13,.82,0,1,.22,.88,1.1,1.81,2.19,2.49,3.42,2.22,4.03,3.67,8.36,4.54,12.87,.27,1.39,.24,2.84,.35,4.26Z"/><path d="M58.3,285.99c-.42,.95-.66,1.9-1.2,2.64-2.09,2.83-2.87,6.15-3.42,9.47-.56,3.4-.85,6.86-.93,10.31-.04,1.82,.64,3.65,.98,5.48,.06,.34,.21,.75,.09,1.01-.25,.54-.58,1.26-1.04,1.42-.36,.13-1.3-.37-1.43-.77-.46-1.43-.92-2.94-.96-4.42-.08-3.13-.03-6.28,.22-9.41,.4-5.14,1.77-10.04,4.43-14.51,.82-1.37,1.65-1.68,3.24-1.22Z"/><path d="M53.43,249.03c-.46,1.36-.75,2.52-1.23,3.6-1.2,2.68-1.72,5.53-2.06,8.4-.2,1.68-.2,3.39-.25,5.09-.08,2.99,.35,5.87,1.97,8.47,.16,.26,.38,.59,.33,.83-.1,.44-.3,1.03-.64,1.19-.27,.13-.95-.16-1.19-.47-1.42-1.83-2.05-4.02-2.31-6.26-.3-2.64-.57-5.32-.45-7.96,.18-3.88,.65-7.76,2.96-11.12,.62-.91,1.39-1.49,2.86-1.78Z"/><path d="M136.91,230.56c1.03,.28,2.32,.6,3.59,.98,2.76,.84,5.51,1.71,8.25,2.6,1.97,.64,2.67,1.95,1.73,3.77-1.03,1.98-2.35,3.81-3.55,5.7-.69,1.1-1.38,2.19-2.08,3.28-.78,1.23-1.5,2.49-3.17,2.74-1.37,.2-2.54-.26-3.64-.92-1.99-1.2-3.89-2.54-5.89-3.73-1.47-.88-3.07-1.53-4.52-2.43-2.29-1.41-3.01-1.51-1.25-4.4,2.19-3.58,5.44-5.92,9.34-7.4,.28-.11,.6-.11,1.2-.21Zm-1.4,3.54c-.39,.06-.73,0-.91,.15-1.46,1.18-3.02,2.28-4.31,3.63-1.37,1.44-1.13,2.41,.64,3.58,.1,.06,.17,.16,.27,.22,3.04,1.88,5.91,4.06,9.37,5.2,.79,.26,1.41,.19,1.96-.47,2.02-2.47,3.63-5.17,4.7-8.19,.56-1.57,.31-1.95-1.38-2.21-1.39-.21-2.79-.4-4.18-.66-2.09-.4-4.18-.85-6.16-1.26Z"/><path class="ap" d="M135.51,234.1c1.98,.41,4.06,.86,6.16,1.26,1.38,.26,2.78,.45,4.18,.66,1.69,.26,1.94,.63,1.38,2.21-1.07,3.01-2.68,5.72-4.7,8.19-.55,.66-1.17,.73-1.96,.47-3.46-1.13-6.33-3.31-9.37-5.2-.1-.06-.17-.16-.27-.22-1.77-1.17-2.01-2.15-.64-3.58,1.29-1.35,2.84-2.45,4.31-3.63,.18-.14,.52-.09,.91-.15Z"/></g></g><g id="b"><g id="c"><path d="M135.72,223.64c-.84-.65-1.69-1.28-2.51-1.94-2.01-1.62-3.93-3.37-6.03-4.86-2.46-1.73-5.05-3.29-7.64-4.82-2.02-1.19-4.04-2.5-6.23-3.26-2.35-.81-4.46-1.96-6.54-3.24-1.4-.86-2.06-1.9-1.75-3.65,.79-4.42,1.47-8.86,2.13-13.3,.38-2.54-.49-4.75-2.45-6.33-4.15-3.34-8.4-6.56-12.63-9.81-.45-.35-1.05-.5-1.54-.81-2.04-1.29-2.51-.57-2.86,1.1-.58,2.76-.93,5.56-1.37,8.35-.01,.08,.01,.16,0,.23-.51,3.24-.04,3.61-3.47,3.98-4.16,.45-7.53,2.46-10.95,4.56-1.37,.84-2.94,1.37-4.46,1.9-1.26,.44-2.54,.12-3.52-.72-3.58-3.06-7.23-6.06-10.61-9.33-3.34-3.23-6.49-6.66-9.54-10.17-4.22-4.86-7.79-10.18-10.99-15.77-2.97-5.19-5.68-10.51-7.65-16.15-1.71-4.89-3.48-9.81-4.63-14.85-1.28-5.59-2.1-11.3-2.72-17.01-.5-4.58-.71-9.25-.48-13.85,.27-5.52,1.02-11.03,1.79-16.51,.87-6.23,2.64-12.26,4.84-18.14,2.94-7.87,6.69-15.32,11.54-22.22,2.91-4.15,6.1-8.04,9.63-11.65,4.33-4.43,9.09-8.36,14.28-11.75,8.02-5.24,16.6-9.25,25.93-11.49,2.17-.52,4.47-.53,6.7-.82,3.31-.42,6.6-1.08,9.92-1.25,3.44-.18,6.9,.08,10.34,.21,3.68,.14,7.36,.35,11.04,.55,2.64,.14,5.28,.23,7.91,.48,3.2,.31,6.43,.54,9.57,1.19,5.04,1.05,10.02,2.39,15.01,3.66,1.9,.48,3.81,1.01,5.63,1.72,1.42,.55,1.73,1.74,.7,2.85-1.22,1.32-2.58,2.61-4.11,3.55-3.02,1.86-5.56,4.21-7.92,6.81-4.49,4.93-8.16,10.43-11.16,16.36-2.9,5.75-5.34,11.7-6.74,18.01-1.02,4.6-1.86,9.25-2.7,13.89-.21,1.17-.15,2.39-.09,3.59,.08,1.82-.41,2.45-2.24,2.44-1,0-2.01-.21-3.12-.34,0,1-.05,2.01,.03,3.01,.02,.25,.43,.66,.69,.68,3.08,.31,6.18,.45,9.24,.87,3.78,.52,7.42,1.65,10.74,3.55,2.9,1.66,5.69,3.53,8.44,5.45,1.44,1.01,2.69,2.29,4,3.48,.78,.71,1.24,.46,1.73-.36,.45-.76,.93-1.56,1.58-2.13,1.5-1.29,3.55-1.02,5.27,.51,2.99,2.68,5.66,5.65,7.76,9.06,1.57,2.55,3.01,5.29,2.4,8.45-.38,1.95-1.13,3.84-1.8,5.73-.74,2.07-1.63,4.09-2.37,6.16-.96,2.71-.18,5.38,.31,8.05,.05,.27,.13,.53,.16,.8,.21,1.83,1.11,2.97,2.98,3.48,1.58,.43,2.59,1.64,3.13,3.2,1.2,3.49,1.15,7.05,.33,10.59-.84,3.61-1.88,7.17-2.79,10.76-.46,1.79,.34,3,2.18,3.21,3.53,.39,6.66-.64,9.39-2.91,.42-.35,.9-.65,1.63-1.16,.07,2.05-.4,3.62-1.01,5.13-1.43,3.55-3.63,6.56-6.47,9.13-1,.9-1.47,2.02-1.01,3.46,.96,2.97,1.82,5.97,2.72,8.96,1.12,3.71,2.73,7.11,5.43,10.01,2.3,2.46,3.75,5.48,4.75,8.71,1.1,3.55,2.26,7.09,3.4,10.63,.01,.04,.02,.07,.03,.11,.48,2.42-.34,3.19-2.64,2.35-.97-.35-1.86-.94-2.8-1.39-1.33-.64-1.91-.33-2.17,1.12-.23,1.26-.48,2.51-.7,3.77-.12,.69-.52,1.12-1.19,.98-1.19-.25-2.42-.51-3.53-1-1.76-.79-3.41-1.8-5.14-2.67-1.47-.73-2.27-.32-2.56,1.32-.28,1.56-.5,3.14-.66,4.72-.07,.67-.35,.83-.94,.88-1.24,.11-2.46,.33-3.7,.4-.34,.02-.82-.23-1.02-.51-.86-1.2-1.65-2.44-2.44-3.68-2.02-3.19-4.69-5.71-7.84-7.78-3.66-2.41-7.25-4.91-10.88-7.35-.71-.47-1.47-.86-2.22-1.26-1.19-.63-2-.24-2.05,1.13-.05,1.15,.08,2.34,.3,3.47,.49,2.43,1.11,4.84,1.63,7.26,.25,1.18,.44,2.37,.56,3.57,.12,1.14-.72,1.78-1.54,2.29-2.01,1.23-3.79,2.85-6.17,3.44-1.01,.25-1.99,.61-2.99,.92h-.47ZM119.96,3.67c-.78,.07-1.27,.16-1.75,.15-3.8-.04-7.61-.16-11.41-.12-3.13,.03-6.26,.19-9.39,.38-1.45,.09-2.9,.29-4.31,.62-2.78,.65-5.53,1.38-8.28,2.14-5.53,1.53-10.75,3.85-15.8,6.54-4.73,2.53-9.05,5.72-13.13,9.18-3.96,3.35-7.58,7.1-10.73,11.22-2.69,3.52-5.16,7.23-7.51,10.99-1.83,2.93-3.49,6-4.91,9.15-1.63,3.63-3.04,7.37-4.33,11.14-2.21,6.47-3.79,13.1-4.45,19.92-.37,3.79-.73,7.59-.91,11.39-.11,2.35,.07,4.72,.21,7.08,.18,3.11,.29,6.24,.73,9.32,.63,4.49,1.39,8.98,2.35,13.41,.79,3.64,1.79,7.25,2.99,10.77,1.39,4.07,3.12,8.01,4.66,12.03,1.93,5.04,4.63,9.69,7.56,14.19,2.04,3.13,4.35,6.09,6.66,9.04,1.95,2.5,3.97,4.95,6.13,7.27,2.45,2.64,5.07,5.12,7.62,7.67,.23,.23,.49,.44,.89,.81,1.6-3.05,3.1-6,4.7-8.9,2.09-3.81,4.26-7.58,6.4-11.35,.84-1.48,1.43-2.94,.55-4.64-.75-1.45-1.51-2.9-2.1-4.41-1.65-4.17-3.18-8.37-4.05-12.81-.82-4.16-1.34-8.35-1.31-12.57,.02-2.92,.19-5.87,.71-8.73,.73-3.98,1.61-7.97,2.87-11.81,1.02-3.08,2.61-6,4.13-8.9,3.21-6.09,7.5-11.37,12.55-16.02,3.32-3.06,6.93-5.74,10.88-7.98,4.73-2.68,9.63-4.91,14.89-6.3,.59-.16,.75-.36,.57-.96-.57-1.93-1.07-3.89-1.64-5.82-1.51-5.07-2.3-10.28-2.88-15.51-.33-2.96-.28-5.98-.25-8.97,.02-2.06,.27-4.13,.44-6.19,.37-4.34,1.07-8.62,2.34-12.79,1.07-3.51,2.26-7,3.58-10.42,.78-2.01,1.9-3.9,2.89-5.83,.57-1.1,1.18-2.18,1.84-3.38Zm-4.2,167.34c-.06-.1-.14-.29-.27-.4-4.67-3.75-9.29-7.56-14.04-11.22-3.36-2.59-6.95-4.89-10.3-7.49-1.24-.96-2.44-2.27-1.74-4.2,.56-1.52,1.1-3.04,1.63-4.56,1.33-3.82,2.48-7.72,4.02-11.45,2.08-5.04,4.35-10.01,6.72-14.92,2.42-5.01,4.98-9.96,7.63-14.85,1.14-2.1,2.69-3.99,4.9-5.17,1.93-1.03,3.88-1.34,5.8,.01,3.22,2.28,6.42,4.58,9.62,6.88,4.46,3.19,8.91,6.39,13.37,9.58,2.09,1.49,3.89,3.16,4.56,5.79,2.39,9.44,4.83,18.87,7.23,28.32,.99,3.9,1.82,7.85,2.86,11.73,.62,2.29,2.73,2.67,4.39,.95,1.79-1.85,2.33-4,1.52-6.43-1.06-3.15-2.19-6.28-3.28-9.42-1.14-3.3-2.2-6.63-3.4-9.9-2.25-6.1-3.62-12.51-6.66-18.32-1.31-2.5-.85-4.85,.42-7.2,1.46-2.72,2.93-5.44,4.24-8.23,1.13-2.41,.81-3.64-1.17-5.48-1.33-1.24-2.72-2.41-4.14-3.54-2.79-2.23-5.71-4.29-9.07-5.56-2.7-1.03-5.44-2.01-8.25-2.68-3.69-.87-7.48-.93-11.24-.41-4.3,.59-8.3,2.05-12.16,4.1-6.49,3.45-12.12,7.89-16.87,13.49-2.89,3.41-5.32,7.11-7.28,11.15-2.49,5.13-4.09,10.51-4.8,16.16-.47,3.71-.51,7.42-.21,11.16,.52,6.45,2.26,12.5,5.4,18.14,1.6,2.89,3.52,5.55,5.89,7.86,2.1,2.05,4.2,4.08,6.26,6.17,3.24,3.29,6.48,6.56,10.29,9.24,1.29,.91,2.4,2.22,3.26,3.56,1.31,2.07,.93,4.41,.32,6.65-.64,2.35-1.42,4.67-2,7.03-.56,2.3-.44,4.53,1.78,6.02,1.49,1,3.03,1.93,4.58,2.84,2.43,1.43,4.85,2.87,7.33,4.22,.87,.48,1.87,.7,3.16,1.17-.13-2.37-.23-4.34-.36-6.3-.31-4.57-.66-9.14-.95-13.72-.2-3.14-.3-6.29-.48-9.43-.07-1.26-.24-2.54-1.45-3.27-1.76-1.05-3.57-2.01-5.34-3.05-1.82-1.07-3.61-2.18-5.42-3.27l.05-.55c1.2-.4,2.4-.8,3.65-1.21ZM155.82,8.87c-1.23-.26-2.59-.56-3.96-.82-2.96-.56-5.92-1.09-8.88-1.64-1.61-.3-3.22-.62-4.83-.93-2.47-.48-4.93-.97-7.41-1.42-1.42-.26-2.85-.49-4.29-.66-.39-.05-.96,.05-1.18,.31-.94,1.09-1.92,2.19-2.63,3.43-1.01,1.78-1.85,3.66-2.67,5.54-1.5,3.47-3.12,6.9-4.3,10.48-1.01,3.06-1.63,6.27-2.15,9.45-.56,3.48-.83,7-1.18,10.51-.1,1.05-.03,2.11-.02,3.17,0,2.07-.12,4.16,.06,6.22,.24,2.62,.63,5.24,1.14,7.83,.68,3.47,1.48,6.92,2.38,10.35,.15,.58,.99,1.3,1.59,1.38,2.25,.31,4.52,.44,6.79,.5,1.53,.04,2.13-.55,2.3-2.06,.15-1.27,.12-2.57,.26-3.84,.27-2.36,.51-4.72,.94-7.05,.63-3.39,1.26-6.8,2.21-10.11,1.01-3.5,2.23-6.96,3.67-10.31,1.5-3.48,3.22-6.9,5.11-10.18,2.29-3.98,5-7.71,8.19-11.05,2.9-3.04,5.86-6.03,8.84-9.1Zm15.33,207.66c1.29-.84,2.01-1.98,2-3.54-.02-2.21,0-4.42,0-6.63l.4-.24c2.68,5.74,7.85,7.03,13.39,8.05,0-1.11-.06-1.97,.01-2.82,.24-2.86-.39-5.44-2.08-7.82-.88-1.24-1.44-2.7-2.15-4.06l.33-.25c1.13,1.04,2.39,1.97,3.37,3.14,1.46,1.76,2.64,3.75,4.1,5.5,.9,1.08,2.13,1.86,3.64,2.2-.33-1.18-.59-2.24-.92-3.29-.91-2.86-1.56-5.85-2.86-8.52-1.62-3.31-3.84-6.32-6.65-8.81-2.01-1.78-4.27-3.15-6.82-4.01-1.44-.48-2.45-.14-3.13,1.22-.39,.78-.35,1.77-.68,2.6-.3,.77-.7,1.65-1.33,2.06-.28,.19-1.43-.51-1.85-1.06-1.12-1.48-2.03-3.12-3.1-4.64-.62-.89-1.31-1.78-2.13-2.49-.39-.34-1.16-.39-1.72-.31-.25,.04-.54,.69-.59,1.09-.21,1.68-.27,3.38-.51,5.05-.23,1.66-.37,3.39-.99,4.91-.74,1.84-1.8,2.69-3.78,1.96-2.1-.77-4.23-1.53-6.2-2.57-1.37-.72-2.82-1.69-3.67-2.93-1.35-1.98-2.25-4.27-3.32-6.45-.43-.89-.67-1.9-1.23-2.68-.86-1.17-2.48-1.08-4.28,.02,.98,3.53,1.86,7.07,2.96,10.55,.72,2.3,1.94,4.3,4.53,5.05,.9,.26,1.76,.7,2.6,1.14,1.5,.79,3,1.59,4.43,2.5,1.95,1.24,3.83,2.58,5.72,3.9,1.13,.79,2.26,1.58,3.31,2.45,1.85,1.53,3.77,3,5.42,4.73,1.43,1.5,2.53,3.31,3.76,4.96Zm-41.52-49.03c-.45-2.32-1.72-3.99-3.48-5.09-3.63-2.27-7.38-4.35-11.13-6.42-3.9-2.15-7.76-4.35-11.23-7.16-2.47-1.99-3.78-4.49-2.75-7.66,1.21-3.7,2.58-7.36,4.01-10.98,1.37-3.44,2.79-6.88,4.41-10.21,1.4-2.87,2.87-5.77,4.77-8.33,2.1-2.84,3.62-3.58,7.28-1.31,2.38,1.47,4.36,3.58,6.53,5.39,4.6,3.85,9.2,7.7,13.8,11.55,2.41,2.01,4.36,4.38,5.05,7.49,1.43,6.39,2.73,12.81,4.02,19.23,.27,1.36,.25,2.78,.5,4.14,.18,1,1.52,1.76,2.53,1.6,1.07-.17,1.59-.92,1.49-2.22-.04-.5-.11-1.01-.24-1.49-1.01-3.58-2.06-7.14-3.07-10.72-1.81-6.4-3.72-12.78-5.36-19.23-.9-3.53-2.64-6.3-5.58-8.4-2.6-1.85-5.16-3.77-7.7-5.69-4.07-3.08-8.13-6.18-12.18-9.29-2.53-1.94-3.86-1.81-6.11,.53-2.98,3.11-5.28,6.65-7.06,10.56-2.27,5-4.67,9.94-6.78,15-2.12,5.1-4.02,10.3-5.89,15.5-1.17,3.27-1.12,5.02,1.35,7.29,1.7,1.56,3.52,3.01,5.29,4.5,1.94,1.63,3.91,3.23,5.82,4.89,3.05,2.64,6.05,5.35,9.11,7.98,.87,.75,1.84,1.66,3.09,1.32,3.17-.85,6.31-1.84,9.49-2.79Zm10.16-34.53c-1.16,0-1.91,.04-2.65-.01-.81-.06-1.67-.44-2.42-.28-1.78,.37-3.37-.33-5.05-.57-2.46-.34-4.76-.28-6.8,1.56-1.98,1.79-4.17,3.33-6.29,4.96-.71,.55-1.45,1.05-2.19,1.54-.71,.47-1.29,.28-1.58-.5-.16-.42-.21-.91-.22-1.36-.07-4.14,1.08-7.99,2.99-11.6,1.22-2.3,2.91-4.23,5.45-5.2,1.12-.43,2.23-.91,3.38-1.26,.43-.13,.98-.08,1.42,.05,1.73,.51,3.44,1.08,5.16,1.63-.17-.42-.43-.7-.73-.93-1.86-1.48-3.89-2.78-5.56-4.45-1.76-1.77-3.82-2.7-6.13-3.33-1.17-.32-2.14-.08-2.72,.94-1.08,1.91-2.19,3.83-3.01,5.86-1.52,3.77-2.83,7.62-4.25,11.42-1.4,3.76-2.87,7.49-4.24,11.27-.55,1.51-.1,2.88,1.19,3.82,1.68,1.23,3.44,2.36,5.18,3.49,1.77,1.16,3.57,2.28,5.37,3.41,2.35,1.47,4.79,2.82,7.04,4.43,2.78,1.99,6.22,3.15,8.06,6.39,.69,1.21,1.85,1.25,3.01,.42,.37-.27,.69-.63,1.01-.96,1.15-1.18,2.37-2.21,4.03-2.62,.89-.22,1.75-.64,2.59-1.02,.58-.26,.97-.79,.31-1.24-1.66-1.13-2.02-2.83-2.09-4.59-.12-3.08,.93-6.08,4.94-5.69,.86,.09,1.73,.01,2.71,.01-.8-3.13-1.55-6.09-2.31-9.05-.48-1.86-.79-3.8-1.52-5.56-1.07-2.61-3.67-3.84-5.73-5.86l1.62,4.86Zm-55.22,29.41c-.52-1.01-.94-1.9-1.44-2.74-2.19-3.71-4.28-7.44-5.46-11.64-1.24-4.44-2.09-8.94-2.24-13.54-.06-1.81,.05-3.64,.23-5.45,.24-2.32,.43-4.67,1-6.92,1-3.98,2.36-7.86,4.18-11.57,2.26-4.61,5.09-8.84,8.49-12.64,2.88-3.21,6.11-6.05,9.64-8.57,3.32-2.37,6.89-4.23,10.56-5.94,1.27-.59,2.64-.97,3.96-1.44,1.89-.67,3.82-1.26,5.67-2.03,1.23-.51,1.46-1.3,1.02-2.43-.88-2.26-1.4-2.73-2.93-2.17-4.18,1.51-8.38,2.99-12.46,4.76-3.75,1.63-7.15,3.95-10.32,6.56-1.81,1.49-3.68,2.95-5.29,4.64-1.92,2.03-3.71,4.21-5.33,6.48-2,2.81-3.96,5.69-5.57,8.73-2.31,4.37-3.96,9.02-5.13,13.84-1.05,4.31-1.55,8.7-1.67,13.11-.08,2.88,.07,5.81,.47,8.67,.48,3.42,1.13,6.85,2.1,10.17,1.02,3.5,2.49,6.86,3.79,10.28,.39,1.02,1.32,1.51,2.46,1.2,1.43-.38,2.82-.9,4.29-1.38Zm34.73,11.28l.17,.33c.36,.11,.72,.23,1.08,.33,3.59,1.06,7.14,2.28,10.77,3.13,3.85,.89,7.73,.46,11.49-.74,1.98-.63,4.05-1.19,5.82-2.21,2.54-1.47,4.76-3.47,7.26-5.01,2.52-1.56,5.11-3.25,8.34-2.63,1.25,.24,2.48,.6,3.7,.98,4.57,1.42,8.77,.83,12.43-2.35,1.08-.94,2.02-2.09,2.46-3.82-.95,.06-1.71,.05-2.46,.16-2.21,.31-4.41,1.09-6.6-.12-.95-.52-1.89-1.09-2.9-1.44-1.33-.46-2.71-.97-4.08-1.01-1.78-.05-2.65,1.47-3.4,2.84-.62,1.14-1.55,1.73-2.72,1.65-1.57-.1-3.16-.35-4.66-.79-2.69-.79-5.33-1.62-8.18-.81-.75,.21-1.62,.2-2.39,.06-1.83-.33-3.53-.25-5.12,.83-2.05,1.39-4.1,2.78-6.2,4.11-2.77,1.76-5.46,3.7-8.82,4.28-1.26,.22-2.54,.43-3.74,.84-.81,.28-1.5,.91-2.25,1.38Zm23.91,40.22c0-.75,.09-1.36-.02-1.92-.59-3.07-1.08-6.16-1.89-9.17-1.76-6.53-3.68-13.02-5.57-19.52-.43-1.49-1.71-2.31-3.28-2.44-1.4-.12-2.8-.28-4.16-.58-.92-.2-1.33,.35-1.39,.94-.12,1.38-.12,2.79,.01,4.18,.31,3.16,.77,6.31,1.1,9.47,.29,2.74,.48,5.5,.73,8.25,.29,3.17,.67,6.34,.89,9.51,.12,1.75,.76,3.09,2.21,4.05,1.24,.82,2.48,1.64,3.72,2.47,1.17,.78,2.38,1.5,3.8,.72,2.4-1.32,4.29-3.01,3.86-5.96Zm14.08-85.33c1.54-.38,2.83-.73,4.13-1.01,1.36-.29,2.74-.52,4.11-.78l.21,.28c-.16,.27-.27,.62-.5,.79-1.06,.77-1.31,1.47-.69,2.63,1.02,1.91,2.07,3.78,1.36,6.08-.09,.31,.02,.67,.04,1.02,1.21,.1,2.26-1.27,3.63-.11-.37,.32-.62,.69-.95,.81-1.43,.52-2.91,.89-4.33,1.45-1.17,.46-2.27,1.11-3.15,1.55,.72,1.72,1.29,3.09,1.86,4.45,1.64-.32,2.91,.13,3.9,1.46,1.13,1.52,1.55,3.23,1.25,5.05-.26,1.58-.72,3.13-1.14,4.89,1.55,.05,3.09,.14,4.63,.14,.98,0,1.55-.65,1.83-1.53,.2-.62,.34-1.27,.46-1.92,.34-1.9,.57-3.83,1.01-5.7,.85-3.58,1.29-7.16,.77-10.84-.25-1.74-1-2.86-2.62-3.15-2.3-.41-3.34-1.81-3.71-3.96-.35-2.02-.7-4.05-1.15-6.05-.46-2.08-1.71-2.67-3.58-1.62-1.31,.74-2.53,1.68-3.7,2.64-1.24,1.02-2.36,2.18-3.68,3.41Zm-71,38.16l-.12-.02c0-.19,0-.39,0-.58-.08-1.81-.32-2.03-2.07-1.86-.49,.05-.98,.17-1.47,.23-3.67,.4-5.96,2.52-7.44,5.79-1.68,3.69-3.47,7.34-5.22,11-.86,1.81-1.79,3.58-2.59,5.42-.41,.92,.27,1.63,1.24,1.29,1.25-.43,2.48-.95,3.66-1.54,2.47-1.22,4.68-2.91,7.56-3.32,1.7-.24,3.48-.89,3.98-2.94,.3-1.21,.5-2.45,.72-3.69,.29-1.66,.52-3.34,.82-5,.29-1.6,.62-3.19,.94-4.78Zm86.48-59.61l.38-.11c-.21-.83-.25-1.77-.67-2.47-2.12-3.51-4.21-7.05-6.58-10.39-1.42-2-3.37-2.59-4.72,.37-1.49,3.27-3.02,6.53-4.5,9.8-1.27,2.82-2.6,5.61-3.71,8.5-.61,1.58-1.04,3.34,.31,5.11,1.68-2.35,3.3-4.58,4.87-6.83,1.91-2.73,3.74-5.51,5.69-8.21,.53-.74,1.47-1.06,2.4-.67,.8,.35,1.61,.75,2.29,1.29,1.45,1.15,2.82,2.39,4.23,3.6Zm-57.73,30.39c.35-.23,.7-.39,.94-.65,1.32-1.42,2.63-2.85,3.92-4.31,3.12-3.54,6.12-5.6,11.39-2.79,1.52,.82,3.21,1.33,4.85,1.93,.68,.25,1.59,.22,1.38-.71-.3-1.31-.73-2.78-1.6-3.74-2.19-2.4-5.04-3.84-8.29-4.35-3.1-.49-5.94,.1-8.08,2.53-2.02,2.29-3.32,5.04-4.31,7.9-.44,1.27-.96,2.65-.19,4.18Zm40.11-14.9c.71-1.04,1.27-1.9,1.87-2.74,.99-1.38,1.83-2.93,3.07-4.05,1.34-1.21,3.05-2.01,4.59-2.99,.51-.32,.85-.23,1.28,.23,1.17,1.24,2.42,2.4,3.67,3.61,.58-1.19,1.29-2.48,1.82-3.84,.25-.64,.47-1.58,.18-2.1-1.21-2.2-2.65-4.27-4.69-5.84-.58-.45-1.01-.31-1.38,.2-2.55,3.53-5.11,7.05-7.63,10.59-1.23,1.73-2.39,3.51-3.62,5.32l.83,1.6Zm3.97,64.71c.01-2.76-.59-3.23-2.74-2.77-.26,.06-.55,.08-.81,.04-1.8-.27-3.62-.51-5.41-.87-1.55-.31-2.42,.45-2.01,1.96,.19,.72,.56,1.4,.92,2.07,1.37,2.6,3.89,3.77,6.36,4.93,1.31,.62,2.61-.04,2.97-1.46,.37-1.47,.56-2.99,.72-3.9Zm7.76-12c-1.98,0-3.21,.73-4.38,1.56-3.62,2.56-7.45,3.5-11.86,2.27-1.7-.47-3.58-1.03-5.5-.29,.75,1.87,2.25,2.73,4.03,3.18,3.5,.9,6.95,.24,10.33-.61,2.42-.61,4.68-1.7,6.17-3.87,.43-.63,.73-1.35,1.21-2.26Zm13.18,8.28c.19-.35,.54-.69,.5-.98-.08-.7-.34-1.39-.55-2.07-.88-2.94-1.77-5.88-2.67-8.81-.07-.24-.21-.53-.41-.65-.55-.33-3.04,.53-3.21,1.2-.19,.73-.15,1.54-.1,2.31,.11,1.45,.21,2.91,.48,4.33,.45,2.33,2.54,3.04,4.3,4.04,.42,.24,.91,.36,1.64,.65Zm-12.16-63.95l.2-.27c-.41-1.03-.75-2.09-1.23-3.08-.77-1.6-1.74-1.82-3.26-.95-3,1.71-4.71,4.63-6.86,7.14-1.2,1.41-.52,2.54,.08,3.85,.25-.1,.51-.13,.66-.27,1.61-1.5,3.37-2.87,4.75-4.55,1.55-1.89,3.18-2.89,5.66-1.87Zm-17.41,57.39c1.17-.05,2.28-.27,3.33-.12,2.65,.38,5.16,.02,7.41-1.37,1.24-.76,2.3-1.84,3.35-2.87,.59-.58,.64-1.38-.2-1.85-.59-.33-1.25-1-1.88,.14-.32,.58-.85,1.09-1.81,.99-1.12-.12-2.38-.11-3.4,.29-1.91,.74-3.69,1.8-5.52,2.72-.82,.41-1.32,1.01-1.28,2.08Zm17.45-5c.11,.39,.18,.71,.29,1.02,.75,2.13,.91,4.19-.66,6.05-1.01,1.2-1.29,2.46-.37,3.85,.19,.29,.35,.6,.57,.86,1.01,1.24,1.78,2.76,3.89,3.21-.05-1.08-.1-2.03-.13-2.98-.08-3.08-.17-6.15-.23-9.23-.06-2.53-.55-2.99-3.35-2.78Zm-18.46-13.31c-.73-2.68-.94-5.39-2.9-7.36-.43-.43-1.36-.71-1.93-.56-1.05,.27-1.86,1.04-2.19,2.2-.6,2.06,.24,3.93,1.85,5.38,1.54,1.39,3.28,.57,5.18,.35Zm12.6-29.56c-1.02,.26-1.44,.81-.9,1.69,1.08,1.75,1.61,3.59,1.48,5.66-.03,.42,.43,.86,.67,1.29,.38-.37,1.03-.7,1.1-1.13,.51-2.9-.46-5.38-2.36-7.52Zm-3.21,1.4c-.84,.53-.79,1.2-.52,1.96,.3,.85,.56,1.71,.8,2.57,.25,.91,.44,1.85,.71,2.76,.08,.25,.31,.52,.54,.64,.1,.05,.53-.24,.56-.42,.5-2.54,.79-5.43-2.09-7.51Zm4.77,16.93c.68,2.18,1.35,4.35,2.04,6.56,1.49-1,1.73-3.32,1.34-4.45-.45-1.32-2-2.25-3.38-2.11Z"/></g><g id="d"><path class="ap" d="M119.96,3.67c-.66,1.2-1.27,2.28-1.84,3.38-.99,1.93-2.12,3.81-2.89,5.83-1.32,3.43-2.51,6.91-3.58,10.42-1.27,4.16-1.97,8.45-2.34,12.79-.18,2.06-.43,4.12-.44,6.19-.02,2.99-.07,6,.25,8.97,.58,5.23,1.37,10.44,2.88,15.51,.57,1.93,1.07,3.89,1.64,5.82,.18,.6,.02,.81-.57,.96-5.26,1.39-10.17,3.62-14.89,6.3-3.95,2.24-7.56,4.92-10.88,7.98-5.05,4.65-9.35,9.93-12.55,16.02-1.52,2.89-3.11,5.81-4.13,8.9-1.27,3.84-2.15,7.83-2.87,11.81-.52,2.86-.7,5.82-.71,8.73-.03,4.22,.49,8.41,1.31,12.57,.87,4.44,2.4,8.64,4.05,12.81,.6,1.51,1.35,2.97,2.1,4.41,.88,1.7,.29,3.16-.55,4.64-2.15,3.78-4.31,7.55-6.4,11.35-1.6,2.9-3.09,5.86-4.7,8.9-.41-.37-.66-.58-.89-.81-2.55-2.55-5.17-5.02-7.62-7.67-2.15-2.32-4.18-4.77-6.13-7.27-2.3-2.95-4.62-5.91-6.66-9.04-2.93-4.5-5.63-9.14-7.56-14.19-1.54-4.02-3.27-7.96-4.66-12.03-1.2-3.52-2.2-7.13-2.99-10.77-.96-4.43-1.72-8.92-2.35-13.41-.43-3.08-.54-6.21-.73-9.32-.14-2.36-.32-4.73-.21-7.08,.18-3.8,.54-7.6,.91-11.39,.67-6.82,2.25-13.45,4.45-19.92,1.28-3.77,2.69-7.51,4.33-11.14,1.42-3.15,3.09-6.21,4.91-9.15,2.35-3.76,4.81-7.47,7.51-10.99,3.15-4.12,6.78-7.86,10.73-11.22,4.08-3.46,8.4-6.65,13.13-9.18,5.04-2.7,10.26-5.01,15.8-6.54,2.75-.76,5.51-1.5,8.28-2.14,1.41-.33,2.87-.53,4.31-.62,3.13-.19,6.26-.35,9.39-.38,3.8-.04,7.6,.08,11.41,.12,.49,0,.97-.08,1.75-.15Z"/></g><g id="e"><path class="ap" d="M115.76,171.01c-1.25,.42-2.45,.81-3.65,1.21l-.05,.55c1.8,1.09,3.6,2.2,5.42,3.27,1.77,1.04,3.58,1.99,5.34,3.05,1.21,.73,1.38,2.01,1.45,3.27,.17,3.14,.28,6.29,.48,9.43,.29,4.57,.64,9.14,.95,13.72,.13,1.96,.22,3.93,.36,6.3-1.29-.46-2.29-.69-3.16-1.17-2.47-1.35-4.9-2.79-7.33-4.22-1.55-.91-3.09-1.84-4.58-2.84-2.22-1.5-2.34-3.72-1.78-6.02,.57-2.37,1.36-4.68,2-7.03,.61-2.24,.99-4.58-.32-6.65-.85-1.34-1.97-2.66-3.26-3.56-3.81-2.68-7.04-5.95-10.29-9.24-2.06-2.09-4.16-4.12-6.26-6.17-2.37-2.32-4.28-4.98-5.89-7.86-3.14-5.65-4.88-11.7-5.4-18.14-.3-3.74-.26-7.45,.21-11.16,.71-5.65,2.31-11.02,4.8-16.16,1.96-4.03,4.38-7.74,7.28-11.15,4.75-5.59,10.38-10.04,16.87-13.49,3.86-2.05,7.86-3.51,12.16-4.1,3.76-.52,7.55-.46,11.24,.41,2.8,.66,5.55,1.65,8.25,2.68,3.36,1.28,6.28,3.33,9.07,5.56,1.42,1.13,2.81,2.3,4.14,3.54,1.98,1.84,2.3,3.08,1.17,5.48-1.31,2.79-2.78,5.51-4.24,8.23-1.26,2.35-1.73,4.7-.42,7.2,3.04,5.81,4.42,12.22,6.66,18.32,1.21,3.27,2.26,6.6,3.4,9.9,1.09,3.14,2.22,6.27,3.28,9.42,.81,2.43,.27,4.58-1.52,6.43-1.65,1.72-3.77,1.34-4.39-.95-1.05-3.89-1.88-7.83-2.86-11.73-2.39-9.44-4.84-18.87-7.23-28.32-.67-2.64-2.47-4.3-4.56-5.79-4.46-3.18-8.91-6.38-13.37-9.58-3.21-2.3-6.4-4.6-9.62-6.88-1.92-1.36-3.87-1.04-5.8-.01-2.2,1.18-3.75,3.06-4.9,5.17-2.66,4.89-5.21,9.84-7.63,14.85-2.37,4.91-4.64,9.88-6.72,14.92-1.54,3.74-2.69,7.63-4.02,11.45-.53,1.53-1.08,3.05-1.63,4.56-.71,1.93,.49,3.24,1.74,4.2,3.35,2.6,6.94,4.9,10.3,7.49,4.74,3.66,9.37,7.47,14.04,11.22,.14,.11,.21,.3,.27,.4Z"/></g><g id="f"><path class="am" d="M155.82,8.87c-2.98,3.07-5.94,6.06-8.84,9.1-3.19,3.34-5.9,7.07-8.19,11.05-1.89,3.29-3.61,6.7-5.11,10.18-1.44,3.34-2.66,6.81-3.67,10.31-.95,3.31-1.58,6.72-2.21,10.11-.44,2.33-.67,4.7-.94,7.05-.15,1.27-.12,2.57-.26,3.84-.17,1.51-.77,2.1-2.3,2.06-2.27-.07-4.54-.2-6.79-.5-.6-.08-1.44-.8-1.59-1.38-.9-3.42-1.7-6.87-2.38-10.35-.51-2.59-.9-5.21-1.14-7.83-.19-2.06-.06-4.14-.06-6.22,0-1.06-.08-2.12,.02-3.17,.34-3.51,.61-7.04,1.18-10.51,.52-3.19,1.14-6.4,2.15-9.45,1.18-3.58,2.81-7.01,4.3-10.48,.81-1.88,1.65-3.76,2.67-5.54,.71-1.24,1.69-2.34,2.63-3.43,.22-.26,.79-.35,1.18-.31,1.44,.17,2.87,.4,4.29,.66,2.47,.45,4.94,.94,7.41,1.42,1.61,.31,3.22,.63,4.83,.93,2.96,.55,5.92,1.08,8.88,1.64,1.37,.26,2.73,.56,3.96,.82Z"/></g><g id="g"><path class="ao" d="M171.15,216.53c-1.23-1.65-2.33-3.46-3.76-4.96-1.65-1.73-3.58-3.2-5.42-4.73-1.06-.87-2.19-1.67-3.31-2.45-1.89-1.32-3.78-2.66-5.72-3.9-1.43-.91-2.93-1.71-4.43-2.5-.83-.44-1.69-.88-2.6-1.14-2.59-.74-3.81-2.74-4.53-5.05-1.09-3.48-1.98-7.03-2.96-10.55,1.8-1.11,3.42-1.2,4.28-.02,.57,.78,.8,1.8,1.23,2.68,1.07,2.17,1.96,4.47,3.32,6.45,.85,1.24,2.3,2.21,3.67,2.93,1.97,1.04,4.1,1.8,6.2,2.57,1.98,.72,3.04-.12,3.78-1.96,.61-1.52,.75-3.25,.99-4.91,.24-1.67,.3-3.37,.51-5.05,.05-.4,.34-1.06,.59-1.09,.56-.08,1.33-.03,1.72,.31,.81,.71,1.5,1.59,2.13,2.49,1.07,1.52,1.97,3.16,3.1,4.64,.42,.55,1.57,1.24,1.85,1.06,.63-.41,1.03-1.3,1.33-2.06,.33-.83,.29-1.81,.68-2.6,.68-1.37,1.69-1.71,3.13-1.22,2.55,.85,4.8,2.22,6.82,4.01,2.81,2.49,5.03,5.5,6.65,8.81,1.31,2.67,1.95,5.66,2.86,8.52,.33,1.04,.59,2.11,.92,3.29-1.51-.34-2.74-1.12-3.64-2.2-1.47-1.75-2.64-3.75-4.1-5.5-.97-1.17-2.24-2.1-3.37-3.14l-.33,.25c.7,1.36,1.27,2.82,2.15,4.06,1.69,2.38,2.32,4.96,2.08,7.82-.07,.85-.01,1.7-.01,2.82-5.54-1.02-10.72-2.3-13.39-8.05l-.4,.24c0,2.21-.01,4.42,0,6.63,.01,1.56-.71,2.7-2,3.54Z"/></g><g id="h"><path class="am" d="M129.62,167.5c-3.18,.94-6.32,1.94-9.49,2.79-1.25,.34-2.22-.57-3.09-1.32-3.06-2.63-6.06-5.34-9.11-7.98-1.92-1.66-3.88-3.26-5.82-4.89-1.77-1.49-3.59-2.93-5.29-4.5-2.47-2.27-2.52-4.02-1.35-7.29,1.87-5.2,3.77-10.4,5.89-15.5,2.11-5.06,4.51-10,6.78-15,1.77-3.91,4.07-7.46,7.06-10.56,2.25-2.34,3.58-2.47,6.11-.53,4.05,3.11,8.11,6.21,12.18,9.29,2.55,1.92,5.1,3.84,7.7,5.69,2.94,2.1,4.69,4.87,5.58,8.4,1.64,6.45,3.55,12.83,5.36,19.23,1.01,3.58,2.06,7.14,3.07,10.72,.14,.48,.2,.99,.24,1.49,.1,1.3-.42,2.04-1.49,2.22-1,.16-2.35-.6-2.53-1.6-.25-1.37-.22-2.78-.5-4.14-1.3-6.42-2.6-12.84-4.02-19.23-.69-3.1-2.64-5.47-5.05-7.49-4.6-3.85-9.2-7.69-13.8-11.55-2.17-1.81-4.15-3.92-6.53-5.39-3.66-2.27-5.18-1.53-7.28,1.31-1.89,2.55-3.36,5.45-4.77,8.33-1.62,3.33-3.05,6.76-4.41,10.21-1.44,3.62-2.8,7.27-4.01,10.98-1.04,3.17,.28,5.66,2.75,7.66,3.47,2.81,7.33,5.02,11.23,7.16,3.75,2.06,7.5,4.15,11.13,6.42,1.75,1.09,3.03,2.76,3.48,5.09Z"/></g><g id="i"><path class="an" d="M139.78,132.97l-1.62-4.86c2.07,2.01,4.66,3.25,5.73,5.86,.72,1.76,1.04,3.7,1.52,5.56,.76,2.96,1.51,5.91,2.31,9.05-.98,0-1.85,.07-2.71-.01-4.01-.4-5.05,2.61-4.94,5.69,.07,1.76,.43,3.46,2.09,4.59,.66,.45,.27,.98-.31,1.24-.85,.38-1.7,.79-2.59,1.02-1.66,.42-2.89,1.45-4.03,2.62-.33,.33-.64,.69-1.01,.96-1.16,.84-2.32,.8-3.01-.42-1.84-3.25-5.28-4.4-8.06-6.39-2.25-1.61-4.69-2.96-7.04-4.43-1.79-1.13-3.59-2.25-5.37-3.41-1.75-1.14-3.5-2.27-5.18-3.49-1.29-.94-1.74-2.32-1.19-3.82,1.37-3.77,2.83-7.51,4.24-11.27,1.42-3.81,2.73-7.66,4.25-11.42,.82-2.03,1.93-3.95,3.01-5.86,.58-1.02,1.55-1.26,2.72-.94,2.31,.63,4.37,1.56,6.13,3.33,1.66,1.67,3.69,2.98,5.56,4.45,.29,.23,.55,.51,.73,.93-1.72-.55-3.43-1.12-5.16-1.63-.45-.13-.99-.19-1.42-.05-1.15,.36-2.26,.83-3.38,1.26-2.54,.97-4.24,2.9-5.45,5.2-1.91,3.61-3.06,7.46-2.99,11.6,0,.46,.06,.94,.22,1.36,.29,.78,.87,.97,1.58,.5,.75-.49,1.49-1,2.19-1.54,2.12-1.63,4.31-3.18,6.29-4.96,2.04-1.84,4.34-1.91,6.8-1.56,1.67,.24,3.27,.94,5.05,.57,.75-.16,1.61,.22,2.42,.28,.74,.06,1.5,.01,2.65,.01Zm-20.25,18.62c1.76-.16,3.33-.29,4.91-.46,.33-.04,.65-.23,.98-.31,1.76-.44,3.52-.91,5.3-1.29,1.04-.22,2.12-.33,3.19-.38,2.15-.12,4.3-.19,6.45-.23,.51,0,2.04-.83,2.01-1.34-.06-.84-.74-.97-1.46-1.13-.52-.12-1.23-.5-1.39-.94-.83-2.2-1.48-4.46-2.24-6.68-.39-1.14-.17-1.64,.98-1.95,.69-.19,1.42-.37,2.01-.74,.37-.23,.53-.8,.79-1.22-.5-.2-1.03-.59-1.51-.54-.86,.09-1.7,.41-2.52,.7-3.52,1.22-7.06,2.39-10.54,3.71-2.78,1.06-5.93,1.3-8.22,3.49-.42,.4-.99,1.1-.89,1.5,.19,.76,.94,1.05,1.84,.49,.54,1.5,.96,2.96,1.58,4.32,.35,.77,.23,1.18-.37,1.7-.4,.34-.63,.89-.9,1.3Z"/></g><g id="j"><path class="am" d="M84.56,162.38c-1.47,.48-2.86,.99-4.29,1.38-1.14,.31-2.08-.19-2.46-1.2-1.3-3.42-2.77-6.78-3.79-10.28-.97-3.31-1.61-6.75-2.1-10.17-.4-2.86-.55-5.78-.47-8.67,.12-4.41,.62-8.8,1.67-13.11,1.17-4.82,2.82-9.48,5.13-13.84,1.61-3.04,3.57-5.92,5.57-8.73,1.62-2.28,3.41-4.45,5.33-6.48,1.61-1.7,3.48-3.15,5.29-4.64,3.16-2.61,6.56-4.93,10.32-6.56,4.07-1.77,8.28-3.24,12.46-4.76,1.54-.56,2.06-.09,2.93,2.17,.44,1.13,.21,1.92-1.02,2.43-1.85,.77-3.77,1.36-5.67,2.03-1.32,.47-2.69,.85-3.96,1.44-3.66,1.72-7.24,3.57-10.56,5.94-3.53,2.52-6.76,5.36-9.64,8.57-3.41,3.8-6.24,8.03-8.49,12.64-1.82,3.71-3.18,7.59-4.18,11.57-.57,2.25-.76,4.6-1,6.92-.18,1.81-.29,3.63-.23,5.45,.15,4.61,1,9.1,2.24,13.54,1.17,4.2,3.27,7.93,5.46,11.64,.5,.84,.91,1.74,1.44,2.74Z"/></g><g id="k"><path class="ao" d="M119.28,173.66c.75-.47,1.44-1.1,2.25-1.38,1.2-.41,2.48-.63,3.74-.84,3.36-.58,6.05-2.52,8.82-4.28,2.09-1.33,4.14-2.72,6.2-4.11,1.59-1.08,3.29-1.16,5.12-.83,.77,.14,1.64,.15,2.39-.06,2.86-.81,5.49,.02,8.18,.81,1.51,.44,3.1,.69,4.66,.79,1.16,.08,2.1-.51,2.72-1.65,.74-1.37,1.62-2.89,3.4-2.84,1.37,.04,2.76,.55,4.08,1.01,1.01,.35,1.96,.91,2.9,1.44,2.19,1.21,4.39,.43,6.6,.12,.75-.11,1.51-.1,2.46-.16-.44,1.73-1.37,2.88-2.46,3.82-3.66,3.18-7.87,3.76-12.43,2.35-1.22-.38-2.45-.74-3.7-.98-3.23-.62-5.81,1.07-8.34,2.63-2.5,1.54-4.72,3.54-7.26,5.01-1.77,1.03-3.84,1.58-5.82,2.21-3.76,1.2-7.64,1.63-11.49,.74-3.64-.84-7.19-2.07-10.77-3.13-.36-.11-.72-.22-1.08-.33l-.17-.33Z"/></g><g id="l"><path class="am" d="M143.19,213.88c.43,2.95-1.46,4.64-3.86,5.96-1.41,.78-2.63,.06-3.8-.72-1.23-.83-2.48-1.65-3.72-2.47-1.45-.96-2.09-2.3-2.21-4.05-.22-3.18-.6-6.34-.89-9.51-.25-2.75-.44-5.5-.73-8.25-.33-3.16-.79-6.31-1.1-9.47-.14-1.38-.13-2.79-.01-4.18,.05-.59,.47-1.14,1.39-.94,1.37,.3,2.77,.46,4.16,.58,1.57,.13,2.85,.95,3.28,2.44,1.89,6.5,3.81,12.99,5.57,19.52,.81,3.01,1.3,6.11,1.89,9.17,.11,.56,.02,1.17,.02,1.92Z"/></g><g id="m"><path class="an" d="M157.27,128.55c1.32-1.23,2.44-2.39,3.68-3.41,1.17-.96,2.38-1.9,3.7-2.64,1.88-1.05,3.12-.46,3.58,1.62,.45,2,.8,4.03,1.15,6.05,.37,2.15,1.42,3.55,3.71,3.96,1.62,.29,2.37,1.41,2.62,3.15,.52,3.67,.07,7.26-.77,10.84-.44,1.88-.67,3.8-1.01,5.7-.12,.65-.26,1.29-.46,1.92-.28,.87-.86,1.53-1.83,1.53-1.54,0-3.08-.09-4.63-.14,.42-1.77,.88-3.31,1.14-4.89,.3-1.83-.12-3.53-1.25-5.05-.99-1.33-2.27-1.78-3.9-1.46-.57-1.36-1.14-2.73-1.86-4.45,.88-.44,1.97-1.08,3.15-1.55,1.41-.56,2.9-.93,4.33-1.45,.34-.12,.59-.49,.95-.81-1.37-1.16-2.43,.21-3.63,.11-.02-.35-.13-.72-.04-1.02,.71-2.3-.34-4.17-1.36-6.08-.62-1.15-.37-1.86,.69-2.63,.24-.17,.34-.52,.5-.79l-.21-.28c-1.37,.26-2.75,.49-4.11,.78-1.3,.28-2.59,.63-4.13,1.01Z"/></g><g id="n"><path class="am" d="M86.27,166.71c-.31,1.59-.65,3.18-.94,4.78-.3,1.66-.53,3.34-.82,5-.21,1.23-.42,2.47-.72,3.69-.5,2.05-2.28,2.7-3.98,2.94-2.88,.4-5.1,2.09-7.56,3.32-1.19,.59-2.41,1.11-3.66,1.54-.97,.33-1.64-.37-1.24-1.29,.8-1.83,1.73-3.61,2.59-5.42,1.75-3.66,3.54-7.3,5.22-11,1.48-3.27,3.77-5.39,7.44-5.79,.49-.05,.98-.18,1.47-.23,1.75-.17,1.99,.05,2.07,1.86,0,.19,0,.39,0,.58l.12,.02Z"/></g><g id="o"><path class="am" d="M172.75,107.11c-1.4-1.21-2.78-2.46-4.23-3.6-.68-.54-1.49-.94-2.29-1.29-.93-.4-1.87-.07-2.4,.67-1.95,2.7-3.78,5.48-5.69,8.21-1.58,2.26-3.19,4.48-4.87,6.83-1.35-1.78-.91-3.53-.31-5.11,1.1-2.88,2.43-5.68,3.71-8.5,1.48-3.28,3.02-6.53,4.5-9.8,1.34-2.96,3.3-2.37,4.72-.37,2.37,3.34,4.46,6.88,6.58,10.39,.42,.7,.46,1.64,.67,2.47l-.38,.11Z"/></g><g id="p"><path class="ao" d="M115.03,137.5c-.77-1.53-.25-2.91,.19-4.18,.99-2.86,2.29-5.62,4.31-7.9,2.15-2.43,4.98-3.02,8.08-2.53,3.25,.51,6.09,1.95,8.29,4.35,.87,.95,1.3,2.43,1.6,3.74,.21,.93-.7,.96-1.38,.71-1.63-.61-3.32-1.12-4.85-1.93-5.27-2.82-8.27-.75-11.39,2.79-1.28,1.46-2.6,2.89-3.92,4.31-.24,.26-.6,.42-.94,.65Z"/></g><g id="q"><path class="am" d="M155.14,122.6l-.83-1.6c1.23-1.81,2.39-3.59,3.62-5.32,2.52-3.55,5.08-7.07,7.63-10.59,.37-.51,.8-.65,1.38-.2,2.04,1.57,3.48,3.63,4.69,5.84,.29,.52,.07,1.46-.18,2.1-.53,1.36-1.24,2.65-1.82,3.84-1.24-1.21-2.5-2.37-3.67-3.61-.44-.46-.78-.55-1.28-.23-1.55,.98-3.26,1.78-4.59,2.99-1.23,1.12-2.07,2.67-3.07,4.05-.6,.83-1.16,1.7-1.87,2.74Z"/></g><g id="r"><path class="an" d="M159.11,187.31c-.16,.92-.35,2.44-.72,3.9-.36,1.41-1.66,2.07-2.97,1.46-2.47-1.17-4.99-2.33-6.36-4.93-.35-.67-.72-1.35-.92-2.07-.41-1.51,.46-2.27,2.01-1.96,1.79,.35,3.6,.6,5.41,.87,.26,.04,.55,.02,.81-.04,2.15-.46,2.75,.01,2.74,2.77Z"/></g><g id="s"><path class="an" d="M166.86,175.32c-.48,.91-.78,1.63-1.21,2.26-1.49,2.17-3.75,3.26-6.17,3.87-3.38,.85-6.83,1.5-10.33,.61-1.78-.46-3.28-1.32-4.03-3.18,1.92-.75,3.8-.19,5.5,.29,4.41,1.23,8.24,.29,11.86-2.27,1.17-.83,2.4-1.56,4.38-1.56Z"/></g><g id="t"><path class="am" d="M180.04,183.6c-.73-.28-1.22-.41-1.64-.65-1.76-1-3.85-1.71-4.3-4.04-.28-1.42-.38-2.88-.48-4.33-.06-.77-.09-1.58,.1-2.31,.17-.67,2.66-1.53,3.21-1.2,.2,.12,.33,.41,.41,.65,.9,2.93,1.78,5.87,2.67,8.81,.21,.69,.46,1.37,.55,2.07,.04,.29-.31,.64-.5,.98Z"/></g><g id="u"><path class="ao" d="M167.88,119.65c-2.47-1.02-4.11-.02-5.66,1.87-1.38,1.68-3.14,3.06-4.75,4.55-.15,.14-.41,.17-.66,.27-.6-1.31-1.28-2.44-.08-3.85,2.15-2.52,3.86-5.43,6.86-7.14,1.52-.87,2.49-.65,3.26,.95,.48,.99,.83,2.05,1.23,3.08l-.2,.27Z"/></g><g id="v"><path class="al" d="M150.47,177.04c-.04-1.06,.46-1.67,1.28-2.08,1.84-.92,3.62-1.98,5.52-2.72,1.03-.4,2.28-.41,3.4-.29,.96,.1,1.48-.41,1.81-.99,.64-1.14,1.3-.47,1.88-.14,.84,.47,.78,1.27,.2,1.85-1.05,1.03-2.11,2.11-3.35,2.87-2.25,1.39-4.76,1.75-7.41,1.37-1.05-.15-2.16,.07-3.33,.12Z"/></g><g id="w"><path class="an" d="M167.92,172.04c2.8-.21,3.29,.25,3.35,2.78,.07,3.08,.15,6.15,.23,9.23,.03,.95,.08,1.89,.13,2.98-2.11-.45-2.88-1.97-3.89-3.21-.22-.26-.38-.57-.57-.86-.92-1.38-.65-2.64,.37-3.85,1.57-1.87,1.41-3.93,.66-6.05-.11-.31-.18-.64-.29-1.02Z"/></g><g id="x"><path class="an" d="M149.46,158.72c-1.9,.22-3.63,1.03-5.18-.35-1.61-1.44-2.45-3.31-1.85-5.38,.34-1.16,1.14-1.92,2.19-2.2,.57-.15,1.5,.13,1.93,.56,1.96,1.97,2.18,4.67,2.9,7.36Z"/></g><g id="y"><path class="al" d="M162.06,129.16c1.9,2.15,2.87,4.62,2.36,7.52-.08,.43-.72,.75-1.1,1.13-.24-.43-.69-.88-.67-1.29,.13-2.07-.4-3.92-1.48-5.66-.55-.88-.12-1.43,.9-1.69Z"/></g><g id="a`"><path class="ao" d="M158.85,130.56c2.88,2.07,2.59,4.97,2.09,7.51-.04,.18-.46,.47-.56,.42-.23-.12-.47-.38-.54-.64-.27-.91-.45-1.84-.71-2.76-.24-.87-.5-1.73-.8-2.57-.27-.76-.32-1.42,.52-1.96Z"/></g><g id="aa"><path class="an" d="M163.62,147.49c1.38-.14,2.92,.79,3.38,2.11,.39,1.13,.15,3.45-1.34,4.45-.69-2.21-1.36-4.38-2.04-6.56Z"/></g><g id="ab"><path d="M119.54,151.58c.27-.41,.5-.95,.9-1.3,.6-.52,.71-.93,.37-1.7-.62-1.37-1.04-2.82-1.58-4.32-.9,.56-1.65,.27-1.84-.49-.1-.41,.47-1.1,.89-1.5,2.29-2.19,5.43-2.43,8.22-3.49,3.48-1.32,7.02-2.5,10.54-3.71,.83-.29,1.66-.61,2.52-.7,.48-.05,1,.35,1.51,.54-.26,.42-.42,.99-.79,1.22-.59,.37-1.32,.55-2.01,.74-1.15,.31-1.37,.81-.98,1.95,.77,2.22,1.41,4.48,2.24,6.68,.16,.44,.87,.82,1.39,.94,.72,.16,1.4,.3,1.46,1.13,.03,.51-1.5,1.33-2.01,1.34-2.15,.04-4.3,.11-6.45,.23-1.07,.06-2.14,.17-3.19,.38-1.78,.37-3.53,.85-5.3,1.29-.33,.08-.64,.28-.98,.31-1.57,.17-3.15,.3-4.91,.46Zm6.6-3.53c.85-.17,1.7-.29,2.54-.51,.88-.23,1.77-.46,2.57-.86,.42-.21,.86-.76,.93-1.21,.29-2.06-.4-3.85-1.79-5.37-.19-.2-.54-.42-.77-.38-1.72,.27-3.43,.62-4.7,2.05,.86,.48,1.73,5.28,1.23,6.29Zm8.22-1.15l.27-.25c.57-.08,1.15-.09,1.69-.24,1.3-.37,1.88-1.36,1.5-2.69-.39-1.39-.92-2.74-1.38-4.1-.68-1.99-1.41-2.2-3.2-1.1-.85,.52-1.34,1.14-.91,2.06,.73,1.56,1.19,3.12,1.12,4.87-.02,.47,.6,.96,.93,1.45Zm-10.59,2.65c.3-.73,.73-1.28,.69-1.79-.1-1.36-.33-2.72-.68-4.04-.13-.47-.76-.81-1.16-1.21-.46,.52-1.35,1.09-1.29,1.54,.26,1.89,.56,3.86,2.44,5.5Z"/></g><g id="ac"><path class="ao" d="M126.14,148.06c.5-1.01-.38-5.81-1.23-6.29,1.27-1.43,2.98-1.78,4.7-2.05,.24-.04,.59,.18,.77,.38,1.39,1.52,2.09,3.31,1.79,5.37-.06,.45-.51,1-.93,1.21-.8,.4-1.7,.63-2.57,.86-.83,.22-1.69,.34-2.54,.51Z"/></g><g id="ad"><path class="al" d="M134.36,146.9c-.33-.48-.95-.98-.93-1.45,.07-1.75-.39-3.31-1.12-4.87-.43-.92,.07-1.54,.91-2.06,1.8-1.11,2.53-.9,3.2,1.1,.46,1.37,.99,2.72,1.38,4.1,.38,1.33-.2,2.32-1.5,2.69-.54,.15-1.13,.17-1.69,.24l-.27,.25Z"/></g><g id="ae"><path class="al" d="M123.77,149.55c-1.88-1.64-2.17-3.61-2.44-5.5-.06-.44,.83-1.02,1.29-1.54,.4,.4,1.03,.74,1.16,1.21,.35,1.31,.58,2.68,.68,4.04,.04,.51-.39,1.06-.69,1.79Z"/></g></g><g id="af"><g id="ag"><path d="M31.2,343.83c-8.11-.17-15.93-1.93-23.64-4.16-1.99-.57-3.9-1.79-5.54-3.11-2.27-1.82-2.27-4.59-1.71-7.13,1.04-4.74,2.39-9.42,3.56-14.13,1.9-7.63,3.78-15.27,5.63-22.91,2.34-9.65,4.89-19.24,8.69-28.44,.83-2.01,1.8-3.98,2.52-6.03,.92-2.61,1.69-5.29,2.48-7.95,.85-2.88,1.73-5.76,2.41-8.69,.25-1.06,0-2.25-.08-3.38-.09-1.07-.6-2.23-.33-3.18,.34-1.16,1.18-2.25,2.02-3.17,.78-.85,1.29-1.68,1.26-2.86-.12-5.33-.21-10.65-.31-15.98-.07-3.54-.11-7.07-.19-10.61-.03-1.51-.08-3.02-.2-4.53-.15-1.9,.26-3.68,.97-5.42,1.37-3.33,2.69-6.68,4.07-10.01,.66-1.58,1.5-3.1,2.1-4.7,.32-.85,.37-1.82,.4-2.74,.09-2.37,0-4.75,.2-7.11,.19-2.34,.55-4.66,1.01-6.96,.13-.68,.71-1.44,1.3-1.82,2.58-1.64,4.41-4,6.13-6.41,1.39-1.94,2.65-4.04,3.6-6.22,.86-1.99,1.26-4.19,1.81-6.31,.27-1.04,.37-2.12,.62-3.17,.25-1.04,1.82-2.04,3.04-2.19,2.95-.35,5.39,.68,7.51,2.65,1.07,1,2.22,1.94,3.13,3.07,.6,.75,.9,1.77,1.2,2.72,.38,1.16,.75,2.34,.92,3.54,.33,2.32-.64,4.36-1.84,6.21-1.36,2.09-2.98,4.01-4.47,6.02-1.06,1.43-2.14,2.85-3.11,4.34-.45,.69-.78,1.51-.99,2.32-.28,1.11,.83,2.18,2.6,2.14,1.93-.05,3.53,.63,5.13,1.52,1.26,.7,2.56,1.34,3.84,2.02,.81,.43,1.45,.93,1.27,2.05-.11,.68,.35,1.05,1.09,.93,1.92-.32,3.26,.55,4.06,2.2,.47,.98,.7,2.09,1,3.15,.47,1.65,.86,3.31,1.41,4.93,.07,.22,1.01,.45,1.22,.28,1.51-1.24,2.73-.15,4.12,.26,2.81,.84,3.31,3.46,4.49,5.53,.88,1.55,1.53,3.23,2.2,4.89,.18,.45,.17,1.07,.04,1.55-.77,2.91-1.51,5.83-2.43,8.69-.57,1.78-1.41,3.28-3.7,3.64-2.54,.4-4.99,1.33-7.49,2-1.53,.41-2.53,1.43-2.95,2.88-.6,2.06-.92,4.2-1.53,6.25-.75,2.51-1.7,4.96-2.55,7.43-.4,1.16-.83,2.32-1.15,3.51-.07,.27,.18,.74,.42,.96,.33,.3,.82,.42,1.2,.67,1.04,.7,1.73,1.37,1.68,2.94-.09,3.04-.99,5.85-1.7,8.72-.16,.66-.2,1.09,.21,1.8,.57,1.01,.59,2.34,.79,3.54,.56,3.23,1.29,6.45,1.61,9.71,.77,7.8,3.04,15.32,4.18,23.04,.47,3.16,.67,6.36,.99,9.54,.29,2.84,.69,5.67,.84,8.51,.08,1.63-.21,3.29-.38,4.92-.2,1.87-.33,3.75-.71,5.58-1.07,5.19-2.57,10.24-5.31,14.86-2.86,4.83-6.59,8.8-11.51,11.5-3.82,2.1-7.84,3.77-12.24,4.4-2.68,.38-5.3,1.15-7.97,1.51-2.29,.3-4.63,.27-6.94,.38Zm38.39-132.25l.43,.09c.15-.11,.33-.19,.44-.32,1.4-1.66,3.28-2.57,5.27-3.26,1.44-.5,2.97-.79,4.39-1.33,.67-.26,1.48-.78,1.75-1.39,1.32-3,2.52-6.06,3.67-9.14,.19-.51,.08-1.23-.12-1.76-.26-.69-.72-1.33-1.15-1.94-1.31-1.88-2.09-4.23-4.43-5.21-.5-.21-1.19-.33-1.67-.15-2.78,1.04-5.5,2.28-8.3,3.26-1.55,.54-3.22,.74-4.84,1.05-.86,.16-1.44-.4-1.44-1.15,0-.82,.49-1.48,1.5-1.39,2.83,.24,5.06-1.44,7.52-2.39,.29-.11,.64-.77,.56-1.07-.52-2.01-1.04-4.04-1.78-5.97-.71-1.84-1.33-2.46-3.4-1.4-.48,.25-.92,.58-1.41,.8-3.12,1.45-6.24,2.89-9.38,4.29-.73,.32-1.55,.66-2.31,.61-.63-.05-1.54-.54-1.73-1.05-.25-.67-.03-1.54,.95-1.95,1.27-.53,2.45-1.27,3.69-1.86,1.99-.94,4.03-1.79,5.99-2.79,.44-.23,.86-.91,.9-1.41,.04-.42-.39-1.04-.79-1.29-.72-.45-1.65-.57-2.37-1.03-2.32-1.5-4.69-1.55-6.95,.07-1.52,1.1-2.96,2.32-4.48,3.42-2.28,1.66-4.57,3.31-6.92,4.85-.7,.45-1.64,.56-2.49,.72-.21,.04-.72-.37-.7-.52,.12-.91-.02-1.9,1.12-2.43,3.09-1.44,5.93-3.28,8.42-5.62,.89-.84,1.75-1.74,2.49-2.72,.28-.37,.26-1.04,.21-1.56-.14-1.5-.53-3.03,.29-4.42,.96-1.62,2.07-3.15,3.1-4.73,1.25-1.91,2.39-3.89,3.75-5.72,1.86-2.51,3.42-5.09,2.82-8.38-.16-.87-.42-1.87-.99-2.49-1.82-1.98-4.15-3.32-6.54-4.52-1.41-.7-2.47-.23-2.56,1.02-.21,3.13-1.23,6.03-2.44,8.89-1.99,4.69-4.7,8.77-9.32,11.31-.59,.32-1.25,.94-1.41,1.55-.62,2.41-1.27,4.85-1.52,7.32-.33,3.23,.22,6.51-.52,9.75-.42,1.82-1.15,3.46-1.96,5.12-1.27,2.6-2.19,5.37-3.43,7.98-1.18,2.49-1.7,5.03-1.45,7.76,.06,.62,.15,1.23,.18,1.85,.12,3.24,.19,6.47,.34,9.71,.19,4.17,.47,8.34,.65,12.52,.13,2.91,.01,5.84,.28,8.73,.11,1.16,.66,2.63,1.52,3.28,1.71,1.3,3.76,2.15,5.69,3.15,2.13,1.1,4.48,1.15,6.78,1.14,2.11-.02,4.25-.24,6.32-.66,1.86-.38,3.76-.94,5.44-1.81,2.62-1.36,4.03-4,5.56-6.36,2.16-3.34,3.41-7.1,3.89-11.05,.28-2.28,.32-4.6,.27-6.9-.02-1.3-.58-2.59-.64-3.89-.14-3.01,.51-5.77,3.04-7.78,.63-.51,1.1-1.23,1.75-1.7,1.03-.73,2.12-1.4,3.26-1.91,.32-.14,1.18,.24,1.35,.6,.18,.37-.1,1.03-.32,1.5-.14,.31-.52,.51-.76,.73,.1,.21,.12,.28,.16,.34,.28,.38,.56,.76,.84,1.14-.45,.14-.89,.31-1.35,.4-.64,.12-1.56-.08-1.88,.29-1.06,1.18-2.32,2.44-2.73,3.89-.47,1.65-.11,3.54-.11,5.33Zm2,101.07c.28-.53,.6-1.05,.83-1.62,1.01-2.45,1.16-5.06,.96-7.61-.45-5.61-1.13-11.19-1.73-16.79-.33-3.09-1.81-5.42-4.75-6.52-3.45-1.29-6.94-2.48-10.47-3.55-4.42-1.34-8.98-1.88-13.61-2.03-5.4-.18-10.7,.55-15.95,1.67-2.39,.51-4.73,1.28-7.07,2.03-2.25,.72-3.76,2.19-4.28,4.59-.73,3.33-1.48,6.66-2.32,9.96-1.24,4.83-2.58,9.64-3.86,14.47-.35,1.33-.64,2.67-1.03,4.36,21.49-11.05,42.38-10.22,63.28,1.04Zm-39.37,26.11c.85,0,1.7,.04,2.55,0,6.18-.31,12.23-1.34,18.14-3.24,4.61-1.49,8.59-3.9,11.75-7.59,2.39-2.79,4.04-6.01,5.1-9.51,.71-2.35,.09-3.72-2.16-4.77-2.43-1.14-4.89-2.23-7.38-3.26-4.44-1.85-9.08-3.09-13.83-3.73-4.15-.56-8.33-.64-12.53-.36-5.53,.36-10.85,1.54-15.97,3.58-2.37,.94-4.62,2.16-6.94,3.22-1.97,.89-3.42,2.26-3.96,4.4-.85,3.35-1.68,6.71-2.38,10.09-.26,1.25-.43,2.64-.13,3.85,.46,1.87,2.18,2.77,3.87,3.28,2.63,.8,5.37,1.25,8.02,1.98,5.19,1.43,10.47,2.09,15.84,2.08Zm-14.95-61.69c18.13-7.4,35.73-6.48,53.24,1.72-.77-2.91-1.65-5.6-2.17-8.36-.79-4.21-2.27-8.28-1.88-12.73,.19-2.18-.59-4.45-.93-6.68-.3-2.03-.93-3.96-.29-6.13,.65-2.19,.76-4.55,1.05-6.84,.04-.34-.08-.84-.31-1.05-1.17-1.08-2.31-.99-3.58,0-1.12,.87-2.26,1.83-3.55,2.35-1.76,.71-3.65,1.19-5.53,1.49-2.78,.44-5.6,.67-8.41,.93-2.05,.18-3.98-.49-5.84-1.21-3.57-1.37-7.08-2.88-9.31-6.29-.15-.22-.88-.31-1.16-.15-.77,.46-.88,1.09-.71,2.09,.28,1.58,.52,3.1,1.33,4.53,.28,.49,.07,1.25,.08,1.89-1.01-.08-.73,.76-.88,1.27-.82,2.89-1.52,5.81-2.45,8.66-2.28,6.96-4.1,14.08-7.36,20.7-.56,1.13-.85,2.39-1.34,3.8Z"/></g><g id="ah"><path class="an" d="M69.59,211.58c0-1.79-.36-3.68,.11-5.33,.41-1.45,1.67-2.71,2.73-3.89,.33-.36,1.24-.17,1.88-.29,.46-.08,.9-.26,1.35-.4-.28-.38-.56-.76-.84-1.14-.04-.06-.07-.14-.16-.34,.24-.22,.62-.42,.76-.73,.21-.47,.5-1.13,.32-1.5-.17-.36-1.03-.74-1.35-.6-1.15,.51-2.23,1.18-3.26,1.91-.66,.46-1.12,1.19-1.75,1.7-2.52,2.02-3.18,4.77-3.04,7.78,.06,1.31,.61,2.59,.64,3.89,.04,2.3,0,4.62-.27,6.9-.48,3.95-1.73,7.71-3.89,11.05-1.53,2.37-2.94,5-5.56,6.36-1.68,.87-3.57,1.43-5.44,1.81-2.07,.42-4.21,.65-6.32,.66-2.3,.02-4.65-.04-6.78-1.14-1.93-1-3.99-1.85-5.69-3.15-.86-.65-1.42-2.13-1.52-3.28-.27-2.89-.15-5.82-.28-8.73-.18-4.17-.46-8.34-.65-12.52-.15-3.23-.22-6.47-.34-9.71-.02-.62-.12-1.23-.18-1.85-.26-2.72,.26-5.27,1.45-7.76,1.24-2.61,2.16-5.38,3.43-7.98,.81-1.66,1.54-3.3,1.96-5.12,.74-3.24,.2-6.52,.52-9.75,.25-2.47,.89-4.9,1.52-7.32,.16-.6,.82-1.22,1.41-1.55,4.62-2.54,7.33-6.61,9.32-11.31,1.21-2.85,2.23-5.75,2.44-8.89,.09-1.26,1.15-1.73,2.56-1.02,2.39,1.19,4.72,2.53,6.54,4.52,.57,.62,.83,1.62,.99,2.49,.6,3.29-.96,5.86-2.82,8.38-1.35,1.83-2.5,3.81-3.75,5.72-1.03,1.58-2.14,3.11-3.1,4.73-.81,1.38-.43,2.92-.29,4.42,.05,.52,.07,1.19-.21,1.56-.74,.98-1.59,1.88-2.49,2.72-2.49,2.34-5.33,4.19-8.42,5.62-1.15,.53-1,1.53-1.12,2.43-.02,.15,.5,.55,.7,.52,.85-.16,1.79-.27,2.49-.72,2.36-1.54,4.64-3.2,6.92-4.85,1.52-1.1,2.95-2.32,4.48-3.42,2.26-1.62,4.63-1.57,6.95-.07,.71,.46,1.64,.58,2.37,1.03,.4,.25,.83,.87,.79,1.29-.05,.5-.46,1.18-.9,1.41-1.96,1-4,1.85-5.99,2.79-1.25,.59-2.42,1.33-3.69,1.86-.98,.41-1.2,1.28-.95,1.95,.19,.52,1.1,1.01,1.73,1.05,.75,.06,1.58-.28,2.31-.61,3.14-1.4,6.26-2.85,9.38-4.29,.49-.23,.93-.56,1.41-.8,2.07-1.06,2.69-.44,3.4,1.4,.74,1.93,1.26,3.96,1.78,5.97,.08,.3-.26,.95-.56,1.07-2.45,.95-4.69,2.63-7.52,2.39-1-.08-1.5,.58-1.5,1.39,0,.75,.58,1.31,1.44,1.15,1.62-.3,3.29-.5,4.84-1.05,2.8-.98,5.52-2.22,8.3-3.26,.48-.18,1.17-.06,1.67,.15,2.34,.97,3.12,3.33,4.43,5.21,.43,.62,.89,1.25,1.15,1.94,.2,.54,.31,1.25,.12,1.76-1.15,3.07-2.35,6.14-3.67,9.14-.27,.61-1.07,1.13-1.75,1.39-1.43,.55-2.95,.83-4.39,1.33-1.99,.69-3.87,1.6-5.27,3.26-.11,.14-.29,.22-.44,.32l-.43-.09Z"/></g><g id="ai"><path class="am" d="M71.59,312.65c-20.89-11.26-41.79-12.08-63.28-1.04,.4-1.69,.68-3.04,1.03-4.36,1.28-4.82,2.62-9.63,3.86-14.47,.85-3.3,1.59-6.63,2.32-9.96,.53-2.4,2.04-3.86,4.28-4.59,2.33-.75,4.67-1.52,7.07-2.03,5.25-1.11,10.55-1.84,15.95-1.67,4.62,.15,9.18,.69,13.61,2.03,3.52,1.07,7.02,2.26,10.47,3.55,2.94,1.1,4.42,3.43,4.75,6.52,.59,5.59,1.28,11.18,1.73,16.79,.2,2.55,.05,5.16-.96,7.61-.23,.56-.56,1.09-.83,1.62Z"/></g><g id="aj"><path class="am" d="M32.22,338.76c-5.38,0-10.65-.65-15.84-2.08-2.66-.73-5.39-1.19-8.02-1.98-1.69-.51-3.41-1.4-3.87-3.28-.3-1.2-.13-2.6,.13-3.85,.7-3.38,1.54-6.74,2.38-10.09,.54-2.13,1.99-3.5,3.96-4.4,2.32-1.05,4.58-2.27,6.94-3.22,5.12-2.04,10.43-3.22,15.97-3.58,4.21-.28,8.39-.2,12.53,.36,4.75,.64,9.39,1.89,13.83,3.73,2.48,1.03,4.94,2.12,7.38,3.26,2.25,1.05,2.87,2.42,2.16,4.77-1.06,3.5-2.72,6.72-5.1,9.51-3.16,3.69-7.14,6.1-11.75,7.59-5.91,1.91-11.96,2.94-18.14,3.24-.85,.04-1.7,0-2.55,0Z"/></g><g id="ak"><path class="am" d="M17.27,277.07c.49-1.42,.78-2.68,1.34-3.8,3.26-6.62,5.08-13.74,7.36-20.7,.93-2.85,1.63-5.77,2.45-8.66,.15-.52-.14-1.35,.88-1.27-.01-.64,.19-1.4-.08-1.89-.81-1.43-1.05-2.95-1.33-4.53-.18-1-.07-1.63,.71-2.09,.28-.16,1.01-.08,1.16,.15,2.23,3.41,5.74,4.92,9.31,6.29,1.86,.71,3.79,1.39,5.84,1.21,2.81-.25,5.63-.49,8.41-.93,1.88-.3,3.77-.78,5.53-1.49,1.29-.52,2.43-1.47,3.55-2.35,1.27-.99,2.41-1.08,3.58,0,.24,.22,.36,.71,.31,1.05-.29,2.29-.4,4.64-1.05,6.84-.64,2.17-.02,4.1,.29,6.13,.34,2.23,1.12,4.5,.93,6.68-.39,4.45,1.09,8.52,1.88,12.73,.52,2.76,1.4,5.45,2.17,8.36-17.51-8.2-35.11-9.12-53.24-1.72Z"/></g></g></svg>