<?xml version="1.0" encoding="UTF-8"?><svg xmlns="http://www.w3.org/2000/svg" viewBox="0 0 498.7 359.14"><defs><style>.bj{fill:#fff;}.bk{fill:#6a0c11;}.bl{fill:#fccb98;}.bm{fill:#975724;}.bn{fill:#e4ac77;}.bo{fill:#231f20;}.bp{fill:#ec2024;}.bq{fill:#f6921e;}</style></defs><g id="a"><g id="b"><path class="bo" d="M490.25,217.9c-2.9-6.52-8.86-13.93-15.95-16.42-.29-.1-.55-.3-.84-.41-1.92-.71-3.79-1.65-5.78-2.08-6.32-1.39-12.68-2.63-19.04-3.85-10.39-1.99-20.79-3.91-31.18-5.89-2.5-.48-4.98-.96-7.57-.89-6.98,.2-13.96,.26-20.94,.41-2.36,.05-4.73,.12-7.08,.38-2.59,.29-5.18,.7-7.73,1.26-4.25,.92-8.54,1.76-12.69,3.05-4.63,1.45-9.1,3.39-13.66,5.05-.78,.28-1.25,.72-1.62,1.41-.85,1.6-1.76,3.16-2.59,4.76-.45,.88-1.09,1.37-2.03,1.74-4.79,1.84-8.4,5.03-10.58,9.72-.44,.95-.97,1.43-2.03,1.62-3.7,.69-7.19,2.06-10.52,3.76-6.84,3.5-12.81,8.17-17.83,13.99-4.82,5.59-8.62,11.76-10.31,19.04-.91,3.93-1.16,7.93,.02,11.83,2.26,7.53,8.39,11.37,16.17,11.91,4.6,.32,9.06-.52,13.4-2,7.49-2.56,13.98-6.77,19.76-12.13,.48-.45,1.01-.84,1.67-1.38,.35,1.2,.56,2.18,.92,3.1,.86,2.2,1.7,4.41,2.74,6.53,.47,.96,.65,1.81,.48,2.83-.6,3.49-.28,6.95,.54,10.36,.27,1.14,.63,2.26,1.02,3.63-.9-.09-1.64-.09-2.33-.25-3.2-.77-6.37-1.61-9.57-2.37-3.56-.85-7.2-1.44-10.7-2.51-4.82-1.48-9.53-3.29-14.28-4.96-1.94-.68-2.62-.33-3.64,1.4-.99,1.68,.03,7.94,1.86,9.09,3.33,2.1,6.86,3.53,10.89,3.09,.96-.11,1.6,.17,2.04,.93,.35,.61,.58,1.3,.88,1.98-1.35,.86-2.53,1.56-3.65,2.34-1.63,1.13-2,2.18-1.21,4.01,.69,1.59,1.47,3.18,2.45,4.61,1.19,1.74,1.92,3.42,1.14,5.55-.38,1.04-.15,2.19,.76,2.91,1.89,1.49,3.73,3.09,6.32,3.54-.09,.47-.15,.88-.25,1.29-.33,1.45-.81,2.89-.99,4.36-.23,1.86,.39,2.78,2.1,3.52,.97,.42,1.96,.8,2.97,1.11,2.99,.91,5.98,1.09,8.99,.05,1.38-.48,2.41-1.26,3.01-2.59,.61-1.34,1.22-2.69,1.87-4.12,.69,.16,1.41,.4,2.13,.46,1.42,.11,2.84,.17,4.26,.16,1.27,0,2.54-.14,4.06-.23-.75,1.6-.11,2.63,.64,3.65,.48,.65,.84,1.38,1.29,2.06,2.72,4.13,5.75,8,9.74,11,2.88,2.16,6.17,3.74,9.6,4.45,4.05,.84,8.27,.95,12.43,1.16,3.61,.18,7.24,.04,10.86,.03,1.42,0,2.85,.08,4.25-.1,7.15-.92,14.3-1.95,21.45-2.88,6.3-.82,6.31-.79,12-3.63,.45-.22,.88-.5,1.35-.65,2.88-.96,5.02-2.8,6.81-5.25,1.24-1.69,2.63-3.15,1.27-5.39,1.82-1.07,3.4-1.94,4.91-2.91,1.12-.71,1.84-1.81,1.69-3.14-.13-1.13,.18-1.77,1.21-2.16,.46-.18,.87-.48,1.31-.71,9.06-4.72,16.72-11.03,22.24-19.75,.77-1.21,1.57-2.4,2.37-3.59,2.09-3.12,3.91-6.38,5.14-9.94,.56-1.62,5.03-10.16,5.34-10.62,5.39-7.85,12.64-23.91-1.78-56.34Z"/></g><g id="c"><path class="bn" d="M452.22,318.89h0c.24,.65,.42,1.11,.59,1.57,.59,1.55,.55,1.91-.87,2.88-1.28,.87-2.64,1.61-4.07,2.2-4.32,1.78-8.83,2.82-13.54,2.89-1.11,.02-2.26-.08-3.32-.4-.78-.23-1.48-.84-2.12-1.39-.41-.35-.64-.89-1.01-1.43h0c-3.1,1.33-6.29,1.32-9.7,.91h0c.05-.55,.07-1.03,.15-1.48,.86-4.58,1.82-9.15,2.56-13.75,.86-5.36,.4-10.68-.96-15.92-.23-.89-.44-1.78-.71-2.86h0c2.58-.45,4.99-.87,7.75-1.35h0c-.65,1.38-1.15,2.44-1.64,3.5-.18,.4-.33,.81-.52,1.2-.27,.56-.69,1.27,.12,1.58,.77,.29,.91-.55,1.22-1.08,2.7-4.62,5.4-9.24,8.18-13.81,.57-.94,1.45-1.71,2.23-2.51,2.69-2.78,5.39-5.55,8.11-8.29,.82-.83,1.55-1.78,2.84-2.03,.32-.06,.55-.62,.94-1.11-6.88-2.7-5.25-19.29-5.05-22.77,.63-10.53,3.28-20.37,10.15-28.73,4.99-6.07,11.14-10.24,18.83-12.07,.97-.23,1.67-.1,2.57,.46,5.31,3.29,9.08,7.96,12.46,13.01,1.01,1.52,11.17,21.5,7.83,42.1h0c-.75,3.26-2.02,6.4-3.21,9.54-.83,2.21-1.66,4.49-2.94,6.44-1.85,2.83-2.49,6.06-3.66,9.11-2.14,5.56-5.61,10.24-9.31,14.8-6.12,7.53-13.83,13.04-22.16,17.8-.53,.31-1.06,.63-1.73,1.02Z"/></g><g id="d"><path class="bp" d="M445.51,268.16c-1.53,1.38-2.92,2.82-4.49,4.02-3.12,2.39-5.48,5.42-7.64,8.63-1.35,2.02-2.71,4.03-4.03,6.07-.66,1.02-1.47,1.57-2.74,1.63-2.22,.09-4.44,.33-6.84,.52-.62-2.49-1.22-4.95-1.85-7.48,2.18-.58,4.36-.98,6.41-1.75,2.03-.76,3.89-1.96,5.88-2.84,2.06-.91,4-1.92,5.49-3.68-.66-.89-1.29-.53-1.88-.18-3.79,2.22-7.93,3.58-12.09,4.88-1.35,.42-2.76,.62-4.25,.94-.45-1.32-.86-2.41-1.2-3.53-1.89-6.13-3.68-12.28-5.67-18.37-.86-2.65-2.03-5.22-3.2-7.76-.61-1.33-.6-2.37,.24-3.62,3.27-4.89,3.84-13.86-2.08-19.4-2.6-2.43-5.36-4.21-8.96-4.54-1.23-.11-2.15-.58-2.71-1.89-3.78-8.94-7.64-17.85-11.47-26.77-.27-.62-.47-1.28-.74-2.01,.38-.2,.68-.48,1-.51,7.5-.72,15.03-.52,22.55-.56,1.49,0,2.98-.12,4.47-.24,3.41-.26,6.71,.45,9.97,1.21,7.15,1.67,14.25,3.57,21.41,5.19,3.44,.78,6.96,1.32,10.47,1.69,6.28,.66,12.41,1.94,18.4,3.9,.29,.1,.56,.26,1.02,.48-.41,.31-.7,.6-1.04,.77-2.81,1.48-5.63,2.95-8.45,4.41-3.51,1.82-6.11,4.67-8.62,7.61-4.33,5.08-6.93,10.99-8.51,17.45-.99,4.05-2.03,8.08-2.45,12.24-.3,2.9-.69,5.81-.85,8.72-.3,5.38,.83,10.39,4.43,14.77Z"/></g><g id="e"><path class="bp" d="M400.33,276.3c-4.27-.3-7.13-3.26-10.54-5.12-.27,.22-.48,.34-.63,.53-.15,.19-.22,.43-.35,.68,.18,.22,.29,.45,.48,.6,3.04,2.44,6.42,4.33,10.07,5.62,1.64,.58,2.48,1.44,2.7,3.08,.08,.6,.25,1.19,.44,2.06-1.22,.06-2.32,.06-3.4,.18-3.83,.43-7.65,.9-11.48,1.35-1.11,.13-2.23,.2-3.34,.37-7.12,1.11-14.24,2.26-21.37,3.36-3.58,.55-9.4,.95-12.42,.33-.81-4.93-3.11-9.62-2.95-14.95l1.48-.4c-3.35-5.89-6.36-11.79-7.6-18.58,.49,.4,.97,.8,1.47,1.19,1.63,1.25,3.24,2.52,4.91,3.71,1.61,1.15,3.24,2.3,4.95,3.3,1.73,1.01,3.66,1.53,5.67,1.75,1.6,.18,1.78,.1,2.64-1.73-1.05-.2-2.07-.4-3.09-.57-3.24-.55-6.27-1.55-8.83-3.71-.33-.28-.75-.46-1.15-.62-2.45-.98-4.26-2.79-6-4.67-1.12-1.21-1.79-2.62-2-4.31-.79-6.44-1.24-12.9-.72-19.37,.58-7.28,1.73-14.47,4.72-21.21,1.21-2.72,2.7-5.33,4.25-7.88,.47-.77,1.48-1.37,2.37-1.71,5.11-1.95,10.27-3.8,15.41-5.68,.17-.06,.36-.03,.66-.05,.93,2.22,1.89,4.44,2.81,6.68,2.96,7.19,5.9,14.39,8.85,21.59,.16,.4,.28,.83,.45,1.23,.9,2.09,.78,3.79-.82,5.75-2.07,2.54-3.02,5.8-2.77,9.1,.22,2.99,1.33,5.81,3.09,8.32,1.89,2.7,4.45,4.48,7.51,5.6,1.35,.49,2.68,1.01,4.04,1.47,.94,.32,1.58,.92,2.05,1.79,3.51,6.49,6.09,13.36,8.41,20.34,.04,.11,0,.24,0,.58Z"/></g><g id="f"><path class="bn" d="M341.43,208.33c-.1,.51-.12,.81-.22,1.07-2.34,6.35-3.49,12.93-4.07,19.67-.41,4.8-.39,9.59-.15,14.37,.28,5.41,1.18,10.76,2.73,15.96,.32,1.06,.13,1.71-.64,2.44-6.85,6.53-14.63,11.37-24.02,13.28-3.69,.75-7.38,.81-11.1-.06-7.14-1.67-11.44-7.36-11.64-14.77-.16-5.93,1.82-11.28,4.8-16.26,6.44-10.76,15.59-18.31,27.4-22.56,1.8-.65,3.69-1.08,5.57-1.47,1.08-.22,1.73-.64,2.18-1.71,1.64-3.89,4.38-6.9,7.83-9.3,.34-.23,.74-.38,1.33-.67Z"/></g><g id="g"><path class="bn" d="M335.3,310.28c-1.15-.78-1.7-.19-2.15,.38-1.16,1.46-2.26,2.97-3.37,4.47-.36,.49-.67,1.02-1.02,1.57-2.23-.47-3.95-1.66-5.61-2.98-.6-.48-.62-1.1-.41-1.69,.97-2.7,2.09-5.32,4.17-7.43,1.26-1.27,2.42-2.65,3.79-4.16-1.12-.23-1.58,.34-2.04,.83-1.61,1.74-3.2,3.49-4.78,5.25-.29,.32-.49,.71-.85,1.23-1.65-2.54-2.42-4.93-2.45-7.52-.02-1.53,.66-2.75,2.19-3.39,1.59-.66,3.15-1.41,4.86-2.17-1.44-1.83-2.51,.4-4,.15-.37-.65-.89-1.48-1.31-2.35-1.02-2.12-1.76-2.5-4.07-2.28-2.87,.27-5.72,.39-8.36-1.19-1.21-.72-2.02-1.64-2.24-3.03-.3-1.9-.49-3.8,.33-5.77,.51,.1,.93,.14,1.32,.27,5.6,1.91,11.17,3.9,16.79,5.73,2.04,.67,4.22,.94,6.3,1.49,5.85,1.54,11.79,2.69,17.8,3.23,4.63,.42,9.33,.63,13.99-.11,.31-.05,.62-.07,.93-.12,.9-.14,1.42,.25,1.62,1.13,1.19,5.24,2.26,10.48,.87,15.87-.57,2.23-1.03,4.49-1.51,6.74-.29,1.37-1.08,2.26-2.22,3.07-4.46,3.18-9.52,3.39-14.68,3.14-1.86-.09-3.73-.24-5.56-.57-1.57-.29-3.17-.7-4.44-1.81-.2-.18-.56-.19-.67-.22-.89,2.02-1.73,3.93-2.64,6,1.88-.4,2.02-2.32,3.21-3.52,1.42,.51,2.92,1.05,4.39,1.59,.15,2.74-1.66,5.02-4.45,5.59-2.66,.54-5.31,.51-7.94-.26-3.27-.96-3.01-1.68-2.73-4.14,.43-3.73,1.96-7.04,4.38-9.93,.83-.99,1.64-1.99,2.56-3.11Z"/></g><g id="h"><path class="bp" d="M410.51,342.63c-3.29,.4-6.38,1.05-9.58,.82-2.6-.18-5.22-.21-7.83-.27-3.49-.07-6.98-.16-10.46-.12-3.13,.03-5.99-.75-8.63-2.43-3.57-2.27-7.31-4.34-10.12-7.59-2.03-2.35-3.95-4.8-5.89-7.23-.34-.43-.55-.98-.72-1.51-.35-1.06,.08-1.87,1.15-2.28,.12-.04,.24-.1,.36-.11,2.68-.17,4.76-1.71,6.86-3.12,.96-.64,1.82-.79,2.96-.55,6.83,1.43,13.51,3.39,20.22,5.24,6.11,1.68,12.32,3.03,18.48,4.52,1.62,.39,1.62,.38,1.82,2.03,.48,3.82,.97,7.64,1.44,11.46,.04,.3-.03,.61-.05,1.14Z"/></g><g id="i"><path class="bk" d="M415.83,327.62c-4.36-.87-8.57-1.72-12.78-2.55-1.01-.2-1.62-.59-1.8-1.75-.5-3.24-1.15-6.46-1.81-10.09,1.25,.48,2.19,.85,3.35,1.3-.1-3.94-1.31-7.43-2.66-11.15,1.34,.31,2.51,.58,3.85,.89-.36-6.47-1.8-12.58-2.88-18.96,1.07-.17,2.08-.39,3.09-.46,2.36-.17,4.72-.29,7.08-.39,1.41-.06,2.63,.46,3.36,1.66,1.07,1.75,2.19,3.5,2.93,5.39,2.32,5.94,3.15,12.08,2.58,18.48-.52,5.83-2.01,11.39-3.92,16.87-.08,.23-.22,.43-.39,.75Z"/></g><g id="j"><path class="bk" d="M399.78,285.73c.36,1.08,.86,2.09,1.04,3.16,.71,4.23,1.33,8.47,1.98,12.71,.03,.17-.02,.36-.06,.77-1.33-.3-2.6-.59-4.13-.94,.56,4,2.14,7.47,2.96,11.31-1.42-.12-2.41-1.57-4.07-.94,.09,.65,.13,1.37,.29,2.06,.47,2,1.02,3.98,1.46,5.98,.28,1.26,.41,2.55,.6,3.8-1.17,.59-2.17,.24-3.03-.14-3.5-1.56-7.27-2.15-10.91-3.19-1.42-.41-2.83-.85-4.35-1.31,.3-1.72,.48-3.25,.84-4.75,1.01-4.19,1.07-8.32,0-12.53-1.16-4.57-2.06-9.2-3.12-14,6.68-1.1,13.47-1.63,20.49-1.99Z"/></g><g id="k"><path class="bk" d="M408.82,236.57c-.28,4.25-1.15,8.35-4.52,11.28-4.42,3.83-10.58,6.12-16.87,2.49-1.88-1.08-3.89-2.03-5.57-3.37-6.48-5.19-5.85-13.09-1.63-18.05,1.48-1.74,3.48-2.8,5.59-3.61,5.5-2.11,10.97-2.18,16.24,.66,3.29,1.78,5.69,4.41,6.59,8.19,.07,.3,.15,.61,.16,.92,.03,.5,0,1,0,1.5Zm-6.63,2.02c-.03-3.96-2.42-7.26-6.18-8.45-2.66-.84-5.36-.91-8.11-.45-2.65,.44-3.24,1.2-2.54,3.76,.07,.24,.16,.47,.25,.71,.64,1.76,1.27,3.51,1.92,5.27,.84,2.28,1.67,4.56,2.57,6.82,.75,1.88,1.24,2.11,3.13,1.57,1.13-.33,2.28-.68,3.34-1.17,3.43-1.58,5.62-4.07,5.62-8.05Z"/></g><g id="l"><path class="bk" d="M392.63,254.13c.73-.15,1.26-.33,1.8-.36,3.88-.21,7.25-1.58,10.09-4.26,.13-.13,.29-.23,.44-.33,.04-.03,.12-.01,.39-.03,5.56,11.44,8.75,23.66,11.3,36.09l-.43,.24c-.31-.24-.62-.49-.94-.73-1.13-.86-2.36-1.29-3.81-1.25-2.18,.06-4.36,0-6.54-.03-.12,0-.23-.09-.57-.22-3-9.9-6.22-19.89-11.73-29.11Z"/></g><g id="m"><path class="bk" d="M381.53,225.1c-.32-.73-.69-1.31-.83-1.93-1.48-6.68-4.22-12.88-7.19-18.99-1.68-3.47-3.28-6.97-5-10.65,3.58-1.52,7.28-1.62,11-2.23,4.5,10.04,8.95,19.95,13.47,30.04-4,.94-7.93,1.41-11.45,3.77Z"/></g><g id="n"><path class="bk" d="M380.45,318.73c-4.58-.98-9.03-1.94-13.49-2.9,2.64-10.89,2.75-16.14,.49-25.58,1.25-.97,7.89-2.29,10.59-2.04,3.32,9.87,4.61,19.94,2.41,30.52Z"/></g><g id="o"><path class="bk" d="M416.29,330.11c.3-.83,.57-1.56,.84-2.28,2.47-.32,4.73,1.57,7.42,.3,.64,3.78,1.27,7.48,1.92,11.33-4.6,1.48-9.23,2.23-14.14,2.87-.59-4.58-1.17-9.04-1.79-13.82,2.07,.57,3.79,1.05,5.75,1.59Z"/></g><g id="p"><path class="bp" d="M426.74,328.09c1.22-.51,1.99-.14,2.6,.55,.82,.94,1.85,1.11,3.02,1.14,3.7,.09,7.31-.45,10.88-1.34,.42-.1,.84-.2,1.25-.3,.73,1.96,.23,3.6-1.74,4.87-1.51,.97-3.15,1.75-4.79,2.47-2.68,1.17-5.41,2.2-8.1,3.34-.79,.33-1.43,.28-1.59-.6-.64-3.34-1.4-6.66-1.52-10.13Z"/></g><g id="q"><path d="M402.19,238.59c0,3.98-2.19,6.47-5.62,8.05-1.07,.49-2.21,.84-3.34,1.17-1.89,.54-2.39,.31-3.13-1.57-.9-2.26-1.72-4.54-2.57-6.82-.65-1.75-1.28-3.51-1.92-5.27-.09-.23-.18-.47-.25-.71-.7-2.57-.12-3.32,2.54-3.76,2.76-.46,5.45-.4,8.11,.45,3.77,1.2,6.15,4.49,6.18,8.45Zm-15.85-6.9c.55,1.34,1.01,2.48,1.48,3.63,1.2,2.93,2.37,5.87,3.6,8.78,.71,1.68,1.5,2.01,3.24,1.43,.64-.21,1.26-.52,1.88-.79,4.43-1.94,5.46-7.2,2.2-10.78-1.88-2.07-4.31-2.64-6.88-2.77-1.76-.1-3.58-.3-5.53,.51Z"/></g><g id="r"><path class="bp" d="M386.34,231.7c1.94-.82,3.76-.61,5.53-.51,2.57,.14,5,.71,6.88,2.77,3.26,3.58,2.22,8.84-2.2,10.78-.62,.27-1.24,.58-1.88,.79-1.74,.57-2.53,.25-3.24-1.43-1.23-2.91-2.41-5.85-3.6-8.78-.47-1.14-.93-2.29-1.48-3.63Z"/></g></g><g id="s"><path class="bo" d="M452.99,192.55c-.63-3.33-1.26-6.66-1.85-10-.66-3.7-1.26-7.42-1.91-11.12-.39-2.2-.82-4.38-1.24-6.57-.28-1.43,.1-2.74,.73-4,1.88-3.78,2.98-7.81,3.69-11.95,.59-3.43,1.13-6.89,.92-10.39-.24-3.95-1-7.82-2.38-11.55-.69-1.86-1.2-3.78-1.9-5.63-1.6-4.24-3.85-8.13-6.68-11.67-1.37-1.71-2.78-3.41-4.37-4.91-4.91-4.65-10.48-8.27-17.05-10.15-2.93-.84-5.9-1.43-8.97-1.41-.25,0-.5-.13-.74-.19h-1.5c-.31,.07-.62,.19-.93,.19-4.23,.07-8.22,1.14-12.1,2.79-5,2.12-9.19,5.36-12.81,9.34-2.48,2.73-4.49,5.83-6.14,9.14-.12,.24-.24,.49-.44,.91-.88-.69-1.75-1.28-2.52-1.98-1.33-1.21-3.16-.79-3.57,.97-.31,1.34-.43,2.72-.59,4.09-.26,2.13-.5,4.27-.74,6.41-.13,1.19-.28,2.38-.39,3.58-.1,1.13,0,2.24,.69,3.19,.91,1.27,.1,2.49-.06,3.72-.31,2.46-.75,4.91-.99,7.38-.23,2.4-.29,4.82-.39,7.23-.02,.48,.17,.98,.14,1.46-.02,.41-.12,.86-.33,1.2-1.5,2.42-3.09,4.78-4.55,7.22-.45,.76-.81,1.7-.84,2.57-.07,2.14,.06,4.29,.13,6.44,.04,1.14,.14,2.29,.19,3.43,.07,1.58,.11,3.16,.2,4.74,.18,3.34,.37,6.67,.56,10,.11,1.88,.26,3.76,.37,5.64,.14,2.44,.22,4.89,.39,7.32,.12,1.74,.35,3.48,.54,5.22,.1,.92,.73,1.23,1.55,1.25,1.15,.03,2.31,.04,3.46-.01,.4-.02,.99-.12,1.15-.38,1.2-1.94,3.3-2.05,5.16-2.65,1.45-.46,2.88-.99,4.33-1.43,.27-.08,.73,.02,.91,.21,1.45,1.53,2.2,3.45,2.9,5.38,.36,.99,.59,2.03,.91,3.16,1.57-1.02,.62-2.47,1.03-3.59,1.23,1.05,2.45,2.12,3.7,3.15,.3,.24,.68,.41,1.06,.51,.78,.23,1.17-.16,.98-.95-.35-1.45-.72-2.9-1.06-4.36-.07-.28-.05-.58-.07-.87l.24-.11c.43,.53,.84,1.08,1.29,1.58,1.5,1.67,3,3.34,4.54,4.96,.22,.23,.95,.39,1,.31,.25-.4,.56-.95,.46-1.34-.54-2.07-1.19-4.1-1.8-6.15-.08-.28-.16-.57-.07-.89,1.25,1.86,2.45,3.75,3.75,5.57,.74,1.04,1.49,2.19,2.96,2.27,.58,.03,1.21-.08,1.75-.29,.21-.08,.4-.66,.32-.93-.39-1.28-.87-2.54-1.32-3.8-.09-.25-.16-.5-.06-.86,.63,.71,1.24,1.44,1.9,2.12,1,1.03,2,2.06,3.06,3.03,.26,.23,.8,.4,1.1,.29,.52-.19,.61-.66,.35-1.22-.85-1.8-1.66-3.62-2.49-5.43-.06-.12-.09-.26,0-.5,.18,.14,.36,.27,.53,.41,1.29,1.1,2.55,2.23,3.88,3.28,.28,.22,.79,.14,1.2,.2,.02-.33,.15-.71,.03-1-.61-1.5-1.28-2.98-1.92-4.47-.07-.16-.1-.33-.22-.75,1.35,1.25,2.56,2.28,3.66,3.42,.73,.76,1.39,.97,2.34,.42,.56-.33,1.25-.44,2.07-.71-.72-1.22-1.42-2.42-2.16-3.67,1.69-1.77,3.39-3.56,5.17-5.44,.13,.33,.24,.49,.25,.66,.08,1.36,.15,2.72,.19,4.08,.08,2.45,.1,4.91,.2,7.36,.05,1.28,.22,2.56,.35,4.01,1.25-.19,2.39-.35,3.53-.54,2.38-.4,4.76-.81,7.14-1.23,1.35-.24,2.7-.52,4.05-.72,.9-.13,1.29-.72,1.16-1.47-.33-1.93,.72-2.7,2.27-3.49,3.44-1.74,6.78-3.69,10.13-5.6,.51-.29,.87-.84,1.29-1.27v-.56c-.25-1.21-.53-2.41-.76-3.62Z"/><g id="t"><g id="u"><path class="bp" d="M377.92,115.81c1.47-2.24,2.81-4.55,4.41-6.65,1.37-1.79,2.91-3.49,4.6-4.97,1.84-1.6,3.87-3.01,5.94-4.3,2.76-1.72,5.79-2.9,8.98-3.56,2.12-.44,4.3-.63,6.46-.88,.74-.09,1.5,.03,2.24-.02,3.72-.27,7.28,.35,10.76,1.69,4.72,1.82,9.14,4.13,13,7.43,3.48,2.96,6.54,6.31,9,10.15,2.76,4.32,5.01,8.89,6.15,13.93,.62,2.74,1.36,5.48,1.61,8.26,.28,3.04,.23,6.14,.02,9.19-.19,2.61-.65,5.23-1.29,7.76-.64,2.5-1.48,4.98-2.56,7.32-.84,1.8-.7,3.44-.33,5.24,.67,3.23,1.21,6.49,1.81,9.73,.48,2.58,.97,5.16,1.43,7.75,.47,2.65,.92,5.3,1.38,7.95,.23,1.29,.47,2.57,.73,3.99-4.11,2.38-8.25,4.78-12.5,7.25-.33-1.26-.67-2.5-.96-3.74-.68-2.88-1.35-5.76-2.02-8.64-1.21-5.23-2.4-10.46-3.62-15.69-1.08-4.63-2.2-9.25-3.3-13.88-.41-1.72-.9-3.42-1.2-5.16-.1-.56,.23-1.22,.44-1.8,1.28-3.59,2.59-7.17,3.87-10.76,.86-2.41,1.7-4.82,2.53-7.17-.4-.58-.69-1.22-1.17-1.67-3.43-3.29-6.88-6.54-10.34-9.8-1.89-1.79-3.8-3.56-5.71-5.33-3.26-3.04-6.53-6.08-9.81-9.1-.66-.61-1.42-.55-2.08,.01-3.22,2.73-6.43,5.46-9.67,8.16-1.27,1.06-2.65,1.98-3.91,3.05-.73,.62-1.17,1.39-.91,2.5,.25,1.07,.2,2.21,.25,3.32,.13,2.53,.24,5.07,.38,7.6,.17,3.12,.37,6.23,.56,9.35,.12,2.07,.23,4.13,.38,6.2,.17,2.34,.39,4.67,.54,7.01,.06,.94,0,1.88,.02,2.83,.05,1.77,.1,3.53,.19,5.3,.1,2.16,.24,4.32,.37,6.48,.01,.25,0,.5,0,1.02-.79-.6-1.43-1.08-2.05-1.57-.46-.37-.86-.8-1.34-1.13-1.1-.76-1.54-1.9-1.65-3.12-.2-2.09-.12-4.22-.44-6.28-.28-1.82,0-3.62-.15-5.42-.2-2.42-.49-4.83-.72-7.25-.09-.98-.15-1.97-.2-2.96-.13-2.44-.21-4.88-.39-7.32-.2-2.86-.48-5.71-.74-8.56-.17-1.93-.4-3.85-.55-5.78-.08-1.13-.71-1.89-1.52-2.53-2.01-1.61-4.05-3.19-6.07-4.78-.21-.17-.44-.32-.85-.61Z"/></g><g id="v"><path class="bn" d="M388.03,155.31c0,2.03,0,4.05,0,6.06-2.7,1.12-3.4,3.72-1.39,5.91,1.8,1.97,3.87,3.7,5.83,5.53,.5,.46,1.03,.89,1.53,1.34,.78,.69,1.63,.85,2.42,.18,1.03-.87,1.94-1.89,2.9-2.84,.47-.46,.93-.95,1.46-1.35,1.9-1.44,3.16-3.23,3.15-5.7,0-1.95-1.25-3.85-2.79-4.29-.44-.13-.91-.12-1.54-.19-.05-.55-.11-1.1-.16-1.64-.24-2.35-.49-4.71-.73-7.06-.19-1.87-.37-3.73-.58-5.6-.21-1.86-.47-3.71-.69-5.57-.16-1.34-.27-2.69-.43-4.04-.23-1.92-.52-3.83-.7-5.75-.04-.43,.13-1,.41-1.31,2.09-2.29,8.66-8.39,9.67-9.54,1.69,1.77,6.74,6.96,7.82,8.06,2.06,2.11,4.12,4.24,6.18,6.36,1.38,1.43,2.78,2.85,4.1,4.33,.25,.28,.28,.9,.2,1.32-.96,4.79-2.09,9.54-2.89,14.35-.32,1.93,.05,3.97,.11,5.96,0,.12,.01,.25,.01,.37,.06,2.55,.11,5.09,.19,7.64,.1,3.1,.23,6.19,.38,9.29,.05,1.17,.17,2.34,.25,3.38-5.15,2.7-10.15,5.33-15.17,7.95-1.22,.64-2.46,1.25-3.7,1.84-.18,.09-.51,.04-.69-.08-.96-.6-2.04-1.11-2.78-1.92-.64-.7-1.01-1.73-1.29-2.68-.25-.87-.58-1.29-1.55-1.29-1.04,0-2.08-.16-3.1-.33-1.26-.22-2.35,.52-2.26,1.84,.07,1.13-.38,1.84-1.15,2.56-1.36,1.28-2.65,2.64-3.98,3.99-2.92-1.45-5.77-2.94-8.69-4.28-1.07-.49-1.76-1.09-1.87-2.27,0-.09-.04-.18-.09-.26-1.02-1.62-.47-3.34-.41-5.06,.1-2.62,.08-5.24-.02-7.86-.02-.53-.61-1.04-.93-1.56-.88-1.42-1.9-2.77-2.2-4.48-.48-2.71-1.03-5.4-1.46-8.11-.23-1.46-.29-2.94-.4-4.42-.09-1.14-.24-2.29-.17-3.43,.19-3.48,.4-6.96,.75-10.43,.34-3.35,.69-6.72,1.35-10.02,.48-2.37,1.47-4.63,2.31-7.17,1.31,1,2.39,1.78,3.43,2.62,2.15,1.74,4.25,3.54,6.41,5.27,.92,.74,.74,1.79,.87,2.71,.32,2.18,.56,4.38,.75,6.59,.1,1.25-.03,2.52,.04,3.77,.16,2.96,.57,4.56,.87,7.51m-2.37,21.74c-1.04-.35-1.52-.13-1.68,.77-.27,1.47-.56,2.94-.74,4.43-.07,.56,.12,1.15,.23,1.72,.06,.32,.27,.61,.3,.93,.18,1.5,1.96,2.95,3.75,2.74-.69-.6-1.25-1.06-1.77-1.57-.15-.14-.3-.52-.23-.61,.16-.19,.47-.39,.69-.36,.72,.09,1.43,.3,2.15,.43,2.52,.44,5.06,.6,7.62,.38,1.19-.1,2.4-.17,3.58-.38,5.99-1.03,11.11-3.84,15.58-7.88,.66-.59,1.22-.83,2.09-.34,.98,.56,2.06,1.05,3.53,.26-.53-.29-.85-.52-1.2-.64-1.78-.59-3.47-1.28-4.31-3.14-.39-.86-.88-.67-1.47-.19,.27,.48,.47,1,.82,1.4,.41,.47,.27,.76-.12,1.08-1.84,1.53-3.68,3.05-5.52,4.57-.11,.09-.27,.13-.4,.19-1.09,.48-2.17,.98-3.27,1.42-1.29,.52-2.58,1.09-3.92,1.47-.99,.28-2.06,.33-3.09,.44-1.38,.15-2.75,.36-4.13,.38-1.07,.02-2.14-.19-3.2-.35-2.07-.32-4.13-.67-6.27-1.02l1.01-6.15Zm17.44-33.47c.88-.37,1.64-.71,2.41-1.02,1.4-.56,2.89-.46,4.11,.19,1.23,.65,2.19,1.83,3.29,2.74,1.02,.85,2.15,1.41,3.53,.95,1-.33,1.31-.79,1.01-1.73-.64-1.97-1.43-3.89-1.97-5.89-.47-1.75-1.65-2.83-2.99-3.84-.91-.69-1.92-.69-2.98-.4-2.12,.58-3.65,1.89-4.84,3.71-1.01,1.55-1.71,3.15-1.58,5.28Zm3.88,4.01c-.17,.04-.49,0-.61,.14-1.2,1.38-2.29,2.82-1.99,4.82,.16,1.06-.63,1.69-1.27,2.2-.55,.45-.49,.63-.13,1.03,.53,.59,1.28,.56,1.77,.2,1.21-.9,2.61-1.26,3.98-1.75,2.39-.85,4.55-.58,6.57,.95,.79,.6,1.6,1.17,2.5,1.82,.02-.27,.07-.47,.03-.5-1.15-.71-1.34-1.85-1.53-3.06-.26-1.63-1.5-2.71-2.88-3-1.43-.31-3.07-.41-4.54,.35-1.08,.56-2.22,1.01-3.45,1.56,.1-.54,.16-1.05,.31-1.54,.12-.4,.39-.75,.54-1.14,.24-.64,.44-1.29,.71-2.09Zm-32.95-1.3c.35-.28,.72-.53,1.05-.83,2.27-2.01,4.66-2.62,7.48-1.25,1.36,.66,2.68,1.39,4.11,2.14,.04-.27,.09-.5,.09-.73,.08-2.37-.6-4.51-1.92-6.48-.69-1.03-1.5-1.94-2.64-2.44-1.71-.75-3.52,.25-4.66,1.92-1.57,2.29-3.1,4.67-3.51,7.67Zm12.21,10.72l.23-.1c-.76-1.15-1.43-2.38-2.3-3.44-.97-1.18-2.09-2.31-3.87-1.98-.59,.11-1.15,.4-1.85,.65l2.05-4.02c-.14,0-.4-.08-.49,.01-.7,.68-1.4,1.35-2.01,2.1-.29,.36-.52,.86-.56,1.31-.11,1.44-.62,2.72-1.46,3.86-.7,.94-.38,1.9-.39,3.06,.92-.74,1.66-1.35,2.42-1.94,.34-.26,.69-.67,1.06-.69,1.11-.08,2.26-.14,3.35,.05,1.3,.23,2.55,.74,3.82,1.13Zm24.86,15.52c1.4-.08,1.6-1.25,2.05-2.12,.63-1.21,1.43-2.14,2.86-2.27,1.09-.1,2.2-.12,3.46-.18-.41-.4-.79-1.11-1.28-1.19-1.4-.23-2.9-.48-4.09,.72-.39,.4-.83,.77-1.18,1.2-.92,1.12-1.62,2.35-1.81,3.83Z"/></g><g id="w"><path class="bk" d="M406.53,117.8c-3.41,3.18-6.78,6.29-10.1,9.44-.7,.66-.94,1.49-.76,2.56,.29,1.73,.28,3.5,.43,5.26,.23,2.67,.47,5.33,.74,8,.23,2.26,.49,4.52,.76,6.78,.3,2.56,.65,5.11,.91,7.68,.07,.66-.19,1.35-.15,2.02,.14,2.12,.36,4.23,.53,6.35,.1,1.23,.19,2.47,.17,3.71,0,.36-.31,.79-.59,1.06-.83,.77-1.73,1.48-2.75,2.33,0-.45,.01-.77,0-1.09-.12-2.82-.23-5.63-.38-8.45-.09-1.82-.28-3.63-.36-5.45-.1-2.15-.1-4.3-.2-6.44-.16-3.15-.36-6.29-.56-9.44-.12-1.94-.25-3.88-.37-5.83-.19-3.05-.37-6.11-.57-9.16-.05-.83-.07-1.67-.2-2.49-.13-.87,.31-1.39,.89-1.9,1.69-1.49,3.36-3.01,5.06-4.49,2.05-1.78,4.12-3.51,6.18-5.28,.68-.58,1.34-1.19,2.08-1.84,.33,.24,.7,.44,1,.72,1.65,1.56,3.28,3.14,4.91,4.71,2.08,2.01,4.15,4.04,6.23,6.04,2.71,2.6,5.43,5.2,8.16,7.78,1.94,1.83,3.89,3.65,5.85,5.46,.41,.38,.53,.72,.3,1.28-1.46,3.62-2.87,7.26-4.32,10.88-.65,1.61-1.35,3.21-2.02,4.81-.87,2.07-.48,4.13,.01,6.2,1.24,5.25,2.46,10.51,3.69,15.76,.98,4.16,1.97,8.31,2.94,12.46,1.45,6.2,2.9,12.41,4.34,18.62,.26,1.12,.02,1.51-1.19,1.75-3.77,.76-7.55,1.48-11.33,2.21-.15,.03-.31,0-.48-.02-.1-.99-.24-1.96-.28-2.94-.09-2.36-.12-4.72-.2-7.08-.11-3.13-.24-6.26-.37-9.38-.11-2.57-.26-5.13-.37-7.7-.14-3.16-.25-6.32-.38-9.48-.12-2.72-.25-5.44-.37-8.17-.12-2.66-.03-5.35-.44-7.97-.4-2.59,.57-4.9,.92-7.33,.47-3.2,1.17-6.37,1.76-9.55,.14-.72,.31-1.44,.39-2.16,.03-.3-.02-.74-.21-.93-6.56-6.59-13.14-13.16-19.31-19.33Z"/></g><g id="x"><path class="bq" d="M417.38,199.43l-2.87-4.67-.25-.02c-.01,.39-.12,.8-.02,1.16,.62,2.33,1.97,4.25,3.47,6.07,.44,.54,.85,1.11,1.27,1.65-.95,.89-2.23,.91-3.27-.14-1.79-1.81-3.48-3.73-5.19-5.62-.38-.42-.7-.9-1.05-1.35l-.34,.12c.15,.67,.21,1.38,.47,2,.88,2.11,1.84,4.19,2.76,6.29,.03,.08,0,.18,0,.36-1.59-.5-2.49-1.72-3.36-2.95-1.02-1.44-2-2.91-2.99-4.37l-.31,.09c.27,1.15,.46,2.32,.84,3.43,.8,2.33,1.71,4.62,2.45,7.1-.92-.9-1.92-1.74-2.73-2.73-.83-1.01-1.52-2.14-2.18-3.27-.65-1.13-1.19-2.32-1.83-3.58-.45,1.97,.02,3.99,2.42,10.57-1.09,.72-1.66,.58-2.63-.59-2.16-2.61-3.98-5.42-5.11-8.65-.12-.34-.38-.62-.6-.97-.53,.24-.67,.54-.52,1.15,.7,2.93,1.33,5.89,2.02,9.01-.37-.14-.59-.16-.71-.28-1.92-1.92-4.08-3.64-5.32-6.14-.3-.61-.37-1.33-.59-2-.15-.48-.37-.94-.69-1.37-.58,3.61,.24,6.96,1.62,10.32-2.94-.48-4.25-2.7-5.51-4.99l-.2,.1-.39,1.67-.3-.03v-7.02h-.36l-.43,2.11c-1.75-1.09-3.14-2.54-4.06-4.37-.6-1.19-.97-2.49-1.48-3.72-.24-.58-.54-1.14-.8-1.71-.46-1-.92-2.01-1.38-3.01l.22-.17c2.14,1.07,4.29,2.13,6.43,3.2,.63,.31,1.26,.63,1.89,.95,.96,.48,1.72,.36,2.49-.41,1.62-1.62,3.24-3.24,4.84-4.88,.14-.15,.13-.45,.17-.69,.07-.51,.13-1.02,.18-1.45h4.4c.14,.91,.13,1.76,.42,2.49,.23,.57,.74,1.13,1.27,1.47,1.44,.92,3,1.64,4.72,1.84,.35,.04,.76-.2,1.1-.38,1.56-.85,3.1-1.72,4.65-2.58,3.73-2.09,7.47-4.19,11.2-6.28,.4-.22,.82-.41,1.4-.69,.09,.43,.22,.82,.23,1.2,.08,2.42,.13,4.84,.2,7.26,.01,.46,.11,.91,.18,1.37,.23,1.57-.46,2.81-1.45,3.92-1.29,1.45-2.62,2.87-3.93,4.3l-.48-.14Z"/></g><g id="y"><path class="bp" d="M369.47,160.83c.29,1.28,.56,2.35,.77,3.44,.28,1.44,.35,2.94,.82,4.31,.38,1.13,1.17,2.13,1.84,3.15,.48,.73,1.2,1.32,1.57,2.09,.27,.55,.27,1.33,.14,1.95-.29,1.41-.45,2.78,.06,4.17,.08,.22,.05,.49,.07,.74,.28,4.64,1.16,9.16,3.01,13.44,.79,1.82,1.75,3.55,2.62,5.34,.19,.39,.31,.82,.47,1.28-2.91,1-5.68,1.94-8.54,2.93-.19-1.34-.38-2.64-.56-3.93-.37-2.67-.75-5.34-1.1-8.01-.22-1.64-.38-3.29-.59-4.94-.36-2.73-.77-5.46-1.09-8.2-.2-1.75-.25-3.51-.41-5.27-.05-.54-.28-1.06-.36-1.6-.33-2.18-.69-4.35-.9-6.54-.06-.6,.28-1.28,.58-1.86,.41-.78,.95-1.49,1.6-2.48Z"/></g><g id="a`"><path class="bk" d="M371.11,205.16c-1.37,0-2.49-.03-3.61,.01-.65,.02-.79-.32-.82-.85-.12-2.53-.24-5.07-.38-7.6-.18-3.3-.37-6.6-.56-9.9-.11-1.94-.25-3.88-.37-5.82-.19-3.11-.37-6.23-.57-9.34-.12-1.91-.23-3.82-.38-5.73-.09-1.17-.33-2.33-.36-3.49-.02-.69,.07-1.5,.41-2.07,1.35-2.24,2.83-4.41,4.23-6.56,1.05,2.98,.56,5.71-1.43,8.18-.38,.47-.66,1.02-.97,1.54-.68,1.14-.24,2.35-.13,3.51,.17,1.77,.45,3.52,.69,5.28,.29,2.12,.61,4.24,.89,6.37,.22,1.61,.4,3.23,.6,4.84,.23,1.76,.48,3.52,.71,5.28,.21,1.64,.39,3.29,.6,4.93,.22,1.7,.46,3.4,.67,5.1,.26,2.06,.49,4.13,.75,6.33Z"/></g><g id="aa"><path class="bk" d="M385.78,128.31l-10.75-7.24c-.39,.92-.73,1.65-1.02,2.41-.83,2.19-1.63,4.4-2.45,6.59-.08,.2-.26,.37-.39,.55-.12-.19-.35-.37-.35-.56-.04-1.53-.1-3.07-.03-4.6,.06-1.5,.25-3,.39-4.5,.18-1.83,.32-3.67,.61-5.49,.1-.61,.57-1.17,.97-1.96,1.93,1.56,3.69,2.98,5.45,4.4,1.93,1.56,3.84,3.15,5.79,4.69,.95,.76,1.4,1.75,1.55,2.9,.11,.85,.14,1.71,.23,2.81Z"/></g><g id="ab"><path class="bn" d="M400.58,168.77c-.19-1.25-.42-2.47-.55-3.7-.13-1.21-.17-2.44-.25-3.72,1.77,.59,3.18,2.03,3.25,3.05,.12,1.77-.91,3.7-2.45,4.37Z"/></g><g id="ac"><path class="bn" d="M388.08,163v4.26c-.86-.79-1.44-1.7-1.35-2.91,.05-.72,.51-1.14,1.35-1.34Z"/></g><g id="ad"><path d="M402.68,139.79c-.13-2.13,.57-3.73,1.58-5.28,1.19-1.82,2.72-3.13,4.84-3.71,1.06-.29,2.07-.29,2.98,.4,1.34,1.01,2.51,2.09,2.99,3.84,.54,1.99,1.33,3.92,1.97,5.89,.3,.93,0,1.4-1.01,1.73-1.38,.45-2.51-.11-3.53-.95-1.1-.91-2.06-2.09-3.29-2.74-1.22-.65-2.71-.75-4.11-.19-.77,.31-1.53,.65-2.41,1.02Zm7.09-7.47c-1.68-.13-2.88,.77-3.87,1.95-.63,.76-1.1,1.66-1.61,2.52-.09,.15-.12,.45-.03,.57,.09,.12,.39,.2,.55,.15,.54-.17,1.05-.51,1.6-.58,.91-.11,2.04-.39,2.72,.01,1.8,1.06,3.42,2.43,5.09,3.7,.37,.28,.75,.81,1.14,.33,.21-.26,.03-.89-.08-1.33-.1-.4-.42-.75-.52-1.15-.21-.8-.26-1.65-.52-2.43-.86-2.53-2.36-3.74-4.46-3.74Z"/></g><g id="ae"><path d="M373.61,142.49c.41-3,1.94-5.38,3.51-7.67,1.15-1.67,2.95-2.68,4.66-1.92,1.14,.5,1.95,1.41,2.64,2.44,1.32,1.96,2,4.1,1.92,6.48,0,.23-.06,.46-.09,.73-1.43-.75-2.75-1.48-4.11-2.14-2.81-1.37-5.21-.76-7.48,1.25-.33,.3-.7,.55-1.05,.83Zm11.45-1.51c-.42-2.01-1.35-4.01-2.48-5.11-.32-.31-.98-.58-1.37-.47-1.01,.29-1.99,.73-2.9,1.24-1.05,.59-2.04,1.9-2.15,2.64,3.25-1.13,6.06,.1,8.9,1.7Z"/></g><g id="af"><path class="bq" d="M409.76,132.32c2.11,0,3.6,1.21,4.46,3.74,.27,.78,.31,1.63,.52,2.43,.11,.4,.42,.75,.52,1.15,.11,.44,.29,1.07,.08,1.33-.39,.48-.77-.05-1.14-.33-1.67-1.27-3.29-2.64-5.09-3.7-.68-.4-1.81-.12-2.72-.01-.55,.06-1.06,.41-1.6,.58-.16,.05-.46-.03-.55-.15-.09-.12-.06-.42,.03-.57,.51-.86,.98-1.76,1.61-2.52,.99-1.18,2.19-2.09,3.87-1.95Z"/></g></g><g id="ag"><path class="bq" d="M385.05,140.98c-2.84-1.6-5.65-2.82-8.9-1.7,.11-.74,1.1-2.05,2.15-2.64,.92-.51,1.9-.95,2.9-1.24,.39-.11,1.05,.15,1.37,.47,1.13,1.1,2.06,3.1,2.48,5.11Z"/></g></g><g id="ah"><path class="bo" d="M270.19,163.22c.07-.05,.1-.14,.18-.25-.26-.15-.52-.29-.76-.45-2.52-1.63-4.07-3.89-3.77-6.95,.15-1.57,.75-3.12,1.34-4.61,1.63-4.17,3.16-8.4,5.67-12.16,.16-.24,.18-.56,.28-.84,.82-2.37,1.53-4.78,2.5-7.08,.96-2.25,2.37-4.25,4.63-5.44,.85-.45,1.82-.69,2.73-1.03h2.16c.29,.06,.57,.13,.86,.18,1.29,.23,2.67,.24,3.85,.73,2.95,1.22,5.85,2.57,8.69,4.02,2.56,1.31,5.06,2.69,7.96,3.11,1.21,.17,2.43,.39,3.59,.74,6.74,2.05,10.84,9.12,11.18,15.58,.15,2.71-.51,5.29-1.21,7.85-1.03,3.82-1.09,7.59,.08,11.41,.61,1.99,1.07,4.04,1.46,6.09,1.35,7.11,1.58,14.32,1.76,21.53,.11,4.7,.13,9.4,.04,14.1-.07,3.47-.29,6.94-.61,10.39-.35,3.87-.91,7.72-1.33,11.58-.1,.91-.45,1.6-1.21,2.08-.71,.45-1.43,.88-2.16,1.28-.5,.27-.69,.57-.44,1.15,1.06,2.53,1.6,5.18,1.86,7.91,.52,5.41,.01,10.6-1.58,15.55v.03c-1.16,5.52-4.55,11.52-9.21,14.82-.01,0-.03,.02-.04,.03-.44,.35-.89,.7-1.37,1.01-2.3,1.51-4.79,2.16-7.52,1.57-1.01-.22-1.99-.84-2.99-.85-2.68-.05-5.39-.06-8.05,.25-5.18,.61-9.41-1.16-12.98-4.74-.87-.87-1.6-1.95-2.19-3.04-.88-1.64-1.26-3.38-.73-5.28,.2-.71,.12-1.54,.03-2.3-.26-2.04-.69-4.06-.87-6.11-.35-3.93-.08-7.82,.93-11.65,1.09-4.1,1.98-8.28,5.2-11.49-.46-.3-.83-.62-1.26-.81-.91-.42-1.15-1.11-1.03-2.05,.42-3.26,.77-6.53,1.22-9.79,.75-5.42,1.69-10.8,3.5-15.99,2.42-6.94,5.79-13.44,9.13-19.95,1.31-2.55,2.86-4.98,4.25-7.49,.22-.39,.38-1.08,.19-1.38-1.66-2.53-4.36-2.49-6.11-.25-1.38,1.76-2.98,2.47-5.13,2.18-1.81-.24-3.46-.92-5.01-1.85-2.11-1.28-4.33-2.01-6.83-1.58-.2,.03-.42,.01-.63,.01-1.67,0-3.36-1.73-3.18-3.38,.27-2.44,.71-4.82,2.92-6.38Z"/><g id="ai"><path class="bn" d="M283.82,145.44c.34,2.59-.74,4.45-2,6.29-.54,.78-.79,1.76-1.24,2.83h6.18c-.39,.81-.94,1.22-1.68,1.29-.59,.05-1.22,.06-1.77-.1-.96-.27-1.87-.36-2.76,.22-.54-1.33-.46-2.58,.05-3.81,.37-.88,.77-1.75,1.23-2.59,1.06-1.96,1.43-4.04,1.23-6.23-.03-.33-.03-.66-.04-.99,0-.04,.05-.09,.22-.36,.59,.67,1.22,1.23,1.67,1.91,1.9,2.93,3.82,5.86,5.59,8.87,.92,1.57,1.44,3.34,1.16,5.24-.3,2-1.56,3.2-3.4,4.16v-2.73l-.29-.17c-.23,.3-.45,.61-.7,.89-1.61,1.88-3.82,2.83-6,3.81-1.82,.82-3.64,.49-5.4-.21-2.1-.82-3.49-.6-4.99,1.1-1.2,1.36-2.15,2.88-2.08,4.82,.06,1.53,.86,2.21,2.37,2.08,2.61-.22,5.05,.29,7.25,1.78,1.4,.95,2.88,1.69,4.62,1.77,1.55,.07,2.62-.6,3.55-1.85,1.19-1.6,2.89-2.49,4.94-2.45,1.12,.03,1.98,.68,2.56,1.61,.67,1.06,1.64,1.52,2.81,1.41,6.96-.7,13.94-1.29,20.48-4.11,.93-.4,1.07-1.08,1.05-1.95-.06-2.57-.19-5.15-.1-7.72,.13-3.61,.49-7.22,.67-10.83,.37-7.6-5.3-14.61-12.83-15.48-5.87-.68-11-3.09-16.01-5.93-1.93-1.1-4.04-1.52-6.19-1.62-1.93-.09-3.56,.8-4.5,2.48-.94,1.68-1.63,3.51-2.36,5.3-.4,.96-.65,1.98-.99,2.97-.49,1.42-1.18,2.7-2.17,3.88-3.15,3.77-5.15,8.1-6.04,12.94-.23,1.22-.63,2.47-.55,3.68,.18,2.51,1.67,3.9,4.15,4.32,1.79,.3,3.55,.79,5.35,.98,.96,.11,2.08,0,2.94-.4,2.03-.94,3.98-2.04,5.9-3.2,2.76-1.67,3.64-4.39,2.43-7.54-.45-1.16-1.1-2.25-1.79-3.29-.67-1.01-1.51-1.9-2.47-3.09Z"/></g><g id="aj"><path class="bn" d="M274.38,258.81c1.87-.25,1.88-.25,1.41,1.5-.5,1.81-1.04,3.61-1.53,5.43-.37,1.4-.08,2.7,.85,3.78,.62,.72,1.3,1.42,2.08,1.96,2.59,1.8,5.35,3.29,8.47,3.95,3.18,.67,5.83-.32,8.03-2.66,.61-.65,1.22-1.3,1.83-1.95l.37,.14c-.05,.45-.05,.91-.15,1.35-.09,.4-.34,.78-.39,1.18-.02,.2,.22,.58,.4,.62,1.27,.29,2.55,.53,3.84,.77,3.08,.58,7.42,2.04,9.96,.25,4.67-3.3,8.18-8.88,9.34-14.4,.99-4.69-1.41-10.61-1.34-15.37,.04-2.64-.26-5.19-1.12-7.67-.47-1.36-.73-1.52-2.1-1.14-6.71,1.88-13.46,1.57-20.15,.07-4.54-1.02-8.98-2.45-13.47-3.71-1.36-.38-1.62-.29-2.33,.92-2.2,3.74-3.81,7.71-4.63,11.98-.51,2.65-.12,5.31,.12,7.96,.12,1.28,.2,2.56,.32,3.84,.04,.41,.13,.81,.2,1.2Z"/></g><g id="ak"><path class="bk" d="M286,195.4c-2.57,6.58-4.39,13.31-6.25,20.28,2.59,.69,5.09,1.46,7.65,2.01,6.39,1.38,12.88,1.59,19.38,1.07,4.8-.39,9.4-1.68,13.87-3.44,.36-.14,.78-.74,.78-1.13,.05-5.27,.03-10.54,.03-15.81,0-.17-.06-.34-.12-.63-11.98,2.34-23.73,1.38-35.33-2.35Z"/></g><g id="al"><path class="bk" d="M318.59,171.48c-2.08,.83-4.05,1.66-6.06,2.4-4.25,1.56-8.63,2.38-13.18,2.12-2.18-.13-3.95,.62-5.08,2.55-2.72,4.61-5.35,9.26-7.3,14.27-.09,.22-.15,.45-.29,.9,1.67,.57,3.31,1.19,4.98,1.68,5.55,1.63,11.23,2.35,17.01,1.99,4.04-.25,8-.94,11.89-2.06,.77-.22,.94-.63,.84-1.39-.84-6.43-1.65-12.86-2.46-19.29-.13-1.03-.23-2.06-.36-3.15Z"/></g><g id="am"><path class="bk" d="M278.99,217.06c-.6,3.7-1.21,7.26-1.73,10.82-.19,1.29,.03,1.55,1.2,2.08,3.67,1.68,7.36,3.34,11.38,3.97,2.36,.37,4.75,.49,7.14,.65,2.39,.16,4.79,.39,7.17,.28,2.95-.13,5.88-.52,8.81-.9,1.86-.24,3.71-.63,5.56-.98,1.26-.24,1.79-.87,1.89-2.13,.29-3.88,.57-7.75,.86-11.63,.01-.18,0-.36,.03-.54,.1-.77-.19-1.03-.97-.85-2.27,.52-4.55,.98-6.82,1.51-3.53,.82-7.12,1.41-10.74,1.3-3.55-.11-7.09-.5-10.62-.92-4.38-.52-8.75-1.17-13.16-2.68Z"/></g></g><g id="an"><g id="ao"><path class="bo" d="M221.33,253.61c-.97-5.48-3.26-10.4-6.36-14.98-6.18-9.13-13.9-16.57-23.69-21.77-4.75-2.52-9.73-4.41-14.94-5.71-1.05-.26-2-.64-2.49-1.71-2.57-5.61-6.97-9.15-12.68-11.2-.87-.31-1.47-.84-1.91-1.65-1.1-2.02-2.24-4.02-3.35-6.04-.51-.93-1.24-1.58-2.25-1.94-4.28-1.5-8.55-3.03-12.83-4.54-2.34-.82-4.63-1.83-7.04-2.37-3.58-.79-7.25-1.22-10.87-1.84-2.65-.45-5.27-1.18-7.94-1.39-4.62-.36-9.26-.43-13.9-.61-1.88-.07-3.76-.11-5.65-.16h-2.88c-2.09,.05-4.18,.11-6.28,.16-3.92,.09-7.84,.12-11.76,.27-5.71,.22-11.42,.53-17.12,.8-3.91,.19-7.84,.27-11.74,.61-3.82,.33-7.57,1.12-11.09,2.75-6.61,3.06-11.59,7.98-15.57,13.97-3.42,5.14-5.53,10.79-5.91,16.99-.27,4.46-.85,8.88-2.06,13.18-.91,3.21-1.91,6.41-3.08,9.54-1.8,4.8-1.8,9.77-1.83,14.77-.02,3.53-.1,7.06-.42,10.57-.28,2.96-1.39,5.73-3.52,7.89-1.16,1.18-1.64,2.52-1.82,4.06-.1,.83-.22,1.66-.28,2.5-.26,3.69-.03,7.3,1.97,10.57,1.87,3.05,2.92,6.38,3.59,9.88,.34,1.76,.85,3.61,1.78,5.11,1.43,2.29,3.16,4.43,4.99,6.43,6.87,7.47,15.28,12.63,24.77,16.03,4.21,1.51,8.57,2.57,12.87,3.81,1.23,.35,1.25,.31,1,1.63-.25,1.29-.56,2.57-.74,3.87-.34,2.47-1.7,4.15-3.87,5.26-.4,.2-.81,.38-1.19,.61-.94,.58-1.9,1.13-2.78,1.79-.77,.58-.96,1.45-.69,2.35,.24,.83,.56,1.64,.91,2.43,.75,1.66,1.65,3.26,2.28,4.96,.51,1.4,1.25,2.45,2.58,3.16,1.71,.92,3.22,2.04,4.43,3.68,1.61,2.19,4.88,2.39,6.87,.57,1.54-1.41,3.22-1.7,5.22-1.28,1.74,.37,3.55,.62,5.32,.59,2.58-.03,3.88-1.53,3.93-4.07,0-.17,.04-.34,.06-.56,1.33,0,2.62,.06,3.9-.01,1.64-.09,3.26-.61,3.73-2.29,.48-1.71,1.45-2.53,3.05-2.87,.09-.02,.17-.06,.25-.1,1.47-.73,2.04-1.79,1.62-3.38-.34-1.29-.8-2.56-1.31-3.79-.48-1.16-.54-2.25,.15-3.34,.19-.3,.35-.63,.53-.94,.82-1.42,.7-2.79-.2-4.13-.97-1.44-1.94-2.88-2.89-4.33-.26-.41-.44-.87-.66-1.34,.16-.04,.23-.07,.27-.06,1.8,.63,3.61,1.25,5.41,1.89,9.07,3.23,18.14,6.43,27.82,7.33,5.29,.49,10.51,.22,15.64-1.27,7.54-2.18,13.29-7.04,18.65-12.48,1.46-1.48,2.28-3.35,3.12-5.2,1.49-3.29,3.2-6.5,4.38-9.9,1.93-5.59,2.72-11.43,3.15-17.33,.45-6.11-.06-12.02-3.33-17.41-.4-.66-.37-1.28,.04-1.93,1.62-2.55,3.24-5.1,4.83-7.67,.3-.49,.58-.54,.98-.17,.18,.16,.37,.31,.54,.47,7.07,6.26,14.95,11.13,24.02,13.96,6.47,2.02,13.03,2.8,19.73,1.33,6.02-1.32,10.61-4.55,13.27-10.22,2.09-4.44,2.05-9.1,1.22-13.8Zm-169.15,34.33c-2.6-2.15-5.1-4.44-7.76-6.52-1.17-.91-2.62-1.48-3.96-2.16-.38-.19-.6-.34-.59-.83,.03-2.04-.06-4.08,.06-6.11,.04-.67,.42-1.48,.91-1.95,3.28-3.09,5.39-4.55,6.8-8.78,.2-.6,6.16,14.29,17.89,21.08,.07,.06,.12,.14,.2,.18,2.19,1.22,2.69,3.14,2.59,5.53-.12,2.86,.01,5.74,.2,8.6,.17,2.55,.56,5.08,.83,7.63,.06,.58,0,1.17,0,1.75l-.17,.07c-.96-1.32-1.9-2.64-2.87-3.95-4.05-5.5-8.89-10.23-14.15-14.57Z"/></g><g id="ap"><path class="bp" d="M51.11,248.97c.8,.65,1.55,1.28,2.33,1.88,1.73,1.32,3.29,1.24,4.93-.21,3.41-2.99,5.11-6.88,5.76-11.26,1.02-6.84,1.16-13.69,.42-20.58-.55-5.1-1.33-10.12-3.1-14.96-1.44-3.93-3.9-7.24-6.28-10.62-2.01-2.86-4.62-4.97-7.51-6.84-2.05-1.33-4.03-2.75-6.05-4.14l.02-.26c1.36-.21,2.72-.43,4.08-.64,1.12-.17,2.24-.41,3.37-.46,.6-.02,1.38,.11,1.81,.49,5.49,4.86,11.14,9.56,16.31,14.75,4.93,4.95,9.41,10.37,13.96,15.69,4,4.69,7.83,9.53,11.72,14.31,.72,.88,1.32,1.85,2.06,2.72,.75,.88,.87,1.8,.44,2.83-.76,1.81-1.18,3.71-1.17,5.67,0,6.46,3.36,10.83,8.79,13.85,2.54,1.41,5.32,1.71,8.16,1.66,.45,0,.9,.02,1.35,0,1.5-.1,2.7,.46,3.8,1.47,5.03,4.56,8.98,10,12.97,15.43,8.84,12.03,16.41,24.83,23.4,37.99,.46,.86,.54,1.65,.12,2.55-1.31,2.85-2.49,5.75-3.88,8.56-.6,1.21-1.4,2.42-2.39,3.31-4.31,3.84-9.06,7.07-14.39,9.31-4.61,1.94-9.49,2.36-14.44,1.96-8.75-.71-16.85-3.74-24.91-6.98-4.84-1.95-9.46-4.28-13.87-7.06-1.5-.94-2.55-2.22-3.32-3.79-2.02-4.09-3.08-8.48-3.69-12.95-.5-3.73-.74-7.49-1.01-11.25-.13-1.87-.06-3.76-.12-5.64-.04-1.06-.52-1.94-1.35-2.63-2.07-1.72-4.17-3.41-6.2-5.18-6.1-5.35-10.5-11.82-12.63-19.72-.79-2.93-.66-5.86,.26-8.75,.05-.17,.14-.32,.24-.54Zm61.16,9.98c-2.06-.8-3.86-.3-5.67,.42-1.33,.53-2.65,1.13-4.02,1.48-6.22,1.6-12.47,1.97-18.82,.66-4.03-.83-7.58-2.64-11.03-4.76-2.14-1.31-4.32-2.55-6.5-3.79-.19-.11-.51,.03-.77,.05,.06,.23,.04,.53,.18,.68,.93,.97,1.83,1.98,2.85,2.84,3.13,2.63,6.41,5.09,10.39,6.24,2.59,.75,5.3,1.15,7.99,1.49,4.17,.53,8.37,.56,12.49-.42,3.3-.78,6.56-1.75,9.83-2.67,1.23-.35,2.26-1.04,3.08-2.22Z"/></g><g id="aq"><path class="bl" d="M57.65,211.24c-.1,1.3-.13,2.61-.33,3.9-.85,5.69-2.75,10.92-7.15,14.87-2.35,2.12-4.79,4.15-7.57,5.72-1.48,.84-2.85,1.87-4.25,2.83-.28,.19-.51,.45-.9,.8,5.06-1.44,9.6-3.39,12.91-7.43,.39-.47,.66-.36,.8,.16,.13,.49,.21,1,.23,1.5,.51,13-3.91,24.43-11.11,34.98-.12,.17-.25,.33-.38,.5-.42,.55-.82,.67-1.22-.03-.27-.47-.62-.74-1.12-.37,.22,1.68,.57,3.32,.62,4.97,.08,2.33,0,4.67-.13,6.99-.04,.77-.35,1.59-.74,2.28-3.21,5.63-6.81,10.99-11.45,15.56-2.27,2.23-4.98,3.82-7.82,5.18-1.43,.69-3.02,.72-4.58,.53-1.74-.21-2.89-1.27-3.78-2.73-1.86-3.04-2.76-6.39-3.39-9.85-.11-.61-.21-1.23-.32-1.94h2.07l.11-.25c-.39-.25-.77-.67-1.19-.71-2.02-.23-2.81-1.7-3.31-3.32-1.07-3.49-1.94-7.04-1.68-10.75,.06-.81,.08-1.62,.22-2.41,.08-.44,.26-.97,.58-1.25,2.82-2.52,4.11-5.79,4.38-9.44,.23-3.1,.33-6.22,.2-9.32-.29-6.65,.9-12.94,3.77-18.96,1.75-3.66,3.24-7.45,4.06-11.45,.58-2.81,.62-5.63,.2-8.47-.13-.88,.11-1.84,.29-2.74,1.36-6.67,4.34-12.49,9.06-17.41,2.42-2.53,5.29-4.48,8.28-6.25,1.44-.85,2.92-1.62,4.37-2.46,1.18-.68,2.31-.54,3.51-.04,6.75,2.8,11.94,7.41,15.87,13.52,3.7,5.76,5.73,12.1,6.54,18.88,1.13,9.42-.27,18.54-3.13,27.49-.46,1.44-1.15,2.82-1.82,4.19-.94,1.9-3,2.41-4.78,1.26-1.59-1.03-2.28-2.8-1.86-4.66,.49-2.12,.99-4.25,1.41-6.39,.33-1.71,.16-3.44-.19-5.12-.48-2.29-.02-4.34,1.38-6.18,3.42-4.46,4.46-9.56,4.06-15.05-.03-.4-.2-.79-.3-1.18l-.42,.05Z"/></g><g id="ar"><path class="bp" d="M143.14,249.81c.33,1.91,.62,2.15,2.42,2.16,4.29,.03,8.1-1.33,11.5-3.9,1.79-1.35,3.58-2.7,5.37-4.05,.11-.08,.24-.15,.62-.38-.27,2-.39,3.78-.78,5.5-.65,2.91-1.33,5.82-2.25,8.65-1.26,3.84-3.4,7.23-5.83,10.44-.62,.82-1.24,1.65-1.05,2.76,.1,.58,.19,1.12,1.07,1.11,.95-.01,1.11,.9,1.23,1.61,.34,1.94,.66,3.89,.87,5.85,.13,1.15,.04,2.32,.04,3.47,0,.13-.08,.27-.19,.57-.41-.65-.75-1.16-1.07-1.68-5.62-9.11-11.08-18.33-17.37-27-2.76-3.8-5.73-7.45-8.66-11.11-.97-1.22-1.37-2.4-.98-3.96,.41-1.63,1.05-3.23,.85-5-.32-2.92-1.66-5.4-3.25-7.77-3.28-4.9-8.05-6.8-13.75-6.76-.77,0-1.55,.15-2.3,.32-.97,.22-1.6-.08-2.19-.9-1.12-1.55-2.31-3.06-3.53-4.53-3.7-4.45-7.71-8.61-11.97-12.51-4.43-4.06-8.21-8.7-12.19-13.17-2.53-2.84-5-5.73-7.49-8.6-.19-.22-.36-.46-.74-.95,1.58-.21,2.94-.51,4.31-.55,7.12-.19,14.24-.41,21.36-.42,9.53-.01,18.98,.81,28.28,3.11,4.17,1.03,8.45,1.67,12.58,2.83,4.77,1.35,9.39,3.15,13.64,5.79,1.2,.74,2.15,1.63,2.82,2.91,1.64,3.18,3.58,6.23,5.01,9.5,1.95,4.48,2.91,9.28,3.65,14.1,.8,5.27,1.28,10.57,1.08,15.91-.08,2.03-.2,4.06-.44,6.08-.18,1.56-1.26,2.68-2.28,3.78-4.27,4.64-9.55,6.95-15.88,6.78-.83-.02-1.67,0-2.51,0Zm-11.94-29.93l-.19,.21c1.56,3.86,1.65,7.91,1.62,11.98-.01,2.33,.09,4.66,.17,6.99,.01,.33,.2,.66,.3,.99l.24-.03c.13-.39,.33-.77,.37-1.17,.19-1.75,.37-3.5,.47-5.26,.13-2.38,.28-4.77,.22-7.15-.06-2.26-.89-4.31-2.44-6.01-.21-.23-.51-.38-.76-.56Z"/></g><g id="as"><path class="bl" d="M161.42,200.12c2.58,.97,4.56,2.64,6.29,4.53,1.44,1.58,2.59,3.43,3.91,5.11,.48,.61,1.11,1.11,1.67,1.65,.13,.12,.35,.17,.42,.32,.91,1.72,2.55,2.11,4.27,2.38,4.25,.68,8.08,2.51,11.83,4.49,10.29,5.45,18.53,13.06,24.37,23.19,2.32,4.02,3.91,8.32,4.49,12.94,.73,5.76-.43,11.01-4.51,15.36-2.61,2.78-5.93,4.28-9.61,5.02-7.15,1.43-14.01,.16-20.71-2.39-7.85-2.99-14.71-7.54-20.74-13.35-.28-.27-.5-.88-.4-1.23,1.41-5.04,2.48-10.14,3.12-15.33,.78-6.33,.99-12.68,.47-19.06-.64-7.96-2.27-15.69-4.85-23.24-.03-.08-.02-.17-.05-.41Z"/></g><g id="at"><path class="bl" d="M47.54,345.1c-.42,.96-.2,1.34,.76,1.39,1.25,.06,2.49,.09,3.74,.16,.66,.04,1.33,.07,1.97,.21,.42,.09,.82,.32,1.2,.54,.32,.19,.61,.45,1.01,.76-.02-1.32-.36-2.39-1.12-3.27-2.24-2.61-3.01-5.75-3.03-9.05-.02-2.52,.34-5.05,.54-7.64,2.52,.33,4.88,.66,7.24,.95,1.33,.16,2.69,.46,4,.32,2.95-.31,4.91-2.3,6.69-4.45,1.33-1.6,2.57-3.28,3.9-4.98,1.05,1.64,2.1,3.3,3.16,4.95,1.75,2.75,3.48,5.51,5.28,8.23,.85,1.28,.91,2.44-.01,3.71-1.35,1.86-1.75,3.94-1.21,6.18l.24,.06,.78-3.67c1.23,.86,2.55,4.01,2.12,5.29-.19,.57-.69,1.13-1.2,1.46-.71,.46-1.56,.71-2.45,1.09l-1.46-2.85-.29,.08c.07,.93-.11,1.92,.47,2.75,.6,.86,.62,1.68,.08,2.5-.78,1.19-1.71,2.14-3.33,1.99-.92-.08-1.86-.05-2.78,0-.69,.03-.99-.28-1.24-.89-.51-1.27-1.12-2.5-1.7-3.73-.08-.17-.3-.27-.45-.4l-.31,.16c.24,.93,.49,1.87,.71,2.81,.2,.86,.49,1.74,.5,2.61,.02,2.5-2.02,3.96-4.45,3.37-1.38-.34-2.79-.7-4.19-.76-1.85-.07-3.58,.55-5.14,1.59-.35,.23-.7,.46-1.07,.66-1.26,.66-2.42,.6-3.37-.44-1.72-1.87-3.69-3.4-5.76-4.83-.45-.31-.8-.81-1.08-1.29-.74-1.26-1.43-2.55-2.13-3.83-.27-.5-.55-1-.75-1.52-.8-2.18-.11-4.01,2.01-4.99,1.59-.74,3.26-1.29,4.94-1.94,.59,1.52,1.16,2.92,1.68,4.35,.28,.79-.07,1.4-.74,1.83-1.15,.75-2.4,.83-3.76,.55Z"/></g><g id="au"><path class="bk" d="M126.91,243.61c.39,.48,.77,.98,1.18,1.45,8.78,10.24,16.23,21.38,22.35,33.4,1.87,3.67,3.62,7.41,5.48,11.08,.77,1.52,1.09,3.08,.98,4.76-.25,4.17-1.32,8.17-2.56,12.35-.38-.54-.73-.93-.96-1.38-5.45-10.82-12.13-20.88-19.12-30.74-3.15-4.44-6.25-8.93-9.7-13.13-2.41-2.94-5.38-5.43-8.09-8.13-.17-.16-.38-.49-.32-.63,.1-.23,.38-.41,.63-.53,1.76-.93,3.62-1.71,5.27-2.81,2.02-1.34,3.43-3.31,4.86-5.69Z"/></g><g id="av"><path class="bk" d="M14.48,305.69c.99-.24,1.79-.45,2.61-.62,2.43-.49,4.26-2.08,6.25-3.4,4.86-3.2,8.4-7.59,11.47-12.45,1.69-2.68,3.5-5.29,4.54-8.32,.07-.19,.53-.43,.71-.36,.95,.33,2,.57,2.77,1.17,3.35,2.61,6.63,5.32,9.9,8.03,.78,.65,1.45,1.43,2.12,2.19,.16,.18,.23,.62,.12,.81-3.07,5.37-6.38,10.54-11.2,14.58-4.22,3.53-8.95,6.16-13.96,8.35-1.07,.47-2.16,.35-3.08-.3-4.19-2.94-8.24-6.05-12.23-9.69Z"/></g><g id="aw"><path class="bk" d="M106.95,221.5c-3.59,1.91-7.19,3.72-9.89,7.05-.53-.63-1.12-1.15-1.49-1.8-3.4-5.91-7.84-11-12.51-15.91-6.17-6.48-12.31-12.99-18.62-19.34-3.5-3.52-7.32-6.71-10.99-10.06-.26-.24-.48-.52-.72-.78l.12-.28c1.44-.07,2.89-.17,4.33-.2,3.53-.07,7.06-.14,10.59-.1,.6,0,1.34,.41,1.76,.86,5.34,5.82,10.59,11.72,15.96,17.52,2.58,2.79,5.41,5.35,8,8.12,4.25,4.54,8.41,9.17,12.6,13.77,.3,.33,.53,.72,.85,1.14Z"/></g><g id="ax"><path class="bk" d="M56.4,293.55c1.21,1.35,2.31,2.52,3.35,3.73,1.87,2.18,3.69,4.4,5.56,6.58,.77,.9,.99,1.86,.69,3-.67,2.53-1.8,4.79-3.56,6.75-.8,.89-1.54,1.83-2.26,2.79-2.68,3.57-6.23,6.08-10.02,8.3-1.03,.61-2.18,.63-3.3,.23-5.03-1.81-9.97-3.82-14.7-6.35-.54-.29-1.01-.69-1.8-1.23,12.29-4.09,20.6-12.18,26.02-23.79Z"/></g><g id="ay"><path class="bk" d="M95.77,237.3c-.1-2.63,.78-4.91,2.4-6.95,2.96-3.76,6.59-6.5,11.38-7.41,3.95-.75,7.79-.28,11.48,1.36,2.08,.93,3.08,2.86,4.17,4.66,5.64,9.39-.49,19.75-9.59,21.79-2.83,.63-5.67,.12-8.42-.57-1.8-.45-3.6-1.13-5.22-2.03-4.24-2.39-6.19-5.97-6.19-10.85Zm25.39,.19c-.11-1.55-.53-3.48-1.81-5.07-2.16-2.67-4.9-4.01-8.42-3.5-2.63,.38-5.12,1.14-7.42,2.47-1.16,.67-1.37,1.32-.82,2.54,.28,.62,.64,1.21,1.04,1.77,.66,.92,1.37,1.81,2.07,2.71,2.02,2.6,4.02,5.2,6.07,7.78,.9,1.13,1.48,1.24,2.7,.49,1.06-.66,2.13-1.34,3.06-2.17,1.96-1.74,3.55-3.73,3.54-7.01Z"/></g><g id="b`"><path class="bk" d="M50.48,325.69c7.48-4.66,13.45-10.48,17.18-18.39l.29-.04c1.61,3.11,3.22,6.22,4.8,9.35,.19,.38,.2,.87,.24,1.31,.17,1.69-.42,3.1-1.55,4.32-.73,.79-1.38,1.65-2.13,2.42-2.18,2.25-4.76,3.48-7.99,3.24-3.62-.27-7.12-1.08-10.84-2.2Z"/></g><g id="ba"/><g id="bb"><path class="bp" d="M103.27,233.08c3.46-1.81,6.93-3.22,10.79-2.31,2.66,.63,4.74,2.23,5.41,5.04,.7,2.91-.16,5.38-2.56,7.24-.52,.4-1.08,.76-1.63,1.1-1.25,.77-2.03,.67-2.98-.44-2.16-2.52-4.3-5.06-6.45-7.59-.83-.98-1.66-1.96-2.59-3.04Z"/></g></g><g id="bc"><g id="bd"><path class="bo" d="M236.74,163.22c-.07-.05-.1-.14-.18-.25,.26-.15,.52-.29,.76-.45,2.52-1.63,4.07-3.89,3.77-6.95-.15-1.57-.75-3.12-1.34-4.61-1.63-4.17-3.16-8.4-5.67-12.16-.16-.24-.18-.56-.28-.84-.82-2.37-1.53-4.78-2.5-7.08-.96-2.25-2.37-4.25-4.63-5.44-.85-.45-1.82-.69-2.73-1.03h-2.16c-.29,.06-.57,.13-.86,.18-1.29,.23-2.67,.24-3.85,.73-2.95,1.22-5.85,2.57-8.69,4.02-2.56,1.31-5.06,2.69-7.96,3.11-1.21,.17-2.43,.39-3.59,.74-6.74,2.05-10.84,9.12-11.18,15.58-.15,2.71,.51,5.29,1.21,7.85,1.03,3.82,1.09,7.59-.08,11.41-.61,1.99-1.07,4.04-1.46,6.09-1.35,7.11-1.58,14.32-1.76,21.53-.11,4.7-.13,9.4-.04,14.1,.07,3.47,.29,6.94,.61,10.39,.35,3.87,.91,7.72,1.33,11.58,.1,.91,.45,1.6,1.21,2.08,.71,.45,1.43,.88,2.16,1.28,.5,.27,.69,.57,.44,1.15-1.06,2.53-1.6,5.18-1.86,7.91-.52,5.41-.01,10.6,1.58,15.55v.03c1.16,5.52,4.55,11.52,9.21,14.82,.01,0,.03,.02,.04,.03,.44,.35,.89,.7,1.37,1.01,2.3,1.51,4.79,2.16,7.52,1.57,1.01-.22,1.99-.84,2.99-.85,2.68-.05,5.39-.06,8.05,.25,5.18,.61,9.41-1.16,12.98-4.74,.87-.87,1.6-1.95,2.19-3.04,.88-1.64,1.26-3.38,.73-5.28-.2-.71-.12-1.54-.03-2.3,.26-2.04,.69-4.06,.87-6.11,.35-3.93,.08-7.82-.93-11.65-1.09-4.1-1.98-8.28-5.2-11.49,.46-.3,.83-.62,1.26-.81,.91-.42,1.15-1.11,1.03-2.05-.42-3.26-.77-6.53-1.22-9.79-.75-5.42-1.69-10.8-3.5-15.99-2.42-6.94-5.79-13.44-9.13-19.95-1.31-2.55-2.86-4.98-4.25-7.49-.22-.39-.38-1.08-.19-1.38,1.66-2.53,4.36-2.49,6.11-.25,1.38,1.76,2.98,2.47,5.13,2.18,1.81-.24,3.46-.92,5.01-1.85,2.11-1.28,4.33-2.01,6.83-1.58,.2,.03,.42,.01,.63,.01,1.67,0,3.36-1.73,3.18-3.38-.27-2.44-.71-4.82-2.92-6.38Z"/></g><g id="be"><g><path class="bl" d="M223.12,145.44c-.34,2.59,.74,4.45,2,6.29,.54,.78,.79,1.76,1.24,2.83h-6.18c.39,.81,.94,1.22,1.68,1.29,.59,.05,1.22,.06,1.77-.1,.96-.27,1.87-.36,2.76,.22,.54-1.33,.46-2.58-.05-3.81-.37-.88-.77-1.75-1.23-2.59-1.06-1.96-1.43-4.04-1.23-6.23,.03-.33,.03-.66,.04-.99,0-.04-.05-.09-.22-.36-.59,.67-1.22,1.23-1.67,1.91-1.9,2.93-3.82,5.86-5.59,8.87-.92,1.57-1.44,3.34-1.16,5.24,.3,2,1.56,3.2,3.4,4.16v-2.73l.29-.17c.23,.3,.45,.61,.7,.89,1.61,1.88,3.82,2.83,6,3.81,1.82,.82,3.64,.49,5.4-.21,2.1-.82,3.49-.6,4.99,1.1,1.2,1.36,2.15,2.88,2.08,4.82-.06,1.53-.86,2.21-2.37,2.08-2.61-.22-5.05,.29-7.25,1.78-1.4,.95-2.88,1.69-4.62,1.77-1.55,.07-2.62-.6-3.55-1.85-1.19-1.6-2.89-2.49-4.94-2.45-1.12,.03-1.98,.68-2.56,1.61-.67,1.06-1.64,1.52-2.81,1.41-6.96-.7-13.94-1.29-20.48-4.11-.93-.4-1.07-1.08-1.05-1.95,.06-2.57,.19-5.15,.1-7.72-.13-3.61-.49-7.22-.67-10.83-.37-7.6,5.3-14.61,12.83-15.48,5.87-.68,11-3.09,16.01-5.93,1.93-1.1,4.04-1.52,6.19-1.62,1.93-.09,3.56,.8,4.5,2.48,.94,1.68,1.63,3.51,2.36,5.3,.4,.96,.65,1.98,.99,2.97,.49,1.42,1.18,2.7,2.17,3.88,3.15,3.77,5.15,8.1,6.04,12.94,.23,1.22,.63,2.47,.55,3.68-.18,2.51-1.67,3.9-4.15,4.32-1.79,.3-3.55,.79-5.35,.98-.96,.11-2.08,0-2.94-.4-2.03-.94-3.98-2.04-5.9-3.2-2.76-1.67-3.64-4.39-2.43-7.54,.45-1.16,1.1-2.25,1.79-3.29,.67-1.01,1.51-1.9,2.47-3.09Z"/><path class="bl" d="M232.55,258.81c-1.87-.25-1.88-.25-1.41,1.5,.5,1.81,1.04,3.61,1.53,5.43,.37,1.4,.08,2.7-.85,3.78-.62,.72-1.3,1.42-2.08,1.96-2.59,1.8-5.35,3.29-8.47,3.95-3.18,.67-5.83-.32-8.03-2.66-.61-.65-1.22-1.3-1.83-1.95l-.37,.14c.05,.45,.05,.91,.15,1.35,.09,.4,.34,.78,.39,1.18,.02,.2-.22,.58-.4,.62-1.27,.29-2.55,.53-3.84,.77-3.08,.58-7.19,1.59-9.73-.2-4.67-3.3-8.52-9.33-9.67-14.85-.99-4.69,1.52-9.71,1.45-14.47-.04-2.64,.26-5.19,1.12-7.67,.47-1.36,.73-1.52,2.1-1.14,6.71,1.88,13.46,1.57,20.15,.07,4.54-1.02,8.98-2.45,13.47-3.71,1.36-.38,1.62-.29,2.33,.92,2.2,3.74,3.81,7.71,4.63,11.98,.51,2.65,.12,5.31-.12,7.96-.12,1.28-.2,2.56-.32,3.84-.04,.41-.13,.81-.2,1.2Z"/><path class="bk" d="M220.93,195.4c2.57,6.58,4.39,13.31,6.25,20.28-2.59,.69-5.09,1.46-7.65,2.01-6.39,1.38-12.88,1.59-19.38,1.07-4.8-.39-9.4-1.68-13.87-3.44-.36-.14-.78-.74-.78-1.13-.05-5.27-.03-10.54-.03-15.81,0-.17,.06-.34,.12-.63,11.98,2.34,23.73,1.38,35.33-2.35Z"/><path class="bk" d="M188.35,171.48c2.08,.83,4.05,1.66,6.06,2.4,4.25,1.56,8.63,2.38,13.18,2.12,2.18-.13,3.95,.62,5.08,2.55,2.72,4.61,5.35,9.26,7.3,14.27,.09,.22,.15,.45,.29,.9-1.67,.57-3.31,1.19-4.98,1.68-5.55,1.63-11.23,2.35-17.01,1.99-4.04-.25-8-.94-11.89-2.06-.77-.22-.94-.63-.84-1.39,.84-6.43,1.65-12.86,2.46-19.29,.13-1.03,.23-2.06,.36-3.15Z"/><path class="bk" d="M227.95,217.06c.6,3.7,1.21,7.26,1.73,10.82,.19,1.29-.03,1.55-1.2,2.08-3.67,1.68-7.36,3.34-11.38,3.97-2.36,.37-4.75,.49-7.14,.65-2.39,.16-4.79,.39-7.17,.28-2.95-.13-5.88-.52-8.81-.9-1.86-.24-3.71-.63-5.56-.98-1.26-.24-1.79-.87-1.89-2.13-.29-3.88-.57-7.75-.86-11.63-.01-.18,0-.36-.03-.54-.1-.77,.19-1.03,.97-.85,2.27,.52,4.55,.98,6.82,1.51,3.53,.82,7.12,1.41,10.74,1.3,3.55-.11,7.09-.5,10.62-.92,4.38-.52,8.75-1.17,13.16-2.68Z"/></g></g></g><g id="bf"><g id="bg"><path class="bo" d="M134.78,149c1.62-2.11,3.23-4.24,4.82-6.38,.76-1.02,.59-1.67-.52-2.29-1.05-.59-1.97-.37-2.96,.26-1.88,1.2-3.83,2.28-5.76,3.41-.05,.03-.15-.02-.27-.04,.02-.19,.04-.35,.07-.52,.27-1.63-.09-2.96-1.72-3.72-.65-.31-.68-.8-.45-1.43,1.11-3.03,2.18-6.08,3.29-9.11,.57-1.55,.37-2.98-.55-4.32-.37-.54-.76-1.08-1.2-1.57-1.25-1.39-1.88-2.98-1.74-4.87,.03-.42,.03-.88-.08-1.28-.6-2.2-1.2-4.4-1.87-6.58-.47-1.51-1.06-2.98-1.63-4.57,.35,.06,.54,.11,.73,.14,1.67,.24,2.78-.65,2.73-2.32-.02-.84-.19-1.71-.47-2.5-.53-1.48-1.17-2.92-1.83-4.34-1.41-3.09-2.76-6.22-4.31-9.24-1.11-2.15-3.28-2.23-4.83-.39-.53,.63-1.05,1.26-1.61,1.94-8.34-8.24-18.16-12.71-29.98-12.28-.14-2.32-.26-4.51-.39-6.76,.68-.07,1.24-.15,1.81-.18,1.83-.11,2.49-1.1,1.93-2.82-.36-1.11-.7-2.24-.92-3.38-.56-2.89-.43-5.82-.2-8.73,.47-6.02,.85-12.05,1.45-18.06,.7-7.01,2.16-13.9,4.03-20.68,1.03-3.74,2.39-7.39,3.56-11.1,.83-2.64-.4-4.41-3.13-4.51-6.55-.26-13.11-.4-19.65-.73-5.12-.26-10,.52-14.52,2.96-3.02,1.63-6.01,3.34-8.88,5.21-6.78,4.43-13.13,9.43-18.68,15.36-7.81,8.36-13.51,18.1-17.99,28.55-4.24,9.9-6.01,20.36-6.18,31.1-.08,5.06,.53,10.06,1.26,15.04,.96,6.54,2.79,12.84,5.52,18.86,5.03,11.11,12.29,20.69,20.52,29.58,4.3,4.64,9.24,8.56,14.22,12.43,2.81,2.18,5.64,4.31,8.92,5.75,1.47,.65,2.97,.93,4.45,.08,.74-.42,1.44-.93,2.1-1.47,.96-.78,1.86-.86,2.99-.18,1.4,.86,1.52,1.17,1.2,2.63-.76,3.43-1.54,6.86-2.22,10.31-.16,.81-.22,1.85,.15,2.51,1.63,2.83,3.72,5.27,6.96,6.32,3.26,1.05,6.58,1.93,9.84,2.96,1.13,.36,2.18,.96,3.28,1.43,.94,.4,1.86,.97,2.85,1.12,1.51,.22,3.07,.21,4.6,.19,1.79-.03,2.13-.44,2.14-2.23,.01-1.51,0-3.01,0-4.54,2.93,.61,7.09,3.04,9.4,5.58,1.33,1.46,2.6,2.98,3.83,4.52,2.39,2.98,5.52,5.14,8.34,7.65,1.46,1.3,3.33,1.88,5.23,2.24,.77,.15,1.56,.14,2.36,.2,.33-2.77-1.18-5.03-1.3-7.58,1.07,1.32,2.13,2.63,3.02,4.05,.95,1.51,1.92,2.97,3.51,3.89h1.38c.97-.88,1.67-1.93,1.86-3.25,.19-1.36,.36-2.72,.54-4.08,.15-1.11,.31-2.23,.46-3.34l.23-.06c.75,.97,1.45,1.97,2.26,2.88,.32,.36,.88,.71,1.33,.72,.67,.02,1.01-.58,1.1-1.23,.06-.39,.12-.8,.07-1.19-.19-1.39-.43-2.77-.64-4.15-.43-2.83-1.3-5.48-2.94-7.88-1.29-1.89-2.42-3.88-3.58-5.86-.31-.53-.6-1.15-.65-1.74-.13-1.71-.21-3.44-.15-5.15,.14-4.44,.26-8.87-.39-13.29-.27-1.84,.1-3.52,1.39-4.95,.86-.96,1.67-1.96,2.46-2.98Z"/></g><g id="bh"><g><path class="bp" d="M66.11,3.79c-.15,1.83-.31,3.56-.42,5.3-.19,3.17-.41,6.34-.51,9.52-.1,3.44-.15,6.88-.08,10.31,.13,5.95,.59,11.89,1.43,17.79,1.09,7.58,2.83,14.99,5.45,22.19,.03,.08,.04,.16,.09,.39-2.15,1.19-4.33,2.38-6.49,3.59-9.2,5.16-14.67,13.07-17.02,23.23-.88,3.81-1.44,7.69-.86,11.58,.96,6.46-.04,12.91,0,19.36,.03,5.05,1.1,9.8,3.16,14.37,2.08,4.62,4.88,8.8,7.79,12.92,.96,1.36,1.54,2.76,1.28,4.48-.23,1.52-.28,3.06-.43,4.81-1.43-.72-2.71-1.23-3.84-1.96-2.47-1.6-4.95-3.21-7.27-5.02-2.98-2.33-5.79-4.87-8.69-7.3-3.11-2.61-5.81-5.6-8.31-8.79-2.5-3.21-5.01-6.41-7.5-9.62-3.01-3.87-4.71-8.4-6.55-12.88-2.65-6.47-4.89-13.05-6.23-19.93-1.39-7.15-1.92-14.32-1.35-21.6,1.28-16.22,7.04-30.71,16.61-43.76,8.41-11.47,19.04-20.29,31.89-26.39,2.2-1.05,4.62-1.64,6.94-2.44,.26-.09,.54-.1,.91-.16Z"/><path class="bp" d="M74.49,145.59c-.31,.21-.56,.37-.79,.54-.52,.38-.57,.87-.16,1.33,2.32,2.61,4.66,5.21,7,7.81,.21,.23,.48,.42,.75,.57,2.32,1.28,3.24,3.34,3.36,5.89,.35,7.26,.69,14.52,1.08,21.78,.13,2.29,.19,2.26-2.41,2.24-4.24-.04-7.88-1.77-11.13-4.37-1.18-.95-2.27-2.01-3.43-2.99-.81-.69-1.02-1.51-.8-2.53,.78-3.52,1.53-7.04,2.29-10.56,.33-1.54,.27-1.76-1.03-2.65-10.17-6.97-16.04-16.72-18.49-28.67-.76-3.71-1.19-7.47-1.12-11.26,.2-11.58,3.78-21.94,11.59-30.61,4.66-5.16,10.25-9.09,17.08-10.86,10.95-2.84,21.04-.75,30.23,5.75,1.75,1.24,3.31,2.73,4.96,4.1,.65,.54,.55,1.1,.14,1.74-1.93,2.98-3.81,5.99-5.78,8.95-.81,1.22-.98,2.41-.58,3.81,3.13,11.17,6.21,22.35,9.31,33.53,.22,.8,.14,1.52-.46,2.15-.94,1-1.87,2.01-2.8,3.03-.43,.47-.94,.55-1.3,.03-.38-.54-.74-1.17-.86-1.81-1.97-10.8-3.91-21.6-5.84-32.41-.32-1.8-.61-3.61-.88-5.42-.17-1.14-.74-1.88-1.78-2.43-4.64-2.43-9.23-4.93-13.86-7.38-1.67-.88-3.37-1.71-5.07-2.52-1.28-.61-1.57-.51-2.24,.77-3.58,6.78-7.14,13.56-10.72,20.34-2.19,4.15-4.39,8.29-6.62,12.41-1.13,2.09-1.12,2.61,.5,4.4,2.93,3.22,5.89,6.41,8.8,9.65,3.23,3.6,6.43,7.24,9.61,10.88,.22,.26,.2,.73,.29,1.1-.38-.09-.84-.06-1.12-.27-2.59-1.99-5.15-4.02-7.75-6.06Z"/><path class="bk" d="M78.44,2.87c4.45,.14,8.8,.28,13.15,.42,1,.03,1.25,.36,.91,1.3-2.31,6.47-3.43,13.21-4.57,19.95-.91,5.38-1.79,10.78-2.51,16.19-.57,4.28-.8,8.6-1.31,12.89-.4,3.39,.39,6.67,.63,10,.08,1.08,.22,2.16,.37,3.24,.1,.73-.37,.88-.92,.95-1.84,.24-3.69,.47-5.53,.72-1.08,.14-2.16,.28-3.22,.48-.62,.12-.95,.01-1.23-.64-2.86-6.75-4.63-13.81-5.91-21-1.19-6.66-1.64-13.4-1.95-20.15-.22-4.87-.27-9.75,.44-14.57,.42-2.87,1.25-5.68,1.93-8.51,.16-.68,.64-1,1.4-1.01,2.81-.06,5.61-.17,8.32-.26Z"/><path class="bm" d="M137.19,193.63c-1.64-1.97-3.13-3.78-4.65-5.56-.39-.45-.89-.81-1.44-1.14,.62,5.27,1.06,10.46,.03,15.95-.88-1.1-1.71-1.98-2.36-2.98-1.83-2.8-4.01-5.22-6.95-6.88-.33-.19-.7-.3-1.22-.52,.57,2.43,1.09,4.67,1.61,6.91,.17,.72,.32,1.45,.51,2.17,.15,.56-.11,.71-.57,.57-.62-.19-1.31-.34-1.83-.71-3.63-2.55-7.34-5.02-10.17-8.52-1.3-1.6-2.53-3.26-3.87-4.83-2.33-2.75-5.17-4.76-8.67-5.74-.11-.03-.21-.1-.32-.13-1.89-.53-3.07-1.53-2.99-3.74,.08-2.34-.1-4.69-.16-7.04,0-.19,.08-.38,.15-.67,1.13,.47,2.21,.9,3.27,1.36,2.73,1.18,5.5,2.3,8.49,2.57,2.01,.18,4.05,.14,6.07,.13,.86,0,1.05-.32,.86-1.16-.46-2.09-.95-4.17-1.42-6.26-.2-.86-.4-1.72-.58-2.59-.08-.37-.18-.78,.4-.82,.49-.03,1.05-.64,1.41,.29,.78,2.05,1.58,4.11,2.48,6.11,.56,1.24,1.31,2.39,2.06,3.73,1.19-1.38,2.25-2.6,3.31-3.83,.66-.77,.83-.74,1.73-.24,3.7,2.05,6.11,5.35,8.33,8.75,1.92,2.93,3.57,6.05,5.22,9.15,.96,1.79,1.3,3.75,1.27,5.68Z"/><path class="bl" d="M102.71,137.75c-.77-.49-1.38-.85-1.96-1.26-1.6-1.13-3.91-.35-4.76,1.05-.32,.52-.39,1.36-.22,1.97,.27,1,.77,1.96,1.28,2.87,.64,1.12,.64,1.51-.31,2.37-.95,.87-1.91,1.74-2.89,2.57-.96,.82-1.46,.82-2.41,.02-4.94-4.18-9.85-8.4-14.21-13.21-1.56-1.72-3.18-3.38-4.8-5.1,4.37-8.99,8.83-18.18,13.35-27.49,1.08,.62,1.99,1.14,2.89,1.67,3.39,1.98,6.76,3.97,10.16,5.92,1.41,.81,1.69,2.16,1.82,3.58,.63,6.9,1.26,13.79,1.88,20.69,.1,1.14,.2,2.28,.29,3.42,.02,.24-.05,.49-.09,.92Zm-1.93-7.56l.16-.45c-.53-.39-1.01-.85-1.59-1.14-.78-.4-1.29-.96-1.39-1.82-.27-2.41-1.51-4.36-2.94-6.19-1.79-2.29-5.6-2.45-7.52-.27-1.69,1.91-2.68,4.19-2.83,6.76-.05,.92-.26,1.65-1.04,2.21-.3,.21-.46,.61-.68,.92,.39,.13,.77,.27,1.17,.38,.1,.03,.23,0,.34-.02,2.73-.26,5.46-.55,8.2-.77,2-.16,3.99-.2,5.96,.35,.67,.19,1.44,.03,2.16,.03Z"/><path class="bk" d="M109.08,143.43c-1.41-.62-2.74-1.13-3.99-1.79-.34-.18-.6-.78-.64-1.21-.44-5.51-.83-11.01-1.25-16.52-.33-4.34-.67-8.67-1.02-13.01-.09-1.11-.65-1.96-1.62-2.48-4.72-2.57-9.45-5.12-14.19-7.66-.89-.48-1.22-.36-1.73,.68-2.53,5.09-5.05,10.19-7.55,15.3-1.9,3.88-3.74,7.78-5.63,11.66-.4,.82-.25,1.42,.39,2.06,6.06,6.1,12.1,12.22,18.14,18.33,.15,.15,.28,.33,.55,.63-1.58,.59-3.03,1.15-4.5,1.64-.21,.07-.62-.13-.81-.33-5.84-6.34-11.68-12.68-17.47-19.06-.86-.95-1.54-2.06-2.29-3.11-.32-.44-.26-.86,0-1.35,5.66-10.37,11.29-20.75,16.94-31.12,.63-1.16,.66-1.21,1.88-.67,3.65,1.63,7.28,3.32,10.93,4.97,2.08,.95,4.15,1.92,6.27,2.79,1.29,.53,1.9,1.45,2.1,2.78,1.36,9.02,2.73,18.03,4.1,27.05,.46,3.03,.91,6.05,1.35,9.08,.06,.39,.04,.79,.07,1.33Z"/><path class="bm" d="M74.39,146.58c1.42,1.14,2.85,2.27,4.25,3.42,1.06,.87,2.12,1.75,3.16,2.65,.61,.53,1.23,.62,1.98,.32,3.09-1.28,6.18-2.54,9.27-3.82,2.26-.94,3.89-2.71,5.57-4.37,2.24-2.22,1.93-2.03,4.73-1.09,2.52,.84,5.06,1.63,7.56,2.52,1.13,.4,2.02,.19,2.93-.54,1.59-1.26,3.24-2.46,4.88-3.66,1.12-.82,1.56-.77,2.52,.19,.98,.97,1.97,1.92,2.91,2.92,1.61,1.72,3.43,2.08,5.6,1.13,2.36-1.03,4.46-2.45,6.49-3.99,.43-.33,.9-.6,1.35-.9l.27,.21c-.17,.46-.26,.96-.52,1.36-2.5,3.77-5.61,7.02-8.76,10.23-.62,.63-1.43,.81-2.3,.57-2.56-.71-5.09-1.52-7.67-2.12-3.47-.81-6.97-1.51-10.48-2.18-1.6-.31-3.09,.14-4.25,1.33-2.72,2.79-6.14,4.09-9.91,4.64-2.43,.36-4.86,.7-7.28,1.12-2.02,.35-3.72-.12-5.15-1.62-2.27-2.39-4.56-4.74-6.83-7.13-.25-.26-.4-.62-.59-.93l.28-.24Z"/><path class="bk" d="M82.04,69.49c.13,2.12,.25,4.08,.37,6.05,.01,.17,0,.34,.01,.52,.09,2.15,.1,2.18-2.05,2.7-4.24,1.02-8.37,2.34-12.14,4.59-7.24,4.31-12.27,10.56-15.73,18.14-1.03,2.26-1.95,4.57-2.93,6.86-.11,.26-.23,.51-.35,.79-1.74-2.11,.2-14.77,3.31-20.28,6.47-11.44,15.8-18.65,29.5-19.35Z"/><path class="bl" d="M123.32,142.35c-.82-.23-1.21-.73-1.35-1.42-.09-.45-.13-.9-.18-1.36-.2-1.85-1.44-2.97-3.3-2.88-.66,.03-.97-.16-1.17-.8-.66-2.16-1.38-4.29-2.06-6.44-.34-1.07-.08-1.49,1.05-1.62,2.64-.3,5.29-.56,7.94-.84,.38-.04,.76-.13,1.14-.2l.08-.26c-.49-.29-.95-.63-1.47-.85-.66-.29-1.02-.71-1.19-1.43-.5-2.07-1.86-3.44-3.78-4.26-.93-.4-1.86-.18-2.74,.25-.92,.45-1.81,.95-2.82,1.49-.29-1.13-.54-2.23-.84-3.31-.59-2.15-1.21-4.29-1.82-6.43-.24-.84-.19-1.66,.3-2.39,1.96-2.89,3.93-5.77,5.95-8.71,3.95,3.73,7.12,7.83,8.03,13.31,.38,2.3,.49,4.6,.22,6.93-.13,1.14,.3,2.07,1.14,2.83,.63,.58,1.26,1.17,1.9,1.74,.95,.85,1.28,1.9,.94,3.11-.41,1.42-.8,2.87-1.4,4.22-1.23,2.77-2.59,5.47-3.91,8.2-.18,.38-.42,.74-.65,1.15Z"/><path class="bk" d="M91.76,156.97c.15,1.73,.31,3.42,.45,5.12,.28,3.42,.57,6.84,.81,10.26,.19,2.71,.34,5.42,.44,8.14,.09,2.4,.1,4.81,.13,7.21,.01,1.06-.31,1.38-1.37,1.39-1,.01-2.01,.03-3.01,0-1.55-.06-2.32-.81-2.37-2.35-.13-3.63-.22-7.26-.35-10.89-.21-5.6-.45-11.2-.67-16.8-.01-.26,0-.52,0-.77-.02-.57,.22-.8,.81-.84,1.65-.11,3.3-.29,5.14-.45Z"/><path class="bl" d="M97.23,155.91l1.47,2.16c-.58,.39-1.15,.73-1.66,1.13-.47,.37-.61,.88-.09,1.31,2.94,2.4,6.15,4.19,10.1,4.13,.66,0,1.31-.11,1.97-.16,.65-.06,1.04,.26,1.16,.89,.49,2.52,.98,5.05,1.43,7.58,.14,.78-.34,1.2-1.31,1.11-1.82-.18-3.65-.34-5.44-.69-3.38-.66-6.58-1.89-9.71-3.3-.83-.37-1.2-.94-1.24-1.85-.17-3.34-.38-6.68-.62-10.02-.06-.82,.15-1.28,1.02-1.46,.95-.19,1.87-.52,2.92-.82Z"/><path class="bk" d="M118.92,87.65c.79,1.39,1.61,2.61,2.2,3.92,1.44,3.23,2.78,6.51,4.16,9.77,.4,.94,.55,1.85-.27,2.78-1.99-2.6-3.94-5.16-5.95-7.79-.17,.2-.33,.35-.45,.52-2.66,3.62-5.31,7.25-7.97,10.87-.16,.21-.41,.35-.61,.53-.14-.22-.33-.43-.4-.67-.27-.9-.58-1.8-.71-2.73-.09-.67-.13-1.51,.19-2.05,3-5.13,6.09-10.22,9.82-15.15Z"/><path class="bl" d="M113.15,163.84c.7-.45,1.36-.89,2.03-1.31,1.13-.7,1.84-1.7,2.23-2.95,.36-1.17-.12-1.91-1.35-2-.77-.06-1.07-.39-.98-1.15,.15-1.36,.26-2.73,.4-4.18,1.32,.25,2.62,.43,3.87,.78,.32,.09,.68,.7,.7,1.08,.07,1.46-.03,2.92,0,4.38,.04,3.12,.07,6.24,.18,9.36,.07,1.9-1.07,3-2.43,3.84-.57,.35-.92-.07-1.15-.53-.65-1.27-1.28-2.55-1.9-3.84-.54-1.13-1.04-2.28-1.59-3.48Z"/><path class="bk" d="M114.23,154.19c0,1.29,0,2.32,0,3.35,0,.71-.37,1.2-1.02,1.45-3.11,1.21-6.31,1.66-9.56,.76-.9-.25-1.75-.93-2.43-1.61-.71-.72-1.19-1.67-1.75-2.53-.09-.14-.17-.41-.1-.52,.07-.12,.33-.17,.51-.16,.34,.02,.69,.05,1.01,.16,2.65,.9,5.35,.68,8.05,.34,.23-.03,.46-.02,.69-.01,1.58,.05,3.15,.06,4.6-1.23Z"/><path class="bp" d="M129.23,174.37c-2.11-1.14-3.02-2.83-3.1-5.08-.15-4.52-.37-9.03-.54-13.55-.04-1.06,.07-1.06,1.12-1.08,2.04-.04,2.03,.71,2.12,2.25,.19,3.23,.27,6.46,.37,9.69,.07,2.2,.12,4.4,.16,6.61,0,.35-.08,.71-.13,1.15Z"/><path class="bk" d="M125.45,170.53c-2.2-.42-3.89-2.4-3.98-4.68-.11-2.95-.13-5.89-.18-8.84-.02-1.08,0-2.16,0-3.41,.98,.22,1.85,.34,2.66,.63,.28,.1,.56,.59,.59,.93,.21,2.42,.36,4.85,.51,7.27,.15,2.45,.27,4.91,.41,7.37,.01,.22,0,.45,0,.74Z"/><path class="bl" d="M98.38,160.31c.25-.99,.72-1.1,1.44-.77,2.4,1.09,4.94,1.6,7.55,1.81,2.3,.19,4.42-.32,6.4-1.52,1.49-.91,1.61-.9,2.79-.39-.28,.48-.46,1.04-.84,1.39-.51,.48-1.12,.96-1.78,1.15-1.9,.53-3.82,.97-5.76,1.32-2.41,.43-4.64-.35-6.78-1.37-1.05-.5-2.05-1.09-3.02-1.61Z"/><path class="bj" d="M101.72,154.03c2.06-1.82,4.08-3.16,6.89-2.71,1.46,.23,2.97,.09,4.46,.12,.42,0,.84,0,1.28,0-.25,1.51-1.59,2.86-2.96,2.89-2.63,.06-5.26,.04-7.89,.01-.55,0-1.1-.19-1.79-.31Z"/><path class="bl" d="M103.22,140.78c-1.52-.22-2.75,.24-3.89,1.13-.77,.61-1.24,.48-1.71-.4-.25-.47-.46-1-.55-1.52-.17-.96,.09-1.84,.89-2.46,.78-.61,1.66-.55,2.52-.18,1.69,.72,2.53,1.77,2.74,3.43Z"/><path class="bk" d="M117.39,100.26l1.59-2.38c1.68,1.97,3.31,3.89,4.93,5.8-.86,1.11-1.53,1.28-2.38,.51-1.4-1.26-2.73-2.58-4.13-3.93Z"/><path class="bp" d="M128.34,143.95c0,.46,0,.91,0,1.37,.01,.61-.32,.84-.87,.75-1.46-.25-2.45-1.17-3.17-2.39-.13-.21-.06-.63,.06-.89,.29-.64,.65-1.26,1.02-1.87,.09-.15,.31-.28,.48-.3,1.17-.17,2.48,.95,2.52,2.13,.01,.4,0,.8,0,1.2h-.05Z"/><path class="bj" d="M116.88,126.16c-.41,.12-.7,.23-.99,.3-1.02,.25-1.39,.02-1.67-1.01q-.68-2.5,1.54-3.74c.42-.23,.84-.46,1.39-.76-.29,1.78-1.24,3.41-.27,5.21Z"/><path class="bk" d="M60.68,162.49l.54-5.12,2.95,2.54-3.2,2.71-.29-.13Z"/><path class="bm" d="M118.89,122.01c1.27,.02,2.24,1.58,1.77,2.54-.07,.15-.14,.34-.26,.43-.46,.34-.95,.93-1.41,.9-.76-.04-1.06-.86-1.07-1.54,0-.63,.21-1.27,.42-1.88,.08-.23,.43-.36,.54-.45Z"/><path class="bl" d="M119.27,140.43c-.85,0-1.25-.5-1.27-1.57-.01-.75,.38-1.25,.98-1.24,.74,.01,1.63,1.06,1.62,1.93,0,.93-.7,.87-1.34,.88Z"/><path d="M100.78,130.19c-.72,0-1.49,.16-2.16-.03-1.97-.56-3.97-.51-5.96-.35-2.74,.22-5.47,.51-8.2,.77-.11,.01-.24,.05-.34,.02-.39-.12-.78-.25-1.17-.38,.22-.31,.38-.71,.68-.92,.79-.56,.99-1.29,1.04-2.21,.15-2.57,1.14-4.85,2.83-6.76,1.92-2.18,5.73-2.02,7.52,.27,1.44,1.83,2.67,3.78,2.94,6.19,.1,.86,.61,1.42,1.39,1.82,.57,.29,1.06,.75,1.59,1.14l-.16,.45Zm-6.97-8.16c-2.51-2.13-5.31-1.82-6.64,.69-.98,1.85-.98,3.93-1.33,6.04l5.36-.41c-.93-2.88,.35-4.78,2.62-6.32Zm1.69,1.34c-1.29,.54-2.3,1.21-2.78,2.43-.27,.69-.37,1.39,.21,1.99,.56,.58,1.24,.5,1.9,.23,.76-.31,1.22-.89,1.15-1.72-.09-.96-.3-1.9-.48-2.94Z"/><path class="bj" d="M93.81,122.03c-2.27,1.54-3.54,3.44-2.62,6.32l-5.36,.41c.35-2.11,.35-4.19,1.33-6.04,1.33-2.51,4.13-2.82,6.64-.69Z"/><path class="bm" d="M95.5,123.37c.17,1.04,.39,1.98,.48,2.94,.08,.83-.39,1.41-1.15,1.72-.66,.27-1.34,.35-1.9-.23-.58-.6-.48-1.3-.21-1.99,.49-1.23,1.49-1.89,2.78-2.43Z"/></g></g><g id="bi"><g><g><path d="M95.75,112.16c-.15,.75-.28,1.51-.45,2.25-.16,.72-.67,1.09-1.38,1.03-3.44-.26-6.55,.72-9.48,2.44-.17,.1-.37,.23-.55,.22-.57-.05-1.28,.03-1.65-.28-.49-.42-.07-1.04,.24-1.54,2.16-3.46,5.1-5.98,8.92-7.47,2.56-1,4.21,.11,4.25,2.89,0,.14,0,.29,0,.43l.1,.02Z"/><path class="bm" d="M83.41,116.64c2.49-3.57,5.6-5.9,9.56-7.07,.61-.18,.93,.05,.97,.69,.05,.97,.11,1.94,.17,2.91,.04,.75-.4,1.24-1.06,1.2-3.21-.22-6.02,1.16-8.93,2.12-.16,.05-.32,.07-.71,.16Z"/></g><g><path d="M122.59,118.03c-.97-.58-1.98-1.11-2.9-1.76-1.47-1.02-2.98-1.88-4.77-2.23-.69-.13-1.33-.51-2-.76-.48-.18-.67-.52-.54-1.01,.31-1.19,.6-2.38,.95-3.56,.23-.78,.69-1.01,1.45-.71,4.01,1.62,6.66,4.52,8,8.62,.12,.38,.06,.82,.08,1.23l-.26,.16Z"/><path class="bm" d="M113.44,112.66c3.19,.4,5.72,2.07,8.32,3.73-.37-2.69-5.23-7.43-7.52-7.23-.25,1.13-.52,2.28-.79,3.5Z"/></g></g></g></g></svg>